<svg id="Capa_1" data-name="Capa 1" xmlns="http://www.w3.org/2000/svg" viewBox="0 0 900 900"><defs><style>.cls-1{fill:#3d3e7a;}.cls-2{fill:#31397a;}</style></defs><title>SEGULOGO</title><path class="cls-1" d="M58.78,421.9v4.63q0,37,31,37h38.69q7.74,0,7.74,9.25v4.62q0,9.25-7.74,9.25H58.78v27.75h69.64q31,0,31-37v-4.62q0-37-31-37H89.73q-7.74,0-7.74-9.25V421.9q0-9.24,7.74-9.25h69.65V384.91H89.73Q58.77,384.91,58.78,421.9Z"/><path class="cls-1" d="M171.68,421.9v55.49q0,37,31,37h69.64V486.64H202.64q-7.74,0-7.74-9.25V463.52h77.38V435.78H194.9V421.9q0-9.24,7.74-9.25h69.64V384.91H202.64Q171.68,384.91,171.68,421.9Z"/><path class="cls-1" d="M385.19,476.53V445h-50.3v27.75H362v4.62q0,9.25-7.73,9.25h-38.7q-7.74,0-7.74-9.25V421.9q0-9.24,7.74-9.25h69.65V384.91H315.54q-30.94,0-31,37v55.49q0,37,31,37h69.65V476.53Z"/><path class="cls-1" d="M456.65,434.17v13.34H417.89q-17.24,0-17.23-17.78V403.05q0-17.79,17.23-17.79h38.76V398.6H417.89q-4.31,0-4.31,4.45v26.68q0,4.44,4.31,4.44Z"/><path class="cls-1" d="M482.44,385.26H504q17.22,0,17.28,17.79v26.68q0,17.77-17.23,17.78H482.44q-17.24,0-17.23-17.78V403.05Q465.21,385.26,482.44,385.26Zm-4.31,17.79v26.68q0,4.44,4.31,4.44H504q4.36,0,4.36-4.44V403.05q0-4.46-4.36-4.45H482.44Q478.14,398.6,478.13,403.05Z"/><path class="cls-1" d="M748.39,385.26h21.54q17.22,0,17.28,17.79v26.68q0,17.77-17.23,17.78H748.39q-17.22,0-17.22-17.78V403.05Q731.17,385.26,748.39,385.26Zm-4.3,17.79v26.68q0,4.44,4.3,4.44h21.54c2.9,0,4.36-1.48,4.36-4.44V403.05c0-3-1.46-4.45-4.36-4.45H748.39Q744.09,398.6,744.09,403.05Z"/><path class="cls-1" d="M548.89,385.26h23.85q19.08,0,19.08,17.79v44.46H577.51V403.05q0-4.46-4.77-4.45H548.89q-4.77,0-4.77,4.45v44.46H529.81V399.82c0-8,7.48-14.56,16.71-14.56H552"/><path class="cls-1" d="M621.6,398.6H600.07V385.26h56V398.6H634.52v48.91H621.6Z"/><path class="cls-1" d="M707.74,429.67V427.5q0-4.44-4.36-4.44H677.54v24.45H664.62V385.26h38.76q17.24,0,17.28,17.79v2.22q0,6.9-2.58,11.12,2.58,4.22,2.58,11.11v2.23h0v17.78H707.69V429.73Zm-30.25-19.95h25.89q4.36,0,4.36-4.45v-2.22q0-4.46-4.36-4.45H677.54Z"/><path class="cls-1" d="M841.22,434.17v13.34H815q-17.22,0-17.23-17.78V385.26h12.92v44.47q0,4.44,4.31,4.44Z"/><path class="cls-2" d="M429,482.26q12.61,0,12.62,15.45v1.93q0,15.45-12.62,15.45H400.66V503.5H429c2.1,0,3.15-1.28,3.15-3.86v-1.93q0-3.85-3.15-3.86H413.27q-12.61,0-12.61-15.45v-1.94q0-15.45,12.61-15.45h28.39V472.6H413.27q-3.15,0-3.15,3.86v1.94q0,3.86,3.15,3.86Z"/><path class="cls-2" d="M572.35,482.26q12.61,0,12.62,15.45v1.93q0,15.45-12.62,15.45H544V503.5h28.38c2.1,0,3.16-1.28,3.16-3.86v-1.93c0-2.57-1.06-3.86-3.16-3.86H556.58Q544,493.85,544,478.4v-1.94Q544,461,556.58,461H585V472.6H556.58q-3.15,0-3.15,3.86v1.94q0,3.86,3.15,3.86Z"/><path class="cls-2" d="M447.93,500.55h11.82V515H447.93Z"/><path class="cls-2" d="M524.66,500.55h11.83V515H524.66Z"/><path class="cls-1" d="M507.19,513.88l-10.34-35.4a4.26,4.26,0,0,0-8.35-.06l-10.79,35.46h-9.19l11.94-43.43c1.73-5.75,6.24-9.07,12.36-9.07s10.48,3.2,12.27,8.78l12.83,43.72Z"/></svg>