G75*
%MOIN*%
%OFA0B0*%
%FSLAX25Y25*%
%IPPOS*%
%LPD*%
%AMOC8*
5,1,8,0,0,1.08239X$1,22.5*
%
%ADD10OC8,0.06350*%
%ADD11OC8,0.07600*%
%ADD12C,0.07874*%
%ADD13C,0.02400*%
%ADD14C,0.01600*%
D10*
X0275312Y0077831D03*
X0285312Y0077831D03*
D11*
X0204012Y0079799D03*
X0194012Y0079799D03*
X0184012Y0079799D03*
X0174012Y0079799D03*
X0164012Y0079799D03*
X0154012Y0079799D03*
X0144012Y0079799D03*
D12*
X0147442Y0063109D03*
X0121842Y0063109D03*
X0121842Y0045309D03*
X0147442Y0045309D03*
X0194677Y0045309D03*
X0220277Y0045309D03*
X0267512Y0045309D03*
X0293112Y0045309D03*
X0293112Y0063109D03*
X0267512Y0063109D03*
X0220277Y0063109D03*
X0194677Y0063109D03*
X0074608Y0063109D03*
X0049008Y0063109D03*
X0049008Y0045309D03*
X0074608Y0045309D03*
D13*
X0032075Y0044459D02*
X0032075Y0034318D01*
X0315950Y0034318D01*
X0315950Y0044459D01*
X0314278Y0043493D01*
X0311353Y0042709D01*
X0308325Y0042709D01*
X0305401Y0043493D01*
X0302779Y0045007D01*
X0300638Y0047148D01*
X0299124Y0049770D01*
X0298340Y0052695D01*
X0298340Y0055415D01*
X0298287Y0055363D01*
X0294929Y0053972D01*
X0291294Y0053972D01*
X0287936Y0055363D01*
X0285366Y0057933D01*
X0283975Y0061291D01*
X0283975Y0064926D01*
X0285366Y0068284D01*
X0286537Y0069456D01*
X0281843Y0069456D01*
X0280312Y0070987D01*
X0278781Y0069456D01*
X0275422Y0069456D01*
X0274773Y0068807D01*
X0274746Y0068796D01*
X0275258Y0068284D01*
X0276649Y0064926D01*
X0276649Y0061291D01*
X0275258Y0057933D01*
X0272687Y0055363D01*
X0269329Y0053972D01*
X0265694Y0053972D01*
X0262336Y0055363D01*
X0260990Y0056709D01*
X0258398Y0056709D01*
X0252273Y0050583D01*
X0250472Y0048783D01*
X0248120Y0047809D01*
X0226967Y0047809D01*
X0227050Y0047608D01*
X0227292Y0046704D01*
X0227414Y0045776D01*
X0227414Y0045309D01*
X0220277Y0045309D01*
X0220277Y0045309D01*
X0213140Y0045309D01*
X0213140Y0045776D01*
X0213262Y0046704D01*
X0213504Y0047608D01*
X0213588Y0047809D01*
X0201367Y0047809D01*
X0201450Y0047608D01*
X0201692Y0046704D01*
X0201814Y0045776D01*
X0201814Y0045309D01*
X0194677Y0045309D01*
X0194677Y0045309D01*
X0187540Y0045309D01*
X0187540Y0045776D01*
X0187662Y0046704D01*
X0187904Y0047608D01*
X0187988Y0047809D01*
X0170771Y0047809D01*
X0168419Y0048783D01*
X0166618Y0050583D01*
X0162579Y0054622D01*
X0161722Y0052552D01*
X0159753Y0050583D01*
X0157953Y0048783D01*
X0155600Y0047809D01*
X0154132Y0047809D01*
X0154215Y0047608D01*
X0154457Y0046704D01*
X0154579Y0045776D01*
X0154579Y0045309D01*
X0147443Y0045309D01*
X0147443Y0045309D01*
X0154579Y0045309D01*
X0154579Y0044841D01*
X0154457Y0043913D01*
X0154215Y0043010D01*
X0153857Y0042145D01*
X0153389Y0041335D01*
X0152820Y0040593D01*
X0152158Y0039931D01*
X0151416Y0039362D01*
X0150606Y0038894D01*
X0149741Y0038536D01*
X0148838Y0038294D01*
X0147910Y0038172D01*
X0147442Y0038172D01*
X0147442Y0045309D01*
X0147442Y0045309D01*
X0140305Y0045309D01*
X0140305Y0045776D01*
X0140427Y0046704D01*
X0140670Y0047608D01*
X0140753Y0047809D01*
X0128532Y0047809D01*
X0128615Y0047608D01*
X0128857Y0046704D01*
X0128979Y0045776D01*
X0128979Y0045309D01*
X0121843Y0045309D01*
X0121843Y0045309D01*
X0128979Y0045309D01*
X0128979Y0044841D01*
X0128857Y0043913D01*
X0128615Y0043010D01*
X0128257Y0042145D01*
X0127789Y0041335D01*
X0127220Y0040593D01*
X0126558Y0039931D01*
X0125816Y0039362D01*
X0125006Y0038894D01*
X0124141Y0038536D01*
X0123238Y0038294D01*
X0122310Y0038172D01*
X0121842Y0038172D01*
X0121842Y0045309D01*
X0121842Y0045309D01*
X0114705Y0045309D01*
X0114705Y0045776D01*
X0114827Y0046704D01*
X0115070Y0047608D01*
X0115153Y0047809D01*
X0082235Y0047809D01*
X0081103Y0048277D01*
X0081380Y0047608D01*
X0081623Y0046704D01*
X0081745Y0045776D01*
X0081745Y0045309D01*
X0074608Y0045309D01*
X0074608Y0045309D01*
X0074608Y0052446D01*
X0075076Y0052446D01*
X0076003Y0052324D01*
X0076466Y0052200D01*
X0074694Y0053972D01*
X0072790Y0053972D01*
X0069432Y0055363D01*
X0068086Y0056709D01*
X0055529Y0056709D01*
X0054183Y0055363D01*
X0050825Y0053972D01*
X0049685Y0053972D01*
X0049685Y0052695D01*
X0049613Y0052428D01*
X0050403Y0052324D01*
X0051307Y0052081D01*
X0052171Y0051723D01*
X0052981Y0051256D01*
X0053724Y0050686D01*
X0054385Y0050025D01*
X0054955Y0049282D01*
X0055422Y0048472D01*
X0055780Y0047608D01*
X0056023Y0046704D01*
X0056145Y0045776D01*
X0056145Y0045309D01*
X0049008Y0045309D01*
X0049008Y0045309D01*
X0074608Y0045309D01*
X0074608Y0045309D01*
X0074608Y0052446D01*
X0074140Y0052446D01*
X0073212Y0052324D01*
X0072309Y0052081D01*
X0071444Y0051723D01*
X0070634Y0051256D01*
X0069892Y0050686D01*
X0069230Y0050025D01*
X0068661Y0049282D01*
X0068193Y0048472D01*
X0067835Y0047608D01*
X0067593Y0046704D01*
X0067471Y0045776D01*
X0067471Y0045309D01*
X0074608Y0045309D01*
X0121842Y0045309D01*
X0114705Y0045309D01*
X0114705Y0044841D01*
X0114827Y0043913D01*
X0115070Y0043010D01*
X0115428Y0042145D01*
X0115895Y0041335D01*
X0116465Y0040593D01*
X0117127Y0039931D01*
X0117869Y0039362D01*
X0118679Y0038894D01*
X0119543Y0038536D01*
X0120447Y0038294D01*
X0121375Y0038172D01*
X0121842Y0038172D01*
X0121842Y0045309D01*
X0147442Y0045309D01*
X0140305Y0045309D01*
X0140305Y0044841D01*
X0140427Y0043913D01*
X0140670Y0043010D01*
X0141028Y0042145D01*
X0141495Y0041335D01*
X0142065Y0040593D01*
X0142727Y0039931D01*
X0143469Y0039362D01*
X0144279Y0038894D01*
X0145143Y0038536D01*
X0146047Y0038294D01*
X0146975Y0038172D01*
X0147442Y0038172D01*
X0147442Y0045309D01*
X0194677Y0045309D01*
X0194677Y0045309D01*
X0220277Y0045309D01*
X0220277Y0045309D01*
X0267512Y0045309D01*
X0274649Y0045309D01*
X0274649Y0045776D01*
X0274527Y0046704D01*
X0274284Y0047608D01*
X0273926Y0048472D01*
X0273459Y0049282D01*
X0272889Y0050025D01*
X0272228Y0050686D01*
X0271485Y0051256D01*
X0270675Y0051723D01*
X0269811Y0052081D01*
X0268907Y0052324D01*
X0267979Y0052446D01*
X0267512Y0052446D01*
X0267512Y0045309D01*
X0267512Y0045309D01*
X0267512Y0045309D01*
X0267512Y0052446D01*
X0267044Y0052446D01*
X0266116Y0052324D01*
X0265213Y0052081D01*
X0264348Y0051723D01*
X0263538Y0051256D01*
X0262796Y0050686D01*
X0262134Y0050025D01*
X0261565Y0049282D01*
X0261097Y0048472D01*
X0260739Y0047608D01*
X0260497Y0046704D01*
X0260375Y0045776D01*
X0260375Y0045309D01*
X0267512Y0045309D01*
X0274649Y0045309D01*
X0274649Y0044841D01*
X0274527Y0043913D01*
X0274284Y0043010D01*
X0273926Y0042145D01*
X0273459Y0041335D01*
X0272889Y0040593D01*
X0272228Y0039931D01*
X0271485Y0039362D01*
X0270675Y0038894D01*
X0269811Y0038536D01*
X0268907Y0038294D01*
X0267979Y0038172D01*
X0267512Y0038172D01*
X0267512Y0045309D01*
X0276375Y0045309D01*
X0280312Y0049246D01*
X0280312Y0062083D01*
X0272438Y0069957D01*
X0185823Y0069957D01*
X0184012Y0071768D01*
X0184012Y0079799D01*
X0184013Y0079799D01*
X0184013Y0072799D01*
X0186912Y0072799D01*
X0187598Y0073486D01*
X0190016Y0071068D01*
X0189501Y0070855D01*
X0188155Y0069509D01*
X0181543Y0069509D01*
X0180412Y0070639D01*
X0180412Y0073471D01*
X0180427Y0073486D01*
X0181113Y0072799D01*
X0184012Y0072799D01*
X0184012Y0079799D01*
X0184012Y0078987D02*
X0184013Y0078987D01*
X0184012Y0076588D02*
X0184013Y0076588D01*
X0184012Y0074190D02*
X0184013Y0074190D01*
X0180412Y0071791D02*
X0189292Y0071791D01*
X0178892Y0063109D02*
X0174012Y0067988D01*
X0174012Y0079799D01*
X0164012Y0079799D02*
X0164012Y0062240D01*
X0172044Y0054209D01*
X0246847Y0054209D01*
X0255747Y0063109D01*
X0267512Y0063109D01*
X0276030Y0059799D02*
X0284593Y0059799D01*
X0283975Y0062197D02*
X0276649Y0062197D01*
X0276649Y0064596D02*
X0283975Y0064596D01*
X0284831Y0066994D02*
X0275792Y0066994D01*
X0275359Y0069393D02*
X0286474Y0069393D01*
X0285898Y0057400D02*
X0274725Y0057400D01*
X0271816Y0055002D02*
X0288807Y0055002D01*
X0291716Y0052324D02*
X0292644Y0052446D01*
X0293112Y0052446D01*
X0293579Y0052446D01*
X0294507Y0052324D01*
X0295411Y0052081D01*
X0296275Y0051723D01*
X0297085Y0051256D01*
X0297828Y0050686D01*
X0298489Y0050025D01*
X0299059Y0049282D01*
X0299526Y0048472D01*
X0299884Y0047608D01*
X0300127Y0046704D01*
X0300249Y0045776D01*
X0300249Y0045309D01*
X0293112Y0045309D01*
X0293112Y0045309D01*
X0293112Y0045309D01*
X0293112Y0052446D01*
X0293112Y0045309D01*
X0300249Y0045309D01*
X0300249Y0044841D01*
X0300127Y0043913D01*
X0299884Y0043010D01*
X0299526Y0042145D01*
X0299059Y0041335D01*
X0298489Y0040593D01*
X0297828Y0039931D01*
X0297085Y0039362D01*
X0296275Y0038894D01*
X0295411Y0038536D01*
X0294507Y0038294D01*
X0293579Y0038172D01*
X0293112Y0038172D01*
X0293112Y0045309D01*
X0276375Y0045309D01*
X0274649Y0045408D02*
X0285975Y0045408D01*
X0285975Y0045309D02*
X0293112Y0045309D01*
X0293112Y0045309D01*
X0293112Y0045309D01*
X0293112Y0038172D01*
X0292644Y0038172D01*
X0291716Y0038294D01*
X0290813Y0038536D01*
X0289948Y0038894D01*
X0289138Y0039362D01*
X0288396Y0039931D01*
X0287734Y0040593D01*
X0287165Y0041335D01*
X0286697Y0042145D01*
X0286339Y0043010D01*
X0286097Y0043913D01*
X0285975Y0044841D01*
X0285975Y0045309D01*
X0285975Y0045776D01*
X0286097Y0046704D01*
X0286339Y0047608D01*
X0286697Y0048472D01*
X0287165Y0049282D01*
X0287734Y0050025D01*
X0288396Y0050686D01*
X0289138Y0051256D01*
X0289948Y0051723D01*
X0290813Y0052081D01*
X0291716Y0052324D01*
X0293112Y0050205D02*
X0293112Y0050205D01*
X0287914Y0050205D02*
X0272709Y0050205D01*
X0274202Y0047806D02*
X0286421Y0047806D01*
X0293112Y0047806D02*
X0293112Y0047806D01*
X0293112Y0045408D02*
X0293112Y0045408D01*
X0293112Y0045309D02*
X0285975Y0045309D01*
X0286339Y0043009D02*
X0274284Y0043009D01*
X0272903Y0040611D02*
X0287721Y0040611D01*
X0293112Y0040611D02*
X0293112Y0040611D01*
X0293112Y0043009D02*
X0293112Y0043009D01*
X0298503Y0040611D02*
X0315950Y0040611D01*
X0315950Y0043009D02*
X0312472Y0043009D01*
X0307207Y0043009D02*
X0299884Y0043009D01*
X0300249Y0045408D02*
X0302378Y0045408D01*
X0300258Y0047806D02*
X0299802Y0047806D01*
X0299007Y0050205D02*
X0298309Y0050205D01*
X0298365Y0052603D02*
X0254293Y0052603D01*
X0256691Y0055002D02*
X0263207Y0055002D01*
X0262314Y0050205D02*
X0251894Y0050205D01*
X0260821Y0047806D02*
X0226968Y0047806D01*
X0227414Y0045408D02*
X0260375Y0045408D01*
X0260375Y0045309D02*
X0260375Y0044841D01*
X0260497Y0043913D01*
X0260739Y0043010D01*
X0261097Y0042145D01*
X0261565Y0041335D01*
X0262134Y0040593D01*
X0262796Y0039931D01*
X0263538Y0039362D01*
X0264348Y0038894D01*
X0265213Y0038536D01*
X0266116Y0038294D01*
X0267044Y0038172D01*
X0267512Y0038172D01*
X0267512Y0045309D01*
X0267512Y0045309D01*
X0267512Y0045309D01*
X0260375Y0045309D01*
X0260739Y0043009D02*
X0227050Y0043009D01*
X0227050Y0043010D02*
X0227292Y0043913D01*
X0227414Y0044841D01*
X0227414Y0045309D01*
X0220277Y0045309D01*
X0213140Y0045309D01*
X0213140Y0044841D01*
X0213262Y0043913D01*
X0213504Y0043010D01*
X0213862Y0042145D01*
X0214330Y0041335D01*
X0214900Y0040593D01*
X0215561Y0039931D01*
X0216303Y0039362D01*
X0217114Y0038894D01*
X0217978Y0038536D01*
X0218882Y0038294D01*
X0219809Y0038172D01*
X0220277Y0038172D01*
X0220745Y0038172D01*
X0221672Y0038294D01*
X0222576Y0038536D01*
X0223440Y0038894D01*
X0224251Y0039362D01*
X0224993Y0039931D01*
X0225654Y0040593D01*
X0226224Y0041335D01*
X0226692Y0042145D01*
X0227050Y0043010D01*
X0225668Y0040611D02*
X0262121Y0040611D01*
X0267512Y0040611D02*
X0267512Y0040611D01*
X0267512Y0043009D02*
X0267512Y0043009D01*
X0267512Y0045408D02*
X0267512Y0045408D01*
X0267512Y0047806D02*
X0267512Y0047806D01*
X0267512Y0050205D02*
X0267512Y0050205D01*
X0297416Y0055002D02*
X0298340Y0055002D01*
X0293887Y0038212D02*
X0315950Y0038212D01*
X0315950Y0035814D02*
X0032075Y0035814D01*
X0032075Y0038212D02*
X0048232Y0038212D01*
X0048540Y0038172D02*
X0049008Y0038172D01*
X0049476Y0038172D01*
X0050403Y0038294D01*
X0051307Y0038536D01*
X0052171Y0038894D01*
X0052981Y0039362D01*
X0053724Y0039931D01*
X0054385Y0040593D01*
X0054955Y0041335D01*
X0055422Y0042145D01*
X0055780Y0043010D01*
X0056023Y0043913D01*
X0056145Y0044841D01*
X0056145Y0045309D01*
X0049008Y0045309D01*
X0049008Y0038172D01*
X0049008Y0045309D01*
X0049008Y0045309D01*
X0049008Y0043009D02*
X0049008Y0043009D01*
X0043630Y0040593D02*
X0043061Y0041335D01*
X0042593Y0042145D01*
X0042235Y0043010D01*
X0042140Y0043363D01*
X0039700Y0042709D01*
X0036672Y0042709D01*
X0033747Y0043493D01*
X0032075Y0044459D01*
X0032075Y0043009D02*
X0035553Y0043009D01*
X0032075Y0040611D02*
X0043617Y0040611D01*
X0043630Y0040593D02*
X0044292Y0039931D01*
X0045034Y0039362D01*
X0045844Y0038894D01*
X0046709Y0038536D01*
X0047612Y0038294D01*
X0048540Y0038172D01*
X0049008Y0038212D02*
X0049008Y0038212D01*
X0049783Y0038212D02*
X0073832Y0038212D01*
X0074140Y0038172D02*
X0074608Y0038172D01*
X0075076Y0038172D01*
X0076003Y0038294D01*
X0076907Y0038536D01*
X0077771Y0038894D01*
X0078581Y0039362D01*
X0079324Y0039931D01*
X0079985Y0040593D01*
X0080555Y0041335D01*
X0081022Y0042145D01*
X0081380Y0043010D01*
X0081623Y0043913D01*
X0081745Y0044841D01*
X0081745Y0045309D01*
X0074608Y0045309D01*
X0074608Y0045309D01*
X0074608Y0038172D01*
X0074608Y0045309D01*
X0074608Y0045309D01*
X0067471Y0045309D01*
X0067471Y0044841D01*
X0067593Y0043913D01*
X0067835Y0043010D01*
X0068193Y0042145D01*
X0068661Y0041335D01*
X0069230Y0040593D01*
X0069892Y0039931D01*
X0070634Y0039362D01*
X0071444Y0038894D01*
X0072309Y0038536D01*
X0073212Y0038294D01*
X0074140Y0038172D01*
X0074608Y0038212D02*
X0074608Y0038212D01*
X0075383Y0038212D02*
X0121067Y0038212D01*
X0121842Y0038212D02*
X0121842Y0038212D01*
X0122618Y0038212D02*
X0146667Y0038212D01*
X0147442Y0038212D02*
X0147442Y0038212D01*
X0148218Y0038212D02*
X0193902Y0038212D01*
X0194209Y0038172D02*
X0194677Y0038172D01*
X0195145Y0038172D01*
X0196072Y0038294D01*
X0196976Y0038536D01*
X0197840Y0038894D01*
X0198651Y0039362D01*
X0199393Y0039931D01*
X0200054Y0040593D01*
X0200624Y0041335D01*
X0201092Y0042145D01*
X0201450Y0043010D01*
X0201692Y0043913D01*
X0201814Y0044841D01*
X0201814Y0045309D01*
X0194677Y0045309D01*
X0187540Y0045309D01*
X0187540Y0044841D01*
X0187662Y0043913D01*
X0187904Y0043010D01*
X0188262Y0042145D01*
X0188730Y0041335D01*
X0189300Y0040593D01*
X0189961Y0039931D01*
X0190703Y0039362D01*
X0191514Y0038894D01*
X0192378Y0038536D01*
X0193282Y0038294D01*
X0194209Y0038172D01*
X0194677Y0038172D02*
X0194677Y0045309D01*
X0194677Y0038172D01*
X0194677Y0038212D02*
X0194677Y0038212D01*
X0195452Y0038212D02*
X0219502Y0038212D01*
X0220277Y0038212D02*
X0220277Y0038212D01*
X0220277Y0038172D02*
X0220277Y0045309D01*
X0220277Y0045309D01*
X0220277Y0038172D01*
X0221052Y0038212D02*
X0266736Y0038212D01*
X0267512Y0038212D02*
X0267512Y0038212D01*
X0268287Y0038212D02*
X0292336Y0038212D01*
X0293112Y0038212D02*
X0293112Y0038212D01*
X0220277Y0040611D02*
X0220277Y0040611D01*
X0214886Y0040611D02*
X0200068Y0040611D01*
X0194677Y0040611D02*
X0194677Y0040611D01*
X0194677Y0043009D02*
X0194677Y0043009D01*
X0194677Y0045309D02*
X0194677Y0045309D01*
X0187540Y0045408D02*
X0154579Y0045408D01*
X0154215Y0043009D02*
X0187904Y0043009D01*
X0189286Y0040611D02*
X0152833Y0040611D01*
X0147442Y0040611D02*
X0147442Y0040611D01*
X0147442Y0043009D02*
X0147442Y0043009D01*
X0147442Y0045309D02*
X0147442Y0045309D01*
X0140305Y0045408D02*
X0128979Y0045408D01*
X0128615Y0043009D02*
X0140670Y0043009D01*
X0142051Y0040611D02*
X0127233Y0040611D01*
X0121842Y0040611D02*
X0121842Y0040611D01*
X0121842Y0043009D02*
X0121842Y0043009D01*
X0121842Y0045309D02*
X0121842Y0045309D01*
X0114705Y0045408D02*
X0081745Y0045408D01*
X0081380Y0043009D02*
X0115070Y0043009D01*
X0116451Y0040611D02*
X0079999Y0040611D01*
X0074608Y0040611D02*
X0074608Y0040611D01*
X0069217Y0040611D02*
X0054399Y0040611D01*
X0055780Y0043009D02*
X0067835Y0043009D01*
X0067471Y0045408D02*
X0056145Y0045408D01*
X0055698Y0047806D02*
X0067917Y0047806D01*
X0069411Y0050205D02*
X0054205Y0050205D01*
X0049660Y0052603D02*
X0076062Y0052603D01*
X0074608Y0050205D02*
X0074608Y0050205D01*
X0074608Y0047806D02*
X0074608Y0047806D01*
X0074608Y0045408D02*
X0074608Y0045408D01*
X0074608Y0043009D02*
X0074608Y0043009D01*
X0081298Y0047806D02*
X0115152Y0047806D01*
X0128533Y0047806D02*
X0140752Y0047806D01*
X0154133Y0047806D02*
X0187987Y0047806D01*
X0201368Y0047806D02*
X0213587Y0047806D01*
X0213140Y0045408D02*
X0201814Y0045408D01*
X0201450Y0043009D02*
X0213504Y0043009D01*
X0220277Y0043009D02*
X0220277Y0043009D01*
X0166997Y0050205D02*
X0159374Y0050205D01*
X0161743Y0052603D02*
X0164598Y0052603D01*
X0156296Y0056177D02*
X0154327Y0054209D01*
X0083508Y0054209D01*
X0074608Y0063109D01*
X0049008Y0063109D01*
X0053312Y0055002D02*
X0070303Y0055002D01*
X0042235Y0043009D02*
X0040818Y0043009D01*
X0049008Y0040611D02*
X0049008Y0040611D01*
X0121842Y0063109D02*
X0132674Y0063109D01*
X0144012Y0074447D01*
X0144012Y0079799D01*
X0154012Y0079799D02*
X0154012Y0070272D01*
X0156296Y0067988D01*
X0156296Y0056177D01*
X0147442Y0063109D02*
X0132674Y0063109D01*
X0178892Y0063109D02*
X0194677Y0063109D01*
X0220277Y0063109D01*
D14*
X0197635Y0073894D02*
X0271375Y0073894D01*
X0275312Y0077831D01*
X0282772Y0083244D02*
X0285312Y0080705D01*
X0285312Y0077831D01*
X0282772Y0083244D02*
X0266040Y0083244D01*
X0262595Y0079799D01*
X0204012Y0079799D01*
X0197635Y0073894D02*
X0194012Y0077516D01*
X0194012Y0079799D01*
M02*
