G75*
%MOIN*%
%OFA0B0*%
%FSLAX25Y25*%
%IPPOS*%
%LPD*%
%AMOC8*
5,1,8,0,0,1.08239X$1,22.5*
%
%ADD10R,0.04724X0.04724*%
%ADD11R,0.03937X0.02953*%
%ADD12OC8,0.07600*%
%ADD13C,0.01600*%
%ADD14C,0.02400*%
D10*
X0276178Y0038461D03*
X0284446Y0038461D03*
D11*
X0292123Y0050862D03*
X0268501Y0050862D03*
X0268501Y0065429D03*
X0292123Y0065429D03*
X0219288Y0065429D03*
X0195666Y0065429D03*
X0195666Y0050862D03*
X0219288Y0050862D03*
X0146453Y0050862D03*
X0122831Y0050862D03*
X0122831Y0065429D03*
X0146453Y0065429D03*
X0073619Y0065429D03*
X0049997Y0065429D03*
X0049997Y0050862D03*
X0073619Y0050862D03*
D12*
X0144012Y0036492D03*
X0154012Y0036492D03*
X0164012Y0036492D03*
X0174012Y0036492D03*
X0184012Y0036492D03*
X0194012Y0036492D03*
X0204012Y0036492D03*
D13*
X0122831Y0042398D02*
X0122831Y0050862D01*
X0122831Y0042398D02*
X0128737Y0036492D01*
X0144012Y0036492D01*
X0146453Y0038933D01*
X0146453Y0050862D01*
X0148422Y0058146D02*
X0154012Y0052555D01*
X0154012Y0036492D01*
X0164012Y0036492D02*
X0164012Y0050114D01*
X0172044Y0058146D01*
X0231099Y0058146D01*
X0238383Y0050862D01*
X0268501Y0050862D01*
X0292123Y0050862D01*
X0296060Y0046335D02*
X0299505Y0049780D01*
X0299505Y0062575D01*
X0296650Y0065429D01*
X0292123Y0065429D01*
X0268501Y0065429D01*
X0219288Y0065429D01*
X0195666Y0065429D01*
X0146453Y0065429D01*
X0122831Y0065429D01*
X0073619Y0065429D01*
X0049997Y0065429D01*
X0073619Y0050862D02*
X0080902Y0058146D01*
X0148422Y0058146D01*
X0174012Y0046335D02*
X0178540Y0050862D01*
X0195666Y0050862D01*
X0219288Y0050862D01*
X0223225Y0042398D02*
X0197635Y0042398D01*
X0194012Y0038776D01*
X0194012Y0036492D01*
X0184012Y0036492D02*
X0184012Y0042555D01*
X0187792Y0046335D01*
X0296060Y0046335D01*
X0284446Y0038461D02*
X0284446Y0034720D01*
X0282280Y0032555D01*
X0207949Y0032555D01*
X0204012Y0036492D01*
X0223225Y0042398D02*
X0227162Y0038461D01*
X0276178Y0038461D01*
X0174012Y0036492D02*
X0174012Y0046335D01*
X0073619Y0050862D02*
X0049997Y0050862D01*
D14*
X0053000Y0057539D02*
X0054632Y0056862D01*
X0068983Y0056862D01*
X0070616Y0057539D01*
X0071810Y0057539D01*
X0075024Y0060753D01*
X0073619Y0060753D01*
X0073619Y0065429D01*
X0073619Y0065429D01*
X0078787Y0065429D01*
X0078787Y0063764D01*
X0079709Y0064146D01*
X0117663Y0064146D01*
X0117663Y0065429D01*
X0122831Y0065429D01*
X0122831Y0065429D01*
X0117663Y0065429D01*
X0117663Y0067221D01*
X0117786Y0067839D01*
X0118027Y0068421D01*
X0118377Y0068945D01*
X0118823Y0069391D01*
X0119347Y0069741D01*
X0119929Y0069983D01*
X0120548Y0070105D01*
X0122831Y0070105D01*
X0122831Y0065429D01*
X0122831Y0065429D01*
X0122831Y0070105D01*
X0125115Y0070105D01*
X0125733Y0069983D01*
X0126316Y0069741D01*
X0126840Y0069391D01*
X0127285Y0068945D01*
X0127636Y0068421D01*
X0127877Y0067839D01*
X0128000Y0067221D01*
X0128000Y0065429D01*
X0122831Y0065429D01*
X0122831Y0065429D01*
X0128000Y0065429D01*
X0128000Y0064146D01*
X0141285Y0064146D01*
X0141285Y0065429D01*
X0146453Y0065429D01*
X0146453Y0065429D01*
X0141285Y0065429D01*
X0141285Y0067221D01*
X0141408Y0067839D01*
X0141649Y0068421D01*
X0141999Y0068945D01*
X0142445Y0069391D01*
X0142969Y0069741D01*
X0143551Y0069983D01*
X0144170Y0070105D01*
X0146453Y0070105D01*
X0146453Y0065429D01*
X0146453Y0065429D01*
X0146453Y0070105D01*
X0148737Y0070105D01*
X0149355Y0069983D01*
X0149938Y0069741D01*
X0150462Y0069391D01*
X0150908Y0068945D01*
X0151258Y0068421D01*
X0151499Y0067839D01*
X0151622Y0067221D01*
X0151622Y0065429D01*
X0146454Y0065429D01*
X0146454Y0065429D01*
X0151622Y0065429D01*
X0151622Y0063638D01*
X0151563Y0063339D01*
X0151821Y0063232D01*
X0153508Y0061544D01*
X0159099Y0055954D01*
X0159763Y0054350D01*
X0160614Y0055201D01*
X0166957Y0061544D01*
X0168645Y0063232D01*
X0170850Y0064146D01*
X0190498Y0064146D01*
X0190498Y0065429D01*
X0195666Y0065429D01*
X0195666Y0065429D01*
X0195666Y0065429D01*
X0200834Y0065429D01*
X0200834Y0064146D01*
X0214120Y0064146D01*
X0214120Y0065429D01*
X0219288Y0065429D01*
X0219288Y0065429D01*
X0219288Y0065429D01*
X0224457Y0065429D01*
X0224457Y0064146D01*
X0232293Y0064146D01*
X0234498Y0063232D01*
X0236186Y0061544D01*
X0240868Y0056862D01*
X0263865Y0056862D01*
X0265498Y0057539D01*
X0271503Y0057539D01*
X0273136Y0056862D01*
X0287487Y0056862D01*
X0289120Y0057539D01*
X0295126Y0057539D01*
X0297037Y0056747D01*
X0298500Y0055284D01*
X0299070Y0053906D01*
X0298340Y0056632D01*
X0298340Y0059660D01*
X0299124Y0062584D01*
X0300638Y0065206D01*
X0302779Y0067347D01*
X0305401Y0068861D01*
X0308325Y0069645D01*
X0311353Y0069645D01*
X0314278Y0068861D01*
X0315950Y0067896D01*
X0315950Y0081973D01*
X0032075Y0081973D01*
X0032075Y0067896D01*
X0033747Y0068861D01*
X0036672Y0069645D01*
X0039700Y0069645D01*
X0042624Y0068861D01*
X0044894Y0067551D01*
X0044951Y0067839D01*
X0045192Y0068421D01*
X0045543Y0068945D01*
X0045988Y0069391D01*
X0046512Y0069741D01*
X0047095Y0069983D01*
X0047713Y0070105D01*
X0049997Y0070105D01*
X0049997Y0065429D01*
X0049997Y0065429D01*
X0055165Y0065429D01*
X0055165Y0063638D01*
X0055042Y0063019D01*
X0054801Y0062437D01*
X0054451Y0061913D01*
X0054005Y0061467D01*
X0053481Y0061117D01*
X0052899Y0060876D01*
X0052280Y0060753D01*
X0049997Y0060753D01*
X0049997Y0065429D01*
X0055165Y0065429D01*
X0055165Y0067221D01*
X0055042Y0067839D01*
X0054801Y0068421D01*
X0054451Y0068945D01*
X0054005Y0069391D01*
X0053481Y0069741D01*
X0052899Y0069983D01*
X0052280Y0070105D01*
X0049997Y0070105D01*
X0049997Y0065429D01*
X0049997Y0065429D01*
X0049997Y0065429D01*
X0049997Y0060753D01*
X0049392Y0060753D01*
X0049685Y0059660D01*
X0049685Y0057539D01*
X0053000Y0057539D01*
X0053334Y0057400D02*
X0070282Y0057400D01*
X0074070Y0059799D02*
X0049648Y0059799D01*
X0049997Y0062197D02*
X0049997Y0062197D01*
X0049997Y0064596D02*
X0049997Y0064596D01*
X0049997Y0066994D02*
X0049997Y0066994D01*
X0049997Y0069393D02*
X0049997Y0069393D01*
X0045991Y0069393D02*
X0040640Y0069393D01*
X0035731Y0069393D02*
X0032075Y0069393D01*
X0032075Y0071791D02*
X0315950Y0071791D01*
X0315950Y0069393D02*
X0312294Y0069393D01*
X0307385Y0069393D02*
X0296129Y0069393D01*
X0296131Y0069391D02*
X0295607Y0069741D01*
X0295025Y0069983D01*
X0294406Y0070105D01*
X0292123Y0070105D01*
X0292123Y0065429D01*
X0292123Y0065429D01*
X0297291Y0065429D01*
X0297291Y0063638D01*
X0297168Y0063019D01*
X0296927Y0062437D01*
X0296577Y0061913D01*
X0296131Y0061467D01*
X0295607Y0061117D01*
X0295025Y0060876D01*
X0294406Y0060753D01*
X0292123Y0060753D01*
X0292123Y0065429D01*
X0297291Y0065429D01*
X0297291Y0067221D01*
X0297168Y0067839D01*
X0296927Y0068421D01*
X0296577Y0068945D01*
X0296131Y0069391D01*
X0292123Y0069393D02*
X0292123Y0069393D01*
X0292123Y0070105D02*
X0289839Y0070105D01*
X0289221Y0069983D01*
X0288638Y0069741D01*
X0288114Y0069391D01*
X0287669Y0068945D01*
X0287318Y0068421D01*
X0287077Y0067839D01*
X0286954Y0067221D01*
X0286954Y0065429D01*
X0286954Y0063638D01*
X0287077Y0063019D01*
X0287318Y0062437D01*
X0287669Y0061913D01*
X0288114Y0061467D01*
X0288638Y0061117D01*
X0289221Y0060876D01*
X0289839Y0060753D01*
X0292123Y0060753D01*
X0292123Y0065429D01*
X0292123Y0065429D01*
X0292123Y0065429D01*
X0286954Y0065429D01*
X0292123Y0065429D01*
X0292123Y0065429D01*
X0292123Y0070105D01*
X0288117Y0069393D02*
X0272506Y0069393D01*
X0272509Y0069391D02*
X0271985Y0069741D01*
X0271403Y0069983D01*
X0270784Y0070105D01*
X0268501Y0070105D01*
X0268501Y0065429D01*
X0268501Y0065429D01*
X0273669Y0065429D01*
X0273669Y0063638D01*
X0273546Y0063019D01*
X0273305Y0062437D01*
X0272955Y0061913D01*
X0272509Y0061467D01*
X0271985Y0061117D01*
X0271403Y0060876D01*
X0270784Y0060753D01*
X0268501Y0060753D01*
X0268501Y0065429D01*
X0273669Y0065429D01*
X0273669Y0067221D01*
X0273546Y0067839D01*
X0273305Y0068421D01*
X0272955Y0068945D01*
X0272509Y0069391D01*
X0268501Y0069393D02*
X0268501Y0069393D01*
X0268501Y0070105D02*
X0266217Y0070105D01*
X0265599Y0069983D01*
X0265016Y0069741D01*
X0264492Y0069391D01*
X0264047Y0068945D01*
X0263696Y0068421D01*
X0263455Y0067839D01*
X0263332Y0067221D01*
X0263332Y0065429D01*
X0263332Y0063638D01*
X0263455Y0063019D01*
X0263696Y0062437D01*
X0264047Y0061913D01*
X0264492Y0061467D01*
X0265016Y0061117D01*
X0265599Y0060876D01*
X0266217Y0060753D01*
X0268501Y0060753D01*
X0268501Y0065429D01*
X0268501Y0065429D01*
X0268501Y0065429D01*
X0263332Y0065429D01*
X0268501Y0065429D01*
X0268501Y0065429D01*
X0268501Y0070105D01*
X0268501Y0066994D02*
X0268501Y0066994D01*
X0273669Y0066994D02*
X0286954Y0066994D01*
X0292123Y0066994D02*
X0292123Y0066994D01*
X0292123Y0064596D02*
X0292123Y0064596D01*
X0286954Y0064596D02*
X0273669Y0064596D01*
X0268501Y0064596D02*
X0268501Y0064596D01*
X0268501Y0062197D02*
X0268501Y0062197D01*
X0273145Y0062197D02*
X0287479Y0062197D01*
X0292123Y0062197D02*
X0292123Y0062197D01*
X0296767Y0062197D02*
X0299020Y0062197D01*
X0298377Y0059799D02*
X0237931Y0059799D01*
X0235533Y0062197D02*
X0263857Y0062197D01*
X0263332Y0064596D02*
X0224457Y0064596D01*
X0224457Y0065429D02*
X0219288Y0065429D01*
X0214120Y0065429D01*
X0214120Y0067221D01*
X0214243Y0067839D01*
X0214484Y0068421D01*
X0214834Y0068945D01*
X0215280Y0069391D01*
X0215804Y0069741D01*
X0216386Y0069983D01*
X0217004Y0070105D01*
X0219288Y0070105D01*
X0221572Y0070105D01*
X0222190Y0069983D01*
X0222772Y0069741D01*
X0223296Y0069391D01*
X0223742Y0068945D01*
X0224092Y0068421D01*
X0224334Y0067839D01*
X0224457Y0067221D01*
X0224457Y0065429D01*
X0224457Y0066994D02*
X0263332Y0066994D01*
X0264495Y0069393D02*
X0223294Y0069393D01*
X0219288Y0069393D02*
X0219288Y0069393D01*
X0219288Y0070105D02*
X0219288Y0065429D01*
X0219288Y0065429D01*
X0219288Y0070105D01*
X0215282Y0069393D02*
X0199672Y0069393D01*
X0199674Y0069391D02*
X0199150Y0069741D01*
X0198568Y0069983D01*
X0197950Y0070105D01*
X0195666Y0070105D01*
X0193382Y0070105D01*
X0192764Y0069983D01*
X0192182Y0069741D01*
X0191658Y0069391D01*
X0191212Y0068945D01*
X0190862Y0068421D01*
X0190620Y0067839D01*
X0190498Y0067221D01*
X0190498Y0065429D01*
X0195666Y0065429D01*
X0200834Y0065429D01*
X0200834Y0067221D01*
X0200712Y0067839D01*
X0200470Y0068421D01*
X0200120Y0068945D01*
X0199674Y0069391D01*
X0195666Y0069393D02*
X0195666Y0069393D01*
X0195666Y0070105D02*
X0195666Y0065429D01*
X0195666Y0065429D01*
X0195666Y0070105D01*
X0191660Y0069393D02*
X0150459Y0069393D01*
X0151622Y0066994D02*
X0190498Y0066994D01*
X0195666Y0066994D02*
X0195666Y0066994D01*
X0200834Y0066994D02*
X0214120Y0066994D01*
X0214120Y0064596D02*
X0200834Y0064596D01*
X0190498Y0064596D02*
X0151622Y0064596D01*
X0152856Y0062197D02*
X0167610Y0062197D01*
X0165212Y0059799D02*
X0155254Y0059799D01*
X0157653Y0057400D02*
X0162813Y0057400D01*
X0160415Y0055002D02*
X0159493Y0055002D01*
X0141285Y0064596D02*
X0128000Y0064596D01*
X0128000Y0066994D02*
X0141285Y0066994D01*
X0146453Y0066994D02*
X0146453Y0066994D01*
X0146453Y0069393D02*
X0146453Y0069393D01*
X0142448Y0069393D02*
X0126837Y0069393D01*
X0122831Y0069393D02*
X0122831Y0069393D01*
X0118826Y0069393D02*
X0077625Y0069393D01*
X0077627Y0069391D02*
X0077103Y0069741D01*
X0076521Y0069983D01*
X0075902Y0070105D01*
X0073619Y0070105D01*
X0073619Y0065429D01*
X0073619Y0065429D01*
X0078787Y0065429D01*
X0078787Y0067221D01*
X0078664Y0067839D01*
X0078423Y0068421D01*
X0078073Y0068945D01*
X0077627Y0069391D01*
X0073619Y0069393D02*
X0073619Y0069393D01*
X0073619Y0070105D02*
X0071335Y0070105D01*
X0070717Y0069983D01*
X0070134Y0069741D01*
X0069610Y0069391D01*
X0069165Y0068945D01*
X0068814Y0068421D01*
X0068573Y0067839D01*
X0068450Y0067221D01*
X0068450Y0065429D01*
X0068450Y0063638D01*
X0068573Y0063019D01*
X0068814Y0062437D01*
X0069165Y0061913D01*
X0069610Y0061467D01*
X0070134Y0061117D01*
X0070717Y0060876D01*
X0071335Y0060753D01*
X0073619Y0060753D01*
X0073619Y0065429D01*
X0073619Y0065429D01*
X0068450Y0065429D01*
X0073619Y0065429D01*
X0073619Y0065429D01*
X0073619Y0070105D01*
X0069613Y0069393D02*
X0054003Y0069393D01*
X0055165Y0066994D02*
X0068450Y0066994D01*
X0073619Y0066994D02*
X0073619Y0066994D01*
X0073619Y0064596D02*
X0073619Y0064596D01*
X0068450Y0064596D02*
X0055165Y0064596D01*
X0054641Y0062197D02*
X0068975Y0062197D01*
X0073619Y0062197D02*
X0073619Y0062197D01*
X0078787Y0064596D02*
X0117663Y0064596D01*
X0117663Y0066994D02*
X0078787Y0066994D01*
X0122831Y0066994D02*
X0122831Y0066994D01*
X0180012Y0043849D02*
X0181025Y0044862D01*
X0189655Y0044862D01*
X0187598Y0042806D01*
X0186912Y0043492D01*
X0184013Y0043492D01*
X0184013Y0036492D01*
X0184012Y0036492D01*
X0184012Y0043492D01*
X0181113Y0043492D01*
X0180427Y0042806D01*
X0180012Y0043220D01*
X0180012Y0043849D01*
X0180223Y0043009D02*
X0180630Y0043009D01*
X0184012Y0043009D02*
X0184013Y0043009D01*
X0187395Y0043009D02*
X0187802Y0043009D01*
X0184012Y0040611D02*
X0184013Y0040611D01*
X0184012Y0038212D02*
X0184013Y0038212D01*
X0240330Y0057400D02*
X0265164Y0057400D01*
X0271837Y0057400D02*
X0288786Y0057400D01*
X0295459Y0057400D02*
X0298340Y0057400D01*
X0298617Y0055002D02*
X0298777Y0055002D01*
X0299227Y0053529D02*
X0300638Y0051085D01*
X0302779Y0048944D01*
X0305401Y0047430D01*
X0308325Y0046646D01*
X0311353Y0046646D01*
X0314278Y0047430D01*
X0315950Y0048396D01*
X0315950Y0034318D01*
X0291699Y0034318D01*
X0292008Y0035064D01*
X0292008Y0041857D01*
X0291216Y0043768D01*
X0290799Y0044186D01*
X0295126Y0044186D01*
X0297037Y0044977D01*
X0298500Y0046440D01*
X0299291Y0048351D01*
X0299291Y0053373D01*
X0299227Y0053529D01*
X0299291Y0052603D02*
X0299761Y0052603D01*
X0299291Y0050205D02*
X0301518Y0050205D01*
X0299065Y0047806D02*
X0304749Y0047806D01*
X0297467Y0045408D02*
X0315950Y0045408D01*
X0315950Y0047806D02*
X0314929Y0047806D01*
X0315950Y0043009D02*
X0291531Y0043009D01*
X0292008Y0040611D02*
X0315950Y0040611D01*
X0315950Y0038212D02*
X0292008Y0038212D01*
X0292008Y0035814D02*
X0315950Y0035814D01*
X0300285Y0064596D02*
X0297291Y0064596D01*
X0297291Y0066994D02*
X0302426Y0066994D01*
X0315950Y0074190D02*
X0032075Y0074190D01*
X0032075Y0076588D02*
X0315950Y0076588D01*
X0315950Y0078987D02*
X0032075Y0078987D01*
X0032075Y0081385D02*
X0315950Y0081385D01*
X0219288Y0066994D02*
X0219288Y0066994D01*
M02*
