G75*
%MOIN*%
%OFA0B0*%
%FSLAX25Y25*%
%IPPOS*%
%LPD*%
%AMOC8*
5,1,8,0,0,1.08239X$1,22.5*
%
%ADD10C,0.00700*%
%ADD11C,0.00500*%
%ADD12C,0.00600*%
%ADD13C,0.00197*%
D10*
X0166474Y0023328D02*
X0166474Y0027531D01*
X0167525Y0027531D01*
X0168576Y0026480D01*
X0169627Y0027531D01*
X0170678Y0026480D01*
X0170678Y0023328D01*
X0168576Y0023328D02*
X0168576Y0026480D01*
X0172920Y0024378D02*
X0173970Y0025429D01*
X0177123Y0025429D01*
X0177123Y0026480D02*
X0177123Y0023328D01*
X0173970Y0023328D01*
X0172920Y0024378D01*
X0176072Y0027531D02*
X0177123Y0026480D01*
X0176072Y0027531D02*
X0173970Y0027531D01*
X0179365Y0027531D02*
X0181467Y0027531D01*
X0180416Y0028582D02*
X0180416Y0024378D01*
X0181467Y0023328D01*
X0183662Y0023328D02*
X0183662Y0027531D01*
X0183662Y0025429D02*
X0185764Y0027531D01*
X0186815Y0027531D01*
X0189033Y0027531D02*
X0190084Y0027531D01*
X0190084Y0023328D01*
X0189033Y0023328D02*
X0191135Y0023328D01*
X0193330Y0023328D02*
X0197534Y0023328D01*
X0197534Y0027531D02*
X0193330Y0023328D01*
X0193330Y0027531D02*
X0197534Y0027531D01*
X0190084Y0029633D02*
X0190084Y0030684D01*
X0190645Y0033828D02*
X0192747Y0033828D01*
X0191696Y0033828D02*
X0191696Y0040133D01*
X0190645Y0040133D01*
X0188403Y0038031D02*
X0185250Y0038031D01*
X0184199Y0036980D01*
X0184199Y0034878D01*
X0185250Y0033828D01*
X0188403Y0033828D01*
X0181957Y0035929D02*
X0181957Y0036980D01*
X0180906Y0038031D01*
X0178805Y0038031D01*
X0177754Y0036980D01*
X0177754Y0034878D01*
X0178805Y0033828D01*
X0180906Y0033828D01*
X0181957Y0035929D02*
X0177754Y0035929D01*
X0173410Y0033828D02*
X0173410Y0040133D01*
X0171308Y0040133D02*
X0175512Y0040133D01*
X0194942Y0034878D02*
X0195993Y0033828D01*
X0199145Y0033828D01*
X0199145Y0036980D01*
X0198094Y0038031D01*
X0195993Y0038031D01*
X0195993Y0035929D02*
X0199145Y0035929D01*
X0201387Y0034878D02*
X0201387Y0036980D01*
X0202438Y0038031D01*
X0205591Y0038031D01*
X0207833Y0036980D02*
X0207833Y0034878D01*
X0208884Y0033828D01*
X0210985Y0033828D01*
X0212036Y0034878D01*
X0212036Y0036980D01*
X0210985Y0038031D01*
X0208884Y0038031D01*
X0207833Y0036980D01*
X0205591Y0033828D02*
X0202438Y0033828D01*
X0201387Y0034878D01*
X0205591Y0033828D02*
X0205591Y0040133D01*
X0195993Y0035929D02*
X0194942Y0034878D01*
X0206221Y0026480D02*
X0209374Y0029633D01*
X0209374Y0023328D01*
X0212667Y0023328D02*
X0216870Y0027531D01*
X0219112Y0027531D02*
X0221214Y0029633D01*
X0221214Y0023328D01*
X0219112Y0023328D02*
X0223316Y0023328D01*
X0216870Y0023328D02*
X0212667Y0027531D01*
X0210425Y0026480D02*
X0206221Y0026480D01*
D11*
X0158264Y0017948D02*
X0109052Y0017948D01*
X0109052Y0037633D01*
X0109052Y0041570D01*
X0158264Y0041570D01*
X0158264Y0037633D01*
X0158264Y0017948D01*
X0158264Y0037633D02*
X0109052Y0037633D01*
X0085430Y0053381D02*
X0132674Y0053381D01*
X0132674Y0100625D01*
X0085430Y0100625D01*
X0085430Y0053381D01*
X0081493Y0053381D02*
X0081493Y0100625D01*
X0034249Y0100625D01*
X0034249Y0053381D01*
X0081493Y0053381D01*
X0136611Y0053381D02*
X0136611Y0100625D01*
X0183855Y0100625D01*
X0183855Y0053381D01*
X0136611Y0053381D01*
X0187792Y0053381D02*
X0187792Y0100625D01*
X0235036Y0100625D01*
X0235036Y0053381D01*
X0187792Y0053381D01*
D12*
X0207777Y0050811D02*
X0207777Y0045807D01*
X0207777Y0047475D02*
X0210279Y0047475D01*
X0211113Y0048309D01*
X0211113Y0049977D01*
X0210279Y0050811D01*
X0207777Y0050811D01*
X0212933Y0048309D02*
X0216270Y0048309D01*
X0215436Y0050811D02*
X0212933Y0048309D01*
X0215436Y0045807D02*
X0215436Y0050811D01*
X0163120Y0049977D02*
X0163120Y0049143D01*
X0162286Y0048309D01*
X0163120Y0047475D01*
X0163120Y0046641D01*
X0162286Y0045807D01*
X0160618Y0045807D01*
X0159784Y0046641D01*
X0161452Y0048309D02*
X0162286Y0048309D01*
X0163120Y0049977D02*
X0162286Y0050811D01*
X0160618Y0050811D01*
X0159784Y0049977D01*
X0157964Y0049977D02*
X0157964Y0048309D01*
X0157130Y0047475D01*
X0154627Y0047475D01*
X0154627Y0045807D02*
X0154627Y0050811D01*
X0157130Y0050811D01*
X0157964Y0049977D01*
X0135561Y0043839D02*
X0132225Y0043839D01*
X0133893Y0043839D02*
X0133893Y0048843D01*
X0132225Y0047175D01*
X0130405Y0048843D02*
X0128736Y0048843D01*
X0129570Y0048843D02*
X0129570Y0044673D01*
X0128736Y0043839D01*
X0127902Y0043839D01*
X0127068Y0044673D01*
X0113907Y0045807D02*
X0110571Y0045807D01*
X0113907Y0049143D01*
X0113907Y0049977D01*
X0113073Y0050811D01*
X0111405Y0050811D01*
X0110571Y0049977D01*
X0108751Y0049977D02*
X0108751Y0048309D01*
X0107917Y0047475D01*
X0105415Y0047475D01*
X0105415Y0045807D02*
X0105415Y0050811D01*
X0107917Y0050811D01*
X0108751Y0049977D01*
X0062726Y0045807D02*
X0059390Y0045807D01*
X0061058Y0045807D02*
X0061058Y0050811D01*
X0059390Y0049143D01*
X0057570Y0049977D02*
X0057570Y0048309D01*
X0056736Y0047475D01*
X0054234Y0047475D01*
X0054234Y0045807D02*
X0054234Y0050811D01*
X0056736Y0050811D01*
X0057570Y0049977D01*
D13*
X0062054Y0024726D02*
X0062360Y0023695D01*
X0062724Y0022683D01*
X0063143Y0021694D01*
X0063616Y0020728D01*
X0064140Y0019790D01*
X0064715Y0018881D01*
X0065338Y0018005D01*
X0066007Y0017164D01*
X0066720Y0016359D01*
X0067475Y0015594D01*
X0068270Y0014870D01*
X0069102Y0014190D01*
X0069970Y0013555D01*
X0070870Y0012967D01*
X0071801Y0012429D01*
X0072759Y0011942D01*
X0073742Y0011508D01*
X0074747Y0011127D01*
X0075773Y0010802D01*
X0076813Y0010534D01*
X0077867Y0010323D01*
X0078931Y0010169D01*
X0080001Y0010075D01*
X0080892Y0010044D01*
X0080893Y0010039D01*
X0080895Y0010033D01*
X0080895Y0028734D01*
X0081599Y0028717D01*
X0082637Y0028622D01*
X0083668Y0028462D01*
X0084686Y0028237D01*
X0085687Y0027946D01*
X0086666Y0027587D01*
X0087615Y0027155D01*
X0088523Y0026641D01*
X0089370Y0026034D01*
X0090128Y0025318D01*
X0090744Y0024478D01*
X0091137Y0023516D01*
X0090663Y0022592D01*
X0090095Y0021723D01*
X0089439Y0020919D01*
X0088702Y0020187D01*
X0087943Y0019578D01*
X0087126Y0019050D01*
X0086260Y0018606D01*
X0085355Y0018248D01*
X0084422Y0017976D01*
X0083466Y0017791D01*
X0082498Y0017694D01*
X0082500Y0016817D01*
X0082505Y0015939D01*
X0082511Y0015062D01*
X0082519Y0014184D01*
X0083603Y0014329D01*
X0084674Y0014545D01*
X0085728Y0014834D01*
X0086760Y0015194D01*
X0087764Y0015625D01*
X0088735Y0016126D01*
X0089669Y0016693D01*
X0090561Y0017325D01*
X0091406Y0018017D01*
X0092201Y0018767D01*
X0092943Y0019569D01*
X0093626Y0020421D01*
X0094249Y0021320D01*
X0094808Y0022259D01*
X0095300Y0023235D01*
X0095721Y0024243D01*
X0096069Y0025280D01*
X0096342Y0026338D01*
X0096536Y0027414D01*
X0096645Y0028477D01*
X0096672Y0029547D01*
X0096618Y0030615D01*
X0096486Y0031675D01*
X0096278Y0032724D01*
X0095997Y0033756D01*
X0095645Y0034765D01*
X0095226Y0035749D01*
X0094743Y0036703D01*
X0094200Y0037625D01*
X0093599Y0038509D01*
X0092943Y0039353D01*
X0092234Y0040155D01*
X0091476Y0040909D01*
X0090671Y0041612D01*
X0089822Y0042263D01*
X0088933Y0042856D01*
X0088004Y0043387D01*
X0087042Y0043854D01*
X0086050Y0044253D01*
X0085032Y0044581D01*
X0083994Y0044834D01*
X0082939Y0045012D01*
X0081874Y0045112D01*
X0080893Y0045132D01*
X0080893Y0049085D01*
X0081703Y0049075D01*
X0082790Y0049000D01*
X0083871Y0048863D01*
X0084942Y0048666D01*
X0086000Y0048408D01*
X0087042Y0048091D01*
X0088065Y0047716D01*
X0089065Y0047285D01*
X0090039Y0046799D01*
X0090985Y0046260D01*
X0091900Y0045669D01*
X0092782Y0045029D01*
X0093628Y0044343D01*
X0094435Y0043611D01*
X0095201Y0042836D01*
X0095923Y0042020D01*
X0096600Y0041167D01*
X0097228Y0040277D01*
X0097807Y0039354D01*
X0098332Y0038401D01*
X0098804Y0037420D01*
X0099220Y0036413D01*
X0099578Y0035385D01*
X0099878Y0034338D01*
X0100117Y0033275D01*
X0100296Y0032200D01*
X0100413Y0031118D01*
X0100468Y0030030D01*
X0100463Y0028963D01*
X0100399Y0027897D01*
X0100277Y0026836D01*
X0100095Y0025784D01*
X0099856Y0024744D01*
X0099558Y0023719D01*
X0099204Y0022711D01*
X0098797Y0021724D01*
X0098335Y0020762D01*
X0097822Y0019826D01*
X0097259Y0018919D01*
X0096648Y0018044D01*
X0095991Y0017203D01*
X0095290Y0016398D01*
X0094547Y0015632D01*
X0093763Y0014906D01*
X0092942Y0014224D01*
X0092085Y0013587D01*
X0091196Y0012996D01*
X0090275Y0012455D01*
X0089327Y0011964D01*
X0088354Y0011526D01*
X0087357Y0011143D01*
X0086342Y0010814D01*
X0085309Y0010542D01*
X0084263Y0010327D01*
X0083207Y0010171D01*
X0082144Y0010072D01*
X0081077Y0010033D01*
X0080893Y0010039D01*
X0080893Y0028741D01*
X0080554Y0028750D01*
X0079484Y0028666D01*
X0078426Y0028491D01*
X0077386Y0028226D01*
X0076372Y0027877D01*
X0075389Y0027449D01*
X0074440Y0026948D01*
X0073529Y0026382D01*
X0072660Y0025755D01*
X0071832Y0025072D01*
X0071049Y0024338D01*
X0070316Y0023555D01*
X0070803Y0022620D01*
X0071385Y0021740D01*
X0072055Y0020925D01*
X0072807Y0020186D01*
X0073634Y0019530D01*
X0074445Y0019008D01*
X0075304Y0018568D01*
X0076200Y0018214D01*
X0077127Y0017948D01*
X0078075Y0017770D01*
X0079036Y0017683D01*
X0079038Y0016813D01*
X0079041Y0015943D01*
X0079044Y0015073D01*
X0079046Y0014203D01*
X0077992Y0014353D01*
X0076950Y0014572D01*
X0075926Y0014862D01*
X0074925Y0015224D01*
X0073953Y0015656D01*
X0073013Y0016157D01*
X0072114Y0016726D01*
X0071257Y0017358D01*
X0070449Y0018050D01*
X0069692Y0018799D01*
X0068990Y0019598D01*
X0068345Y0020445D01*
X0067760Y0021333D01*
X0067236Y0022259D01*
X0066775Y0023218D01*
X0066379Y0024206D01*
X0066051Y0025219D01*
X0065791Y0026251D01*
X0065600Y0027298D01*
X0065482Y0028389D01*
X0065450Y0029487D01*
X0065503Y0030584D01*
X0065638Y0031674D01*
X0065852Y0032751D01*
X0066143Y0033811D01*
X0066507Y0034847D01*
X0066942Y0035856D01*
X0067442Y0036833D01*
X0068006Y0037776D01*
X0068632Y0038679D01*
X0069314Y0039540D01*
X0070051Y0040353D01*
X0070841Y0041117D01*
X0071680Y0041826D01*
X0072564Y0042476D01*
X0073491Y0043065D01*
X0074456Y0043588D01*
X0075457Y0044040D01*
X0076488Y0044418D01*
X0077544Y0044719D01*
X0078620Y0044940D01*
X0079709Y0045080D01*
X0080806Y0045137D01*
X0080894Y0045135D01*
X0080894Y0049088D01*
X0080615Y0049092D01*
X0079552Y0049043D01*
X0078491Y0048936D01*
X0077438Y0048771D01*
X0076397Y0048547D01*
X0075369Y0048266D01*
X0074358Y0047929D01*
X0073368Y0047536D01*
X0072400Y0047090D01*
X0071459Y0046591D01*
X0070545Y0046044D01*
X0069662Y0045447D01*
X0068812Y0044805D01*
X0067999Y0044118D01*
X0067223Y0043388D01*
X0066486Y0042619D01*
X0065792Y0041811D01*
X0065141Y0040967D01*
X0064537Y0040090D01*
X0063982Y0039181D01*
X0063476Y0038243D01*
X0063022Y0037280D01*
X0062621Y0036292D01*
X0062276Y0035285D01*
X0061988Y0034259D01*
X0061756Y0033220D01*
X0061583Y0032168D01*
X0061469Y0031109D01*
X0061415Y0030045D01*
X0061422Y0028970D01*
X0061489Y0027898D01*
X0061617Y0026831D01*
X0061806Y0025772D01*
X0062054Y0024726D01*
X0062063Y0024696D02*
X0066220Y0024696D01*
X0066284Y0024501D02*
X0062121Y0024501D01*
X0062179Y0024306D02*
X0066347Y0024306D01*
X0066418Y0024110D02*
X0062237Y0024110D01*
X0062295Y0023915D02*
X0066496Y0023915D01*
X0066574Y0023720D02*
X0062353Y0023720D01*
X0062422Y0023524D02*
X0066652Y0023524D01*
X0066731Y0023329D02*
X0062492Y0023329D01*
X0062562Y0023133D02*
X0066816Y0023133D01*
X0066910Y0022938D02*
X0062632Y0022938D01*
X0062703Y0022743D02*
X0067004Y0022743D01*
X0067097Y0022547D02*
X0062782Y0022547D01*
X0062864Y0022352D02*
X0067191Y0022352D01*
X0067294Y0022157D02*
X0062947Y0022157D01*
X0063030Y0021961D02*
X0067404Y0021961D01*
X0067515Y0021766D02*
X0063112Y0021766D01*
X0063203Y0021571D02*
X0067625Y0021571D01*
X0067736Y0021375D02*
X0063299Y0021375D01*
X0063394Y0021180D02*
X0067860Y0021180D01*
X0067989Y0020984D02*
X0063490Y0020984D01*
X0063586Y0020789D02*
X0068118Y0020789D01*
X0068247Y0020594D02*
X0063691Y0020594D01*
X0063800Y0020398D02*
X0068380Y0020398D01*
X0068529Y0020203D02*
X0063909Y0020203D01*
X0064019Y0020008D02*
X0068678Y0020008D01*
X0068827Y0019812D02*
X0064128Y0019812D01*
X0064250Y0019617D02*
X0068975Y0019617D01*
X0069145Y0019422D02*
X0064373Y0019422D01*
X0064497Y0019226D02*
X0069316Y0019226D01*
X0069488Y0019031D02*
X0064620Y0019031D01*
X0064747Y0018836D02*
X0069660Y0018836D01*
X0069852Y0018640D02*
X0064886Y0018640D01*
X0065025Y0018445D02*
X0070050Y0018445D01*
X0070248Y0018249D02*
X0065164Y0018249D01*
X0065303Y0018054D02*
X0070445Y0018054D01*
X0070673Y0017859D02*
X0065454Y0017859D01*
X0065609Y0017663D02*
X0070901Y0017663D01*
X0071129Y0017468D02*
X0065765Y0017468D01*
X0065920Y0017273D02*
X0071373Y0017273D01*
X0071638Y0017077D02*
X0066084Y0017077D01*
X0066257Y0016882D02*
X0071903Y0016882D01*
X0072177Y0016687D02*
X0066430Y0016687D01*
X0066603Y0016491D02*
X0072486Y0016491D01*
X0072795Y0016296D02*
X0066783Y0016296D01*
X0066975Y0016100D02*
X0073120Y0016100D01*
X0073486Y0015905D02*
X0067168Y0015905D01*
X0067361Y0015710D02*
X0073852Y0015710D01*
X0074271Y0015514D02*
X0067563Y0015514D01*
X0067777Y0015319D02*
X0074711Y0015319D01*
X0075202Y0015124D02*
X0067991Y0015124D01*
X0068206Y0014928D02*
X0075743Y0014928D01*
X0076383Y0014733D02*
X0068438Y0014733D01*
X0068677Y0014538D02*
X0077115Y0014538D01*
X0078067Y0014342D02*
X0068916Y0014342D01*
X0069161Y0014147D02*
X0080893Y0014147D01*
X0080895Y0014147D02*
X0092838Y0014147D01*
X0093084Y0014342D02*
X0083670Y0014342D01*
X0084639Y0014538D02*
X0093319Y0014538D01*
X0093555Y0014733D02*
X0085361Y0014733D01*
X0085999Y0014928D02*
X0093787Y0014928D01*
X0093998Y0015124D02*
X0086558Y0015124D01*
X0087051Y0015319D02*
X0094209Y0015319D01*
X0094420Y0015514D02*
X0087506Y0015514D01*
X0087928Y0015710D02*
X0094623Y0015710D01*
X0094812Y0015905D02*
X0088308Y0015905D01*
X0088687Y0016100D02*
X0095002Y0016100D01*
X0095191Y0016296D02*
X0089015Y0016296D01*
X0089337Y0016491D02*
X0095371Y0016491D01*
X0095541Y0016687D02*
X0089658Y0016687D01*
X0089935Y0016882D02*
X0095712Y0016882D01*
X0095882Y0017077D02*
X0090211Y0017077D01*
X0090487Y0017273D02*
X0096046Y0017273D01*
X0096198Y0017468D02*
X0090736Y0017468D01*
X0090974Y0017663D02*
X0096351Y0017663D01*
X0096504Y0017859D02*
X0091213Y0017859D01*
X0091445Y0018054D02*
X0096655Y0018054D01*
X0096792Y0018249D02*
X0091653Y0018249D01*
X0091860Y0018445D02*
X0096928Y0018445D01*
X0097064Y0018640D02*
X0092067Y0018640D01*
X0092265Y0018836D02*
X0097201Y0018836D01*
X0097328Y0019031D02*
X0092445Y0019031D01*
X0092626Y0019226D02*
X0097450Y0019226D01*
X0097571Y0019422D02*
X0092806Y0019422D01*
X0092981Y0019617D02*
X0097692Y0019617D01*
X0097813Y0019812D02*
X0093138Y0019812D01*
X0093295Y0020008D02*
X0097921Y0020008D01*
X0098028Y0020203D02*
X0093451Y0020203D01*
X0093608Y0020398D02*
X0098135Y0020398D01*
X0098243Y0020594D02*
X0093746Y0020594D01*
X0093881Y0020789D02*
X0098348Y0020789D01*
X0098441Y0020984D02*
X0094017Y0020984D01*
X0094152Y0021180D02*
X0098535Y0021180D01*
X0098629Y0021375D02*
X0094282Y0021375D01*
X0094399Y0021571D02*
X0098723Y0021571D01*
X0098814Y0021766D02*
X0094515Y0021766D01*
X0094631Y0021961D02*
X0098894Y0021961D01*
X0098975Y0022157D02*
X0094747Y0022157D01*
X0094855Y0022352D02*
X0099056Y0022352D01*
X0099137Y0022547D02*
X0094954Y0022547D01*
X0095052Y0022743D02*
X0099216Y0022743D01*
X0099284Y0022938D02*
X0095150Y0022938D01*
X0095249Y0023133D02*
X0099353Y0023133D01*
X0099421Y0023329D02*
X0095339Y0023329D01*
X0095421Y0023524D02*
X0099490Y0023524D01*
X0099559Y0023720D02*
X0095502Y0023720D01*
X0095584Y0023915D02*
X0099615Y0023915D01*
X0099672Y0024110D02*
X0095665Y0024110D01*
X0095742Y0024306D02*
X0099729Y0024306D01*
X0099785Y0024501D02*
X0095808Y0024501D01*
X0095873Y0024696D02*
X0099842Y0024696D01*
X0099890Y0024892D02*
X0095939Y0024892D01*
X0096005Y0025087D02*
X0099935Y0025087D01*
X0099980Y0025282D02*
X0096070Y0025282D01*
X0096120Y0025478D02*
X0100025Y0025478D01*
X0100070Y0025673D02*
X0096171Y0025673D01*
X0096221Y0025869D02*
X0100110Y0025869D01*
X0100143Y0026064D02*
X0096271Y0026064D01*
X0096321Y0026259D02*
X0100177Y0026259D01*
X0100211Y0026455D02*
X0096363Y0026455D01*
X0096398Y0026650D02*
X0100245Y0026650D01*
X0100278Y0026845D02*
X0096433Y0026845D01*
X0096468Y0027041D02*
X0100301Y0027041D01*
X0100323Y0027236D02*
X0096504Y0027236D01*
X0096537Y0027431D02*
X0100346Y0027431D01*
X0100368Y0027627D02*
X0096557Y0027627D01*
X0096578Y0027822D02*
X0100391Y0027822D01*
X0100407Y0028018D02*
X0096598Y0028018D01*
X0096618Y0028213D02*
X0100418Y0028213D01*
X0100430Y0028408D02*
X0096638Y0028408D01*
X0096648Y0028604D02*
X0100442Y0028604D01*
X0100454Y0028799D02*
X0096653Y0028799D01*
X0096658Y0028994D02*
X0100463Y0028994D01*
X0100464Y0029190D02*
X0096663Y0029190D01*
X0096668Y0029385D02*
X0100465Y0029385D01*
X0100466Y0029580D02*
X0096671Y0029580D01*
X0096661Y0029776D02*
X0100467Y0029776D01*
X0100467Y0029971D02*
X0096651Y0029971D01*
X0096641Y0030166D02*
X0100461Y0030166D01*
X0100451Y0030362D02*
X0096631Y0030362D01*
X0096621Y0030557D02*
X0100441Y0030557D01*
X0100431Y0030753D02*
X0096601Y0030753D01*
X0096577Y0030948D02*
X0100421Y0030948D01*
X0100410Y0031143D02*
X0096552Y0031143D01*
X0096528Y0031339D02*
X0100389Y0031339D01*
X0100368Y0031534D02*
X0096504Y0031534D01*
X0096475Y0031729D02*
X0100347Y0031729D01*
X0100326Y0031925D02*
X0096436Y0031925D01*
X0096398Y0032120D02*
X0100304Y0032120D01*
X0100277Y0032315D02*
X0096359Y0032315D01*
X0096320Y0032511D02*
X0100244Y0032511D01*
X0100212Y0032706D02*
X0096281Y0032706D01*
X0096229Y0032902D02*
X0100179Y0032902D01*
X0100147Y0033097D02*
X0096176Y0033097D01*
X0096123Y0033292D02*
X0100113Y0033292D01*
X0100069Y0033488D02*
X0096070Y0033488D01*
X0096016Y0033683D02*
X0100025Y0033683D01*
X0099981Y0033878D02*
X0095954Y0033878D01*
X0095886Y0034074D02*
X0099937Y0034074D01*
X0099893Y0034269D02*
X0095818Y0034269D01*
X0095750Y0034464D02*
X0099842Y0034464D01*
X0099786Y0034660D02*
X0095682Y0034660D01*
X0095607Y0034855D02*
X0099730Y0034855D01*
X0099674Y0035051D02*
X0095523Y0035051D01*
X0095440Y0035246D02*
X0099618Y0035246D01*
X0099559Y0035441D02*
X0095357Y0035441D01*
X0095274Y0035637D02*
X0099490Y0035637D01*
X0099422Y0035832D02*
X0095184Y0035832D01*
X0095085Y0036027D02*
X0099354Y0036027D01*
X0099286Y0036223D02*
X0094986Y0036223D01*
X0094887Y0036418D02*
X0099218Y0036418D01*
X0099137Y0036613D02*
X0094789Y0036613D01*
X0094681Y0036809D02*
X0099057Y0036809D01*
X0098976Y0037004D02*
X0094566Y0037004D01*
X0094451Y0037200D02*
X0098895Y0037200D01*
X0098815Y0037395D02*
X0094335Y0037395D01*
X0094220Y0037590D02*
X0098722Y0037590D01*
X0098628Y0037786D02*
X0094090Y0037786D01*
X0093958Y0037981D02*
X0098534Y0037981D01*
X0098440Y0038176D02*
X0093825Y0038176D01*
X0093692Y0038372D02*
X0098347Y0038372D01*
X0098241Y0038567D02*
X0093554Y0038567D01*
X0093402Y0038762D02*
X0098133Y0038762D01*
X0098025Y0038958D02*
X0093250Y0038958D01*
X0093099Y0039153D02*
X0097918Y0039153D01*
X0097810Y0039348D02*
X0092947Y0039348D01*
X0092775Y0039544D02*
X0097688Y0039544D01*
X0097565Y0039739D02*
X0092602Y0039739D01*
X0092429Y0039935D02*
X0097443Y0039935D01*
X0097320Y0040130D02*
X0092256Y0040130D01*
X0092063Y0040325D02*
X0097194Y0040325D01*
X0097056Y0040521D02*
X0091866Y0040521D01*
X0091670Y0040716D02*
X0096918Y0040716D01*
X0096780Y0040911D02*
X0091473Y0040911D01*
X0091249Y0041107D02*
X0096642Y0041107D01*
X0096492Y0041302D02*
X0091026Y0041302D01*
X0090802Y0041497D02*
X0096337Y0041497D01*
X0096182Y0041693D02*
X0090566Y0041693D01*
X0090311Y0041888D02*
X0096027Y0041888D01*
X0095866Y0042084D02*
X0090056Y0042084D01*
X0089798Y0042279D02*
X0095694Y0042279D01*
X0095521Y0042474D02*
X0089505Y0042474D01*
X0089212Y0042670D02*
X0095348Y0042670D01*
X0095172Y0042865D02*
X0088916Y0042865D01*
X0088575Y0043060D02*
X0094979Y0043060D01*
X0094785Y0043256D02*
X0088234Y0043256D01*
X0087872Y0043451D02*
X0094592Y0043451D01*
X0094395Y0043646D02*
X0087470Y0043646D01*
X0087068Y0043842D02*
X0094180Y0043842D01*
X0093964Y0044037D02*
X0086587Y0044037D01*
X0086102Y0044233D02*
X0093749Y0044233D01*
X0093523Y0044428D02*
X0085508Y0044428D01*
X0084858Y0044623D02*
X0093282Y0044623D01*
X0093042Y0044819D02*
X0084058Y0044819D01*
X0082916Y0045014D02*
X0092801Y0045014D01*
X0092534Y0045209D02*
X0080893Y0045209D01*
X0080894Y0045209D02*
X0069348Y0045209D01*
X0069606Y0045405D02*
X0080894Y0045405D01*
X0080893Y0045405D02*
X0092264Y0045405D01*
X0091995Y0045600D02*
X0080893Y0045600D01*
X0080894Y0045600D02*
X0069889Y0045600D01*
X0070178Y0045795D02*
X0080894Y0045795D01*
X0080893Y0045795D02*
X0091704Y0045795D01*
X0091402Y0045991D02*
X0080893Y0045991D01*
X0080894Y0045991D02*
X0070467Y0045991D01*
X0070783Y0046186D02*
X0080894Y0046186D01*
X0080893Y0046186D02*
X0091099Y0046186D01*
X0090771Y0046382D02*
X0080893Y0046382D01*
X0080894Y0046382D02*
X0071109Y0046382D01*
X0071435Y0046577D02*
X0080894Y0046577D01*
X0080893Y0046577D02*
X0090429Y0046577D01*
X0090086Y0046772D02*
X0080893Y0046772D01*
X0080894Y0046772D02*
X0071801Y0046772D01*
X0072170Y0046968D02*
X0080894Y0046968D01*
X0080893Y0046968D02*
X0089701Y0046968D01*
X0089309Y0047163D02*
X0080893Y0047163D01*
X0080894Y0047163D02*
X0072559Y0047163D01*
X0072983Y0047358D02*
X0080894Y0047358D01*
X0080893Y0047358D02*
X0088895Y0047358D01*
X0088441Y0047554D02*
X0080893Y0047554D01*
X0080894Y0047554D02*
X0073412Y0047554D01*
X0073905Y0047749D02*
X0080894Y0047749D01*
X0080893Y0047749D02*
X0087975Y0047749D01*
X0087441Y0047944D02*
X0080893Y0047944D01*
X0080894Y0047944D02*
X0074405Y0047944D01*
X0074991Y0048140D02*
X0080894Y0048140D01*
X0080893Y0048140D02*
X0086881Y0048140D01*
X0086240Y0048335D02*
X0080893Y0048335D01*
X0080894Y0048335D02*
X0075622Y0048335D01*
X0076336Y0048530D02*
X0080894Y0048530D01*
X0080893Y0048530D02*
X0085499Y0048530D01*
X0084618Y0048726D02*
X0080893Y0048726D01*
X0080894Y0048726D02*
X0077229Y0048726D01*
X0078396Y0048921D02*
X0080894Y0048921D01*
X0080893Y0048921D02*
X0083414Y0048921D01*
X0079194Y0045014D02*
X0069089Y0045014D01*
X0068831Y0044819D02*
X0078030Y0044819D01*
X0077210Y0044623D02*
X0068598Y0044623D01*
X0068366Y0044428D02*
X0076524Y0044428D01*
X0075983Y0044233D02*
X0068135Y0044233D01*
X0067913Y0044037D02*
X0075452Y0044037D01*
X0075019Y0043842D02*
X0067705Y0043842D01*
X0067498Y0043646D02*
X0074587Y0043646D01*
X0074204Y0043451D02*
X0067290Y0043451D01*
X0067096Y0043256D02*
X0073843Y0043256D01*
X0073483Y0043060D02*
X0066909Y0043060D01*
X0066722Y0042865D02*
X0073176Y0042865D01*
X0072868Y0042670D02*
X0066535Y0042670D01*
X0066362Y0042474D02*
X0072561Y0042474D01*
X0072295Y0042279D02*
X0066194Y0042279D01*
X0066026Y0042084D02*
X0072030Y0042084D01*
X0071764Y0041888D02*
X0065859Y0041888D01*
X0065701Y0041693D02*
X0071522Y0041693D01*
X0071291Y0041497D02*
X0065550Y0041497D01*
X0065400Y0041302D02*
X0071060Y0041302D01*
X0070830Y0041107D02*
X0065249Y0041107D01*
X0065103Y0040911D02*
X0070628Y0040911D01*
X0070426Y0040716D02*
X0064968Y0040716D01*
X0064834Y0040521D02*
X0070224Y0040521D01*
X0070026Y0040325D02*
X0064700Y0040325D01*
X0064565Y0040130D02*
X0069849Y0040130D01*
X0069672Y0039935D02*
X0064442Y0039935D01*
X0064323Y0039739D02*
X0069495Y0039739D01*
X0069318Y0039544D02*
X0064203Y0039544D01*
X0064084Y0039348D02*
X0069162Y0039348D01*
X0069008Y0039153D02*
X0063967Y0039153D01*
X0063861Y0038958D02*
X0068853Y0038958D01*
X0068698Y0038762D02*
X0063756Y0038762D01*
X0063650Y0038567D02*
X0068554Y0038567D01*
X0068419Y0038372D02*
X0063545Y0038372D01*
X0063444Y0038176D02*
X0068284Y0038176D01*
X0068148Y0037981D02*
X0063352Y0037981D01*
X0063260Y0037786D02*
X0068013Y0037786D01*
X0067895Y0037590D02*
X0063168Y0037590D01*
X0063076Y0037395D02*
X0067778Y0037395D01*
X0067661Y0037200D02*
X0062989Y0037200D01*
X0062910Y0037004D02*
X0067544Y0037004D01*
X0067429Y0036809D02*
X0062831Y0036809D01*
X0062752Y0036613D02*
X0067329Y0036613D01*
X0067229Y0036418D02*
X0062672Y0036418D01*
X0062598Y0036223D02*
X0067129Y0036223D01*
X0067030Y0036027D02*
X0062531Y0036027D01*
X0062464Y0035832D02*
X0066931Y0035832D01*
X0066847Y0035637D02*
X0062397Y0035637D01*
X0062330Y0035441D02*
X0066763Y0035441D01*
X0066679Y0035246D02*
X0062266Y0035246D01*
X0062210Y0035051D02*
X0066595Y0035051D01*
X0066511Y0034855D02*
X0062155Y0034855D01*
X0062100Y0034660D02*
X0066442Y0034660D01*
X0066373Y0034464D02*
X0062045Y0034464D01*
X0061990Y0034269D02*
X0066304Y0034269D01*
X0066236Y0034074D02*
X0061946Y0034074D01*
X0061903Y0033878D02*
X0066167Y0033878D01*
X0066108Y0033683D02*
X0061859Y0033683D01*
X0061816Y0033488D02*
X0066055Y0033488D01*
X0066001Y0033292D02*
X0061772Y0033292D01*
X0061736Y0033097D02*
X0065947Y0033097D01*
X0065894Y0032902D02*
X0061704Y0032902D01*
X0061672Y0032706D02*
X0065843Y0032706D01*
X0065804Y0032511D02*
X0061639Y0032511D01*
X0061607Y0032315D02*
X0065765Y0032315D01*
X0065726Y0032120D02*
X0061578Y0032120D01*
X0061557Y0031925D02*
X0065687Y0031925D01*
X0065648Y0031729D02*
X0061536Y0031729D01*
X0061515Y0031534D02*
X0065620Y0031534D01*
X0065596Y0031339D02*
X0061494Y0031339D01*
X0061473Y0031143D02*
X0065572Y0031143D01*
X0065548Y0030948D02*
X0061461Y0030948D01*
X0061451Y0030753D02*
X0065524Y0030753D01*
X0065502Y0030557D02*
X0061441Y0030557D01*
X0061432Y0030362D02*
X0065492Y0030362D01*
X0065483Y0030166D02*
X0061422Y0030166D01*
X0061416Y0029971D02*
X0065473Y0029971D01*
X0065464Y0029776D02*
X0061417Y0029776D01*
X0061418Y0029580D02*
X0065455Y0029580D01*
X0065453Y0029385D02*
X0061420Y0029385D01*
X0061421Y0029190D02*
X0065459Y0029190D01*
X0065464Y0028994D02*
X0061422Y0028994D01*
X0061433Y0028799D02*
X0065470Y0028799D01*
X0065476Y0028604D02*
X0061445Y0028604D01*
X0061457Y0028408D02*
X0065482Y0028408D01*
X0065501Y0028213D02*
X0061470Y0028213D01*
X0061482Y0028018D02*
X0065522Y0028018D01*
X0065543Y0027822D02*
X0061498Y0027822D01*
X0061522Y0027627D02*
X0065564Y0027627D01*
X0065586Y0027431D02*
X0061545Y0027431D01*
X0061569Y0027236D02*
X0065611Y0027236D01*
X0065647Y0027041D02*
X0061592Y0027041D01*
X0061615Y0026845D02*
X0065682Y0026845D01*
X0065718Y0026650D02*
X0061649Y0026650D01*
X0061684Y0026455D02*
X0065754Y0026455D01*
X0065789Y0026259D02*
X0061719Y0026259D01*
X0061754Y0026064D02*
X0065838Y0026064D01*
X0065887Y0025869D02*
X0061789Y0025869D01*
X0061829Y0025673D02*
X0065936Y0025673D01*
X0065986Y0025478D02*
X0061876Y0025478D01*
X0061922Y0025282D02*
X0066035Y0025282D01*
X0066094Y0025087D02*
X0061968Y0025087D01*
X0062014Y0024892D02*
X0066157Y0024892D01*
X0069511Y0025644D02*
X0069337Y0026672D01*
X0069233Y0027711D01*
X0069201Y0028754D01*
X0069242Y0029796D01*
X0069357Y0030834D01*
X0069548Y0031859D01*
X0069814Y0032868D01*
X0070158Y0033852D01*
X0070580Y0034806D01*
X0071080Y0035722D01*
X0071655Y0036591D01*
X0072306Y0037407D01*
X0073028Y0038160D01*
X0073816Y0038842D01*
X0074706Y0039474D01*
X0075652Y0040015D01*
X0076647Y0040465D01*
X0077679Y0040822D01*
X0078737Y0041089D01*
X0079814Y0041266D01*
X0080902Y0041355D01*
X0081136Y0041352D01*
X0081136Y0030683D01*
X0081137Y0030683D01*
X0081137Y0041352D01*
X0081994Y0041344D01*
X0083026Y0041233D01*
X0084045Y0041037D01*
X0085043Y0040757D01*
X0086015Y0040391D01*
X0086948Y0039938D01*
X0087834Y0039397D01*
X0088660Y0038771D01*
X0089464Y0038019D01*
X0090183Y0037187D01*
X0090812Y0036284D01*
X0091349Y0035324D01*
X0091793Y0034317D01*
X0092146Y0033274D01*
X0092408Y0032205D01*
X0092584Y0031118D01*
X0092674Y0030021D01*
X0092682Y0028921D01*
X0092610Y0027823D01*
X0092462Y0026733D01*
X0092241Y0025655D01*
X0091465Y0026434D01*
X0090634Y0027153D01*
X0089756Y0027814D01*
X0088837Y0028417D01*
X0087880Y0028959D01*
X0086888Y0029433D01*
X0085865Y0029837D01*
X0084815Y0030167D01*
X0083745Y0030418D01*
X0082659Y0030589D01*
X0081563Y0030679D01*
X0081136Y0030683D01*
X0081135Y0030683D01*
X0080463Y0030688D01*
X0079434Y0030625D01*
X0078411Y0030492D01*
X0077400Y0030287D01*
X0076405Y0030012D01*
X0075432Y0029671D01*
X0074484Y0029265D01*
X0073565Y0028798D01*
X0072677Y0028272D01*
X0071824Y0027692D01*
X0071009Y0027060D01*
X0070235Y0026378D01*
X0069511Y0025644D01*
X0069506Y0025673D02*
X0069540Y0025673D01*
X0069473Y0025869D02*
X0069733Y0025869D01*
X0069926Y0026064D02*
X0069440Y0026064D01*
X0069407Y0026259D02*
X0070118Y0026259D01*
X0070322Y0026455D02*
X0069374Y0026455D01*
X0069341Y0026650D02*
X0070544Y0026650D01*
X0070766Y0026845D02*
X0069320Y0026845D01*
X0069300Y0027041D02*
X0070987Y0027041D01*
X0071236Y0027236D02*
X0069281Y0027236D01*
X0069261Y0027431D02*
X0071488Y0027431D01*
X0071740Y0027627D02*
X0069242Y0027627D01*
X0069230Y0027822D02*
X0072016Y0027822D01*
X0072303Y0028018D02*
X0069224Y0028018D01*
X0069218Y0028213D02*
X0072590Y0028213D01*
X0072907Y0028408D02*
X0069212Y0028408D01*
X0069206Y0028604D02*
X0073237Y0028604D01*
X0073567Y0028799D02*
X0069203Y0028799D01*
X0069211Y0028994D02*
X0073951Y0028994D01*
X0074336Y0029190D02*
X0069219Y0029190D01*
X0069226Y0029385D02*
X0074764Y0029385D01*
X0075221Y0029580D02*
X0069234Y0029580D01*
X0069241Y0029776D02*
X0075731Y0029776D01*
X0076288Y0029971D02*
X0069262Y0029971D01*
X0069283Y0030166D02*
X0076963Y0030166D01*
X0077769Y0030362D02*
X0069305Y0030362D01*
X0069326Y0030557D02*
X0078911Y0030557D01*
X0079108Y0028604D02*
X0080893Y0028604D01*
X0080895Y0028604D02*
X0082755Y0028604D01*
X0083911Y0028408D02*
X0080895Y0028408D01*
X0080893Y0028408D02*
X0078102Y0028408D01*
X0077348Y0028213D02*
X0080893Y0028213D01*
X0080895Y0028213D02*
X0084770Y0028213D01*
X0085442Y0028018D02*
X0080895Y0028018D01*
X0080893Y0028018D02*
X0076781Y0028018D01*
X0076247Y0027822D02*
X0080893Y0027822D01*
X0080895Y0027822D02*
X0086025Y0027822D01*
X0086557Y0027627D02*
X0080895Y0027627D01*
X0080893Y0027627D02*
X0075798Y0027627D01*
X0075356Y0027431D02*
X0080893Y0027431D01*
X0080895Y0027431D02*
X0087007Y0027431D01*
X0087436Y0027236D02*
X0080895Y0027236D01*
X0080893Y0027236D02*
X0074985Y0027236D01*
X0074615Y0027041D02*
X0080893Y0027041D01*
X0080895Y0027041D02*
X0087817Y0027041D01*
X0088162Y0026845D02*
X0080895Y0026845D01*
X0080893Y0026845D02*
X0074274Y0026845D01*
X0073960Y0026650D02*
X0080893Y0026650D01*
X0080895Y0026650D02*
X0088507Y0026650D01*
X0088783Y0026455D02*
X0080895Y0026455D01*
X0080893Y0026455D02*
X0073646Y0026455D01*
X0073359Y0026259D02*
X0080893Y0026259D01*
X0080895Y0026259D02*
X0089055Y0026259D01*
X0089328Y0026064D02*
X0080895Y0026064D01*
X0080893Y0026064D02*
X0073088Y0026064D01*
X0072817Y0025869D02*
X0080893Y0025869D01*
X0080895Y0025869D02*
X0089545Y0025869D01*
X0089752Y0025673D02*
X0080895Y0025673D01*
X0080893Y0025673D02*
X0072561Y0025673D01*
X0072324Y0025478D02*
X0080893Y0025478D01*
X0080895Y0025478D02*
X0089959Y0025478D01*
X0090154Y0025282D02*
X0080895Y0025282D01*
X0080893Y0025282D02*
X0072087Y0025282D01*
X0071850Y0025087D02*
X0080893Y0025087D01*
X0080895Y0025087D02*
X0090297Y0025087D01*
X0090440Y0024892D02*
X0080895Y0024892D01*
X0080893Y0024892D02*
X0071639Y0024892D01*
X0071431Y0024696D02*
X0080893Y0024696D01*
X0080895Y0024696D02*
X0090584Y0024696D01*
X0090727Y0024501D02*
X0080895Y0024501D01*
X0080893Y0024501D02*
X0071223Y0024501D01*
X0071019Y0024306D02*
X0080893Y0024306D01*
X0080895Y0024306D02*
X0090814Y0024306D01*
X0090894Y0024110D02*
X0080895Y0024110D01*
X0080893Y0024110D02*
X0070836Y0024110D01*
X0070653Y0023915D02*
X0080893Y0023915D01*
X0080895Y0023915D02*
X0090974Y0023915D01*
X0091054Y0023720D02*
X0080895Y0023720D01*
X0080893Y0023720D02*
X0070470Y0023720D01*
X0070332Y0023524D02*
X0080893Y0023524D01*
X0080895Y0023524D02*
X0091134Y0023524D01*
X0091041Y0023329D02*
X0080895Y0023329D01*
X0080893Y0023329D02*
X0070434Y0023329D01*
X0070536Y0023133D02*
X0080893Y0023133D01*
X0080895Y0023133D02*
X0090941Y0023133D01*
X0090841Y0022938D02*
X0080895Y0022938D01*
X0080893Y0022938D02*
X0070637Y0022938D01*
X0070739Y0022743D02*
X0080893Y0022743D01*
X0080895Y0022743D02*
X0090741Y0022743D01*
X0090634Y0022547D02*
X0080895Y0022547D01*
X0080893Y0022547D02*
X0070851Y0022547D01*
X0070980Y0022352D02*
X0080893Y0022352D01*
X0080895Y0022352D02*
X0090506Y0022352D01*
X0090378Y0022157D02*
X0080895Y0022157D01*
X0080893Y0022157D02*
X0071109Y0022157D01*
X0071239Y0021961D02*
X0080893Y0021961D01*
X0080895Y0021961D02*
X0090250Y0021961D01*
X0090122Y0021766D02*
X0080895Y0021766D01*
X0080893Y0021766D02*
X0071368Y0021766D01*
X0071524Y0021571D02*
X0080893Y0021571D01*
X0080895Y0021571D02*
X0089970Y0021571D01*
X0089811Y0021375D02*
X0080895Y0021375D01*
X0080893Y0021375D02*
X0071685Y0021375D01*
X0071846Y0021180D02*
X0080893Y0021180D01*
X0080895Y0021180D02*
X0089652Y0021180D01*
X0089492Y0020984D02*
X0080895Y0020984D01*
X0080893Y0020984D02*
X0072007Y0020984D01*
X0072194Y0020789D02*
X0080893Y0020789D01*
X0080895Y0020789D02*
X0089308Y0020789D01*
X0089112Y0020594D02*
X0080895Y0020594D01*
X0080893Y0020594D02*
X0072392Y0020594D01*
X0072591Y0020398D02*
X0080893Y0020398D01*
X0080895Y0020398D02*
X0088915Y0020398D01*
X0088719Y0020203D02*
X0080895Y0020203D01*
X0080893Y0020203D02*
X0072789Y0020203D01*
X0073031Y0020008D02*
X0080893Y0020008D01*
X0080895Y0020008D02*
X0088479Y0020008D01*
X0088235Y0019812D02*
X0080895Y0019812D01*
X0080893Y0019812D02*
X0073278Y0019812D01*
X0073524Y0019617D02*
X0080893Y0019617D01*
X0080895Y0019617D02*
X0087991Y0019617D01*
X0087701Y0019422D02*
X0080895Y0019422D01*
X0080893Y0019422D02*
X0073802Y0019422D01*
X0074106Y0019226D02*
X0080893Y0019226D01*
X0080895Y0019226D02*
X0087398Y0019226D01*
X0087088Y0019031D02*
X0080895Y0019031D01*
X0080893Y0019031D02*
X0074410Y0019031D01*
X0074782Y0018836D02*
X0080893Y0018836D01*
X0080895Y0018836D02*
X0086708Y0018836D01*
X0086327Y0018640D02*
X0080895Y0018640D01*
X0080893Y0018640D02*
X0075164Y0018640D01*
X0075617Y0018445D02*
X0080893Y0018445D01*
X0080895Y0018445D02*
X0085854Y0018445D01*
X0085360Y0018249D02*
X0080895Y0018249D01*
X0080893Y0018249D02*
X0076112Y0018249D01*
X0076758Y0018054D02*
X0080893Y0018054D01*
X0080895Y0018054D02*
X0084689Y0018054D01*
X0083815Y0017859D02*
X0080895Y0017859D01*
X0080893Y0017859D02*
X0077603Y0017859D01*
X0079036Y0017663D02*
X0080893Y0017663D01*
X0080895Y0017663D02*
X0082498Y0017663D01*
X0082499Y0017468D02*
X0080895Y0017468D01*
X0080893Y0017468D02*
X0079036Y0017468D01*
X0079037Y0017273D02*
X0080893Y0017273D01*
X0080895Y0017273D02*
X0082499Y0017273D01*
X0082500Y0017077D02*
X0080895Y0017077D01*
X0080893Y0017077D02*
X0079037Y0017077D01*
X0079038Y0016882D02*
X0080893Y0016882D01*
X0080895Y0016882D02*
X0082500Y0016882D01*
X0082501Y0016687D02*
X0080895Y0016687D01*
X0080893Y0016687D02*
X0079038Y0016687D01*
X0079039Y0016491D02*
X0080893Y0016491D01*
X0080895Y0016491D02*
X0082502Y0016491D01*
X0082503Y0016296D02*
X0080895Y0016296D01*
X0080893Y0016296D02*
X0079040Y0016296D01*
X0079041Y0016100D02*
X0080893Y0016100D01*
X0080895Y0016100D02*
X0082504Y0016100D01*
X0082505Y0015905D02*
X0080895Y0015905D01*
X0080893Y0015905D02*
X0079041Y0015905D01*
X0079042Y0015710D02*
X0080893Y0015710D01*
X0080895Y0015710D02*
X0082506Y0015710D01*
X0082508Y0015514D02*
X0080895Y0015514D01*
X0080893Y0015514D02*
X0079043Y0015514D01*
X0079043Y0015319D02*
X0080893Y0015319D01*
X0080895Y0015319D02*
X0082509Y0015319D01*
X0082511Y0015124D02*
X0080895Y0015124D01*
X0080893Y0015124D02*
X0079044Y0015124D01*
X0079045Y0014928D02*
X0080893Y0014928D01*
X0080895Y0014928D02*
X0082513Y0014928D01*
X0082514Y0014733D02*
X0080895Y0014733D01*
X0080893Y0014733D02*
X0079045Y0014733D01*
X0079045Y0014538D02*
X0080893Y0014538D01*
X0080895Y0014538D02*
X0082516Y0014538D01*
X0082518Y0014342D02*
X0080895Y0014342D01*
X0080893Y0014342D02*
X0079045Y0014342D01*
X0080893Y0013951D02*
X0069428Y0013951D01*
X0069695Y0013756D02*
X0080893Y0013756D01*
X0080895Y0013756D02*
X0092313Y0013756D01*
X0092576Y0013951D02*
X0080895Y0013951D01*
X0080895Y0013561D02*
X0092046Y0013561D01*
X0091752Y0013365D02*
X0080895Y0013365D01*
X0080893Y0013365D02*
X0070260Y0013365D01*
X0069962Y0013561D02*
X0080893Y0013561D01*
X0080895Y0013170D02*
X0091458Y0013170D01*
X0091160Y0012975D02*
X0080895Y0012975D01*
X0080893Y0012975D02*
X0070859Y0012975D01*
X0070560Y0013170D02*
X0080893Y0013170D01*
X0080895Y0012779D02*
X0090827Y0012779D01*
X0090495Y0012584D02*
X0080895Y0012584D01*
X0080893Y0012584D02*
X0071533Y0012584D01*
X0071195Y0012779D02*
X0080893Y0012779D01*
X0080895Y0012389D02*
X0090148Y0012389D01*
X0089770Y0012193D02*
X0080895Y0012193D01*
X0080893Y0012193D02*
X0072265Y0012193D01*
X0072649Y0011998D02*
X0080893Y0011998D01*
X0080895Y0011998D02*
X0089393Y0011998D01*
X0088968Y0011802D02*
X0080895Y0011802D01*
X0080893Y0011802D02*
X0073075Y0011802D01*
X0073517Y0011607D02*
X0080893Y0011607D01*
X0080895Y0011607D02*
X0088533Y0011607D01*
X0088056Y0011412D02*
X0080895Y0011412D01*
X0080893Y0011412D02*
X0073996Y0011412D01*
X0074512Y0011216D02*
X0080893Y0011216D01*
X0080895Y0011216D02*
X0087548Y0011216D01*
X0086981Y0011021D02*
X0080895Y0011021D01*
X0080893Y0011021D02*
X0075083Y0011021D01*
X0075699Y0010826D02*
X0080893Y0010826D01*
X0080895Y0010826D02*
X0086377Y0010826D01*
X0085644Y0010630D02*
X0080895Y0010630D01*
X0080893Y0010630D02*
X0076440Y0010630D01*
X0077308Y0010435D02*
X0080893Y0010435D01*
X0080895Y0010435D02*
X0084788Y0010435D01*
X0083673Y0010240D02*
X0080895Y0010240D01*
X0080893Y0010240D02*
X0078444Y0010240D01*
X0080878Y0010044D02*
X0080893Y0010044D01*
X0080895Y0010044D02*
X0081386Y0010044D01*
X0080893Y0012389D02*
X0071881Y0012389D01*
X0092223Y0025673D02*
X0092245Y0025673D01*
X0092285Y0025869D02*
X0092028Y0025869D01*
X0091833Y0026064D02*
X0092325Y0026064D01*
X0092365Y0026259D02*
X0091639Y0026259D01*
X0091441Y0026455D02*
X0092405Y0026455D01*
X0092445Y0026650D02*
X0091215Y0026650D01*
X0090989Y0026845D02*
X0092478Y0026845D01*
X0092504Y0027041D02*
X0090763Y0027041D01*
X0090523Y0027236D02*
X0092531Y0027236D01*
X0092557Y0027431D02*
X0090264Y0027431D01*
X0090005Y0027627D02*
X0092583Y0027627D01*
X0092610Y0027822D02*
X0089744Y0027822D01*
X0089446Y0028018D02*
X0092623Y0028018D01*
X0092636Y0028213D02*
X0089148Y0028213D01*
X0088851Y0028408D02*
X0092648Y0028408D01*
X0092661Y0028604D02*
X0088507Y0028604D01*
X0088162Y0028799D02*
X0092674Y0028799D01*
X0092681Y0028994D02*
X0087805Y0028994D01*
X0087396Y0029190D02*
X0092680Y0029190D01*
X0092679Y0029385D02*
X0086987Y0029385D01*
X0086514Y0029580D02*
X0092677Y0029580D01*
X0092676Y0029776D02*
X0086020Y0029776D01*
X0085438Y0029971D02*
X0092674Y0029971D01*
X0092662Y0030166D02*
X0084816Y0030166D01*
X0083984Y0030362D02*
X0092646Y0030362D01*
X0092630Y0030557D02*
X0082861Y0030557D01*
X0081137Y0030753D02*
X0092614Y0030753D01*
X0092598Y0030948D02*
X0081137Y0030948D01*
X0081136Y0030948D02*
X0069378Y0030948D01*
X0069348Y0030753D02*
X0081136Y0030753D01*
X0081137Y0031143D02*
X0092580Y0031143D01*
X0092548Y0031339D02*
X0081137Y0031339D01*
X0081136Y0031339D02*
X0069451Y0031339D01*
X0069487Y0031534D02*
X0081136Y0031534D01*
X0081137Y0031534D02*
X0092517Y0031534D01*
X0092485Y0031729D02*
X0081137Y0031729D01*
X0081136Y0031729D02*
X0069523Y0031729D01*
X0069565Y0031925D02*
X0081136Y0031925D01*
X0081137Y0031925D02*
X0092454Y0031925D01*
X0092422Y0032120D02*
X0081137Y0032120D01*
X0081136Y0032120D02*
X0069617Y0032120D01*
X0069668Y0032315D02*
X0081136Y0032315D01*
X0081137Y0032315D02*
X0092381Y0032315D01*
X0092333Y0032511D02*
X0081137Y0032511D01*
X0081136Y0032511D02*
X0069720Y0032511D01*
X0069772Y0032706D02*
X0081136Y0032706D01*
X0081137Y0032706D02*
X0092285Y0032706D01*
X0092237Y0032902D02*
X0081137Y0032902D01*
X0081136Y0032902D02*
X0069826Y0032902D01*
X0069895Y0033097D02*
X0081136Y0033097D01*
X0081137Y0033097D02*
X0092190Y0033097D01*
X0092140Y0033292D02*
X0081137Y0033292D01*
X0081136Y0033292D02*
X0069963Y0033292D01*
X0070031Y0033488D02*
X0081136Y0033488D01*
X0081137Y0033488D02*
X0092074Y0033488D01*
X0092008Y0033683D02*
X0081137Y0033683D01*
X0081136Y0033683D02*
X0070099Y0033683D01*
X0070170Y0033878D02*
X0081136Y0033878D01*
X0081137Y0033878D02*
X0091942Y0033878D01*
X0091876Y0034074D02*
X0081137Y0034074D01*
X0081136Y0034074D02*
X0070256Y0034074D01*
X0070343Y0034269D02*
X0081136Y0034269D01*
X0081137Y0034269D02*
X0091810Y0034269D01*
X0091728Y0034464D02*
X0081137Y0034464D01*
X0081136Y0034464D02*
X0070429Y0034464D01*
X0070516Y0034660D02*
X0081136Y0034660D01*
X0081137Y0034660D02*
X0091642Y0034660D01*
X0091556Y0034855D02*
X0081137Y0034855D01*
X0081136Y0034855D02*
X0070608Y0034855D01*
X0070714Y0035051D02*
X0081136Y0035051D01*
X0081137Y0035051D02*
X0091470Y0035051D01*
X0091383Y0035246D02*
X0081137Y0035246D01*
X0081136Y0035246D02*
X0070821Y0035246D01*
X0070927Y0035441D02*
X0081136Y0035441D01*
X0081137Y0035441D02*
X0091283Y0035441D01*
X0091174Y0035637D02*
X0081137Y0035637D01*
X0081136Y0035637D02*
X0071034Y0035637D01*
X0071153Y0035832D02*
X0081136Y0035832D01*
X0081137Y0035832D02*
X0091065Y0035832D01*
X0090956Y0036027D02*
X0081137Y0036027D01*
X0081136Y0036027D02*
X0071282Y0036027D01*
X0071411Y0036223D02*
X0081136Y0036223D01*
X0081137Y0036223D02*
X0090846Y0036223D01*
X0090719Y0036418D02*
X0081137Y0036418D01*
X0081136Y0036418D02*
X0071541Y0036418D01*
X0071673Y0036613D02*
X0081136Y0036613D01*
X0081137Y0036613D02*
X0090582Y0036613D01*
X0090446Y0036809D02*
X0081137Y0036809D01*
X0081136Y0036809D02*
X0071829Y0036809D01*
X0071984Y0037004D02*
X0081136Y0037004D01*
X0081137Y0037004D02*
X0090310Y0037004D01*
X0090172Y0037200D02*
X0081137Y0037200D01*
X0081136Y0037200D02*
X0072140Y0037200D01*
X0072296Y0037395D02*
X0081136Y0037395D01*
X0081137Y0037395D02*
X0090003Y0037395D01*
X0089834Y0037590D02*
X0081137Y0037590D01*
X0081136Y0037590D02*
X0072481Y0037590D01*
X0072669Y0037786D02*
X0081136Y0037786D01*
X0081137Y0037786D02*
X0089665Y0037786D01*
X0089497Y0037981D02*
X0081137Y0037981D01*
X0081136Y0037981D02*
X0072856Y0037981D01*
X0073047Y0038176D02*
X0081136Y0038176D01*
X0081137Y0038176D02*
X0089296Y0038176D01*
X0089087Y0038372D02*
X0081137Y0038372D01*
X0081136Y0038372D02*
X0073272Y0038372D01*
X0073498Y0038567D02*
X0081136Y0038567D01*
X0081137Y0038567D02*
X0088878Y0038567D01*
X0088669Y0038762D02*
X0081137Y0038762D01*
X0081136Y0038762D02*
X0073724Y0038762D01*
X0073978Y0038958D02*
X0081136Y0038958D01*
X0081137Y0038958D02*
X0088413Y0038958D01*
X0088155Y0039153D02*
X0081137Y0039153D01*
X0081136Y0039153D02*
X0074254Y0039153D01*
X0074529Y0039348D02*
X0081136Y0039348D01*
X0081137Y0039348D02*
X0087897Y0039348D01*
X0087593Y0039544D02*
X0081137Y0039544D01*
X0081136Y0039544D02*
X0074828Y0039544D01*
X0075170Y0039739D02*
X0081136Y0039739D01*
X0081137Y0039739D02*
X0087274Y0039739D01*
X0086954Y0039935D02*
X0081137Y0039935D01*
X0081136Y0039935D02*
X0075511Y0039935D01*
X0075906Y0040130D02*
X0081136Y0040130D01*
X0081137Y0040130D02*
X0086553Y0040130D01*
X0086150Y0040325D02*
X0081137Y0040325D01*
X0081136Y0040325D02*
X0076338Y0040325D01*
X0076808Y0040521D02*
X0081136Y0040521D01*
X0081137Y0040521D02*
X0085671Y0040521D01*
X0085153Y0040716D02*
X0081137Y0040716D01*
X0081136Y0040716D02*
X0077372Y0040716D01*
X0078032Y0040911D02*
X0081136Y0040911D01*
X0081137Y0040911D02*
X0084493Y0040911D01*
X0083684Y0041107D02*
X0081137Y0041107D01*
X0081136Y0041107D02*
X0078845Y0041107D01*
X0080254Y0041302D02*
X0081136Y0041302D01*
X0081137Y0041302D02*
X0082383Y0041302D01*
X0081136Y0031143D02*
X0069414Y0031143D01*
M02*
