G75*
%MOIN*%
%OFA0B0*%
%FSLAX25Y25*%
%IPPOS*%
%LPD*%
%AMOC8*
5,1,8,0,0,1.08239X$1,22.5*
%
%ADD10R,0.11811X0.11811*%
%ADD11R,0.15748X0.15748*%
%ADD12C,0.06693*%
%ADD13C,0.02400*%
D10*
X0042123Y0061255D03*
X0073619Y0061255D03*
X0093304Y0061255D03*
X0124800Y0061255D03*
X0144485Y0061255D03*
X0175981Y0061255D03*
X0195666Y0061255D03*
X0227162Y0061255D03*
X0227162Y0092751D03*
X0195666Y0092751D03*
X0175981Y0092751D03*
X0144485Y0092751D03*
X0124800Y0092751D03*
X0093304Y0092751D03*
X0073619Y0092751D03*
X0042123Y0092751D03*
D11*
X0057871Y0077003D03*
X0109052Y0077003D03*
X0160233Y0077003D03*
X0211414Y0077003D03*
D12*
X0154642Y0033106D02*
X0154642Y0026413D01*
X0144642Y0026413D02*
X0144642Y0033106D01*
X0134642Y0033106D02*
X0134642Y0026413D01*
X0124642Y0026413D02*
X0124642Y0033106D01*
X0114642Y0033106D02*
X0114642Y0026413D01*
D13*
X0032075Y0011837D02*
X0032075Y0098862D01*
X0033017Y0098862D01*
X0033017Y0093951D01*
X0040923Y0093951D01*
X0040923Y0091551D01*
X0043323Y0091551D01*
X0043323Y0093951D01*
X0051228Y0093951D01*
X0051228Y0098862D01*
X0064513Y0098862D01*
X0064513Y0093951D01*
X0072419Y0093951D01*
X0072419Y0091551D01*
X0074819Y0091551D01*
X0074819Y0093951D01*
X0082724Y0093951D01*
X0082724Y0098862D01*
X0084198Y0098862D01*
X0084198Y0093951D01*
X0092104Y0093951D01*
X0092104Y0091551D01*
X0094504Y0091551D01*
X0094504Y0093951D01*
X0102409Y0093951D01*
X0102409Y0098862D01*
X0115694Y0098862D01*
X0115694Y0093951D01*
X0123600Y0093951D01*
X0123600Y0091551D01*
X0126000Y0091551D01*
X0126000Y0093951D01*
X0133905Y0093951D01*
X0133905Y0098862D01*
X0135379Y0098862D01*
X0135379Y0093951D01*
X0143285Y0093951D01*
X0143285Y0091551D01*
X0145685Y0091551D01*
X0145685Y0083646D01*
X0147159Y0083646D01*
X0147159Y0070361D01*
X0145685Y0070361D01*
X0145685Y0062455D01*
X0143285Y0062455D01*
X0143285Y0060055D01*
X0145685Y0060055D01*
X0145685Y0052150D01*
X0147982Y0052150D01*
X0140860Y0045027D01*
X0139059Y0043227D01*
X0138105Y0040922D01*
X0136342Y0041652D01*
X0132942Y0041652D01*
X0129801Y0040351D01*
X0129642Y0040192D01*
X0129484Y0040351D01*
X0126342Y0041652D01*
X0122942Y0041652D01*
X0119801Y0040351D01*
X0119642Y0040192D01*
X0119484Y0040351D01*
X0116342Y0041652D01*
X0115452Y0041652D01*
X0115452Y0063929D01*
X0115694Y0063929D01*
X0115694Y0062455D01*
X0123600Y0062455D01*
X0123600Y0070361D01*
X0122126Y0070361D01*
X0122126Y0083646D01*
X0123600Y0083646D01*
X0123600Y0091551D01*
X0115694Y0091551D01*
X0115694Y0090077D01*
X0102409Y0090077D01*
X0102409Y0091551D01*
X0094504Y0091551D01*
X0094504Y0083646D01*
X0095978Y0083646D01*
X0095978Y0070361D01*
X0094504Y0070361D01*
X0094504Y0062455D01*
X0102409Y0062455D01*
X0102409Y0063929D01*
X0102652Y0063929D01*
X0102652Y0034077D01*
X0103626Y0031724D01*
X0106096Y0029255D01*
X0106096Y0024713D01*
X0107397Y0021571D01*
X0108557Y0020411D01*
X0074301Y0020411D01*
X0064271Y0030442D01*
X0064271Y0063929D01*
X0064513Y0063929D01*
X0064513Y0062455D01*
X0072419Y0062455D01*
X0072419Y0070361D01*
X0070945Y0070361D01*
X0070945Y0083646D01*
X0072419Y0083646D01*
X0072419Y0091551D01*
X0064513Y0091551D01*
X0064513Y0090077D01*
X0051228Y0090077D01*
X0051228Y0091551D01*
X0043323Y0091551D01*
X0043323Y0083646D01*
X0044797Y0083646D01*
X0044797Y0070361D01*
X0043323Y0070361D01*
X0043323Y0062455D01*
X0051228Y0062455D01*
X0051228Y0063929D01*
X0051471Y0063929D01*
X0051471Y0026518D01*
X0052445Y0024165D01*
X0054245Y0022365D01*
X0064773Y0011837D01*
X0032075Y0011837D01*
X0032075Y0013333D02*
X0063278Y0013333D01*
X0060879Y0015731D02*
X0032075Y0015731D01*
X0032075Y0018130D02*
X0058481Y0018130D01*
X0056082Y0020528D02*
X0032075Y0020528D01*
X0032075Y0022927D02*
X0053684Y0022927D01*
X0051965Y0025325D02*
X0032075Y0025325D01*
X0032075Y0027724D02*
X0051471Y0027724D01*
X0051471Y0030122D02*
X0032075Y0030122D01*
X0032075Y0032521D02*
X0051471Y0032521D01*
X0051471Y0034919D02*
X0032075Y0034919D01*
X0032075Y0037318D02*
X0051471Y0037318D01*
X0051471Y0039716D02*
X0032075Y0039716D01*
X0032075Y0042115D02*
X0051471Y0042115D01*
X0051471Y0044513D02*
X0032075Y0044513D01*
X0032075Y0046912D02*
X0051471Y0046912D01*
X0051471Y0049310D02*
X0032075Y0049310D01*
X0032075Y0051709D02*
X0051471Y0051709D01*
X0050068Y0052864D02*
X0050514Y0053310D01*
X0050864Y0053834D01*
X0051105Y0054416D01*
X0051228Y0055034D01*
X0051228Y0060055D01*
X0043323Y0060055D01*
X0043323Y0062455D01*
X0040923Y0062455D01*
X0040923Y0070361D01*
X0035902Y0070361D01*
X0035284Y0070238D01*
X0034701Y0069996D01*
X0034177Y0069646D01*
X0033732Y0069201D01*
X0033381Y0068676D01*
X0033140Y0068094D01*
X0033017Y0067476D01*
X0033017Y0062455D01*
X0040923Y0062455D01*
X0040923Y0060055D01*
X0043323Y0060055D01*
X0043323Y0052150D01*
X0048343Y0052150D01*
X0048962Y0052273D01*
X0049544Y0052514D01*
X0050068Y0052864D01*
X0050977Y0054107D02*
X0051471Y0054107D01*
X0051471Y0056506D02*
X0051228Y0056506D01*
X0051228Y0058904D02*
X0051471Y0058904D01*
X0051471Y0061303D02*
X0043323Y0061303D01*
X0040923Y0061303D02*
X0032075Y0061303D01*
X0033017Y0060055D02*
X0033017Y0055034D01*
X0033140Y0054416D01*
X0033381Y0053834D01*
X0033732Y0053310D01*
X0034177Y0052864D01*
X0034701Y0052514D01*
X0035284Y0052273D01*
X0035902Y0052150D01*
X0040923Y0052150D01*
X0040923Y0060055D01*
X0033017Y0060055D01*
X0033017Y0058904D02*
X0032075Y0058904D01*
X0032075Y0056506D02*
X0033017Y0056506D01*
X0033268Y0054107D02*
X0032075Y0054107D01*
X0040923Y0054107D02*
X0043323Y0054107D01*
X0043323Y0056506D02*
X0040923Y0056506D01*
X0040923Y0058904D02*
X0043323Y0058904D01*
X0043323Y0063701D02*
X0040923Y0063701D01*
X0040923Y0066100D02*
X0043323Y0066100D01*
X0043323Y0068498D02*
X0040923Y0068498D01*
X0044797Y0070897D02*
X0032075Y0070897D01*
X0032075Y0068498D02*
X0033308Y0068498D01*
X0033017Y0066100D02*
X0032075Y0066100D01*
X0032075Y0063701D02*
X0033017Y0063701D01*
X0032075Y0073295D02*
X0044797Y0073295D01*
X0044797Y0075694D02*
X0032075Y0075694D01*
X0032075Y0078092D02*
X0044797Y0078092D01*
X0044797Y0080491D02*
X0032075Y0080491D01*
X0032075Y0082889D02*
X0044797Y0082889D01*
X0040923Y0083646D02*
X0040923Y0091551D01*
X0033017Y0091551D01*
X0033017Y0086530D01*
X0033140Y0085912D01*
X0033381Y0085330D01*
X0033732Y0084806D01*
X0034177Y0084360D01*
X0034701Y0084010D01*
X0035284Y0083769D01*
X0035902Y0083646D01*
X0040923Y0083646D01*
X0040923Y0085288D02*
X0043323Y0085288D01*
X0043323Y0087686D02*
X0040923Y0087686D01*
X0040923Y0090085D02*
X0043323Y0090085D01*
X0043323Y0092483D02*
X0072419Y0092483D01*
X0074819Y0092483D02*
X0092104Y0092483D01*
X0092104Y0091551D02*
X0084198Y0091551D01*
X0084198Y0086530D01*
X0084321Y0085912D01*
X0084562Y0085330D01*
X0084913Y0084806D01*
X0085358Y0084360D01*
X0085883Y0084010D01*
X0086465Y0083769D01*
X0087083Y0083646D01*
X0092104Y0083646D01*
X0092104Y0091551D01*
X0092104Y0090085D02*
X0094504Y0090085D01*
X0094504Y0092483D02*
X0123600Y0092483D01*
X0126000Y0092483D02*
X0143285Y0092483D01*
X0143285Y0091551D02*
X0135379Y0091551D01*
X0135379Y0086530D01*
X0135502Y0085912D01*
X0135744Y0085330D01*
X0136094Y0084806D01*
X0136540Y0084360D01*
X0137064Y0084010D01*
X0137646Y0083769D01*
X0138264Y0083646D01*
X0143285Y0083646D01*
X0143285Y0091551D01*
X0143285Y0090085D02*
X0145685Y0090085D01*
X0145685Y0091551D02*
X0145685Y0093951D01*
X0153590Y0093951D01*
X0153590Y0098862D01*
X0166875Y0098862D01*
X0166875Y0093951D01*
X0174781Y0093951D01*
X0174781Y0091551D01*
X0177181Y0091551D01*
X0177181Y0083646D01*
X0182202Y0083646D01*
X0182820Y0083769D01*
X0183402Y0084010D01*
X0183926Y0084360D01*
X0184372Y0084806D01*
X0184722Y0085330D01*
X0184963Y0085912D01*
X0185086Y0086530D01*
X0185086Y0091551D01*
X0177181Y0091551D01*
X0177181Y0093951D01*
X0185086Y0093951D01*
X0185086Y0098862D01*
X0186560Y0098862D01*
X0186560Y0093951D01*
X0194466Y0093951D01*
X0194466Y0091551D01*
X0196866Y0091551D01*
X0196866Y0083646D01*
X0198340Y0083646D01*
X0198340Y0070361D01*
X0196866Y0070361D01*
X0196866Y0062455D01*
X0204772Y0062455D01*
X0204772Y0063929D01*
X0205014Y0063929D01*
X0205014Y0030442D01*
X0194984Y0020411D01*
X0157260Y0020411D01*
X0157544Y0020529D01*
X0158287Y0020958D01*
X0158968Y0021480D01*
X0159575Y0022087D01*
X0160097Y0022768D01*
X0160526Y0023511D01*
X0160855Y0024304D01*
X0161077Y0025133D01*
X0161189Y0025984D01*
X0161189Y0029759D01*
X0154643Y0029759D01*
X0161189Y0029759D01*
X0161189Y0033535D01*
X0161077Y0034385D01*
X0160855Y0035214D01*
X0160526Y0036007D01*
X0160097Y0036750D01*
X0159575Y0037431D01*
X0158968Y0038038D01*
X0158287Y0038560D01*
X0157544Y0038989D01*
X0156751Y0039318D01*
X0155922Y0039540D01*
X0155071Y0039652D01*
X0154642Y0039652D01*
X0154213Y0039652D01*
X0153491Y0039557D01*
X0165659Y0051724D01*
X0166633Y0054077D01*
X0166633Y0063929D01*
X0166875Y0063929D01*
X0166875Y0062455D01*
X0174781Y0062455D01*
X0174781Y0060055D01*
X0177181Y0060055D01*
X0177181Y0052150D01*
X0182202Y0052150D01*
X0182820Y0052273D01*
X0183402Y0052514D01*
X0183926Y0052864D01*
X0184372Y0053310D01*
X0184722Y0053834D01*
X0184963Y0054416D01*
X0185086Y0055034D01*
X0185086Y0060055D01*
X0177181Y0060055D01*
X0177181Y0062455D01*
X0185086Y0062455D01*
X0185086Y0067476D01*
X0184963Y0068094D01*
X0184722Y0068676D01*
X0184372Y0069201D01*
X0183926Y0069646D01*
X0183402Y0069996D01*
X0182820Y0070238D01*
X0182202Y0070361D01*
X0177181Y0070361D01*
X0177181Y0062455D01*
X0174781Y0062455D01*
X0174781Y0070361D01*
X0173307Y0070361D01*
X0173307Y0083646D01*
X0174781Y0083646D01*
X0174781Y0091551D01*
X0166875Y0091551D01*
X0166875Y0090077D01*
X0153590Y0090077D01*
X0153590Y0091551D01*
X0145685Y0091551D01*
X0145685Y0092483D02*
X0174781Y0092483D01*
X0177181Y0092483D02*
X0194466Y0092483D01*
X0194466Y0091551D02*
X0186560Y0091551D01*
X0186560Y0086530D01*
X0186683Y0085912D01*
X0186925Y0085330D01*
X0187275Y0084806D01*
X0187721Y0084360D01*
X0188245Y0084010D01*
X0188827Y0083769D01*
X0189445Y0083646D01*
X0194466Y0083646D01*
X0194466Y0091551D01*
X0194466Y0090085D02*
X0196866Y0090085D01*
X0196866Y0091551D02*
X0196866Y0093951D01*
X0204772Y0093951D01*
X0204772Y0098862D01*
X0218057Y0098862D01*
X0218057Y0093951D01*
X0225962Y0093951D01*
X0225962Y0091551D01*
X0228362Y0091551D01*
X0228362Y0083646D01*
X0233383Y0083646D01*
X0234001Y0083769D01*
X0234583Y0084010D01*
X0235107Y0084360D01*
X0235553Y0084806D01*
X0235903Y0085330D01*
X0236145Y0085912D01*
X0236268Y0086530D01*
X0236268Y0091551D01*
X0228362Y0091551D01*
X0228362Y0093951D01*
X0236268Y0093951D01*
X0236268Y0098862D01*
X0237210Y0098862D01*
X0237210Y0011837D01*
X0204511Y0011837D01*
X0215039Y0022365D01*
X0215039Y0022365D01*
X0216840Y0024165D01*
X0217814Y0026518D01*
X0217814Y0063929D01*
X0218057Y0063929D01*
X0218057Y0062455D01*
X0225962Y0062455D01*
X0225962Y0060055D01*
X0228362Y0060055D01*
X0228362Y0052150D01*
X0233383Y0052150D01*
X0234001Y0052273D01*
X0234583Y0052514D01*
X0235107Y0052864D01*
X0235553Y0053310D01*
X0235903Y0053834D01*
X0236145Y0054416D01*
X0236268Y0055034D01*
X0236268Y0060055D01*
X0228362Y0060055D01*
X0228362Y0062455D01*
X0236268Y0062455D01*
X0236268Y0067476D01*
X0236145Y0068094D01*
X0235903Y0068676D01*
X0235553Y0069201D01*
X0235107Y0069646D01*
X0234583Y0069996D01*
X0234001Y0070238D01*
X0233383Y0070361D01*
X0228362Y0070361D01*
X0228362Y0062455D01*
X0225962Y0062455D01*
X0225962Y0070361D01*
X0224488Y0070361D01*
X0224488Y0083646D01*
X0225962Y0083646D01*
X0225962Y0091551D01*
X0218057Y0091551D01*
X0218057Y0090077D01*
X0204772Y0090077D01*
X0204772Y0091551D01*
X0196866Y0091551D01*
X0196866Y0092483D02*
X0225962Y0092483D01*
X0228362Y0092483D02*
X0237210Y0092483D01*
X0237210Y0090085D02*
X0236268Y0090085D01*
X0236268Y0087686D02*
X0237210Y0087686D01*
X0237210Y0085288D02*
X0235875Y0085288D01*
X0237210Y0082889D02*
X0224488Y0082889D01*
X0224488Y0080491D02*
X0237210Y0080491D01*
X0237210Y0078092D02*
X0224488Y0078092D01*
X0224488Y0075694D02*
X0237210Y0075694D01*
X0237210Y0073295D02*
X0224488Y0073295D01*
X0224488Y0070897D02*
X0237210Y0070897D01*
X0237210Y0068498D02*
X0235977Y0068498D01*
X0236268Y0066100D02*
X0237210Y0066100D01*
X0237210Y0063701D02*
X0236268Y0063701D01*
X0237210Y0061303D02*
X0228362Y0061303D01*
X0225962Y0061303D02*
X0217814Y0061303D01*
X0218057Y0060055D02*
X0218057Y0055034D01*
X0218180Y0054416D01*
X0218421Y0053834D01*
X0218771Y0053310D01*
X0219217Y0052864D01*
X0219741Y0052514D01*
X0220323Y0052273D01*
X0220941Y0052150D01*
X0225962Y0052150D01*
X0225962Y0060055D01*
X0218057Y0060055D01*
X0218057Y0058904D02*
X0217814Y0058904D01*
X0217814Y0056506D02*
X0218057Y0056506D01*
X0217814Y0054107D02*
X0218308Y0054107D01*
X0217814Y0051709D02*
X0237210Y0051709D01*
X0237210Y0054107D02*
X0236017Y0054107D01*
X0236268Y0056506D02*
X0237210Y0056506D01*
X0237210Y0058904D02*
X0236268Y0058904D01*
X0228362Y0058904D02*
X0225962Y0058904D01*
X0225962Y0056506D02*
X0228362Y0056506D01*
X0228362Y0054107D02*
X0225962Y0054107D01*
X0217814Y0049310D02*
X0237210Y0049310D01*
X0237210Y0046912D02*
X0217814Y0046912D01*
X0217814Y0044513D02*
X0237210Y0044513D01*
X0237210Y0042115D02*
X0217814Y0042115D01*
X0217814Y0039716D02*
X0237210Y0039716D01*
X0237210Y0037318D02*
X0217814Y0037318D01*
X0217814Y0034919D02*
X0237210Y0034919D01*
X0237210Y0032521D02*
X0217814Y0032521D01*
X0217814Y0030122D02*
X0237210Y0030122D01*
X0237210Y0027724D02*
X0217814Y0027724D01*
X0217320Y0025325D02*
X0237210Y0025325D01*
X0237210Y0022927D02*
X0215601Y0022927D01*
X0213203Y0020528D02*
X0237210Y0020528D01*
X0237210Y0018130D02*
X0210804Y0018130D01*
X0208405Y0015731D02*
X0237210Y0015731D01*
X0237210Y0013333D02*
X0206007Y0013333D01*
X0197635Y0014011D02*
X0140548Y0014011D01*
X0134642Y0019917D01*
X0134642Y0029759D01*
X0144485Y0029917D02*
X0144642Y0029759D01*
X0144485Y0029917D02*
X0144485Y0039602D01*
X0160233Y0055350D01*
X0160233Y0077003D01*
X0173307Y0078092D02*
X0198340Y0078092D01*
X0198340Y0075694D02*
X0173307Y0075694D01*
X0173307Y0073295D02*
X0198340Y0073295D01*
X0198340Y0070897D02*
X0173307Y0070897D01*
X0174781Y0068498D02*
X0177181Y0068498D01*
X0177181Y0066100D02*
X0174781Y0066100D01*
X0174781Y0063701D02*
X0177181Y0063701D01*
X0177181Y0061303D02*
X0194466Y0061303D01*
X0194466Y0062455D02*
X0194466Y0060055D01*
X0196866Y0060055D01*
X0196866Y0052150D01*
X0201887Y0052150D01*
X0202505Y0052273D01*
X0203087Y0052514D01*
X0203611Y0052864D01*
X0204057Y0053310D01*
X0204407Y0053834D01*
X0204649Y0054416D01*
X0204772Y0055034D01*
X0204772Y0060055D01*
X0196866Y0060055D01*
X0196866Y0062455D01*
X0194466Y0062455D01*
X0186560Y0062455D01*
X0186560Y0067476D01*
X0186683Y0068094D01*
X0186925Y0068676D01*
X0187275Y0069201D01*
X0187721Y0069646D01*
X0188245Y0069996D01*
X0188827Y0070238D01*
X0189445Y0070361D01*
X0194466Y0070361D01*
X0194466Y0062455D01*
X0194466Y0063701D02*
X0196866Y0063701D01*
X0196866Y0061303D02*
X0205014Y0061303D01*
X0205014Y0063701D02*
X0204772Y0063701D01*
X0196866Y0066100D02*
X0194466Y0066100D01*
X0194466Y0068498D02*
X0196866Y0068498D01*
X0186851Y0068498D02*
X0184796Y0068498D01*
X0185086Y0066100D02*
X0186560Y0066100D01*
X0186560Y0063701D02*
X0185086Y0063701D01*
X0186560Y0060055D02*
X0186560Y0055034D01*
X0186683Y0054416D01*
X0186925Y0053834D01*
X0187275Y0053310D01*
X0187721Y0052864D01*
X0188245Y0052514D01*
X0188827Y0052273D01*
X0189445Y0052150D01*
X0194466Y0052150D01*
X0194466Y0060055D01*
X0186560Y0060055D01*
X0186560Y0058904D02*
X0185086Y0058904D01*
X0185086Y0056506D02*
X0186560Y0056506D01*
X0186811Y0054107D02*
X0184836Y0054107D01*
X0177181Y0054107D02*
X0174781Y0054107D01*
X0174781Y0052150D02*
X0174781Y0060055D01*
X0166875Y0060055D01*
X0166875Y0055034D01*
X0166998Y0054416D01*
X0167240Y0053834D01*
X0167590Y0053310D01*
X0168036Y0052864D01*
X0168560Y0052514D01*
X0169142Y0052273D01*
X0169760Y0052150D01*
X0174781Y0052150D01*
X0174781Y0056506D02*
X0177181Y0056506D01*
X0177181Y0058904D02*
X0174781Y0058904D01*
X0174781Y0061303D02*
X0166633Y0061303D01*
X0166633Y0063701D02*
X0166875Y0063701D01*
X0175981Y0061255D02*
X0175981Y0035665D01*
X0170075Y0029759D01*
X0154642Y0029759D01*
X0154642Y0039652D01*
X0154642Y0029759D01*
X0154642Y0029759D01*
X0154643Y0029759D02*
X0154643Y0029759D01*
X0154642Y0030122D02*
X0154642Y0030122D01*
X0154642Y0032521D02*
X0154642Y0032521D01*
X0154642Y0034919D02*
X0154642Y0034919D01*
X0154642Y0037318D02*
X0154642Y0037318D01*
X0153650Y0039716D02*
X0205014Y0039716D01*
X0205014Y0037318D02*
X0159662Y0037318D01*
X0160934Y0034919D02*
X0205014Y0034919D01*
X0205014Y0032521D02*
X0161189Y0032521D01*
X0161189Y0030122D02*
X0204695Y0030122D01*
X0202296Y0027724D02*
X0161189Y0027724D01*
X0161102Y0025325D02*
X0199898Y0025325D01*
X0197499Y0022927D02*
X0160189Y0022927D01*
X0157543Y0020528D02*
X0195101Y0020528D01*
X0197635Y0014011D02*
X0211414Y0027791D01*
X0211414Y0077003D01*
X0198340Y0080491D02*
X0173307Y0080491D01*
X0173307Y0082889D02*
X0198340Y0082889D01*
X0196866Y0085288D02*
X0194466Y0085288D01*
X0194466Y0087686D02*
X0196866Y0087686D01*
X0204772Y0090085D02*
X0218057Y0090085D01*
X0225962Y0090085D02*
X0228362Y0090085D01*
X0228362Y0087686D02*
X0225962Y0087686D01*
X0225962Y0085288D02*
X0228362Y0085288D01*
X0236268Y0094882D02*
X0237210Y0094882D01*
X0237210Y0097280D02*
X0236268Y0097280D01*
X0218057Y0097280D02*
X0204772Y0097280D01*
X0204772Y0094882D02*
X0218057Y0094882D01*
X0186953Y0085288D02*
X0184694Y0085288D01*
X0185086Y0087686D02*
X0186560Y0087686D01*
X0186560Y0090085D02*
X0185086Y0090085D01*
X0177181Y0090085D02*
X0174781Y0090085D01*
X0174781Y0087686D02*
X0177181Y0087686D01*
X0177181Y0085288D02*
X0174781Y0085288D01*
X0166875Y0090085D02*
X0153590Y0090085D01*
X0145685Y0087686D02*
X0143285Y0087686D01*
X0143285Y0085288D02*
X0145685Y0085288D01*
X0147159Y0082889D02*
X0122126Y0082889D01*
X0126000Y0083646D02*
X0131021Y0083646D01*
X0131639Y0083769D01*
X0132221Y0084010D01*
X0132745Y0084360D01*
X0133191Y0084806D01*
X0133541Y0085330D01*
X0133782Y0085912D01*
X0133905Y0086530D01*
X0133905Y0091551D01*
X0126000Y0091551D01*
X0126000Y0083646D01*
X0126000Y0085288D02*
X0123600Y0085288D01*
X0123600Y0087686D02*
X0126000Y0087686D01*
X0126000Y0090085D02*
X0123600Y0090085D01*
X0115694Y0090085D02*
X0102409Y0090085D01*
X0102409Y0094882D02*
X0115694Y0094882D01*
X0115694Y0097280D02*
X0102409Y0097280D01*
X0094504Y0087686D02*
X0092104Y0087686D01*
X0092104Y0085288D02*
X0094504Y0085288D01*
X0095978Y0082889D02*
X0070945Y0082889D01*
X0070945Y0080491D02*
X0095978Y0080491D01*
X0095978Y0078092D02*
X0070945Y0078092D01*
X0070945Y0075694D02*
X0095978Y0075694D01*
X0095978Y0073295D02*
X0070945Y0073295D01*
X0070945Y0070897D02*
X0095978Y0070897D01*
X0094504Y0068498D02*
X0092104Y0068498D01*
X0092104Y0070361D02*
X0087083Y0070361D01*
X0086465Y0070238D01*
X0085883Y0069996D01*
X0085358Y0069646D01*
X0084913Y0069201D01*
X0084562Y0068676D01*
X0084321Y0068094D01*
X0084198Y0067476D01*
X0084198Y0062455D01*
X0092104Y0062455D01*
X0092104Y0070361D01*
X0092104Y0066100D02*
X0094504Y0066100D01*
X0094504Y0063701D02*
X0092104Y0063701D01*
X0092104Y0062455D02*
X0094504Y0062455D01*
X0094504Y0060055D01*
X0102409Y0060055D01*
X0102409Y0055034D01*
X0102286Y0054416D01*
X0102045Y0053834D01*
X0101695Y0053310D01*
X0101249Y0052864D01*
X0100725Y0052514D01*
X0100143Y0052273D01*
X0099524Y0052150D01*
X0094504Y0052150D01*
X0094504Y0060055D01*
X0092104Y0060055D01*
X0092104Y0052150D01*
X0087083Y0052150D01*
X0086465Y0052273D01*
X0085883Y0052514D01*
X0085358Y0052864D01*
X0084913Y0053310D01*
X0084562Y0053834D01*
X0084321Y0054416D01*
X0084198Y0055034D01*
X0084198Y0060055D01*
X0092104Y0060055D01*
X0092104Y0062455D01*
X0092104Y0061303D02*
X0074819Y0061303D01*
X0074819Y0062455D02*
X0074819Y0060055D01*
X0082724Y0060055D01*
X0082724Y0055034D01*
X0082601Y0054416D01*
X0082360Y0053834D01*
X0082010Y0053310D01*
X0081564Y0052864D01*
X0081040Y0052514D01*
X0080458Y0052273D01*
X0079839Y0052150D01*
X0074819Y0052150D01*
X0074819Y0060055D01*
X0072419Y0060055D01*
X0072419Y0052150D01*
X0067398Y0052150D01*
X0066780Y0052273D01*
X0066197Y0052514D01*
X0065673Y0052864D01*
X0065228Y0053310D01*
X0064877Y0053834D01*
X0064636Y0054416D01*
X0064513Y0055034D01*
X0064513Y0060055D01*
X0072419Y0060055D01*
X0072419Y0062455D01*
X0074819Y0062455D01*
X0082724Y0062455D01*
X0082724Y0067476D01*
X0082601Y0068094D01*
X0082360Y0068676D01*
X0082010Y0069201D01*
X0081564Y0069646D01*
X0081040Y0069996D01*
X0080458Y0070238D01*
X0079839Y0070361D01*
X0074819Y0070361D01*
X0074819Y0062455D01*
X0074819Y0063701D02*
X0072419Y0063701D01*
X0072419Y0061303D02*
X0064271Y0061303D01*
X0064271Y0063701D02*
X0064513Y0063701D01*
X0064513Y0058904D02*
X0064271Y0058904D01*
X0064271Y0056506D02*
X0064513Y0056506D01*
X0064271Y0054107D02*
X0064764Y0054107D01*
X0064271Y0051709D02*
X0102652Y0051709D01*
X0102652Y0054107D02*
X0102158Y0054107D01*
X0102409Y0056506D02*
X0102652Y0056506D01*
X0102652Y0058904D02*
X0102409Y0058904D01*
X0102652Y0061303D02*
X0094504Y0061303D01*
X0094504Y0058904D02*
X0092104Y0058904D01*
X0092104Y0056506D02*
X0094504Y0056506D01*
X0094504Y0054107D02*
X0092104Y0054107D01*
X0084449Y0054107D02*
X0082473Y0054107D01*
X0082724Y0056506D02*
X0084198Y0056506D01*
X0084198Y0058904D02*
X0082724Y0058904D01*
X0074819Y0058904D02*
X0072419Y0058904D01*
X0072419Y0056506D02*
X0074819Y0056506D01*
X0074819Y0054107D02*
X0072419Y0054107D01*
X0064271Y0049310D02*
X0102652Y0049310D01*
X0102652Y0046912D02*
X0064271Y0046912D01*
X0064271Y0044513D02*
X0102652Y0044513D01*
X0102652Y0042115D02*
X0064271Y0042115D01*
X0064271Y0039716D02*
X0102652Y0039716D01*
X0102652Y0037318D02*
X0064271Y0037318D01*
X0064271Y0034919D02*
X0102652Y0034919D01*
X0103296Y0032521D02*
X0064271Y0032521D01*
X0064590Y0030122D02*
X0105228Y0030122D01*
X0106096Y0027724D02*
X0066989Y0027724D01*
X0069387Y0025325D02*
X0106096Y0025325D01*
X0106836Y0022927D02*
X0071786Y0022927D01*
X0074184Y0020528D02*
X0108440Y0020528D01*
X0120863Y0014011D02*
X0124642Y0017791D01*
X0124642Y0029759D01*
X0114642Y0029759D02*
X0109052Y0035350D01*
X0109052Y0077003D01*
X0122126Y0078092D02*
X0147159Y0078092D01*
X0147159Y0075694D02*
X0122126Y0075694D01*
X0122126Y0073295D02*
X0147159Y0073295D01*
X0147159Y0070897D02*
X0122126Y0070897D01*
X0123600Y0068498D02*
X0126000Y0068498D01*
X0126000Y0070361D02*
X0126000Y0062455D01*
X0133905Y0062455D01*
X0133905Y0067476D01*
X0133782Y0068094D01*
X0133541Y0068676D01*
X0133191Y0069201D01*
X0132745Y0069646D01*
X0132221Y0069996D01*
X0131639Y0070238D01*
X0131021Y0070361D01*
X0126000Y0070361D01*
X0126000Y0066100D02*
X0123600Y0066100D01*
X0123600Y0063701D02*
X0126000Y0063701D01*
X0126000Y0062455D02*
X0123600Y0062455D01*
X0123600Y0060055D01*
X0126000Y0060055D01*
X0126000Y0062455D01*
X0126000Y0061303D02*
X0143285Y0061303D01*
X0143285Y0062455D02*
X0135379Y0062455D01*
X0135379Y0067476D01*
X0135502Y0068094D01*
X0135744Y0068676D01*
X0136094Y0069201D01*
X0136540Y0069646D01*
X0137064Y0069996D01*
X0137646Y0070238D01*
X0138264Y0070361D01*
X0143285Y0070361D01*
X0143285Y0062455D01*
X0143285Y0063701D02*
X0145685Y0063701D01*
X0145685Y0066100D02*
X0143285Y0066100D01*
X0143285Y0068498D02*
X0145685Y0068498D01*
X0135670Y0068498D02*
X0133615Y0068498D01*
X0133905Y0066100D02*
X0135379Y0066100D01*
X0135379Y0063701D02*
X0133905Y0063701D01*
X0133905Y0060055D02*
X0126000Y0060055D01*
X0126000Y0052150D01*
X0131021Y0052150D01*
X0131639Y0052273D01*
X0132221Y0052514D01*
X0132745Y0052864D01*
X0133191Y0053310D01*
X0133541Y0053834D01*
X0133782Y0054416D01*
X0133905Y0055034D01*
X0133905Y0060055D01*
X0133905Y0058904D02*
X0135379Y0058904D01*
X0135379Y0060055D02*
X0135379Y0055034D01*
X0135502Y0054416D01*
X0135744Y0053834D01*
X0136094Y0053310D01*
X0136540Y0052864D01*
X0137064Y0052514D01*
X0137646Y0052273D01*
X0138264Y0052150D01*
X0143285Y0052150D01*
X0143285Y0060055D01*
X0135379Y0060055D01*
X0135379Y0056506D02*
X0133905Y0056506D01*
X0133654Y0054107D02*
X0135630Y0054107D01*
X0143285Y0054107D02*
X0145685Y0054107D01*
X0147541Y0051709D02*
X0115452Y0051709D01*
X0116854Y0052864D02*
X0117379Y0052514D01*
X0117961Y0052273D01*
X0118579Y0052150D01*
X0123600Y0052150D01*
X0123600Y0060055D01*
X0115694Y0060055D01*
X0115694Y0055034D01*
X0115817Y0054416D01*
X0116059Y0053834D01*
X0116409Y0053310D01*
X0116854Y0052864D01*
X0115945Y0054107D02*
X0115452Y0054107D01*
X0115452Y0056506D02*
X0115694Y0056506D01*
X0115694Y0058904D02*
X0115452Y0058904D01*
X0115452Y0061303D02*
X0123600Y0061303D01*
X0123600Y0058904D02*
X0126000Y0058904D01*
X0126000Y0056506D02*
X0123600Y0056506D01*
X0123600Y0054107D02*
X0126000Y0054107D01*
X0115452Y0049310D02*
X0145143Y0049310D01*
X0142744Y0046912D02*
X0115452Y0046912D01*
X0115452Y0044513D02*
X0140346Y0044513D01*
X0138599Y0042115D02*
X0115452Y0042115D01*
X0143285Y0056506D02*
X0145685Y0056506D01*
X0145685Y0058904D02*
X0143285Y0058904D01*
X0163245Y0049310D02*
X0205014Y0049310D01*
X0205014Y0046912D02*
X0160846Y0046912D01*
X0158447Y0044513D02*
X0205014Y0044513D01*
X0205014Y0042115D02*
X0156049Y0042115D01*
X0165643Y0051709D02*
X0205014Y0051709D01*
X0205014Y0054107D02*
X0204521Y0054107D01*
X0204772Y0056506D02*
X0205014Y0056506D01*
X0205014Y0058904D02*
X0204772Y0058904D01*
X0196866Y0058904D02*
X0194466Y0058904D01*
X0194466Y0056506D02*
X0196866Y0056506D01*
X0196866Y0054107D02*
X0194466Y0054107D01*
X0217814Y0063701D02*
X0218057Y0063701D01*
X0225962Y0063701D02*
X0228362Y0063701D01*
X0228362Y0066100D02*
X0225962Y0066100D01*
X0225962Y0068498D02*
X0228362Y0068498D01*
X0186560Y0094882D02*
X0185086Y0094882D01*
X0185086Y0097280D02*
X0186560Y0097280D01*
X0166875Y0097280D02*
X0153590Y0097280D01*
X0153590Y0094882D02*
X0166875Y0094882D01*
X0147159Y0080491D02*
X0122126Y0080491D01*
X0133513Y0085288D02*
X0135772Y0085288D01*
X0135379Y0087686D02*
X0133905Y0087686D01*
X0133905Y0090085D02*
X0135379Y0090085D01*
X0135379Y0094882D02*
X0133905Y0094882D01*
X0133905Y0097280D02*
X0135379Y0097280D01*
X0084198Y0097280D02*
X0082724Y0097280D01*
X0082724Y0094882D02*
X0084198Y0094882D01*
X0082724Y0091551D02*
X0074819Y0091551D01*
X0074819Y0083646D01*
X0079839Y0083646D01*
X0080458Y0083769D01*
X0081040Y0084010D01*
X0081564Y0084360D01*
X0082010Y0084806D01*
X0082360Y0085330D01*
X0082601Y0085912D01*
X0082724Y0086530D01*
X0082724Y0091551D01*
X0082724Y0090085D02*
X0084198Y0090085D01*
X0084198Y0087686D02*
X0082724Y0087686D01*
X0082332Y0085288D02*
X0084591Y0085288D01*
X0074819Y0085288D02*
X0072419Y0085288D01*
X0072419Y0087686D02*
X0074819Y0087686D01*
X0074819Y0090085D02*
X0072419Y0090085D01*
X0064513Y0090085D02*
X0051228Y0090085D01*
X0051228Y0094882D02*
X0064513Y0094882D01*
X0064513Y0097280D02*
X0051228Y0097280D01*
X0040923Y0092483D02*
X0032075Y0092483D01*
X0032075Y0090085D02*
X0033017Y0090085D01*
X0033017Y0087686D02*
X0032075Y0087686D01*
X0032075Y0085288D02*
X0033409Y0085288D01*
X0033017Y0094882D02*
X0032075Y0094882D01*
X0032075Y0097280D02*
X0033017Y0097280D01*
X0057871Y0077003D02*
X0057871Y0027791D01*
X0071650Y0014011D01*
X0120863Y0014011D01*
X0166633Y0054107D02*
X0167126Y0054107D01*
X0166875Y0056506D02*
X0166633Y0056506D01*
X0166633Y0058904D02*
X0166875Y0058904D01*
X0115694Y0063701D02*
X0115452Y0063701D01*
X0102652Y0063701D02*
X0102409Y0063701D01*
X0084198Y0063701D02*
X0082724Y0063701D01*
X0082724Y0066100D02*
X0084198Y0066100D01*
X0084489Y0068498D02*
X0082434Y0068498D01*
X0074819Y0068498D02*
X0072419Y0068498D01*
X0072419Y0066100D02*
X0074819Y0066100D01*
X0051471Y0063701D02*
X0051228Y0063701D01*
M02*
