G04 EAGLE Gerber RS-274X export*
G75*
%MOMM*%
%FSLAX34Y34*%
%LPD*%
%INSilkscreen Bottom*%
%IPPOS*%
%AMOC8*
5,1,8,0,0,1.08239X$1,22.5*%
G01*
%ADD10C,0.177800*%


D10*
X344147Y66350D02*
X344147Y50334D01*
X336140Y50334D01*
X333470Y53003D01*
X333470Y63680D01*
X336140Y66350D01*
X344147Y66350D01*
X325107Y50334D02*
X319768Y50334D01*
X325107Y50334D02*
X327776Y53003D01*
X327776Y58342D01*
X325107Y61011D01*
X319768Y61011D01*
X317099Y58342D01*
X317099Y55673D01*
X327776Y55673D01*
X311404Y50334D02*
X303397Y50334D01*
X300727Y53003D01*
X303397Y55673D01*
X308735Y55673D01*
X311404Y58342D01*
X308735Y61011D01*
X300727Y61011D01*
X295033Y61011D02*
X292364Y61011D01*
X292364Y50334D01*
X295033Y50334D02*
X289694Y50334D01*
X292364Y66350D02*
X292364Y69019D01*
X284118Y61011D02*
X284118Y50334D01*
X284118Y61011D02*
X276111Y61011D01*
X273441Y58342D01*
X273441Y50334D01*
X262408Y44995D02*
X259739Y44995D01*
X257070Y47665D01*
X257070Y61011D01*
X265078Y61011D01*
X267747Y58342D01*
X267747Y53003D01*
X265078Y50334D01*
X257070Y50334D01*
X235004Y50334D02*
X235004Y66350D01*
X235004Y50334D02*
X226996Y50334D01*
X224327Y53003D01*
X224327Y58342D01*
X226996Y61011D01*
X235004Y61011D01*
X218632Y61011D02*
X218632Y53003D01*
X215963Y50334D01*
X207955Y50334D01*
X207955Y47665D02*
X207955Y61011D01*
X207955Y47665D02*
X210624Y44995D01*
X213294Y44995D01*
X202261Y61011D02*
X199591Y61011D01*
X199591Y58342D01*
X202261Y58342D01*
X202261Y61011D01*
X202261Y53003D02*
X199591Y53003D01*
X199591Y50334D01*
X202261Y50334D01*
X202261Y53003D01*
X315734Y37010D02*
X318404Y39680D01*
X323742Y39680D01*
X326412Y37010D01*
X326412Y26333D01*
X323742Y23664D01*
X318404Y23664D01*
X315734Y26333D01*
X307371Y34341D02*
X302032Y34341D01*
X299363Y31672D01*
X299363Y23664D01*
X307371Y23664D01*
X310040Y26333D01*
X307371Y29003D01*
X299363Y29003D01*
X293668Y39680D02*
X290999Y39680D01*
X290999Y23664D01*
X293668Y23664D02*
X288330Y23664D01*
X282754Y34341D02*
X280085Y34341D01*
X280085Y23664D01*
X282754Y23664D02*
X277416Y23664D01*
X280085Y39680D02*
X280085Y42349D01*
X271840Y39680D02*
X271840Y23664D01*
X271840Y39680D02*
X263832Y39680D01*
X261163Y37010D01*
X261163Y34341D01*
X263832Y31672D01*
X261163Y29003D01*
X261163Y26333D01*
X263832Y23664D01*
X271840Y23664D01*
X271840Y31672D02*
X263832Y31672D01*
X252799Y23664D02*
X247460Y23664D01*
X252799Y23664D02*
X255468Y26333D01*
X255468Y31672D01*
X252799Y34341D01*
X247460Y34341D01*
X244791Y31672D01*
X244791Y29003D01*
X255468Y29003D01*
X236427Y26333D02*
X236427Y37010D01*
X236427Y26333D02*
X233758Y23664D01*
X233758Y34341D02*
X239097Y34341D01*
X225513Y34341D02*
X220174Y34341D01*
X217505Y31672D01*
X217505Y23664D01*
X225513Y23664D01*
X228182Y26333D01*
X225513Y29003D01*
X217505Y29003D01*
M02*
