G75*
%MOIN*%
%OFA0B0*%
%FSLAX25Y25*%
%IPPOS*%
%LPD*%
%AMOC8*
5,1,8,0,0,1.08239X$1,22.5*
%
%ADD10C,0.01000*%
%ADD11C,0.00800*%
%ADD12C,0.00700*%
%ADD13OC8,0.05600*%
%ADD14C,0.07600*%
%ADD15C,0.07800*%
%ADD16OC8,0.06299*%
%ADD17R,0.07000X0.07000*%
%ADD18C,0.07000*%
%ADD19C,0.00000*%
%ADD20C,0.05200*%
%ADD21C,0.06000*%
%ADD22C,0.02400*%
%ADD23C,0.01600*%
%ADD24C,0.03200*%
%ADD25C,0.08600*%
%ADD26C,0.05600*%
%ADD27C,0.05000*%
%ADD28C,0.04000*%
%ADD29C,0.16598*%
D10*
X0028343Y0006537D02*
X0028343Y0203387D01*
X0284249Y0203387D01*
X0284249Y0006537D01*
X0028343Y0006537D01*
D11*
X0100005Y0064024D02*
X0100972Y0064024D01*
X0100972Y0064991D01*
X0100005Y0064991D01*
X0100005Y0064024D01*
X0100005Y0066926D02*
X0100972Y0066926D01*
X0100972Y0067894D01*
X0100005Y0067894D01*
X0100005Y0066926D01*
X0103180Y0067894D02*
X0106082Y0067894D01*
X0107050Y0066926D01*
X0106082Y0065959D01*
X0104147Y0065959D01*
X0103180Y0064991D01*
X0104147Y0064024D01*
X0107050Y0064024D01*
X0109257Y0064991D02*
X0109257Y0066926D01*
X0110224Y0067894D01*
X0112159Y0067894D01*
X0113127Y0066926D01*
X0113127Y0064991D01*
X0112159Y0064024D01*
X0110224Y0064024D01*
X0109257Y0064991D01*
X0115334Y0064024D02*
X0115334Y0066926D01*
X0116301Y0067894D01*
X0119204Y0067894D01*
X0119204Y0064024D01*
X0121411Y0064024D02*
X0121411Y0066926D01*
X0122379Y0067894D01*
X0124314Y0067894D01*
X0124314Y0065959D02*
X0121411Y0065959D01*
X0121411Y0064024D02*
X0124314Y0064024D01*
X0125281Y0064991D01*
X0124314Y0065959D01*
X0127398Y0067894D02*
X0129333Y0067894D01*
X0128365Y0068861D02*
X0128365Y0064991D01*
X0127398Y0064024D01*
X0131540Y0064024D02*
X0134442Y0064024D01*
X0135410Y0064991D01*
X0135410Y0066926D01*
X0134442Y0067894D01*
X0131540Y0067894D01*
X0137617Y0066926D02*
X0137617Y0064024D01*
X0140519Y0064024D01*
X0141487Y0064991D01*
X0140519Y0065959D01*
X0137617Y0065959D01*
X0137617Y0066926D02*
X0138584Y0067894D01*
X0140519Y0067894D01*
X0143603Y0067894D02*
X0145538Y0067894D01*
X0144571Y0068861D02*
X0144571Y0064991D01*
X0143603Y0064024D01*
X0147746Y0064024D02*
X0147746Y0066926D01*
X0148713Y0067894D01*
X0151616Y0067894D01*
X0151616Y0064024D01*
X0153823Y0064991D02*
X0153823Y0066926D01*
X0154790Y0067894D01*
X0156725Y0067894D01*
X0157693Y0066926D01*
X0157693Y0064991D01*
X0156725Y0064024D01*
X0154790Y0064024D01*
X0153823Y0064991D01*
X0159900Y0064991D02*
X0160867Y0064024D01*
X0162802Y0064024D01*
X0163770Y0064991D01*
X0163770Y0068861D01*
X0162802Y0069829D01*
X0160867Y0069829D01*
X0159900Y0068861D01*
D12*
X0160241Y0059341D02*
X0159372Y0058473D01*
X0159372Y0054999D01*
X0160241Y0054131D01*
X0161977Y0054131D01*
X0162846Y0054999D01*
X0162846Y0058473D01*
X0161977Y0059341D01*
X0160241Y0059341D01*
X0157408Y0058473D02*
X0157408Y0057604D01*
X0156540Y0056736D01*
X0154803Y0056736D01*
X0153935Y0055868D01*
X0153935Y0054999D01*
X0154803Y0054131D01*
X0156540Y0054131D01*
X0157408Y0054999D01*
X0157408Y0058473D02*
X0156540Y0059341D01*
X0154803Y0059341D01*
X0153935Y0058473D01*
X0151970Y0058473D02*
X0151970Y0054999D01*
X0151102Y0054131D01*
X0149365Y0054131D01*
X0148497Y0054999D01*
X0146533Y0054131D02*
X0146533Y0059341D01*
X0143928Y0059341D01*
X0143059Y0058473D01*
X0143059Y0056736D01*
X0143928Y0055868D01*
X0146533Y0055868D01*
X0144796Y0055868D02*
X0143059Y0054131D01*
X0141095Y0054131D02*
X0137622Y0054131D01*
X0135657Y0054131D02*
X0135657Y0057604D01*
X0133920Y0059341D01*
X0132184Y0057604D01*
X0132184Y0054131D01*
X0132184Y0056736D02*
X0135657Y0056736D01*
X0139358Y0056736D02*
X0141095Y0056736D01*
X0141095Y0059341D02*
X0141095Y0054131D01*
X0141095Y0059341D02*
X0137622Y0059341D01*
X0130219Y0059341D02*
X0126746Y0059341D01*
X0128483Y0059341D02*
X0128483Y0054131D01*
X0124782Y0054131D02*
X0123045Y0054131D01*
X0123913Y0054131D02*
X0123913Y0059341D01*
X0123045Y0059341D02*
X0124782Y0059341D01*
X0121157Y0059341D02*
X0121157Y0055868D01*
X0119420Y0054131D01*
X0117683Y0055868D01*
X0117683Y0059341D01*
X0115719Y0058473D02*
X0115719Y0054999D01*
X0114851Y0054131D01*
X0113114Y0054131D01*
X0112246Y0054999D01*
X0112246Y0058473D01*
X0113114Y0059341D01*
X0114851Y0059341D01*
X0115719Y0058473D01*
X0110281Y0058473D02*
X0110281Y0057604D01*
X0109413Y0056736D01*
X0107676Y0056736D01*
X0106808Y0055868D01*
X0106808Y0054999D01*
X0107676Y0054131D01*
X0109413Y0054131D01*
X0110281Y0054999D01*
X0110281Y0058473D02*
X0109413Y0059341D01*
X0107676Y0059341D01*
X0106808Y0058473D01*
X0104843Y0058473D02*
X0103975Y0059341D01*
X0102238Y0059341D01*
X0101370Y0058473D01*
X0101370Y0056736D01*
X0102238Y0055868D01*
X0102238Y0057604D01*
X0103975Y0057604D01*
X0103975Y0055868D01*
X0102238Y0055868D01*
X0101370Y0054999D02*
X0102238Y0054131D01*
X0103975Y0054131D01*
X0104843Y0054999D01*
X0104843Y0058473D01*
X0099406Y0058473D02*
X0099406Y0054999D01*
X0098537Y0054131D01*
X0096801Y0054131D01*
X0095932Y0054999D01*
X0095932Y0056736D01*
X0097669Y0056736D01*
X0095932Y0058473D02*
X0096801Y0059341D01*
X0098537Y0059341D01*
X0099406Y0058473D01*
X0093968Y0059341D02*
X0093968Y0054131D01*
X0090495Y0054131D02*
X0090495Y0059341D01*
X0092231Y0057604D01*
X0093968Y0059341D01*
X0088530Y0057604D02*
X0086794Y0059341D01*
X0085057Y0057604D01*
X0085057Y0054131D01*
X0083093Y0054131D02*
X0081356Y0054131D01*
X0082224Y0054131D02*
X0082224Y0059341D01*
X0081356Y0059341D02*
X0083093Y0059341D01*
X0079467Y0059341D02*
X0079467Y0054131D01*
X0075994Y0054131D01*
X0074030Y0054131D02*
X0074030Y0054999D01*
X0073161Y0054999D01*
X0073161Y0054131D01*
X0074030Y0054131D01*
X0071311Y0054999D02*
X0070443Y0054131D01*
X0068706Y0054131D01*
X0067838Y0054999D01*
X0065873Y0054999D02*
X0065005Y0054131D01*
X0063268Y0054131D01*
X0062400Y0054999D01*
X0062400Y0058473D01*
X0063268Y0059341D01*
X0065005Y0059341D01*
X0065873Y0058473D01*
X0065873Y0054999D01*
X0067838Y0058473D02*
X0068706Y0059341D01*
X0070443Y0059341D01*
X0071311Y0058473D01*
X0071311Y0054999D01*
X0060436Y0054131D02*
X0060436Y0059341D01*
X0058699Y0057604D01*
X0056962Y0059341D01*
X0056962Y0054131D01*
X0085057Y0056736D02*
X0088530Y0056736D01*
X0088530Y0057604D02*
X0088530Y0054131D01*
X0148497Y0058473D02*
X0149365Y0059341D01*
X0151102Y0059341D01*
X0151970Y0058473D01*
X0164810Y0059341D02*
X0168283Y0059341D01*
X0166547Y0059341D02*
X0166547Y0054131D01*
X0170172Y0054131D02*
X0171909Y0054131D01*
X0171040Y0054131D02*
X0171040Y0059341D01*
X0170172Y0059341D02*
X0171909Y0059341D01*
X0173873Y0059341D02*
X0173873Y0054999D01*
X0174741Y0054131D01*
X0176478Y0054131D01*
X0177346Y0054999D01*
X0177346Y0059341D01*
X0179311Y0058473D02*
X0180179Y0059341D01*
X0181916Y0059341D01*
X0182784Y0058473D01*
X0182784Y0054999D01*
X0181916Y0054131D01*
X0180179Y0054131D01*
X0179311Y0054999D01*
X0184748Y0054131D02*
X0186485Y0055868D01*
X0185617Y0055868D02*
X0188222Y0055868D01*
X0188222Y0054131D02*
X0188222Y0059341D01*
X0185617Y0059341D01*
X0184748Y0058473D01*
X0184748Y0056736D01*
X0185617Y0055868D01*
X0190110Y0054131D02*
X0191847Y0054131D01*
X0190978Y0054131D02*
X0190978Y0059341D01*
X0190110Y0059341D02*
X0191847Y0059341D01*
X0193811Y0058473D02*
X0194680Y0059341D01*
X0196416Y0059341D01*
X0197285Y0058473D01*
X0197285Y0054999D01*
X0196416Y0054131D01*
X0194680Y0054131D01*
X0193811Y0054999D01*
D13*
X0177949Y0093899D03*
X0162201Y0093899D03*
X0146453Y0093899D03*
X0130705Y0093899D03*
X0114957Y0093899D03*
X0099209Y0093899D03*
X0099209Y0123899D03*
X0114957Y0123899D03*
X0130705Y0123899D03*
X0146453Y0123899D03*
X0162201Y0123899D03*
X0177949Y0123899D03*
X0134642Y0159254D03*
X0134642Y0169254D03*
X0053028Y0144332D03*
X0043028Y0144332D03*
X0043028Y0128584D03*
X0053028Y0128584D03*
X0053028Y0112836D03*
X0043028Y0112836D03*
X0043028Y0095120D03*
X0053028Y0095120D03*
D14*
X0154327Y0145277D03*
X0154327Y0185277D03*
D15*
X0179983Y0188659D02*
X0187783Y0188659D01*
X0179783Y0165159D02*
X0171983Y0165159D01*
X0179983Y0141659D02*
X0187783Y0141659D01*
X0227983Y0141659D02*
X0235783Y0141659D01*
X0235783Y0188659D02*
X0227983Y0188659D01*
X0260664Y0085292D02*
X0268464Y0085292D01*
X0268464Y0065592D02*
X0260664Y0065592D01*
X0260664Y0045892D02*
X0268464Y0045892D01*
D16*
X0197162Y0104293D03*
X0197162Y0114293D03*
D17*
X0210312Y0078663D03*
X0220312Y0038663D03*
D18*
X0210312Y0038663D03*
X0210312Y0048663D03*
X0220312Y0048663D03*
X0220312Y0058663D03*
X0210312Y0058663D03*
X0200312Y0078663D03*
X0190312Y0078663D03*
X0180312Y0078663D03*
X0170312Y0078663D03*
X0160312Y0078663D03*
X0150312Y0078663D03*
X0140312Y0078663D03*
X0130312Y0078663D03*
X0120312Y0078663D03*
X0110312Y0078663D03*
X0100312Y0078663D03*
X0090312Y0078663D03*
X0080312Y0078663D03*
X0070312Y0078663D03*
X0070312Y0018663D03*
X0080312Y0018663D03*
X0090312Y0018663D03*
X0100312Y0018663D03*
X0110312Y0018663D03*
X0120312Y0018663D03*
X0130312Y0018663D03*
X0140312Y0018663D03*
X0150312Y0018663D03*
X0160312Y0018663D03*
X0170312Y0018663D03*
X0180312Y0018663D03*
X0190312Y0018663D03*
X0200312Y0018663D03*
X0210312Y0018663D03*
D19*
X0217062Y0018663D02*
X0217064Y0018776D01*
X0217070Y0018890D01*
X0217080Y0019003D01*
X0217094Y0019115D01*
X0217111Y0019227D01*
X0217133Y0019339D01*
X0217159Y0019449D01*
X0217188Y0019559D01*
X0217221Y0019667D01*
X0217258Y0019775D01*
X0217299Y0019880D01*
X0217343Y0019985D01*
X0217391Y0020088D01*
X0217442Y0020189D01*
X0217497Y0020288D01*
X0217556Y0020385D01*
X0217618Y0020480D01*
X0217683Y0020573D01*
X0217751Y0020664D01*
X0217822Y0020752D01*
X0217897Y0020838D01*
X0217974Y0020921D01*
X0218054Y0021001D01*
X0218137Y0021078D01*
X0218223Y0021153D01*
X0218311Y0021224D01*
X0218402Y0021292D01*
X0218495Y0021357D01*
X0218590Y0021419D01*
X0218687Y0021478D01*
X0218786Y0021533D01*
X0218887Y0021584D01*
X0218990Y0021632D01*
X0219095Y0021676D01*
X0219200Y0021717D01*
X0219308Y0021754D01*
X0219416Y0021787D01*
X0219526Y0021816D01*
X0219636Y0021842D01*
X0219748Y0021864D01*
X0219860Y0021881D01*
X0219972Y0021895D01*
X0220085Y0021905D01*
X0220199Y0021911D01*
X0220312Y0021913D01*
X0220425Y0021911D01*
X0220539Y0021905D01*
X0220652Y0021895D01*
X0220764Y0021881D01*
X0220876Y0021864D01*
X0220988Y0021842D01*
X0221098Y0021816D01*
X0221208Y0021787D01*
X0221316Y0021754D01*
X0221424Y0021717D01*
X0221529Y0021676D01*
X0221634Y0021632D01*
X0221737Y0021584D01*
X0221838Y0021533D01*
X0221937Y0021478D01*
X0222034Y0021419D01*
X0222129Y0021357D01*
X0222222Y0021292D01*
X0222313Y0021224D01*
X0222401Y0021153D01*
X0222487Y0021078D01*
X0222570Y0021001D01*
X0222650Y0020921D01*
X0222727Y0020838D01*
X0222802Y0020752D01*
X0222873Y0020664D01*
X0222941Y0020573D01*
X0223006Y0020480D01*
X0223068Y0020385D01*
X0223127Y0020288D01*
X0223182Y0020189D01*
X0223233Y0020088D01*
X0223281Y0019985D01*
X0223325Y0019880D01*
X0223366Y0019775D01*
X0223403Y0019667D01*
X0223436Y0019559D01*
X0223465Y0019449D01*
X0223491Y0019339D01*
X0223513Y0019227D01*
X0223530Y0019115D01*
X0223544Y0019003D01*
X0223554Y0018890D01*
X0223560Y0018776D01*
X0223562Y0018663D01*
X0223560Y0018550D01*
X0223554Y0018436D01*
X0223544Y0018323D01*
X0223530Y0018211D01*
X0223513Y0018099D01*
X0223491Y0017987D01*
X0223465Y0017877D01*
X0223436Y0017767D01*
X0223403Y0017659D01*
X0223366Y0017551D01*
X0223325Y0017446D01*
X0223281Y0017341D01*
X0223233Y0017238D01*
X0223182Y0017137D01*
X0223127Y0017038D01*
X0223068Y0016941D01*
X0223006Y0016846D01*
X0222941Y0016753D01*
X0222873Y0016662D01*
X0222802Y0016574D01*
X0222727Y0016488D01*
X0222650Y0016405D01*
X0222570Y0016325D01*
X0222487Y0016248D01*
X0222401Y0016173D01*
X0222313Y0016102D01*
X0222222Y0016034D01*
X0222129Y0015969D01*
X0222034Y0015907D01*
X0221937Y0015848D01*
X0221838Y0015793D01*
X0221737Y0015742D01*
X0221634Y0015694D01*
X0221529Y0015650D01*
X0221424Y0015609D01*
X0221316Y0015572D01*
X0221208Y0015539D01*
X0221098Y0015510D01*
X0220988Y0015484D01*
X0220876Y0015462D01*
X0220764Y0015445D01*
X0220652Y0015431D01*
X0220539Y0015421D01*
X0220425Y0015415D01*
X0220312Y0015413D01*
X0220199Y0015415D01*
X0220085Y0015421D01*
X0219972Y0015431D01*
X0219860Y0015445D01*
X0219748Y0015462D01*
X0219636Y0015484D01*
X0219526Y0015510D01*
X0219416Y0015539D01*
X0219308Y0015572D01*
X0219200Y0015609D01*
X0219095Y0015650D01*
X0218990Y0015694D01*
X0218887Y0015742D01*
X0218786Y0015793D01*
X0218687Y0015848D01*
X0218590Y0015907D01*
X0218495Y0015969D01*
X0218402Y0016034D01*
X0218311Y0016102D01*
X0218223Y0016173D01*
X0218137Y0016248D01*
X0218054Y0016325D01*
X0217974Y0016405D01*
X0217897Y0016488D01*
X0217822Y0016574D01*
X0217751Y0016662D01*
X0217683Y0016753D01*
X0217618Y0016846D01*
X0217556Y0016941D01*
X0217497Y0017038D01*
X0217442Y0017137D01*
X0217391Y0017238D01*
X0217343Y0017341D01*
X0217299Y0017446D01*
X0217258Y0017551D01*
X0217221Y0017659D01*
X0217188Y0017767D01*
X0217159Y0017877D01*
X0217133Y0017987D01*
X0217111Y0018099D01*
X0217094Y0018211D01*
X0217080Y0018323D01*
X0217070Y0018436D01*
X0217064Y0018550D01*
X0217062Y0018663D01*
X0217062Y0078663D02*
X0217064Y0078776D01*
X0217070Y0078890D01*
X0217080Y0079003D01*
X0217094Y0079115D01*
X0217111Y0079227D01*
X0217133Y0079339D01*
X0217159Y0079449D01*
X0217188Y0079559D01*
X0217221Y0079667D01*
X0217258Y0079775D01*
X0217299Y0079880D01*
X0217343Y0079985D01*
X0217391Y0080088D01*
X0217442Y0080189D01*
X0217497Y0080288D01*
X0217556Y0080385D01*
X0217618Y0080480D01*
X0217683Y0080573D01*
X0217751Y0080664D01*
X0217822Y0080752D01*
X0217897Y0080838D01*
X0217974Y0080921D01*
X0218054Y0081001D01*
X0218137Y0081078D01*
X0218223Y0081153D01*
X0218311Y0081224D01*
X0218402Y0081292D01*
X0218495Y0081357D01*
X0218590Y0081419D01*
X0218687Y0081478D01*
X0218786Y0081533D01*
X0218887Y0081584D01*
X0218990Y0081632D01*
X0219095Y0081676D01*
X0219200Y0081717D01*
X0219308Y0081754D01*
X0219416Y0081787D01*
X0219526Y0081816D01*
X0219636Y0081842D01*
X0219748Y0081864D01*
X0219860Y0081881D01*
X0219972Y0081895D01*
X0220085Y0081905D01*
X0220199Y0081911D01*
X0220312Y0081913D01*
X0220425Y0081911D01*
X0220539Y0081905D01*
X0220652Y0081895D01*
X0220764Y0081881D01*
X0220876Y0081864D01*
X0220988Y0081842D01*
X0221098Y0081816D01*
X0221208Y0081787D01*
X0221316Y0081754D01*
X0221424Y0081717D01*
X0221529Y0081676D01*
X0221634Y0081632D01*
X0221737Y0081584D01*
X0221838Y0081533D01*
X0221937Y0081478D01*
X0222034Y0081419D01*
X0222129Y0081357D01*
X0222222Y0081292D01*
X0222313Y0081224D01*
X0222401Y0081153D01*
X0222487Y0081078D01*
X0222570Y0081001D01*
X0222650Y0080921D01*
X0222727Y0080838D01*
X0222802Y0080752D01*
X0222873Y0080664D01*
X0222941Y0080573D01*
X0223006Y0080480D01*
X0223068Y0080385D01*
X0223127Y0080288D01*
X0223182Y0080189D01*
X0223233Y0080088D01*
X0223281Y0079985D01*
X0223325Y0079880D01*
X0223366Y0079775D01*
X0223403Y0079667D01*
X0223436Y0079559D01*
X0223465Y0079449D01*
X0223491Y0079339D01*
X0223513Y0079227D01*
X0223530Y0079115D01*
X0223544Y0079003D01*
X0223554Y0078890D01*
X0223560Y0078776D01*
X0223562Y0078663D01*
X0223560Y0078550D01*
X0223554Y0078436D01*
X0223544Y0078323D01*
X0223530Y0078211D01*
X0223513Y0078099D01*
X0223491Y0077987D01*
X0223465Y0077877D01*
X0223436Y0077767D01*
X0223403Y0077659D01*
X0223366Y0077551D01*
X0223325Y0077446D01*
X0223281Y0077341D01*
X0223233Y0077238D01*
X0223182Y0077137D01*
X0223127Y0077038D01*
X0223068Y0076941D01*
X0223006Y0076846D01*
X0222941Y0076753D01*
X0222873Y0076662D01*
X0222802Y0076574D01*
X0222727Y0076488D01*
X0222650Y0076405D01*
X0222570Y0076325D01*
X0222487Y0076248D01*
X0222401Y0076173D01*
X0222313Y0076102D01*
X0222222Y0076034D01*
X0222129Y0075969D01*
X0222034Y0075907D01*
X0221937Y0075848D01*
X0221838Y0075793D01*
X0221737Y0075742D01*
X0221634Y0075694D01*
X0221529Y0075650D01*
X0221424Y0075609D01*
X0221316Y0075572D01*
X0221208Y0075539D01*
X0221098Y0075510D01*
X0220988Y0075484D01*
X0220876Y0075462D01*
X0220764Y0075445D01*
X0220652Y0075431D01*
X0220539Y0075421D01*
X0220425Y0075415D01*
X0220312Y0075413D01*
X0220199Y0075415D01*
X0220085Y0075421D01*
X0219972Y0075431D01*
X0219860Y0075445D01*
X0219748Y0075462D01*
X0219636Y0075484D01*
X0219526Y0075510D01*
X0219416Y0075539D01*
X0219308Y0075572D01*
X0219200Y0075609D01*
X0219095Y0075650D01*
X0218990Y0075694D01*
X0218887Y0075742D01*
X0218786Y0075793D01*
X0218687Y0075848D01*
X0218590Y0075907D01*
X0218495Y0075969D01*
X0218402Y0076034D01*
X0218311Y0076102D01*
X0218223Y0076173D01*
X0218137Y0076248D01*
X0218054Y0076325D01*
X0217974Y0076405D01*
X0217897Y0076488D01*
X0217822Y0076574D01*
X0217751Y0076662D01*
X0217683Y0076753D01*
X0217618Y0076846D01*
X0217556Y0076941D01*
X0217497Y0077038D01*
X0217442Y0077137D01*
X0217391Y0077238D01*
X0217343Y0077341D01*
X0217299Y0077446D01*
X0217258Y0077551D01*
X0217221Y0077659D01*
X0217188Y0077767D01*
X0217159Y0077877D01*
X0217133Y0077987D01*
X0217111Y0078099D01*
X0217094Y0078211D01*
X0217080Y0078323D01*
X0217070Y0078436D01*
X0217064Y0078550D01*
X0217062Y0078663D01*
X0057062Y0078663D02*
X0057064Y0078776D01*
X0057070Y0078890D01*
X0057080Y0079003D01*
X0057094Y0079115D01*
X0057111Y0079227D01*
X0057133Y0079339D01*
X0057159Y0079449D01*
X0057188Y0079559D01*
X0057221Y0079667D01*
X0057258Y0079775D01*
X0057299Y0079880D01*
X0057343Y0079985D01*
X0057391Y0080088D01*
X0057442Y0080189D01*
X0057497Y0080288D01*
X0057556Y0080385D01*
X0057618Y0080480D01*
X0057683Y0080573D01*
X0057751Y0080664D01*
X0057822Y0080752D01*
X0057897Y0080838D01*
X0057974Y0080921D01*
X0058054Y0081001D01*
X0058137Y0081078D01*
X0058223Y0081153D01*
X0058311Y0081224D01*
X0058402Y0081292D01*
X0058495Y0081357D01*
X0058590Y0081419D01*
X0058687Y0081478D01*
X0058786Y0081533D01*
X0058887Y0081584D01*
X0058990Y0081632D01*
X0059095Y0081676D01*
X0059200Y0081717D01*
X0059308Y0081754D01*
X0059416Y0081787D01*
X0059526Y0081816D01*
X0059636Y0081842D01*
X0059748Y0081864D01*
X0059860Y0081881D01*
X0059972Y0081895D01*
X0060085Y0081905D01*
X0060199Y0081911D01*
X0060312Y0081913D01*
X0060425Y0081911D01*
X0060539Y0081905D01*
X0060652Y0081895D01*
X0060764Y0081881D01*
X0060876Y0081864D01*
X0060988Y0081842D01*
X0061098Y0081816D01*
X0061208Y0081787D01*
X0061316Y0081754D01*
X0061424Y0081717D01*
X0061529Y0081676D01*
X0061634Y0081632D01*
X0061737Y0081584D01*
X0061838Y0081533D01*
X0061937Y0081478D01*
X0062034Y0081419D01*
X0062129Y0081357D01*
X0062222Y0081292D01*
X0062313Y0081224D01*
X0062401Y0081153D01*
X0062487Y0081078D01*
X0062570Y0081001D01*
X0062650Y0080921D01*
X0062727Y0080838D01*
X0062802Y0080752D01*
X0062873Y0080664D01*
X0062941Y0080573D01*
X0063006Y0080480D01*
X0063068Y0080385D01*
X0063127Y0080288D01*
X0063182Y0080189D01*
X0063233Y0080088D01*
X0063281Y0079985D01*
X0063325Y0079880D01*
X0063366Y0079775D01*
X0063403Y0079667D01*
X0063436Y0079559D01*
X0063465Y0079449D01*
X0063491Y0079339D01*
X0063513Y0079227D01*
X0063530Y0079115D01*
X0063544Y0079003D01*
X0063554Y0078890D01*
X0063560Y0078776D01*
X0063562Y0078663D01*
X0063560Y0078550D01*
X0063554Y0078436D01*
X0063544Y0078323D01*
X0063530Y0078211D01*
X0063513Y0078099D01*
X0063491Y0077987D01*
X0063465Y0077877D01*
X0063436Y0077767D01*
X0063403Y0077659D01*
X0063366Y0077551D01*
X0063325Y0077446D01*
X0063281Y0077341D01*
X0063233Y0077238D01*
X0063182Y0077137D01*
X0063127Y0077038D01*
X0063068Y0076941D01*
X0063006Y0076846D01*
X0062941Y0076753D01*
X0062873Y0076662D01*
X0062802Y0076574D01*
X0062727Y0076488D01*
X0062650Y0076405D01*
X0062570Y0076325D01*
X0062487Y0076248D01*
X0062401Y0076173D01*
X0062313Y0076102D01*
X0062222Y0076034D01*
X0062129Y0075969D01*
X0062034Y0075907D01*
X0061937Y0075848D01*
X0061838Y0075793D01*
X0061737Y0075742D01*
X0061634Y0075694D01*
X0061529Y0075650D01*
X0061424Y0075609D01*
X0061316Y0075572D01*
X0061208Y0075539D01*
X0061098Y0075510D01*
X0060988Y0075484D01*
X0060876Y0075462D01*
X0060764Y0075445D01*
X0060652Y0075431D01*
X0060539Y0075421D01*
X0060425Y0075415D01*
X0060312Y0075413D01*
X0060199Y0075415D01*
X0060085Y0075421D01*
X0059972Y0075431D01*
X0059860Y0075445D01*
X0059748Y0075462D01*
X0059636Y0075484D01*
X0059526Y0075510D01*
X0059416Y0075539D01*
X0059308Y0075572D01*
X0059200Y0075609D01*
X0059095Y0075650D01*
X0058990Y0075694D01*
X0058887Y0075742D01*
X0058786Y0075793D01*
X0058687Y0075848D01*
X0058590Y0075907D01*
X0058495Y0075969D01*
X0058402Y0076034D01*
X0058311Y0076102D01*
X0058223Y0076173D01*
X0058137Y0076248D01*
X0058054Y0076325D01*
X0057974Y0076405D01*
X0057897Y0076488D01*
X0057822Y0076574D01*
X0057751Y0076662D01*
X0057683Y0076753D01*
X0057618Y0076846D01*
X0057556Y0076941D01*
X0057497Y0077038D01*
X0057442Y0077137D01*
X0057391Y0077238D01*
X0057343Y0077341D01*
X0057299Y0077446D01*
X0057258Y0077551D01*
X0057221Y0077659D01*
X0057188Y0077767D01*
X0057159Y0077877D01*
X0057133Y0077987D01*
X0057111Y0078099D01*
X0057094Y0078211D01*
X0057080Y0078323D01*
X0057070Y0078436D01*
X0057064Y0078550D01*
X0057062Y0078663D01*
X0057062Y0018663D02*
X0057064Y0018776D01*
X0057070Y0018890D01*
X0057080Y0019003D01*
X0057094Y0019115D01*
X0057111Y0019227D01*
X0057133Y0019339D01*
X0057159Y0019449D01*
X0057188Y0019559D01*
X0057221Y0019667D01*
X0057258Y0019775D01*
X0057299Y0019880D01*
X0057343Y0019985D01*
X0057391Y0020088D01*
X0057442Y0020189D01*
X0057497Y0020288D01*
X0057556Y0020385D01*
X0057618Y0020480D01*
X0057683Y0020573D01*
X0057751Y0020664D01*
X0057822Y0020752D01*
X0057897Y0020838D01*
X0057974Y0020921D01*
X0058054Y0021001D01*
X0058137Y0021078D01*
X0058223Y0021153D01*
X0058311Y0021224D01*
X0058402Y0021292D01*
X0058495Y0021357D01*
X0058590Y0021419D01*
X0058687Y0021478D01*
X0058786Y0021533D01*
X0058887Y0021584D01*
X0058990Y0021632D01*
X0059095Y0021676D01*
X0059200Y0021717D01*
X0059308Y0021754D01*
X0059416Y0021787D01*
X0059526Y0021816D01*
X0059636Y0021842D01*
X0059748Y0021864D01*
X0059860Y0021881D01*
X0059972Y0021895D01*
X0060085Y0021905D01*
X0060199Y0021911D01*
X0060312Y0021913D01*
X0060425Y0021911D01*
X0060539Y0021905D01*
X0060652Y0021895D01*
X0060764Y0021881D01*
X0060876Y0021864D01*
X0060988Y0021842D01*
X0061098Y0021816D01*
X0061208Y0021787D01*
X0061316Y0021754D01*
X0061424Y0021717D01*
X0061529Y0021676D01*
X0061634Y0021632D01*
X0061737Y0021584D01*
X0061838Y0021533D01*
X0061937Y0021478D01*
X0062034Y0021419D01*
X0062129Y0021357D01*
X0062222Y0021292D01*
X0062313Y0021224D01*
X0062401Y0021153D01*
X0062487Y0021078D01*
X0062570Y0021001D01*
X0062650Y0020921D01*
X0062727Y0020838D01*
X0062802Y0020752D01*
X0062873Y0020664D01*
X0062941Y0020573D01*
X0063006Y0020480D01*
X0063068Y0020385D01*
X0063127Y0020288D01*
X0063182Y0020189D01*
X0063233Y0020088D01*
X0063281Y0019985D01*
X0063325Y0019880D01*
X0063366Y0019775D01*
X0063403Y0019667D01*
X0063436Y0019559D01*
X0063465Y0019449D01*
X0063491Y0019339D01*
X0063513Y0019227D01*
X0063530Y0019115D01*
X0063544Y0019003D01*
X0063554Y0018890D01*
X0063560Y0018776D01*
X0063562Y0018663D01*
X0063560Y0018550D01*
X0063554Y0018436D01*
X0063544Y0018323D01*
X0063530Y0018211D01*
X0063513Y0018099D01*
X0063491Y0017987D01*
X0063465Y0017877D01*
X0063436Y0017767D01*
X0063403Y0017659D01*
X0063366Y0017551D01*
X0063325Y0017446D01*
X0063281Y0017341D01*
X0063233Y0017238D01*
X0063182Y0017137D01*
X0063127Y0017038D01*
X0063068Y0016941D01*
X0063006Y0016846D01*
X0062941Y0016753D01*
X0062873Y0016662D01*
X0062802Y0016574D01*
X0062727Y0016488D01*
X0062650Y0016405D01*
X0062570Y0016325D01*
X0062487Y0016248D01*
X0062401Y0016173D01*
X0062313Y0016102D01*
X0062222Y0016034D01*
X0062129Y0015969D01*
X0062034Y0015907D01*
X0061937Y0015848D01*
X0061838Y0015793D01*
X0061737Y0015742D01*
X0061634Y0015694D01*
X0061529Y0015650D01*
X0061424Y0015609D01*
X0061316Y0015572D01*
X0061208Y0015539D01*
X0061098Y0015510D01*
X0060988Y0015484D01*
X0060876Y0015462D01*
X0060764Y0015445D01*
X0060652Y0015431D01*
X0060539Y0015421D01*
X0060425Y0015415D01*
X0060312Y0015413D01*
X0060199Y0015415D01*
X0060085Y0015421D01*
X0059972Y0015431D01*
X0059860Y0015445D01*
X0059748Y0015462D01*
X0059636Y0015484D01*
X0059526Y0015510D01*
X0059416Y0015539D01*
X0059308Y0015572D01*
X0059200Y0015609D01*
X0059095Y0015650D01*
X0058990Y0015694D01*
X0058887Y0015742D01*
X0058786Y0015793D01*
X0058687Y0015848D01*
X0058590Y0015907D01*
X0058495Y0015969D01*
X0058402Y0016034D01*
X0058311Y0016102D01*
X0058223Y0016173D01*
X0058137Y0016248D01*
X0058054Y0016325D01*
X0057974Y0016405D01*
X0057897Y0016488D01*
X0057822Y0016574D01*
X0057751Y0016662D01*
X0057683Y0016753D01*
X0057618Y0016846D01*
X0057556Y0016941D01*
X0057497Y0017038D01*
X0057442Y0017137D01*
X0057391Y0017238D01*
X0057343Y0017341D01*
X0057299Y0017446D01*
X0057258Y0017551D01*
X0057221Y0017659D01*
X0057188Y0017767D01*
X0057159Y0017877D01*
X0057133Y0017987D01*
X0057111Y0018099D01*
X0057094Y0018211D01*
X0057080Y0018323D01*
X0057070Y0018436D01*
X0057064Y0018550D01*
X0057062Y0018663D01*
D20*
X0106217Y0143817D02*
X0106217Y0149017D01*
X0116217Y0149017D02*
X0116217Y0143817D01*
X0116217Y0179017D02*
X0116217Y0184217D01*
X0106217Y0184217D02*
X0106217Y0179017D01*
D21*
X0072642Y0133663D02*
X0066642Y0133663D01*
X0066642Y0123663D02*
X0072642Y0123663D01*
X0072642Y0113663D02*
X0066642Y0113663D01*
X0066642Y0103663D02*
X0072642Y0103663D01*
X0072642Y0093663D02*
X0066642Y0093663D01*
D22*
X0069642Y0103663D02*
X0061808Y0103663D01*
X0053028Y0095120D01*
X0053028Y0112836D02*
X0053501Y0113663D01*
X0069642Y0113663D01*
X0069642Y0123663D02*
X0058304Y0123663D01*
X0053028Y0128584D01*
X0063461Y0133663D02*
X0053028Y0144332D01*
X0063461Y0133663D02*
X0069642Y0133663D01*
X0106217Y0149017D02*
X0106217Y0153309D01*
X0109052Y0156143D01*
X0124800Y0156143D01*
X0130705Y0150238D01*
X0130705Y0138427D01*
X0136611Y0132521D01*
X0158264Y0132521D01*
X0162201Y0128584D01*
X0162201Y0123899D01*
X0177949Y0123899D02*
X0187556Y0123899D01*
X0197162Y0114293D01*
X0177949Y0093899D02*
X0168934Y0093899D01*
X0160312Y0085277D01*
X0160312Y0078663D01*
X0160312Y0085277D02*
X0160312Y0092009D01*
X0162201Y0093899D01*
X0146453Y0093899D02*
X0140312Y0087757D01*
X0140312Y0078663D01*
X0130312Y0078663D02*
X0130312Y0093506D01*
X0130705Y0093899D01*
X0120312Y0088545D02*
X0120312Y0078663D01*
X0120312Y0088545D02*
X0114957Y0093899D01*
X0110312Y0082797D02*
X0110312Y0078663D01*
X0110312Y0082797D02*
X0099209Y0093899D01*
D23*
X0099209Y0097088D01*
X0092635Y0103663D01*
X0069642Y0103663D01*
X0069642Y0113663D02*
X0086572Y0113663D01*
X0091335Y0108899D01*
X0111020Y0108899D01*
X0114957Y0104962D01*
X0114957Y0093899D01*
X0130705Y0093899D02*
X0130705Y0106931D01*
X0122831Y0114805D01*
X0091335Y0114805D01*
X0082477Y0123663D01*
X0069642Y0123663D01*
X0069642Y0133663D02*
X0082320Y0133663D01*
X0089367Y0126616D01*
X0089367Y0122679D01*
X0093304Y0118742D01*
X0142516Y0118742D01*
X0146453Y0114805D01*
X0146453Y0093899D01*
D24*
X0152853Y0099379D02*
X0152853Y0116078D01*
X0151879Y0118430D01*
X0150957Y0119352D01*
X0152853Y0121248D01*
X0152853Y0123899D01*
X0146454Y0123899D01*
X0146454Y0123899D01*
X0152853Y0123899D01*
X0152853Y0125721D01*
X0153801Y0125721D01*
X0153801Y0120420D01*
X0158722Y0115499D01*
X0165681Y0115499D01*
X0170075Y0119894D01*
X0174470Y0115499D01*
X0181429Y0115499D01*
X0183029Y0117099D01*
X0184739Y0117099D01*
X0188412Y0113426D01*
X0188412Y0110669D01*
X0191202Y0107879D01*
X0190412Y0107089D01*
X0190412Y0104293D01*
X0197162Y0104293D01*
X0197162Y0104293D01*
X0181886Y0104293D01*
X0185823Y0100356D01*
X0185823Y0087246D01*
X0180312Y0081734D01*
X0180312Y0078663D01*
X0180312Y0085499D01*
X0180312Y0085499D01*
X0180312Y0078663D01*
X0180312Y0078663D01*
X0180312Y0071563D01*
X0180777Y0071563D01*
X0181700Y0071684D01*
X0182599Y0071925D01*
X0183459Y0072282D01*
X0183690Y0072415D01*
X0185157Y0070948D01*
X0188502Y0069563D01*
X0192122Y0069563D01*
X0195312Y0070884D01*
X0198502Y0069563D01*
X0202122Y0069563D01*
X0203910Y0070304D01*
X0205698Y0069563D01*
X0214926Y0069563D01*
X0216984Y0070416D01*
X0217017Y0070449D01*
X0218551Y0069813D01*
X0222072Y0069813D01*
X0225325Y0071160D01*
X0227814Y0073650D01*
X0229162Y0076903D01*
X0229162Y0080423D01*
X0227814Y0083676D01*
X0225325Y0086166D01*
X0222072Y0087513D01*
X0218551Y0087513D01*
X0217017Y0086877D01*
X0216984Y0086910D01*
X0214926Y0087763D01*
X0205698Y0087763D01*
X0203910Y0087022D01*
X0202122Y0087763D01*
X0198502Y0087763D01*
X0195312Y0086442D01*
X0192122Y0087763D01*
X0188502Y0087763D01*
X0185157Y0086378D01*
X0183690Y0084911D01*
X0183459Y0085044D01*
X0182599Y0085401D01*
X0181700Y0085641D01*
X0181586Y0085656D01*
X0186349Y0090420D01*
X0186349Y0097379D01*
X0181429Y0102299D01*
X0174470Y0102299D01*
X0172870Y0100699D01*
X0167581Y0100699D01*
X0167369Y0100611D01*
X0165681Y0102299D01*
X0158722Y0102299D01*
X0154327Y0097905D01*
X0152853Y0099379D01*
X0152938Y0099294D02*
X0155717Y0099294D01*
X0152853Y0102492D02*
X0190412Y0102492D01*
X0190412Y0101497D02*
X0194366Y0097543D01*
X0197162Y0097543D01*
X0197162Y0104293D01*
X0190412Y0104293D01*
X0190412Y0101497D01*
X0192616Y0099294D02*
X0184434Y0099294D01*
X0186349Y0096095D02*
X0254664Y0096095D01*
X0254664Y0099294D02*
X0201708Y0099294D01*
X0199958Y0097543D02*
X0203912Y0101497D01*
X0203912Y0104293D01*
X0203912Y0107089D01*
X0203122Y0107879D01*
X0205912Y0110669D01*
X0205912Y0117917D01*
X0200786Y0123043D01*
X0198029Y0123043D01*
X0191408Y0129664D01*
X0188908Y0130699D01*
X0183029Y0130699D01*
X0181569Y0132159D01*
X0189672Y0132159D01*
X0193164Y0133605D01*
X0195836Y0136278D01*
X0197283Y0139769D01*
X0197283Y0143549D01*
X0195836Y0147040D01*
X0193164Y0149713D01*
X0189672Y0151159D01*
X0178093Y0151159D01*
X0174601Y0149713D01*
X0173748Y0148859D01*
X0163018Y0148859D01*
X0162296Y0150602D01*
X0161927Y0150971D01*
X0161927Y0166775D01*
X0163381Y0168228D01*
X0165136Y0168228D01*
X0164865Y0167575D01*
X0164611Y0166625D01*
X0164483Y0165651D01*
X0164483Y0165159D01*
X0164483Y0164667D01*
X0164611Y0163693D01*
X0164865Y0162743D01*
X0165242Y0161835D01*
X0165733Y0160983D01*
X0166332Y0160203D01*
X0167027Y0159508D01*
X0167807Y0158910D01*
X0168658Y0158418D01*
X0169567Y0158042D01*
X0170516Y0157787D01*
X0171491Y0157659D01*
X0175882Y0157659D01*
X0175882Y0165159D01*
X0164483Y0165159D01*
X0175882Y0165159D01*
X0175882Y0165159D01*
X0175883Y0165159D01*
X0175883Y0165159D01*
X0187283Y0165159D01*
X0187283Y0165651D01*
X0187154Y0166625D01*
X0186900Y0167575D01*
X0186629Y0168228D01*
X0257214Y0168228D01*
X0268775Y0155222D01*
X0268775Y0134437D01*
X0253160Y0150052D01*
X0249521Y0151559D01*
X0229913Y0151559D01*
X0228948Y0151159D01*
X0226093Y0151159D01*
X0222601Y0149713D01*
X0219929Y0147040D01*
X0218483Y0143549D01*
X0218483Y0139769D01*
X0219929Y0136278D01*
X0222601Y0133605D01*
X0226093Y0132159D01*
X0228948Y0132159D01*
X0229913Y0131759D01*
X0243451Y0131759D01*
X0254664Y0120547D01*
X0254664Y0092727D01*
X0252610Y0090673D01*
X0251164Y0087182D01*
X0251164Y0083402D01*
X0252610Y0079911D01*
X0255282Y0077238D01*
X0258774Y0075792D01*
X0261629Y0075792D01*
X0262594Y0075392D01*
X0266533Y0075392D01*
X0267499Y0075792D01*
X0268775Y0075792D01*
X0268775Y0073092D01*
X0264564Y0073092D01*
X0264564Y0065592D01*
X0264564Y0058092D01*
X0266016Y0058092D01*
X0263316Y0055392D01*
X0258774Y0055392D01*
X0255282Y0053946D01*
X0252610Y0051273D01*
X0252598Y0051245D01*
X0237644Y0036291D01*
X0229412Y0036291D01*
X0229412Y0043277D01*
X0228671Y0045065D01*
X0229412Y0046853D01*
X0229412Y0050473D01*
X0228090Y0053663D01*
X0229412Y0056853D01*
X0229412Y0060473D01*
X0228026Y0063818D01*
X0225466Y0066378D01*
X0222122Y0067763D01*
X0218502Y0067763D01*
X0215312Y0066442D01*
X0212122Y0067763D01*
X0208502Y0067763D01*
X0205157Y0066378D01*
X0202597Y0063818D01*
X0201940Y0062232D01*
X0200655Y0063517D01*
X0199787Y0064385D01*
X0197600Y0065291D01*
X0194667Y0065291D01*
X0193496Y0065291D01*
X0193263Y0065195D01*
X0193030Y0065291D01*
X0185630Y0065291D01*
X0184433Y0065291D01*
X0183928Y0065082D01*
X0183766Y0065015D01*
X0183099Y0065291D01*
X0180166Y0065291D01*
X0178995Y0065291D01*
X0178763Y0065195D01*
X0178530Y0065291D01*
X0176163Y0065291D01*
X0175610Y0065062D01*
X0175056Y0065291D01*
X0169770Y0065291D01*
X0169770Y0069563D01*
X0172122Y0069563D01*
X0175466Y0070948D01*
X0176933Y0072415D01*
X0177165Y0072282D01*
X0178025Y0071925D01*
X0178924Y0071684D01*
X0179846Y0071563D01*
X0180312Y0071563D01*
X0180312Y0078663D01*
X0180312Y0078663D01*
X0180312Y0080103D02*
X0180312Y0080103D01*
X0180312Y0083301D02*
X0180312Y0083301D01*
X0182429Y0086500D02*
X0185452Y0086500D01*
X0185628Y0089698D02*
X0252206Y0089698D01*
X0254664Y0092897D02*
X0186349Y0092897D01*
X0195171Y0086500D02*
X0195452Y0086500D01*
X0197162Y0097543D02*
X0199958Y0097543D01*
X0197162Y0097543D02*
X0197162Y0104293D01*
X0203912Y0104293D01*
X0197162Y0104293D01*
X0197162Y0104293D01*
X0197162Y0104293D01*
X0197162Y0102492D02*
X0197162Y0102492D01*
X0197162Y0099294D02*
X0197162Y0099294D01*
X0203912Y0102492D02*
X0254664Y0102492D01*
X0254664Y0105691D02*
X0203912Y0105691D01*
X0204132Y0108889D02*
X0254664Y0108889D01*
X0254664Y0112088D02*
X0205912Y0112088D01*
X0205912Y0115286D02*
X0254664Y0115286D01*
X0254664Y0118485D02*
X0205344Y0118485D01*
X0202145Y0121683D02*
X0253527Y0121683D01*
X0250328Y0124882D02*
X0196190Y0124882D01*
X0192991Y0128080D02*
X0247130Y0128080D01*
X0243931Y0131279D02*
X0182449Y0131279D01*
X0194036Y0134477D02*
X0221729Y0134477D01*
X0219350Y0137676D02*
X0196415Y0137676D01*
X0197283Y0140874D02*
X0218483Y0140874D01*
X0218700Y0144073D02*
X0197065Y0144073D01*
X0195605Y0147272D02*
X0220160Y0147272D01*
X0224429Y0150470D02*
X0191336Y0150470D01*
X0184738Y0159508D02*
X0183958Y0158910D01*
X0183107Y0158418D01*
X0182199Y0158042D01*
X0181249Y0157787D01*
X0180274Y0157659D01*
X0175883Y0157659D01*
X0175883Y0165159D01*
X0187283Y0165159D01*
X0187283Y0164667D01*
X0187154Y0163693D01*
X0186900Y0162743D01*
X0186524Y0161835D01*
X0186032Y0160983D01*
X0185433Y0160203D01*
X0184738Y0159508D01*
X0185296Y0160066D02*
X0264470Y0160066D01*
X0261626Y0163264D02*
X0187039Y0163264D01*
X0187176Y0166463D02*
X0258783Y0166463D01*
X0267313Y0156867D02*
X0161927Y0156867D01*
X0161927Y0153669D02*
X0268775Y0153669D01*
X0268775Y0150470D02*
X0252150Y0150470D01*
X0255940Y0147272D02*
X0268775Y0147272D01*
X0268775Y0144073D02*
X0259139Y0144073D01*
X0262337Y0140874D02*
X0268775Y0140874D01*
X0268775Y0137676D02*
X0265536Y0137676D01*
X0268734Y0134477D02*
X0268775Y0134477D01*
X0251164Y0086500D02*
X0224518Y0086500D01*
X0227970Y0083301D02*
X0251206Y0083301D01*
X0252530Y0080103D02*
X0229162Y0080103D01*
X0229162Y0076904D02*
X0256089Y0076904D01*
X0258248Y0072709D02*
X0259197Y0072964D01*
X0260172Y0073092D01*
X0264564Y0073092D01*
X0264564Y0065592D01*
X0264564Y0065592D01*
X0264564Y0065592D01*
X0264564Y0058092D01*
X0260172Y0058092D01*
X0259197Y0058220D01*
X0258248Y0058475D01*
X0257339Y0058851D01*
X0256488Y0059343D01*
X0255708Y0059941D01*
X0255013Y0060636D01*
X0254414Y0061416D01*
X0253923Y0062268D01*
X0253546Y0063176D01*
X0253292Y0064126D01*
X0253164Y0065101D01*
X0253164Y0065592D01*
X0264564Y0065592D01*
X0264564Y0065592D01*
X0253164Y0065592D01*
X0253164Y0066084D01*
X0253292Y0067058D01*
X0253546Y0068008D01*
X0253923Y0068916D01*
X0254414Y0069768D01*
X0255013Y0070548D01*
X0255708Y0071243D01*
X0256488Y0071842D01*
X0257339Y0072333D01*
X0258248Y0072709D01*
X0254982Y0070507D02*
X0223748Y0070507D01*
X0223218Y0067309D02*
X0253359Y0067309D01*
X0253296Y0064110D02*
X0227734Y0064110D01*
X0229230Y0060912D02*
X0254802Y0060912D01*
X0256656Y0054515D02*
X0228443Y0054515D01*
X0229062Y0051316D02*
X0252653Y0051316D01*
X0249471Y0048118D02*
X0229412Y0048118D01*
X0228731Y0044919D02*
X0246273Y0044919D01*
X0243074Y0041721D02*
X0229412Y0041721D01*
X0229412Y0038522D02*
X0239876Y0038522D01*
X0229412Y0057713D02*
X0265637Y0057713D01*
X0264564Y0060912D02*
X0264564Y0060912D01*
X0264564Y0064110D02*
X0264564Y0064110D01*
X0264564Y0067309D02*
X0264564Y0067309D01*
X0264564Y0070507D02*
X0264564Y0070507D01*
X0268775Y0073706D02*
X0227837Y0073706D01*
X0217405Y0067309D02*
X0213218Y0067309D01*
X0207405Y0067309D02*
X0169770Y0067309D01*
X0174401Y0070507D02*
X0186222Y0070507D01*
X0184433Y0065291D02*
X0184433Y0065291D01*
X0184433Y0065291D01*
X0178995Y0065291D02*
X0178995Y0065291D01*
X0178995Y0065291D01*
X0180312Y0073706D02*
X0180312Y0073706D01*
X0180312Y0076904D02*
X0180312Y0076904D01*
X0194401Y0070507D02*
X0196222Y0070507D01*
X0193496Y0065291D02*
X0193496Y0065291D01*
X0193496Y0065291D01*
X0200062Y0064110D02*
X0202890Y0064110D01*
X0166138Y0040002D02*
X0180312Y0025828D01*
X0180312Y0018663D01*
X0166138Y0040002D02*
X0046060Y0040002D01*
X0042123Y0043939D01*
X0042123Y0081340D01*
X0048028Y0087246D01*
X0067713Y0087246D01*
X0069642Y0089175D01*
X0069642Y0093663D01*
X0052852Y0104436D02*
X0051910Y0103520D01*
X0049549Y0103520D01*
X0046614Y0100585D01*
X0045679Y0101520D01*
X0043028Y0101520D01*
X0040377Y0101520D01*
X0036628Y0097771D01*
X0036628Y0095120D01*
X0043028Y0095120D01*
X0043028Y0101520D01*
X0043028Y0095120D01*
X0043028Y0095120D01*
X0043028Y0095120D01*
X0043028Y0112836D01*
X0043028Y0112836D01*
X0043028Y0106436D01*
X0040377Y0106436D01*
X0036628Y0110185D01*
X0036628Y0112836D01*
X0043028Y0112836D01*
X0043028Y0112836D01*
X0043028Y0106436D01*
X0045679Y0106436D01*
X0046614Y0107371D01*
X0049549Y0104436D01*
X0052852Y0104436D01*
X0048294Y0105691D02*
X0034443Y0105691D01*
X0034443Y0108889D02*
X0037924Y0108889D01*
X0043028Y0108889D02*
X0043028Y0108889D01*
X0043028Y0112088D02*
X0043028Y0112088D01*
X0043028Y0112836D02*
X0043028Y0128584D01*
X0043028Y0128584D01*
X0043028Y0122184D01*
X0040377Y0122184D01*
X0036628Y0125933D01*
X0036628Y0128584D01*
X0043028Y0128584D01*
X0043028Y0128584D01*
X0043028Y0122184D01*
X0045679Y0122184D01*
X0046614Y0123119D01*
X0049023Y0120710D01*
X0046614Y0118301D01*
X0045679Y0119236D01*
X0043028Y0119236D01*
X0040377Y0119236D01*
X0036628Y0115487D01*
X0036628Y0112836D01*
X0043028Y0112836D01*
X0043028Y0119236D01*
X0043028Y0112836D01*
X0043028Y0112836D01*
X0043028Y0115286D02*
X0043028Y0115286D01*
X0043028Y0118485D02*
X0043028Y0118485D01*
X0039626Y0118485D02*
X0034443Y0118485D01*
X0034443Y0121683D02*
X0048050Y0121683D01*
X0046798Y0118485D02*
X0046430Y0118485D01*
X0043028Y0124882D02*
X0043028Y0124882D01*
X0043028Y0128080D02*
X0043028Y0128080D01*
X0043028Y0128584D02*
X0043028Y0144332D01*
X0043028Y0144332D01*
X0043028Y0137932D01*
X0040377Y0137932D01*
X0036628Y0141681D01*
X0036628Y0144332D01*
X0043028Y0144332D01*
X0043028Y0144332D01*
X0043028Y0137932D01*
X0045679Y0137932D01*
X0046614Y0138867D01*
X0049023Y0136458D01*
X0046614Y0134049D01*
X0045679Y0134984D01*
X0043028Y0134984D01*
X0040377Y0134984D01*
X0036628Y0131235D01*
X0036628Y0128584D01*
X0043028Y0128584D01*
X0043028Y0134984D01*
X0043028Y0128584D01*
X0043028Y0128584D01*
X0043028Y0131279D02*
X0043028Y0131279D01*
X0043028Y0134477D02*
X0043028Y0134477D01*
X0039870Y0134477D02*
X0034443Y0134477D01*
X0034443Y0137676D02*
X0047805Y0137676D01*
X0047042Y0134477D02*
X0046186Y0134477D01*
X0043028Y0140874D02*
X0043028Y0140874D01*
X0043028Y0144073D02*
X0043028Y0144073D01*
X0043028Y0144332D02*
X0062713Y0164017D01*
X0095272Y0164017D01*
X0087398Y0156143D01*
X0087398Y0135710D01*
X0099209Y0123899D01*
X0107083Y0123899D01*
X0116217Y0133033D01*
X0116217Y0149017D01*
X0116217Y0149017D01*
X0116217Y0137617D01*
X0115729Y0137617D01*
X0114765Y0137770D01*
X0113837Y0138072D01*
X0112968Y0138515D01*
X0112703Y0138707D01*
X0110862Y0136866D01*
X0107848Y0135617D01*
X0104586Y0135617D01*
X0101572Y0136866D01*
X0099266Y0139172D01*
X0098017Y0142186D01*
X0098017Y0150648D01*
X0099266Y0153662D01*
X0099417Y0153814D01*
X0099417Y0154661D01*
X0100452Y0157161D01*
X0103287Y0159995D01*
X0105200Y0161908D01*
X0107699Y0162943D01*
X0126152Y0162943D01*
X0126365Y0162855D01*
X0127763Y0164254D01*
X0126242Y0165774D01*
X0126242Y0172733D01*
X0127442Y0173933D01*
X0127442Y0179229D01*
X0128539Y0181875D01*
X0130564Y0183901D01*
X0134977Y0188313D01*
X0120889Y0188313D01*
X0120946Y0188256D01*
X0121520Y0187467D01*
X0121963Y0186597D01*
X0122265Y0185669D01*
X0122417Y0184705D01*
X0122417Y0179017D01*
X0116217Y0179017D01*
X0116217Y0179017D01*
X0116217Y0172817D01*
X0115729Y0172817D01*
X0114765Y0172970D01*
X0113837Y0173272D01*
X0112968Y0173715D01*
X0112703Y0173907D01*
X0110862Y0172066D01*
X0107848Y0170817D01*
X0104586Y0170817D01*
X0101572Y0172066D01*
X0099266Y0174372D01*
X0098017Y0177386D01*
X0098017Y0185848D01*
X0099266Y0188862D01*
X0099306Y0188903D01*
X0100113Y0190852D01*
X0102139Y0192877D01*
X0106549Y0197287D01*
X0053738Y0197287D01*
X0055075Y0194973D01*
X0056022Y0191438D01*
X0056022Y0187778D01*
X0055075Y0184243D01*
X0053245Y0181074D01*
X0050657Y0178486D01*
X0047488Y0176656D01*
X0043953Y0175709D01*
X0040293Y0175709D01*
X0036758Y0176656D01*
X0034443Y0177992D01*
X0034443Y0031932D01*
X0036758Y0033269D01*
X0040293Y0034216D01*
X0041663Y0034216D01*
X0039956Y0035923D01*
X0036019Y0039860D01*
X0034923Y0042506D01*
X0034923Y0082772D01*
X0036019Y0085419D01*
X0038044Y0087444D01*
X0039849Y0089248D01*
X0036628Y0092469D01*
X0036628Y0095120D01*
X0043028Y0095120D01*
X0043028Y0096095D02*
X0043028Y0096095D01*
X0043028Y0099294D02*
X0043028Y0099294D01*
X0038151Y0099294D02*
X0034443Y0099294D01*
X0034443Y0102492D02*
X0048522Y0102492D01*
X0036628Y0096095D02*
X0034443Y0096095D01*
X0034443Y0092897D02*
X0036628Y0092897D01*
X0034443Y0089698D02*
X0039399Y0089698D01*
X0037100Y0086500D02*
X0034443Y0086500D01*
X0034443Y0083301D02*
X0035142Y0083301D01*
X0034923Y0080103D02*
X0034443Y0080103D01*
X0034443Y0076904D02*
X0034923Y0076904D01*
X0034923Y0073706D02*
X0034443Y0073706D01*
X0034443Y0070507D02*
X0034923Y0070507D01*
X0034923Y0067309D02*
X0034443Y0067309D01*
X0034443Y0064110D02*
X0034923Y0064110D01*
X0034923Y0060912D02*
X0034443Y0060912D01*
X0034443Y0057713D02*
X0034923Y0057713D01*
X0034923Y0054515D02*
X0034443Y0054515D01*
X0034443Y0051316D02*
X0034923Y0051316D01*
X0034923Y0048118D02*
X0034443Y0048118D01*
X0034443Y0044919D02*
X0034923Y0044919D01*
X0035248Y0041721D02*
X0034443Y0041721D01*
X0034443Y0038522D02*
X0037357Y0038522D01*
X0034443Y0035324D02*
X0040555Y0035324D01*
X0034777Y0032125D02*
X0034443Y0032125D01*
X0034443Y0112088D02*
X0036628Y0112088D01*
X0036628Y0115286D02*
X0034443Y0115286D01*
X0034443Y0124882D02*
X0037680Y0124882D01*
X0036628Y0128080D02*
X0034443Y0128080D01*
X0034443Y0131279D02*
X0036672Y0131279D01*
X0037435Y0140874D02*
X0034443Y0140874D01*
X0034443Y0144073D02*
X0036628Y0144073D01*
X0036628Y0144332D02*
X0043028Y0144332D01*
X0043028Y0150732D01*
X0040377Y0150732D01*
X0036628Y0146983D01*
X0036628Y0144332D01*
X0036916Y0147272D02*
X0034443Y0147272D01*
X0034443Y0150470D02*
X0040115Y0150470D01*
X0043028Y0150470D02*
X0043028Y0150470D01*
X0043028Y0150732D02*
X0043028Y0144332D01*
X0043028Y0144332D01*
X0043028Y0147272D02*
X0043028Y0147272D01*
X0043028Y0150732D02*
X0045679Y0150732D01*
X0046614Y0149797D01*
X0049549Y0152732D01*
X0056508Y0152732D01*
X0061428Y0147812D01*
X0061428Y0145468D01*
X0064669Y0142154D01*
X0064932Y0142263D01*
X0074353Y0142263D01*
X0077514Y0140954D01*
X0078405Y0140063D01*
X0083593Y0140063D01*
X0085945Y0139089D01*
X0092992Y0132041D01*
X0094792Y0130241D01*
X0095293Y0129033D01*
X0096558Y0130299D01*
X0099209Y0130299D01*
X0099209Y0125142D01*
X0099209Y0125142D01*
X0099209Y0130299D01*
X0101860Y0130299D01*
X0105609Y0126550D01*
X0105609Y0125142D01*
X0108557Y0125142D01*
X0108557Y0126550D01*
X0112306Y0130299D01*
X0114957Y0130299D01*
X0114957Y0125142D01*
X0114957Y0125142D01*
X0114957Y0130299D01*
X0117608Y0130299D01*
X0121357Y0126550D01*
X0121357Y0125142D01*
X0124305Y0125142D01*
X0124305Y0126550D01*
X0128054Y0130299D01*
X0129216Y0130299D01*
X0124941Y0134575D01*
X0123905Y0137074D01*
X0123905Y0147421D01*
X0122417Y0148909D01*
X0122417Y0143329D01*
X0122265Y0142365D01*
X0121963Y0141437D01*
X0121520Y0140568D01*
X0120946Y0139778D01*
X0120256Y0139088D01*
X0119467Y0138515D01*
X0118597Y0138072D01*
X0117669Y0137770D01*
X0116705Y0137617D01*
X0116217Y0137617D01*
X0116217Y0149017D01*
X0116217Y0147272D02*
X0116217Y0147272D01*
X0116217Y0144073D02*
X0116217Y0144073D01*
X0116217Y0140874D02*
X0116217Y0140874D01*
X0116217Y0137676D02*
X0116217Y0137676D01*
X0115359Y0137676D02*
X0111672Y0137676D01*
X0117075Y0137676D02*
X0123905Y0137676D01*
X0123905Y0140874D02*
X0121676Y0140874D01*
X0122417Y0144073D02*
X0123905Y0144073D01*
X0123905Y0147272D02*
X0122417Y0147272D01*
X0134642Y0154175D02*
X0143540Y0145277D01*
X0154327Y0145277D01*
X0157946Y0141659D01*
X0183883Y0141659D01*
X0176429Y0150470D02*
X0162351Y0150470D01*
X0161927Y0160066D02*
X0166469Y0160066D01*
X0164726Y0163264D02*
X0161927Y0163264D01*
X0161927Y0166463D02*
X0164589Y0166463D01*
X0175882Y0163264D02*
X0175883Y0163264D01*
X0175882Y0160066D02*
X0175883Y0160066D01*
X0162757Y0185277D02*
X0154327Y0185277D01*
X0142123Y0185277D01*
X0134642Y0177797D01*
X0134642Y0169254D01*
X0126242Y0169661D02*
X0034443Y0169661D01*
X0034443Y0166463D02*
X0126242Y0166463D01*
X0126774Y0163264D02*
X0034443Y0163264D01*
X0034443Y0160066D02*
X0103357Y0160066D01*
X0100331Y0156867D02*
X0034443Y0156867D01*
X0034443Y0153669D02*
X0099272Y0153669D01*
X0098017Y0150470D02*
X0058770Y0150470D01*
X0061428Y0147272D02*
X0098017Y0147272D01*
X0098017Y0144073D02*
X0062793Y0144073D01*
X0077593Y0140874D02*
X0098561Y0140874D01*
X0100762Y0137676D02*
X0087358Y0137676D01*
X0090556Y0134477D02*
X0125038Y0134477D01*
X0128237Y0131279D02*
X0093755Y0131279D01*
X0099209Y0128080D02*
X0099209Y0128080D01*
X0104079Y0128080D02*
X0110088Y0128080D01*
X0114957Y0128080D02*
X0114957Y0128080D01*
X0114957Y0123899D02*
X0130705Y0123899D01*
X0146453Y0123899D01*
X0166060Y0104293D01*
X0181886Y0104293D01*
X0190412Y0105691D02*
X0152853Y0105691D01*
X0152853Y0108889D02*
X0190192Y0108889D01*
X0188412Y0112088D02*
X0152853Y0112088D01*
X0152853Y0115286D02*
X0186552Y0115286D01*
X0171484Y0118485D02*
X0168666Y0118485D01*
X0155736Y0118485D02*
X0151824Y0118485D01*
X0152853Y0121683D02*
X0153801Y0121683D01*
X0153801Y0124882D02*
X0152853Y0124882D01*
X0125836Y0128080D02*
X0119827Y0128080D01*
X0114957Y0123899D02*
X0107083Y0123899D01*
X0134642Y0154175D02*
X0134642Y0159254D01*
X0126369Y0172860D02*
X0116972Y0172860D01*
X0116705Y0172817D02*
X0117669Y0172970D01*
X0118597Y0173272D01*
X0119467Y0173715D01*
X0120256Y0174288D01*
X0120946Y0174978D01*
X0121520Y0175768D01*
X0121963Y0176637D01*
X0122265Y0177565D01*
X0122417Y0178529D01*
X0122417Y0179017D01*
X0116217Y0179017D01*
X0116217Y0172817D01*
X0116705Y0172817D01*
X0116217Y0172860D02*
X0116217Y0172860D01*
X0116217Y0173151D02*
X0107083Y0164017D01*
X0095272Y0164017D01*
X0100778Y0172860D02*
X0034443Y0172860D01*
X0034443Y0176058D02*
X0038989Y0176058D01*
X0045257Y0176058D02*
X0098567Y0176058D01*
X0098017Y0179257D02*
X0051428Y0179257D01*
X0054042Y0182455D02*
X0098017Y0182455D01*
X0098017Y0185654D02*
X0055453Y0185654D01*
X0056022Y0188852D02*
X0099261Y0188852D01*
X0101312Y0192051D02*
X0055858Y0192051D01*
X0054915Y0195249D02*
X0104511Y0195249D01*
X0106217Y0186773D02*
X0106217Y0179017D01*
X0106217Y0186773D02*
X0114957Y0195513D01*
X0158264Y0195513D01*
X0165119Y0188659D01*
X0166138Y0188659D01*
X0162757Y0185277D01*
X0166138Y0188659D02*
X0183883Y0188659D01*
X0132317Y0185654D02*
X0122267Y0185654D01*
X0122417Y0182455D02*
X0129118Y0182455D01*
X0127454Y0179257D02*
X0122417Y0179257D01*
X0121668Y0176058D02*
X0127442Y0176058D01*
X0116217Y0176058D02*
X0116217Y0176058D01*
X0116217Y0173151D02*
X0116217Y0179017D01*
X0116217Y0179017D01*
X0115462Y0172860D02*
X0111656Y0172860D01*
X0047287Y0150470D02*
X0045941Y0150470D01*
D25*
X0175883Y0165159D02*
X0202398Y0165159D01*
X0213383Y0154175D01*
X0213383Y0104293D01*
X0197162Y0104293D01*
X0214052Y0104293D02*
X0252753Y0065592D01*
X0264564Y0065592D01*
X0264564Y0085292D02*
X0264564Y0124647D01*
X0247552Y0141659D01*
X0231883Y0141659D01*
D26*
X0214052Y0104293D02*
X0213383Y0104293D01*
D27*
X0258701Y0045892D02*
X0240999Y0028191D01*
X0215351Y0028191D01*
X0210312Y0023151D01*
X0210312Y0018663D01*
X0258701Y0045892D02*
X0264564Y0045892D01*
D28*
X0276375Y0057703D01*
X0276375Y0158112D01*
X0260627Y0175828D01*
X0160233Y0175828D01*
X0154327Y0169923D01*
X0154327Y0145277D01*
D29*
X0042123Y0189608D03*
X0042123Y0020317D03*
X0270469Y0020317D03*
X0270469Y0189608D03*
M02*
