G75*
%MOIN*%
%OFA0B0*%
%FSLAX25Y25*%
%IPPOS*%
%LPD*%
%AMOC8*
5,1,8,0,0,1.08239X$1,22.5*
%
%ADD10OC8,0.06400*%
%ADD11C,0.08400*%
%ADD12C,0.08600*%
%ADD13OC8,0.07099*%
%ADD14R,0.07800X0.07800*%
%ADD15C,0.07800*%
%ADD16C,0.07300*%
%ADD17C,0.06000*%
%ADD18C,0.06800*%
%ADD19C,0.17398*%
D10*
X0043028Y0095120D03*
X0053028Y0095120D03*
X0053028Y0112836D03*
X0043028Y0112836D03*
X0043028Y0128584D03*
X0053028Y0128584D03*
X0053028Y0144332D03*
X0043028Y0144332D03*
X0099209Y0123899D03*
X0114957Y0123899D03*
X0130705Y0123899D03*
X0146453Y0123899D03*
X0162201Y0123899D03*
X0177949Y0123899D03*
X0177949Y0093899D03*
X0162201Y0093899D03*
X0146453Y0093899D03*
X0130705Y0093899D03*
X0114957Y0093899D03*
X0099209Y0093899D03*
X0134642Y0159254D03*
X0134642Y0169254D03*
D11*
X0154327Y0185277D03*
X0154327Y0145277D03*
D12*
X0179983Y0141659D02*
X0187783Y0141659D01*
X0179783Y0165159D02*
X0171983Y0165159D01*
X0179983Y0188659D02*
X0187783Y0188659D01*
X0227983Y0188659D02*
X0235783Y0188659D01*
X0235783Y0141659D02*
X0227983Y0141659D01*
X0260664Y0085292D02*
X0268464Y0085292D01*
X0268464Y0065592D02*
X0260664Y0065592D01*
X0260664Y0045892D02*
X0268464Y0045892D01*
D13*
X0197162Y0104293D03*
X0197162Y0114293D03*
D14*
X0210312Y0078663D03*
X0220312Y0038663D03*
D15*
X0210312Y0038663D03*
X0210312Y0048663D03*
X0220312Y0048663D03*
X0220312Y0058663D03*
X0210312Y0058663D03*
X0200312Y0078663D03*
X0190312Y0078663D03*
X0180312Y0078663D03*
X0170312Y0078663D03*
X0160312Y0078663D03*
X0150312Y0078663D03*
X0140312Y0078663D03*
X0130312Y0078663D03*
X0120312Y0078663D03*
X0110312Y0078663D03*
X0100312Y0078663D03*
X0090312Y0078663D03*
X0080312Y0078663D03*
X0070312Y0078663D03*
X0070312Y0018663D03*
X0080312Y0018663D03*
X0090312Y0018663D03*
X0100312Y0018663D03*
X0110312Y0018663D03*
X0120312Y0018663D03*
X0130312Y0018663D03*
X0140312Y0018663D03*
X0150312Y0018663D03*
X0160312Y0018663D03*
X0170312Y0018663D03*
X0180312Y0018663D03*
X0190312Y0018663D03*
X0200312Y0018663D03*
X0210312Y0018663D03*
D16*
X0220312Y0018663D03*
X0220312Y0078663D03*
X0060312Y0078663D03*
X0060312Y0018663D03*
D17*
X0106217Y0143817D02*
X0106217Y0149017D01*
X0116217Y0149017D02*
X0116217Y0143817D01*
X0116217Y0179017D02*
X0116217Y0184217D01*
X0106217Y0184217D02*
X0106217Y0179017D01*
D18*
X0072642Y0133663D02*
X0066642Y0133663D01*
X0066642Y0123663D02*
X0072642Y0123663D01*
X0072642Y0113663D02*
X0066642Y0113663D01*
X0066642Y0103663D02*
X0072642Y0103663D01*
X0072642Y0093663D02*
X0066642Y0093663D01*
D19*
X0042123Y0020317D03*
X0042123Y0189608D03*
X0270469Y0189608D03*
X0270469Y0020317D03*
M02*
