G75*
%MOIN*%
%OFA0B0*%
%FSLAX25Y25*%
%IPPOS*%
%LPD*%
%AMOC8*
5,1,8,0,0,1.08239X$1,22.5*
%
%ADD10C,0.01000*%
D10*
X0028343Y0017172D02*
X0028343Y0199827D01*
X0028345Y0199999D01*
X0028351Y0200170D01*
X0028362Y0200341D01*
X0028376Y0200512D01*
X0028395Y0200683D01*
X0028417Y0200853D01*
X0028444Y0201022D01*
X0028475Y0201191D01*
X0028510Y0201359D01*
X0028549Y0201526D01*
X0028592Y0201692D01*
X0028639Y0201857D01*
X0028690Y0202020D01*
X0028745Y0202183D01*
X0028804Y0202344D01*
X0028867Y0202504D01*
X0028934Y0202662D01*
X0029004Y0202818D01*
X0029078Y0202973D01*
X0029156Y0203126D01*
X0029238Y0203277D01*
X0029323Y0203425D01*
X0029411Y0203572D01*
X0029504Y0203717D01*
X0029599Y0203859D01*
X0029699Y0203999D01*
X0029801Y0204137D01*
X0029907Y0204272D01*
X0030016Y0204404D01*
X0030128Y0204534D01*
X0030243Y0204661D01*
X0030362Y0204785D01*
X0030483Y0204906D01*
X0030607Y0205025D01*
X0030734Y0205140D01*
X0030864Y0205252D01*
X0030996Y0205361D01*
X0031131Y0205467D01*
X0031269Y0205569D01*
X0031409Y0205669D01*
X0031551Y0205764D01*
X0031696Y0205857D01*
X0031843Y0205945D01*
X0031991Y0206030D01*
X0032142Y0206112D01*
X0032295Y0206190D01*
X0032450Y0206264D01*
X0032606Y0206334D01*
X0032764Y0206401D01*
X0032924Y0206464D01*
X0033085Y0206523D01*
X0033248Y0206578D01*
X0033411Y0206629D01*
X0033576Y0206676D01*
X0033742Y0206719D01*
X0033909Y0206758D01*
X0034077Y0206793D01*
X0034246Y0206824D01*
X0034415Y0206851D01*
X0034585Y0206873D01*
X0034756Y0206892D01*
X0034927Y0206906D01*
X0035098Y0206917D01*
X0035269Y0206923D01*
X0035441Y0206925D01*
X0035441Y0206924D02*
X0212191Y0206924D01*
X0212191Y0206925D02*
X0212363Y0206923D01*
X0212534Y0206917D01*
X0212705Y0206906D01*
X0212876Y0206892D01*
X0213047Y0206873D01*
X0213217Y0206851D01*
X0213386Y0206824D01*
X0213555Y0206793D01*
X0213723Y0206758D01*
X0213890Y0206719D01*
X0214056Y0206676D01*
X0214221Y0206629D01*
X0214384Y0206578D01*
X0214547Y0206523D01*
X0214708Y0206464D01*
X0214868Y0206401D01*
X0215026Y0206334D01*
X0215182Y0206264D01*
X0215337Y0206190D01*
X0215490Y0206112D01*
X0215641Y0206030D01*
X0215789Y0205945D01*
X0215936Y0205857D01*
X0216081Y0205764D01*
X0216223Y0205669D01*
X0216363Y0205569D01*
X0216501Y0205467D01*
X0216636Y0205361D01*
X0216768Y0205252D01*
X0216898Y0205140D01*
X0217025Y0205025D01*
X0217149Y0204906D01*
X0217270Y0204785D01*
X0217389Y0204661D01*
X0217504Y0204534D01*
X0217616Y0204404D01*
X0217725Y0204272D01*
X0217831Y0204137D01*
X0217933Y0203999D01*
X0218033Y0203859D01*
X0218128Y0203717D01*
X0218221Y0203572D01*
X0218309Y0203425D01*
X0218394Y0203277D01*
X0218476Y0203126D01*
X0218554Y0202973D01*
X0218628Y0202818D01*
X0218698Y0202662D01*
X0218765Y0202504D01*
X0218828Y0202344D01*
X0218887Y0202183D01*
X0218942Y0202020D01*
X0218993Y0201857D01*
X0219040Y0201692D01*
X0219083Y0201526D01*
X0219122Y0201359D01*
X0219157Y0201191D01*
X0219188Y0201022D01*
X0219215Y0200853D01*
X0219237Y0200683D01*
X0219256Y0200512D01*
X0219270Y0200341D01*
X0219281Y0200170D01*
X0219287Y0199999D01*
X0219289Y0199827D01*
X0219288Y0199827D02*
X0219288Y0017172D01*
X0219289Y0017172D02*
X0219287Y0017000D01*
X0219281Y0016829D01*
X0219270Y0016658D01*
X0219256Y0016487D01*
X0219237Y0016316D01*
X0219215Y0016146D01*
X0219188Y0015977D01*
X0219157Y0015808D01*
X0219122Y0015640D01*
X0219083Y0015473D01*
X0219040Y0015307D01*
X0218993Y0015142D01*
X0218942Y0014979D01*
X0218887Y0014816D01*
X0218828Y0014655D01*
X0218765Y0014495D01*
X0218698Y0014337D01*
X0218628Y0014181D01*
X0218554Y0014026D01*
X0218476Y0013873D01*
X0218394Y0013722D01*
X0218309Y0013574D01*
X0218221Y0013427D01*
X0218128Y0013282D01*
X0218033Y0013140D01*
X0217933Y0013000D01*
X0217831Y0012862D01*
X0217725Y0012727D01*
X0217616Y0012595D01*
X0217504Y0012465D01*
X0217389Y0012338D01*
X0217270Y0012214D01*
X0217149Y0012093D01*
X0217025Y0011974D01*
X0216898Y0011859D01*
X0216768Y0011747D01*
X0216636Y0011638D01*
X0216501Y0011532D01*
X0216363Y0011430D01*
X0216223Y0011330D01*
X0216081Y0011235D01*
X0215936Y0011142D01*
X0215789Y0011054D01*
X0215641Y0010969D01*
X0215490Y0010887D01*
X0215337Y0010809D01*
X0215182Y0010735D01*
X0215026Y0010665D01*
X0214868Y0010598D01*
X0214708Y0010535D01*
X0214547Y0010476D01*
X0214384Y0010421D01*
X0214221Y0010370D01*
X0214056Y0010323D01*
X0213890Y0010280D01*
X0213723Y0010241D01*
X0213555Y0010206D01*
X0213386Y0010175D01*
X0213217Y0010148D01*
X0213047Y0010126D01*
X0212876Y0010107D01*
X0212705Y0010093D01*
X0212534Y0010082D01*
X0212363Y0010076D01*
X0212191Y0010074D01*
X0035441Y0010074D01*
X0035269Y0010076D01*
X0035098Y0010082D01*
X0034927Y0010093D01*
X0034756Y0010107D01*
X0034585Y0010126D01*
X0034415Y0010148D01*
X0034246Y0010175D01*
X0034077Y0010206D01*
X0033909Y0010241D01*
X0033742Y0010280D01*
X0033576Y0010323D01*
X0033411Y0010370D01*
X0033248Y0010421D01*
X0033085Y0010476D01*
X0032924Y0010535D01*
X0032764Y0010598D01*
X0032606Y0010665D01*
X0032450Y0010735D01*
X0032295Y0010809D01*
X0032142Y0010887D01*
X0031991Y0010969D01*
X0031843Y0011054D01*
X0031696Y0011142D01*
X0031551Y0011235D01*
X0031409Y0011330D01*
X0031269Y0011430D01*
X0031131Y0011532D01*
X0030996Y0011638D01*
X0030864Y0011747D01*
X0030734Y0011859D01*
X0030607Y0011974D01*
X0030483Y0012093D01*
X0030362Y0012214D01*
X0030243Y0012338D01*
X0030128Y0012465D01*
X0030016Y0012595D01*
X0029907Y0012727D01*
X0029801Y0012862D01*
X0029699Y0013000D01*
X0029599Y0013140D01*
X0029504Y0013282D01*
X0029411Y0013427D01*
X0029323Y0013574D01*
X0029238Y0013722D01*
X0029156Y0013873D01*
X0029078Y0014026D01*
X0029004Y0014181D01*
X0028934Y0014337D01*
X0028867Y0014495D01*
X0028804Y0014655D01*
X0028745Y0014816D01*
X0028690Y0014979D01*
X0028639Y0015142D01*
X0028592Y0015307D01*
X0028549Y0015473D01*
X0028510Y0015640D01*
X0028475Y0015808D01*
X0028444Y0015977D01*
X0028417Y0016146D01*
X0028395Y0016316D01*
X0028376Y0016487D01*
X0028362Y0016658D01*
X0028351Y0016829D01*
X0028345Y0017000D01*
X0028343Y0017172D01*
M02*
