%
M48
M72
T01C0.02362
T02C0.03543
T03C0.03937
T04C0.05200
T05C0.12598
%
T01
X57871Y31235
X65745Y55350
X85430Y47476
X89367Y53381
X136611Y69129
X144485Y45507
X170075Y49444
X183855Y21885
X138579Y17948
X152359Y90783
X126768Y110468
X126768Y118342
X108068Y110468
X91335Y118342
X89367Y110468
X101178Y130153
X122831Y161649
X114957Y171491
X97241Y183302
X135627Y192161
X158264Y159680
X152359Y149838
T02
X109800Y183302
T03
X119800Y183302
X129800Y183302
X139800Y183302
X73619Y142436
X73619Y132436
X73619Y122436
X73619Y112436
X73619Y102436
X73619Y92436
X73619Y82436
X91178Y85940
X101178Y85940
X111178Y85940
X111178Y75940
X101178Y75940
X91178Y75940
T04
X46060Y65250
X46060Y45450
X201572Y45450
X201572Y65250
T05
X42123Y23854
X205509Y23854
X205509Y193145
X42123Y193145
M30
