G75*
%MOIN*%
%OFA0B0*%
%FSLAX25Y25*%
%IPPOS*%
%LPD*%
%AMOC8*
5,1,8,0,0,1.08239X$1,22.5*
%
%ADD10R,0.05118X0.05906*%
%ADD11R,0.06299X0.07098*%
%ADD12R,0.07098X0.06299*%
%ADD13OC8,0.07087*%
%ADD14R,0.07480X0.05512*%
%ADD15R,0.05906X0.05118*%
%ADD16C,0.07087*%
%ADD17R,0.01969X0.05000*%
%ADD18R,0.05000X0.01969*%
%ADD19R,0.03937X0.05512*%
%ADD20R,0.04724X0.04724*%
%ADD21R,0.05906X0.07874*%
%ADD22R,0.14961X0.07874*%
%ADD23C,0.08350*%
%ADD24R,0.04961X0.06890*%
%ADD25R,0.07087X0.06693*%
%ADD26R,0.22047X0.25197*%
%ADD27R,0.04724X0.06693*%
%ADD28R,0.06299X0.09055*%
%ADD29OC8,0.05118*%
%ADD30C,0.05000*%
%ADD31C,0.01600*%
%ADD32C,0.02400*%
%ADD33C,0.04000*%
%ADD34C,0.18110*%
D10*
X0044288Y0096688D03*
X0051768Y0096688D03*
X0051768Y0120310D03*
X0044288Y0120310D03*
X0044288Y0143932D03*
X0051768Y0143932D03*
X0051768Y0167554D03*
X0044288Y0167554D03*
X0105312Y0163617D03*
X0112792Y0163617D03*
X0113186Y0102594D03*
X0120666Y0102594D03*
X0132871Y0102594D03*
X0140351Y0102594D03*
X0100981Y0102594D03*
X0093501Y0102594D03*
D11*
X0053627Y0108499D03*
X0042430Y0108499D03*
X0042430Y0084877D03*
X0053627Y0084877D03*
X0053627Y0132121D03*
X0042430Y0132121D03*
X0042430Y0155743D03*
X0053627Y0155743D03*
D12*
X0140548Y0159987D03*
X0140548Y0171184D03*
X0162201Y0112129D03*
X0162201Y0100932D03*
X0162201Y0086539D03*
X0162201Y0075342D03*
X0144485Y0075342D03*
X0144485Y0086539D03*
X0134642Y0037326D03*
X0134642Y0026129D03*
X0075587Y0055657D03*
X0075587Y0066854D03*
D13*
X0073619Y0082436D03*
X0073619Y0092436D03*
X0073619Y0102436D03*
X0073619Y0112436D03*
X0073619Y0122436D03*
X0073619Y0132436D03*
X0073619Y0142436D03*
X0109800Y0183302D03*
X0119800Y0183302D03*
X0129800Y0183302D03*
X0139800Y0183302D03*
X0111178Y0085940D03*
X0101178Y0085940D03*
X0101178Y0075940D03*
X0111178Y0075940D03*
X0091178Y0085940D03*
D14*
X0088186Y0158893D03*
X0088186Y0168342D03*
X0070863Y0168342D03*
X0070863Y0158893D03*
D15*
X0071650Y0177594D03*
X0071650Y0185074D03*
X0087398Y0185074D03*
X0087398Y0177594D03*
X0162201Y0151609D03*
X0162201Y0144129D03*
X0075587Y0043342D03*
X0075587Y0035861D03*
D16*
X0091178Y0075940D03*
D17*
X0098028Y0119158D03*
X0101178Y0119158D03*
X0104327Y0119158D03*
X0107477Y0119158D03*
X0110627Y0119158D03*
X0113776Y0119158D03*
X0116926Y0119158D03*
X0120075Y0119158D03*
X0120075Y0152958D03*
X0116926Y0152958D03*
X0113776Y0152958D03*
X0110627Y0152958D03*
X0107477Y0152958D03*
X0104327Y0152958D03*
X0101178Y0152958D03*
X0098028Y0152958D03*
D18*
X0092152Y0147082D03*
X0092152Y0143932D03*
X0092152Y0140783D03*
X0092152Y0137633D03*
X0092152Y0134483D03*
X0092152Y0131334D03*
X0092152Y0128184D03*
X0092152Y0125035D03*
X0125952Y0125035D03*
X0125952Y0128184D03*
X0125952Y0131334D03*
X0125952Y0134483D03*
X0125952Y0137633D03*
X0125952Y0140783D03*
X0125952Y0143932D03*
X0125952Y0147082D03*
D19*
X0130902Y0055743D03*
X0138383Y0055743D03*
X0134642Y0047082D03*
D20*
X0162201Y0124050D03*
X0162201Y0132318D03*
D21*
X0162201Y0037043D03*
X0153146Y0037043D03*
X0171257Y0037043D03*
D22*
X0162201Y0061846D03*
D23*
X0197397Y0065250D02*
X0205746Y0065250D01*
X0205746Y0045450D02*
X0197397Y0045450D01*
X0050235Y0045450D02*
X0041885Y0045450D01*
X0041885Y0065250D02*
X0050235Y0065250D01*
D24*
X0128737Y0075920D03*
X0128737Y0085960D03*
D25*
X0158068Y0021885D03*
X0174209Y0021885D03*
X0075784Y0021885D03*
X0059642Y0021885D03*
D26*
X0109052Y0030822D03*
D27*
X0118028Y0059562D03*
X0100075Y0059562D03*
D28*
X0140548Y0123657D03*
X0140548Y0148460D03*
D29*
X0152359Y0149838D03*
X0158264Y0159680D03*
X0135627Y0192161D03*
X0114957Y0171491D03*
X0122831Y0161649D03*
X0097241Y0183302D03*
X0101178Y0130153D03*
X0091335Y0118342D03*
X0089367Y0110468D03*
X0108068Y0110468D03*
X0126768Y0110468D03*
X0126768Y0118342D03*
X0152359Y0090783D03*
X0136611Y0069129D03*
X0144485Y0045507D03*
X0170075Y0049444D03*
X0183855Y0021885D03*
X0138579Y0017948D03*
X0089367Y0053381D03*
X0085430Y0047476D03*
X0065745Y0055350D03*
X0057871Y0031235D03*
D30*
X0059642Y0028972D01*
X0059642Y0021885D01*
X0075587Y0022082D02*
X0075587Y0035861D01*
X0069485Y0035861D01*
X0065745Y0039602D01*
X0065745Y0055350D01*
X0075587Y0055657D02*
X0075587Y0043342D01*
X0081296Y0043342D01*
X0085430Y0047476D01*
X0094997Y0059562D02*
X0100075Y0059562D01*
X0094997Y0059562D02*
X0091178Y0063381D01*
X0091178Y0071098D01*
X0091178Y0075940D01*
X0090430Y0030822D02*
X0081493Y0021885D01*
X0075784Y0021885D01*
X0075587Y0022082D01*
X0090430Y0030822D02*
X0109052Y0030822D01*
X0134642Y0026129D02*
X0134642Y0021885D01*
X0138579Y0017948D01*
X0153146Y0037043D02*
X0153146Y0044326D01*
X0158264Y0049444D01*
X0170075Y0049444D01*
X0174209Y0021885D02*
X0183855Y0021885D01*
D31*
X0144485Y0059287D02*
X0140942Y0055743D01*
X0138383Y0055743D01*
X0144485Y0059287D02*
X0144485Y0065192D01*
X0154635Y0075342D01*
X0162201Y0075342D01*
X0162201Y0086539D02*
X0156603Y0086539D01*
X0152359Y0090783D01*
X0144485Y0094720D02*
X0150698Y0100932D01*
X0162201Y0100932D01*
X0162201Y0112129D02*
X0162201Y0124050D01*
X0160233Y0138027D02*
X0162201Y0139995D01*
X0162201Y0151609D02*
X0162201Y0155743D01*
X0158264Y0159680D01*
X0146146Y0171184D02*
X0150390Y0175428D01*
X0150390Y0193145D01*
X0144485Y0199050D01*
X0135627Y0192161D02*
X0139800Y0187987D01*
X0139800Y0183302D01*
X0129800Y0183302D02*
X0129800Y0166491D01*
X0134642Y0161649D01*
X0134642Y0143932D01*
X0131493Y0140783D01*
X0125952Y0140783D01*
X0125952Y0137633D02*
X0130705Y0137633D01*
X0132674Y0135665D01*
X0132674Y0120310D01*
X0130705Y0118342D01*
X0126768Y0118342D01*
X0126768Y0110468D02*
X0130705Y0110468D01*
X0132871Y0108302D01*
X0132871Y0102594D01*
X0140351Y0102594D02*
X0140351Y0096491D01*
X0138579Y0094720D01*
X0124800Y0094720D01*
X0120863Y0090783D01*
X0120863Y0078972D01*
X0123914Y0075920D01*
X0128737Y0075920D01*
X0136611Y0080940D02*
X0136611Y0069129D01*
X0144485Y0065192D02*
X0144485Y0075342D01*
X0136611Y0080940D02*
X0136611Y0084877D01*
X0138272Y0086539D01*
X0144485Y0086539D01*
X0144485Y0094720D01*
X0140351Y0102594D02*
X0140548Y0102791D01*
X0140548Y0123657D01*
X0138186Y0137633D02*
X0130705Y0137633D01*
X0129229Y0143932D02*
X0125952Y0143932D01*
X0129229Y0143932D02*
X0131198Y0145901D01*
X0131198Y0161157D01*
X0124800Y0167554D01*
X0124800Y0178302D01*
X0119800Y0183302D01*
X0109800Y0183302D02*
X0109800Y0178145D01*
X0105312Y0173657D01*
X0105312Y0163617D01*
X0105312Y0159680D01*
X0107280Y0157712D01*
X0109052Y0157712D01*
X0110627Y0156137D01*
X0110627Y0152958D01*
X0113776Y0152958D02*
X0113776Y0158893D01*
X0112792Y0159877D01*
X0112792Y0163617D01*
X0116926Y0163617D01*
X0118894Y0165586D01*
X0118894Y0169523D01*
X0116926Y0171491D01*
X0114957Y0171491D01*
X0122831Y0161649D02*
X0120075Y0158893D01*
X0120075Y0152958D01*
X0113776Y0152958D02*
X0113776Y0145113D01*
X0110627Y0141964D01*
X0110627Y0142357D01*
X0107477Y0145507D01*
X0107477Y0152958D01*
X0104327Y0152958D02*
X0104327Y0156924D01*
X0105312Y0157909D01*
X0105312Y0159680D01*
X0101178Y0157712D02*
X0097241Y0161649D01*
X0097241Y0165586D01*
X0094485Y0168342D01*
X0088186Y0168342D01*
X0087398Y0169129D01*
X0087398Y0177594D01*
X0087398Y0185074D02*
X0095469Y0185074D01*
X0097241Y0183302D01*
X0087398Y0185074D02*
X0071650Y0185074D01*
X0055705Y0185074D01*
X0044288Y0173657D01*
X0044288Y0167554D01*
X0036217Y0167554D01*
X0034249Y0165586D01*
X0034249Y0157712D01*
X0036217Y0155743D01*
X0042430Y0155743D01*
X0034249Y0157712D02*
X0034249Y0147869D01*
X0038186Y0143932D01*
X0044288Y0143932D01*
X0051768Y0143932D02*
X0055902Y0143932D01*
X0061808Y0138027D01*
X0061808Y0134405D01*
X0063776Y0132436D01*
X0053942Y0132436D01*
X0053627Y0132121D01*
X0063776Y0132436D02*
X0073619Y0132436D01*
X0078855Y0132436D01*
X0081493Y0135074D01*
X0081493Y0138027D01*
X0087398Y0143932D01*
X0092152Y0143932D01*
X0092152Y0147082D02*
X0078264Y0147082D01*
X0073619Y0142436D01*
X0065272Y0142436D01*
X0061808Y0145901D01*
X0061808Y0153775D01*
X0061808Y0165586D01*
X0059839Y0167554D01*
X0051768Y0167554D01*
X0053627Y0155743D02*
X0059839Y0155743D01*
X0061808Y0153775D01*
X0070863Y0154562D02*
X0070863Y0158893D01*
X0070863Y0154562D02*
X0072467Y0152958D01*
X0081493Y0152958D01*
X0077556Y0156895D01*
X0077556Y0175428D01*
X0075390Y0177594D01*
X0071650Y0177594D01*
X0081493Y0152958D02*
X0098028Y0152958D01*
X0101178Y0152958D02*
X0101178Y0157712D01*
X0110627Y0141964D02*
X0110627Y0119158D01*
X0110627Y0114798D01*
X0112989Y0112436D01*
X0116926Y0112436D01*
X0120666Y0108696D01*
X0120666Y0102594D01*
X0120666Y0098854D01*
X0124800Y0094720D01*
X0128737Y0085960D02*
X0131591Y0085960D01*
X0136611Y0080940D01*
X0118028Y0059562D02*
X0118028Y0052279D01*
X0123225Y0047082D01*
X0134642Y0047082D01*
X0134642Y0037326D01*
X0089367Y0053381D02*
X0083461Y0059287D01*
X0083461Y0098657D01*
X0087241Y0102436D01*
X0093343Y0102436D01*
X0093501Y0102594D01*
X0087241Y0102436D02*
X0073619Y0102436D01*
X0073619Y0112436D02*
X0065745Y0112436D01*
X0061808Y0108499D01*
X0061808Y0098657D01*
X0061808Y0092751D01*
X0059839Y0090783D01*
X0055902Y0090783D01*
X0053627Y0088507D01*
X0053627Y0084877D01*
X0061808Y0086846D02*
X0061808Y0075035D01*
X0065745Y0071098D01*
X0065745Y0055350D01*
X0075587Y0066854D02*
X0075587Y0080468D01*
X0073619Y0082436D01*
X0073619Y0092436D02*
X0067398Y0092436D01*
X0061808Y0086846D01*
X0059839Y0096688D02*
X0051768Y0096688D01*
X0044288Y0096688D02*
X0036217Y0096688D01*
X0034249Y0098657D01*
X0034249Y0110468D01*
X0036217Y0108499D01*
X0042430Y0108499D01*
X0034249Y0110468D02*
X0034249Y0122279D01*
X0036217Y0120310D01*
X0044288Y0120310D01*
X0051768Y0120310D02*
X0057871Y0120310D01*
X0059997Y0122436D01*
X0063776Y0122436D01*
X0061808Y0120468D01*
X0061808Y0116373D01*
X0059839Y0114405D01*
X0055902Y0114405D01*
X0053627Y0112129D01*
X0053627Y0108499D01*
X0061808Y0098657D02*
X0059839Y0096688D01*
X0073619Y0112436D02*
X0077556Y0112436D01*
X0087398Y0122279D01*
X0087398Y0136058D01*
X0088973Y0137633D01*
X0092152Y0137633D01*
X0092152Y0140783D02*
X0088186Y0140783D01*
X0084446Y0137043D01*
X0084446Y0125231D01*
X0081650Y0122436D01*
X0073619Y0122436D01*
X0063776Y0122436D01*
X0042430Y0132121D02*
X0036217Y0132121D01*
X0034249Y0134090D01*
X0034249Y0147869D01*
X0034249Y0134090D02*
X0034249Y0122279D01*
X0034249Y0098657D02*
X0034249Y0086846D01*
X0036217Y0084877D01*
X0042430Y0084877D01*
X0089367Y0110468D02*
X0095272Y0110468D01*
X0098028Y0113224D01*
X0098028Y0119158D01*
X0101178Y0119158D02*
X0101178Y0110468D01*
X0109052Y0102594D01*
X0113186Y0102594D01*
X0109052Y0102594D02*
X0100981Y0102594D01*
X0108068Y0110468D02*
X0107477Y0111058D01*
X0107477Y0119158D01*
X0099209Y0128184D02*
X0101178Y0130153D01*
X0099209Y0128184D02*
X0092152Y0128184D01*
X0092152Y0125035D02*
X0092152Y0119158D01*
X0091335Y0118342D01*
X0138186Y0137633D02*
X0140548Y0139995D01*
X0140548Y0148460D01*
X0140548Y0159987D01*
X0140548Y0171184D02*
X0146146Y0171184D01*
D32*
X0148746Y0165835D02*
X0149509Y0166151D01*
X0151179Y0167821D01*
X0155424Y0172065D01*
X0156327Y0174247D01*
X0156327Y0192713D01*
X0163514Y0192713D01*
X0171612Y0184614D01*
X0171612Y0070543D01*
X0170772Y0070891D01*
X0170888Y0071170D01*
X0170888Y0079513D01*
X0170297Y0080940D01*
X0170888Y0082367D01*
X0170888Y0090710D01*
X0170106Y0092598D01*
X0168968Y0093735D01*
X0170106Y0094873D01*
X0170888Y0096761D01*
X0170888Y0105104D01*
X0170297Y0106531D01*
X0170888Y0107958D01*
X0170888Y0116301D01*
X0170106Y0118189D01*
X0169094Y0119201D01*
X0169701Y0120666D01*
X0169701Y0127434D01*
X0168919Y0129322D01*
X0167764Y0130477D01*
X0167764Y0132318D01*
X0162202Y0132318D01*
X0162202Y0132318D01*
X0167764Y0132318D01*
X0167764Y0134995D01*
X0167641Y0135614D01*
X0167399Y0136196D01*
X0167049Y0136720D01*
X0166604Y0137166D01*
X0166079Y0137516D01*
X0165497Y0137757D01*
X0164879Y0137880D01*
X0162201Y0137880D01*
X0159524Y0137880D01*
X0158906Y0137757D01*
X0158323Y0137516D01*
X0157799Y0137166D01*
X0157354Y0136720D01*
X0157003Y0136196D01*
X0156762Y0135614D01*
X0156639Y0134995D01*
X0156639Y0132318D01*
X0156639Y0130477D01*
X0155484Y0129322D01*
X0154702Y0127434D01*
X0154702Y0120666D01*
X0155309Y0119201D01*
X0154297Y0118189D01*
X0153515Y0116301D01*
X0153515Y0107958D01*
X0153966Y0106869D01*
X0149517Y0106869D01*
X0147334Y0105965D01*
X0146110Y0104741D01*
X0146110Y0105862D01*
X0145987Y0106480D01*
X0145746Y0107062D01*
X0145396Y0107586D01*
X0144950Y0108032D01*
X0144426Y0108382D01*
X0143844Y0108623D01*
X0143225Y0108746D01*
X0140431Y0108746D01*
X0140431Y0106897D01*
X0140271Y0107281D01*
X0140271Y0108746D01*
X0139495Y0108746D01*
X0138808Y0109433D01*
X0138808Y0109483D01*
X0137904Y0111665D01*
X0136234Y0113336D01*
X0135165Y0114405D01*
X0136037Y0115277D01*
X0136754Y0115995D01*
X0137083Y0115929D01*
X0140173Y0115929D01*
X0140173Y0123282D01*
X0140923Y0123282D01*
X0140923Y0124031D01*
X0146897Y0124031D01*
X0146897Y0128499D01*
X0146775Y0129118D01*
X0146533Y0129700D01*
X0146183Y0130224D01*
X0145737Y0130670D01*
X0145213Y0131020D01*
X0144631Y0131261D01*
X0144013Y0131384D01*
X0140923Y0131384D01*
X0140923Y0124032D01*
X0140173Y0124032D01*
X0140173Y0131384D01*
X0138611Y0131384D01*
X0138611Y0131696D01*
X0139367Y0131696D01*
X0141549Y0132600D01*
X0143911Y0134962D01*
X0145581Y0136632D01*
X0146485Y0138814D01*
X0146485Y0139527D01*
X0146607Y0139577D01*
X0148052Y0141022D01*
X0148834Y0142910D01*
X0148834Y0154009D01*
X0148660Y0154430D01*
X0149234Y0155816D01*
X0149234Y0164159D01*
X0148643Y0165586D01*
X0148746Y0165835D01*
X0149090Y0165977D02*
X0153677Y0165977D01*
X0155077Y0167376D02*
X0150568Y0162868D01*
X0150568Y0156492D01*
X0154112Y0152949D01*
X0154112Y0148029D01*
X0154894Y0146141D01*
X0156049Y0144986D01*
X0156049Y0144209D01*
X0157514Y0144209D01*
X0157898Y0144050D01*
X0156049Y0144050D01*
X0156049Y0141255D01*
X0156172Y0140637D01*
X0156413Y0140054D01*
X0156763Y0139530D01*
X0157209Y0139084D01*
X0157733Y0138734D01*
X0158315Y0138493D01*
X0158934Y0138370D01*
X0162122Y0138370D01*
X0162122Y0143913D01*
X0162281Y0143913D01*
X0162281Y0138370D01*
X0165469Y0138370D01*
X0166088Y0138493D01*
X0166670Y0138734D01*
X0167194Y0139084D01*
X0167640Y0139530D01*
X0167990Y0140054D01*
X0168231Y0140637D01*
X0168354Y0141255D01*
X0168354Y0144050D01*
X0166505Y0144050D01*
X0166889Y0144209D01*
X0168354Y0144209D01*
X0168354Y0144986D01*
X0169509Y0146141D01*
X0170291Y0148029D01*
X0170291Y0155190D01*
X0169509Y0157078D01*
X0168064Y0158523D01*
X0167354Y0158817D01*
X0167235Y0159106D01*
X0165960Y0160380D01*
X0165960Y0162868D01*
X0161452Y0167376D01*
X0155077Y0167376D01*
X0151734Y0168376D02*
X0171612Y0168376D01*
X0171612Y0170774D02*
X0154133Y0170774D01*
X0155882Y0173173D02*
X0171612Y0173173D01*
X0171612Y0175571D02*
X0156327Y0175571D01*
X0156327Y0177970D02*
X0171612Y0177970D01*
X0171612Y0180368D02*
X0156327Y0180368D01*
X0156327Y0182767D02*
X0171612Y0182767D01*
X0171062Y0185165D02*
X0156327Y0185165D01*
X0156327Y0187564D02*
X0168663Y0187564D01*
X0166265Y0189962D02*
X0156327Y0189962D01*
X0156327Y0192361D02*
X0163866Y0192361D01*
X0166138Y0199050D02*
X0144485Y0199050D01*
X0116926Y0199050D01*
X0109800Y0191924D01*
X0109800Y0183302D01*
X0103463Y0189241D02*
X0101120Y0186898D01*
X0101120Y0179707D01*
X0102043Y0178784D01*
X0101949Y0178690D01*
X0100279Y0177020D01*
X0099375Y0174838D01*
X0099375Y0171848D01*
X0097848Y0173375D01*
X0096253Y0174036D01*
X0095488Y0174800D01*
X0095488Y0181175D01*
X0094706Y0183063D01*
X0093551Y0184218D01*
X0093551Y0184994D01*
X0092086Y0184994D01*
X0091702Y0185154D01*
X0093551Y0185154D01*
X0093551Y0187948D01*
X0093428Y0188566D01*
X0093187Y0189149D01*
X0092837Y0189673D01*
X0092391Y0190119D01*
X0091867Y0190469D01*
X0091284Y0190710D01*
X0090666Y0190833D01*
X0087478Y0190833D01*
X0087478Y0185290D01*
X0087319Y0185290D01*
X0087319Y0190833D01*
X0084130Y0190833D01*
X0083512Y0190710D01*
X0082930Y0190469D01*
X0082406Y0190119D01*
X0081960Y0189673D01*
X0081610Y0189149D01*
X0081369Y0188566D01*
X0081246Y0187948D01*
X0081246Y0185154D01*
X0083095Y0185154D01*
X0082711Y0184994D01*
X0081246Y0184994D01*
X0081246Y0184218D01*
X0080091Y0183063D01*
X0079571Y0181809D01*
X0079411Y0181970D01*
X0078958Y0183063D01*
X0077803Y0184218D01*
X0077803Y0184994D01*
X0076338Y0184994D01*
X0075954Y0185154D01*
X0077803Y0185154D01*
X0077803Y0187948D01*
X0077680Y0188566D01*
X0077439Y0189149D01*
X0077089Y0189673D01*
X0076643Y0190119D01*
X0076119Y0190469D01*
X0075536Y0190710D01*
X0074918Y0190833D01*
X0071730Y0190833D01*
X0071730Y0185290D01*
X0071571Y0185290D01*
X0071571Y0190833D01*
X0068382Y0190833D01*
X0067764Y0190710D01*
X0067182Y0190469D01*
X0066658Y0190119D01*
X0066212Y0189673D01*
X0065862Y0189149D01*
X0065620Y0188566D01*
X0065498Y0187948D01*
X0065498Y0185154D01*
X0067347Y0185154D01*
X0066963Y0184994D01*
X0065498Y0184994D01*
X0065498Y0184218D01*
X0064343Y0183063D01*
X0063560Y0181175D01*
X0063560Y0174800D01*
X0062768Y0174008D01*
X0062329Y0172949D01*
X0061020Y0173491D01*
X0058608Y0173491D01*
X0057237Y0174862D01*
X0055349Y0175644D01*
X0048187Y0175644D01*
X0046299Y0174862D01*
X0045144Y0173707D01*
X0044368Y0173707D01*
X0044368Y0172242D01*
X0044209Y0171858D01*
X0044209Y0173707D01*
X0041414Y0173707D01*
X0040796Y0173584D01*
X0040213Y0173343D01*
X0039689Y0172993D01*
X0039243Y0172547D01*
X0038893Y0172023D01*
X0038652Y0171440D01*
X0038529Y0170822D01*
X0038529Y0167634D01*
X0044072Y0167634D01*
X0044072Y0167475D01*
X0038529Y0167475D01*
X0038529Y0164286D01*
X0038652Y0163668D01*
X0038893Y0163086D01*
X0039243Y0162562D01*
X0039313Y0162493D01*
X0038965Y0162493D01*
X0038347Y0162370D01*
X0037764Y0162128D01*
X0037240Y0161778D01*
X0036795Y0161332D01*
X0036444Y0160808D01*
X0036203Y0160226D01*
X0036080Y0159608D01*
X0036080Y0156118D01*
X0042055Y0156118D01*
X0042055Y0155368D01*
X0036080Y0155368D01*
X0036080Y0151879D01*
X0036203Y0151261D01*
X0036444Y0150678D01*
X0036795Y0150154D01*
X0037240Y0149708D01*
X0037764Y0149358D01*
X0038347Y0149117D01*
X0038965Y0148994D01*
X0039313Y0148994D01*
X0039243Y0148925D01*
X0038893Y0148401D01*
X0038652Y0147818D01*
X0038529Y0147200D01*
X0038529Y0144012D01*
X0044072Y0144012D01*
X0044072Y0143853D01*
X0038529Y0143853D01*
X0038529Y0140664D01*
X0038652Y0140046D01*
X0038893Y0139464D01*
X0039243Y0138940D01*
X0039313Y0138870D01*
X0038965Y0138870D01*
X0038347Y0138747D01*
X0037764Y0138506D01*
X0037240Y0138156D01*
X0036795Y0137710D01*
X0036444Y0137186D01*
X0036203Y0136604D01*
X0036080Y0135986D01*
X0036080Y0132496D01*
X0042055Y0132496D01*
X0042055Y0131746D01*
X0036080Y0131746D01*
X0036080Y0128257D01*
X0036203Y0127639D01*
X0036444Y0127056D01*
X0036795Y0126532D01*
X0037240Y0126086D01*
X0037764Y0125736D01*
X0038347Y0125495D01*
X0038965Y0125372D01*
X0039313Y0125372D01*
X0039243Y0125303D01*
X0038893Y0124779D01*
X0038652Y0124196D01*
X0038529Y0123578D01*
X0038529Y0120390D01*
X0044072Y0120390D01*
X0044072Y0120231D01*
X0038529Y0120231D01*
X0038529Y0117042D01*
X0038652Y0116424D01*
X0038893Y0115842D01*
X0039243Y0115318D01*
X0039313Y0115248D01*
X0038965Y0115248D01*
X0038347Y0115125D01*
X0037764Y0114884D01*
X0037240Y0114534D01*
X0036795Y0114088D01*
X0036444Y0113564D01*
X0036203Y0112982D01*
X0036080Y0112364D01*
X0036080Y0108874D01*
X0042055Y0108874D01*
X0042055Y0108124D01*
X0036080Y0108124D01*
X0036080Y0104635D01*
X0036203Y0104017D01*
X0036444Y0103434D01*
X0036795Y0102910D01*
X0037240Y0102464D01*
X0037764Y0102114D01*
X0038347Y0101873D01*
X0038965Y0101750D01*
X0039313Y0101750D01*
X0039243Y0101681D01*
X0038893Y0101157D01*
X0038652Y0100574D01*
X0038529Y0099956D01*
X0038529Y0096768D01*
X0044072Y0096768D01*
X0044072Y0096609D01*
X0038529Y0096609D01*
X0038529Y0093420D01*
X0038652Y0092802D01*
X0038893Y0092220D01*
X0039243Y0091696D01*
X0039313Y0091626D01*
X0038965Y0091626D01*
X0038347Y0091503D01*
X0037764Y0091262D01*
X0037240Y0090912D01*
X0036795Y0090466D01*
X0036444Y0089942D01*
X0036203Y0089360D01*
X0036080Y0088742D01*
X0036080Y0085252D01*
X0042055Y0085252D01*
X0042055Y0084502D01*
X0042805Y0084502D01*
X0042805Y0078128D01*
X0045895Y0078128D01*
X0046326Y0078214D01*
X0047567Y0076973D01*
X0049455Y0076191D01*
X0055871Y0076191D01*
X0055871Y0073854D01*
X0056628Y0072025D01*
X0055509Y0073144D01*
X0052087Y0074561D01*
X0040033Y0074561D01*
X0036610Y0073144D01*
X0033991Y0070524D01*
X0033980Y0070499D01*
X0033980Y0181458D01*
X0036645Y0179920D01*
X0040254Y0178953D01*
X0043991Y0178953D01*
X0047601Y0179920D01*
X0050837Y0181788D01*
X0053479Y0184431D01*
X0055348Y0187667D01*
X0056315Y0191276D01*
X0056315Y0195013D01*
X0055348Y0198623D01*
X0053809Y0201287D01*
X0110201Y0201287D01*
X0106210Y0197297D01*
X0104428Y0195514D01*
X0103463Y0193185D01*
X0103463Y0189241D01*
X0103463Y0189962D02*
X0092547Y0189962D01*
X0093551Y0187564D02*
X0101786Y0187564D01*
X0101120Y0185165D02*
X0093551Y0185165D01*
X0094829Y0182767D02*
X0101120Y0182767D01*
X0101120Y0180368D02*
X0095488Y0180368D01*
X0095488Y0177970D02*
X0101229Y0177970D01*
X0099679Y0175571D02*
X0095488Y0175571D01*
X0098050Y0173173D02*
X0099375Y0173173D01*
X0111249Y0171197D02*
X0111249Y0170457D01*
X0111936Y0169770D01*
X0112712Y0169770D01*
X0112712Y0168305D01*
X0112872Y0167921D01*
X0112872Y0169770D01*
X0115666Y0169770D01*
X0116284Y0169647D01*
X0116867Y0169406D01*
X0117391Y0169056D01*
X0117837Y0168610D01*
X0118187Y0168086D01*
X0118245Y0167946D01*
X0118863Y0168564D01*
X0118863Y0174622D01*
X0116204Y0174622D01*
X0115188Y0175639D01*
X0114833Y0174782D01*
X0111249Y0171197D01*
X0111249Y0170774D02*
X0118863Y0170774D01*
X0118863Y0173173D02*
X0113224Y0173173D01*
X0115160Y0175571D02*
X0115255Y0175571D01*
X0112872Y0168376D02*
X0112712Y0168376D01*
X0117993Y0168376D02*
X0118674Y0168376D01*
X0113776Y0145795D02*
X0114920Y0145321D01*
X0118315Y0145321D01*
X0118315Y0138777D01*
X0118315Y0135627D01*
X0118315Y0126795D01*
X0111770Y0126795D01*
X0110627Y0126322D01*
X0109483Y0126795D01*
X0108704Y0126795D01*
X0108874Y0126965D01*
X0108874Y0133341D01*
X0104366Y0137849D01*
X0099789Y0137849D01*
X0099789Y0145321D01*
X0106333Y0145321D01*
X0107477Y0145795D01*
X0108621Y0145321D01*
X0112633Y0145321D01*
X0113776Y0145795D01*
X0118315Y0144391D02*
X0099789Y0144391D01*
X0099789Y0141992D02*
X0118315Y0141992D01*
X0118315Y0139594D02*
X0099789Y0139594D01*
X0105019Y0137195D02*
X0118315Y0137195D01*
X0118315Y0134797D02*
X0107418Y0134797D01*
X0108874Y0132398D02*
X0118315Y0132398D01*
X0118315Y0130000D02*
X0108874Y0130000D01*
X0108874Y0127601D02*
X0118315Y0127601D01*
X0136368Y0115609D02*
X0153515Y0115609D01*
X0153515Y0113210D02*
X0136359Y0113210D01*
X0138258Y0110811D02*
X0153515Y0110811D01*
X0153515Y0108413D02*
X0144352Y0108413D01*
X0146080Y0106014D02*
X0147453Y0106014D01*
X0140431Y0108413D02*
X0140271Y0108413D01*
X0140923Y0115929D02*
X0144013Y0115929D01*
X0144631Y0116052D01*
X0145213Y0116293D01*
X0145737Y0116644D01*
X0146183Y0117089D01*
X0146533Y0117613D01*
X0146775Y0118196D01*
X0146897Y0118814D01*
X0146897Y0123282D01*
X0140923Y0123282D01*
X0140923Y0115929D01*
X0140923Y0118007D02*
X0140173Y0118007D01*
X0140173Y0120406D02*
X0140923Y0120406D01*
X0140923Y0122804D02*
X0140173Y0122804D01*
X0140548Y0123657D02*
X0140548Y0132121D01*
X0146453Y0138027D01*
X0152359Y0143932D01*
X0152359Y0149838D01*
X0154112Y0149188D02*
X0148834Y0149188D01*
X0148834Y0151586D02*
X0154112Y0151586D01*
X0153076Y0153985D02*
X0148834Y0153985D01*
X0149234Y0156383D02*
X0150678Y0156383D01*
X0150568Y0158782D02*
X0149234Y0158782D01*
X0149234Y0161180D02*
X0150568Y0161180D01*
X0151279Y0163579D02*
X0149234Y0163579D01*
X0162851Y0165977D02*
X0171612Y0165977D01*
X0171612Y0163579D02*
X0165250Y0163579D01*
X0165960Y0161180D02*
X0171612Y0161180D01*
X0171612Y0158782D02*
X0167441Y0158782D01*
X0169797Y0156383D02*
X0171612Y0156383D01*
X0171612Y0153985D02*
X0170291Y0153985D01*
X0170291Y0151586D02*
X0171612Y0151586D01*
X0171612Y0149188D02*
X0170291Y0149188D01*
X0169778Y0146789D02*
X0171612Y0146789D01*
X0171612Y0144391D02*
X0168354Y0144391D01*
X0168354Y0141992D02*
X0171612Y0141992D01*
X0171612Y0139594D02*
X0167682Y0139594D01*
X0166560Y0137195D02*
X0171612Y0137195D01*
X0171612Y0134797D02*
X0167764Y0134797D01*
X0167764Y0132398D02*
X0171612Y0132398D01*
X0171612Y0130000D02*
X0168241Y0130000D01*
X0169632Y0127601D02*
X0171612Y0127601D01*
X0171612Y0125203D02*
X0169701Y0125203D01*
X0169701Y0122804D02*
X0171612Y0122804D01*
X0171612Y0120406D02*
X0169593Y0120406D01*
X0170181Y0118007D02*
X0171612Y0118007D01*
X0171612Y0115609D02*
X0170888Y0115609D01*
X0170888Y0113210D02*
X0171612Y0113210D01*
X0171612Y0110811D02*
X0170888Y0110811D01*
X0170888Y0108413D02*
X0171612Y0108413D01*
X0171612Y0106014D02*
X0170510Y0106014D01*
X0170888Y0103616D02*
X0171612Y0103616D01*
X0171612Y0101217D02*
X0170888Y0101217D01*
X0170888Y0098819D02*
X0171612Y0098819D01*
X0171612Y0096420D02*
X0170747Y0096420D01*
X0171612Y0094022D02*
X0169255Y0094022D01*
X0170509Y0091623D02*
X0171612Y0091623D01*
X0171612Y0089225D02*
X0170888Y0089225D01*
X0170888Y0086826D02*
X0171612Y0086826D01*
X0171612Y0084428D02*
X0170888Y0084428D01*
X0170748Y0082029D02*
X0171612Y0082029D01*
X0171612Y0079631D02*
X0170839Y0079631D01*
X0170888Y0077232D02*
X0171612Y0077232D01*
X0171612Y0074834D02*
X0170888Y0074834D01*
X0170888Y0072435D02*
X0171612Y0072435D01*
X0177949Y0067161D02*
X0177949Y0187239D01*
X0166138Y0199050D01*
X0172863Y0201287D02*
X0193822Y0201287D01*
X0192284Y0198623D01*
X0191316Y0195013D01*
X0191316Y0191276D01*
X0192284Y0187667D01*
X0194152Y0184431D01*
X0196794Y0181788D01*
X0200031Y0179920D01*
X0203640Y0178953D01*
X0207377Y0178953D01*
X0210986Y0179920D01*
X0213651Y0181458D01*
X0213651Y0050699D01*
X0213640Y0050724D01*
X0211021Y0053344D01*
X0207599Y0054761D01*
X0195544Y0054761D01*
X0192122Y0053344D01*
X0189503Y0050724D01*
X0188085Y0047302D01*
X0188085Y0043597D01*
X0189503Y0040175D01*
X0192122Y0037555D01*
X0195544Y0036138D01*
X0198401Y0036138D01*
X0196794Y0035210D01*
X0194152Y0032568D01*
X0192284Y0029331D01*
X0191316Y0025722D01*
X0191316Y0025307D01*
X0187043Y0029581D01*
X0180668Y0029581D01*
X0180662Y0029586D01*
X0178774Y0030368D01*
X0178636Y0030368D01*
X0179346Y0032084D01*
X0179346Y0042001D01*
X0178564Y0043889D01*
X0177119Y0045334D01*
X0175231Y0046117D01*
X0167282Y0046117D01*
X0166729Y0045887D01*
X0166176Y0046117D01*
X0158227Y0046117D01*
X0156339Y0045334D01*
X0155184Y0044180D01*
X0153423Y0044180D01*
X0153423Y0037319D01*
X0152870Y0037319D01*
X0152870Y0044180D01*
X0152181Y0044180D01*
X0152181Y0044241D01*
X0155763Y0047823D01*
X0156727Y0050152D01*
X0156727Y0052673D01*
X0156727Y0052772D01*
X0170704Y0052772D01*
X0172592Y0053554D01*
X0174037Y0054999D01*
X0174321Y0055685D01*
X0176224Y0056473D01*
X0181539Y0061788D01*
X0183322Y0063571D01*
X0184286Y0065900D01*
X0184286Y0188500D01*
X0183322Y0190829D01*
X0172863Y0201287D01*
X0174594Y0199556D02*
X0192823Y0199556D01*
X0191891Y0197158D02*
X0176993Y0197158D01*
X0179391Y0194759D02*
X0191316Y0194759D01*
X0191316Y0192361D02*
X0181790Y0192361D01*
X0183681Y0189962D02*
X0191669Y0189962D01*
X0192343Y0187564D02*
X0184286Y0187564D01*
X0184286Y0185165D02*
X0193728Y0185165D01*
X0195816Y0182767D02*
X0184286Y0182767D01*
X0184286Y0180368D02*
X0199254Y0180368D01*
X0211763Y0180368D02*
X0213651Y0180368D01*
X0213651Y0177970D02*
X0184286Y0177970D01*
X0184286Y0175571D02*
X0213651Y0175571D01*
X0213651Y0173173D02*
X0184286Y0173173D01*
X0184286Y0170774D02*
X0213651Y0170774D01*
X0213651Y0168376D02*
X0184286Y0168376D01*
X0184286Y0165977D02*
X0213651Y0165977D01*
X0213651Y0163579D02*
X0184286Y0163579D01*
X0184286Y0161180D02*
X0213651Y0161180D01*
X0213651Y0158782D02*
X0184286Y0158782D01*
X0184286Y0156383D02*
X0213651Y0156383D01*
X0213651Y0153985D02*
X0184286Y0153985D01*
X0184286Y0151586D02*
X0213651Y0151586D01*
X0213651Y0149188D02*
X0184286Y0149188D01*
X0184286Y0146789D02*
X0213651Y0146789D01*
X0213651Y0144391D02*
X0184286Y0144391D01*
X0184286Y0141992D02*
X0213651Y0141992D01*
X0213651Y0139594D02*
X0184286Y0139594D01*
X0184286Y0137195D02*
X0213651Y0137195D01*
X0213651Y0134797D02*
X0184286Y0134797D01*
X0184286Y0132398D02*
X0213651Y0132398D01*
X0213651Y0130000D02*
X0184286Y0130000D01*
X0184286Y0127601D02*
X0213651Y0127601D01*
X0213651Y0125203D02*
X0184286Y0125203D01*
X0184286Y0122804D02*
X0213651Y0122804D01*
X0213651Y0120406D02*
X0184286Y0120406D01*
X0184286Y0118007D02*
X0213651Y0118007D01*
X0213651Y0115609D02*
X0184286Y0115609D01*
X0184286Y0113210D02*
X0213651Y0113210D01*
X0213651Y0110811D02*
X0184286Y0110811D01*
X0184286Y0108413D02*
X0213651Y0108413D01*
X0213651Y0106014D02*
X0184286Y0106014D01*
X0184286Y0103616D02*
X0213651Y0103616D01*
X0213651Y0101217D02*
X0184286Y0101217D01*
X0184286Y0098819D02*
X0213651Y0098819D01*
X0213651Y0096420D02*
X0184286Y0096420D01*
X0184286Y0094022D02*
X0213651Y0094022D01*
X0213651Y0091623D02*
X0184286Y0091623D01*
X0184286Y0089225D02*
X0213651Y0089225D01*
X0213651Y0086826D02*
X0184286Y0086826D01*
X0184286Y0084428D02*
X0213651Y0084428D01*
X0213651Y0082029D02*
X0184286Y0082029D01*
X0184286Y0079631D02*
X0213651Y0079631D01*
X0213651Y0077232D02*
X0184286Y0077232D01*
X0184286Y0074834D02*
X0213651Y0074834D01*
X0213651Y0072435D02*
X0207423Y0072435D01*
X0207188Y0072498D02*
X0206230Y0072624D01*
X0201672Y0072624D01*
X0201672Y0065350D01*
X0213121Y0065350D01*
X0213121Y0065733D01*
X0212995Y0066691D01*
X0212745Y0067625D01*
X0212375Y0068518D01*
X0211891Y0069356D01*
X0211303Y0070123D01*
X0210619Y0070806D01*
X0209852Y0071395D01*
X0209015Y0071878D01*
X0208122Y0072248D01*
X0207188Y0072498D01*
X0211369Y0070037D02*
X0213651Y0070037D01*
X0213651Y0067638D02*
X0212739Y0067638D01*
X0213121Y0065150D02*
X0201672Y0065150D01*
X0201672Y0065350D01*
X0201471Y0065350D01*
X0201471Y0065150D01*
X0190022Y0065150D01*
X0190022Y0064766D01*
X0190148Y0063808D01*
X0190398Y0062874D01*
X0190768Y0061981D01*
X0191252Y0061144D01*
X0191840Y0060377D01*
X0192524Y0059693D01*
X0193291Y0059105D01*
X0194128Y0058621D01*
X0195021Y0058251D01*
X0195955Y0058001D01*
X0196913Y0057875D01*
X0201471Y0057875D01*
X0201471Y0065150D01*
X0201672Y0065150D01*
X0201672Y0057875D01*
X0206230Y0057875D01*
X0207188Y0058001D01*
X0208122Y0058251D01*
X0209015Y0058621D01*
X0209852Y0059105D01*
X0210619Y0059693D01*
X0211303Y0060377D01*
X0211891Y0061144D01*
X0212375Y0061981D01*
X0212745Y0062874D01*
X0212995Y0063808D01*
X0213121Y0064766D01*
X0213121Y0065150D01*
X0213651Y0065240D02*
X0201672Y0065240D01*
X0201471Y0065240D02*
X0184013Y0065240D01*
X0184286Y0067638D02*
X0190404Y0067638D01*
X0190398Y0067625D02*
X0190148Y0066691D01*
X0190022Y0065733D01*
X0190022Y0065350D01*
X0201471Y0065350D01*
X0201471Y0072624D01*
X0196913Y0072624D01*
X0195955Y0072498D01*
X0195021Y0072248D01*
X0194128Y0071878D01*
X0193291Y0071395D01*
X0192524Y0070806D01*
X0191840Y0070123D01*
X0191252Y0069356D01*
X0190768Y0068518D01*
X0190398Y0067625D01*
X0191774Y0070037D02*
X0184286Y0070037D01*
X0184286Y0072435D02*
X0195720Y0072435D01*
X0201471Y0072435D02*
X0201672Y0072435D01*
X0201672Y0070037D02*
X0201471Y0070037D01*
X0201471Y0067638D02*
X0201672Y0067638D01*
X0201672Y0062841D02*
X0201471Y0062841D01*
X0201471Y0060443D02*
X0201672Y0060443D01*
X0201672Y0058044D02*
X0201471Y0058044D01*
X0195793Y0058044D02*
X0177795Y0058044D01*
X0180193Y0060443D02*
X0191789Y0060443D01*
X0190412Y0062841D02*
X0182592Y0062841D01*
X0177949Y0067161D02*
X0172635Y0061846D01*
X0162201Y0061846D01*
X0152949Y0061846D01*
X0150390Y0059287D01*
X0150390Y0051413D01*
X0144485Y0045507D01*
X0143329Y0037811D02*
X0146994Y0037811D01*
X0146994Y0037319D01*
X0152870Y0037319D01*
X0152870Y0036766D01*
X0146994Y0036766D01*
X0146994Y0032790D01*
X0147117Y0032172D01*
X0147358Y0031590D01*
X0147708Y0031066D01*
X0148154Y0030620D01*
X0148678Y0030270D01*
X0149260Y0030028D01*
X0149878Y0029906D01*
X0152385Y0029906D01*
X0151614Y0029586D01*
X0150169Y0028141D01*
X0149387Y0026253D01*
X0149387Y0017517D01*
X0150135Y0015711D01*
X0146275Y0015711D01*
X0146275Y0021136D01*
X0143329Y0024083D01*
X0143329Y0030301D01*
X0142738Y0031728D01*
X0143329Y0033155D01*
X0143329Y0037811D01*
X0143329Y0036458D02*
X0146994Y0036458D01*
X0146994Y0034059D02*
X0143329Y0034059D01*
X0142765Y0031661D02*
X0147328Y0031661D01*
X0151290Y0029262D02*
X0143329Y0029262D01*
X0143329Y0026864D02*
X0149640Y0026864D01*
X0149387Y0024465D02*
X0143329Y0024465D01*
X0145345Y0022067D02*
X0149387Y0022067D01*
X0149387Y0019668D02*
X0146275Y0019668D01*
X0146275Y0017270D02*
X0149490Y0017270D01*
X0158068Y0021885D02*
X0162201Y0021885D01*
X0171257Y0030940D01*
X0171257Y0037043D01*
X0175388Y0046052D02*
X0188085Y0046052D01*
X0188085Y0043653D02*
X0178662Y0043653D01*
X0179346Y0041255D02*
X0189055Y0041255D01*
X0190821Y0038856D02*
X0179346Y0038856D01*
X0179346Y0036458D02*
X0194772Y0036458D01*
X0195643Y0034059D02*
X0179346Y0034059D01*
X0179171Y0031661D02*
X0193628Y0031661D01*
X0192265Y0029262D02*
X0187362Y0029262D01*
X0189760Y0026864D02*
X0191622Y0026864D01*
X0188561Y0048450D02*
X0156022Y0048450D01*
X0156727Y0050849D02*
X0189627Y0050849D01*
X0192025Y0053247D02*
X0171852Y0053247D01*
X0174305Y0055646D02*
X0213651Y0055646D01*
X0213651Y0058044D02*
X0207350Y0058044D01*
X0211354Y0060443D02*
X0213651Y0060443D01*
X0213651Y0062841D02*
X0212731Y0062841D01*
X0213651Y0053247D02*
X0211118Y0053247D01*
X0213516Y0050849D02*
X0213651Y0050849D01*
X0167125Y0046052D02*
X0166333Y0046052D01*
X0158070Y0046052D02*
X0153991Y0046052D01*
X0153423Y0043653D02*
X0152870Y0043653D01*
X0152870Y0041255D02*
X0153423Y0041255D01*
X0153423Y0038856D02*
X0152870Y0038856D01*
X0130902Y0055743D02*
X0130902Y0055743D01*
X0125734Y0055743D01*
X0125734Y0053019D01*
X0125684Y0053019D01*
X0124936Y0053767D01*
X0125527Y0055194D01*
X0125527Y0063930D01*
X0124745Y0065819D01*
X0123300Y0067264D01*
X0121412Y0068046D01*
X0115559Y0068046D01*
X0119858Y0072345D01*
X0119858Y0079536D01*
X0118454Y0080940D01*
X0119858Y0082345D01*
X0119858Y0089536D01*
X0114890Y0094504D01*
X0116767Y0094504D01*
X0118655Y0095286D01*
X0119810Y0096441D01*
X0120586Y0096441D01*
X0120586Y0097906D01*
X0120746Y0098290D01*
X0120746Y0096441D01*
X0123540Y0096441D01*
X0124158Y0096564D01*
X0124741Y0096805D01*
X0125265Y0097155D01*
X0125630Y0097520D01*
X0125957Y0096731D01*
X0127402Y0095286D01*
X0129199Y0094542D01*
X0125235Y0094542D01*
X0123347Y0093760D01*
X0121902Y0092315D01*
X0121120Y0090427D01*
X0121120Y0081493D01*
X0121902Y0079605D01*
X0123057Y0078450D01*
X0123057Y0075961D01*
X0128697Y0075961D01*
X0128697Y0075880D01*
X0128777Y0075880D01*
X0128777Y0069276D01*
X0128915Y0069276D01*
X0128915Y0065941D01*
X0132753Y0062103D01*
X0132349Y0061699D01*
X0130902Y0061699D01*
X0128619Y0061699D01*
X0128000Y0061576D01*
X0127418Y0061335D01*
X0126894Y0060985D01*
X0126448Y0060539D01*
X0126098Y0060015D01*
X0125857Y0059433D01*
X0125734Y0058814D01*
X0125734Y0055743D01*
X0130902Y0055743D01*
X0130902Y0055743D01*
X0130902Y0061699D01*
X0130902Y0055743D01*
X0130902Y0058044D02*
X0130902Y0058044D01*
X0130902Y0060443D02*
X0130902Y0060443D01*
X0132015Y0062841D02*
X0125527Y0062841D01*
X0125527Y0060443D02*
X0126384Y0060443D01*
X0125734Y0058044D02*
X0125527Y0058044D01*
X0125527Y0055646D02*
X0125734Y0055646D01*
X0125734Y0053247D02*
X0125456Y0053247D01*
X0124985Y0065240D02*
X0129616Y0065240D01*
X0128915Y0067638D02*
X0122396Y0067638D01*
X0124217Y0069990D02*
X0123771Y0070436D01*
X0123421Y0070960D01*
X0123180Y0071542D01*
X0123057Y0072160D01*
X0123057Y0075880D01*
X0128697Y0075880D01*
X0128697Y0069276D01*
X0125941Y0069276D01*
X0125323Y0069399D01*
X0124741Y0069640D01*
X0124217Y0069990D01*
X0124170Y0070037D02*
X0117550Y0070037D01*
X0119858Y0072435D02*
X0123057Y0072435D01*
X0123057Y0074834D02*
X0119858Y0074834D01*
X0119858Y0077232D02*
X0123057Y0077232D01*
X0121891Y0079631D02*
X0119763Y0079631D01*
X0119543Y0082029D02*
X0121120Y0082029D01*
X0121120Y0084428D02*
X0119858Y0084428D01*
X0119858Y0086826D02*
X0121120Y0086826D01*
X0121120Y0089225D02*
X0119858Y0089225D01*
X0121615Y0091623D02*
X0117770Y0091623D01*
X0115372Y0094022D02*
X0123980Y0094022D01*
X0126267Y0096420D02*
X0119789Y0096420D01*
X0128697Y0074834D02*
X0128777Y0074834D01*
X0128777Y0072435D02*
X0128697Y0072435D01*
X0128697Y0070037D02*
X0128777Y0070037D01*
X0112752Y0067260D02*
X0111311Y0065819D01*
X0110529Y0063930D01*
X0110529Y0055194D01*
X0111311Y0053306D01*
X0112091Y0052526D01*
X0112091Y0051098D01*
X0112995Y0048916D01*
X0113353Y0048557D01*
X0097006Y0048557D01*
X0095118Y0047775D01*
X0093673Y0046330D01*
X0093126Y0045009D01*
X0093126Y0046256D01*
X0097063Y0050193D01*
X0097063Y0053082D01*
X0097398Y0053016D01*
X0100075Y0053016D01*
X0100075Y0059562D01*
X0094513Y0059562D01*
X0094513Y0059119D01*
X0092555Y0061077D01*
X0090067Y0061077D01*
X0089398Y0061746D01*
X0089398Y0069436D01*
X0089859Y0069312D01*
X0090736Y0069197D01*
X0091178Y0069197D01*
X0091620Y0069197D01*
X0092496Y0069312D01*
X0093350Y0069541D01*
X0094167Y0069879D01*
X0094671Y0070171D01*
X0097582Y0067260D01*
X0104773Y0067260D01*
X0106178Y0068664D01*
X0107582Y0067260D01*
X0112752Y0067260D01*
X0111071Y0065240D02*
X0104632Y0065240D01*
X0104478Y0065394D02*
X0103953Y0065744D01*
X0103371Y0065986D01*
X0102753Y0066109D01*
X0100076Y0066109D01*
X0100076Y0059562D01*
X0100076Y0059562D01*
X0105638Y0059562D01*
X0105638Y0055901D01*
X0105515Y0055282D01*
X0105273Y0054700D01*
X0104923Y0054176D01*
X0104478Y0053730D01*
X0103953Y0053380D01*
X0103371Y0053139D01*
X0102753Y0053016D01*
X0100076Y0053016D01*
X0100076Y0059562D01*
X0105638Y0059562D01*
X0105638Y0063224D01*
X0105515Y0063842D01*
X0105273Y0064424D01*
X0104923Y0064949D01*
X0104478Y0065394D01*
X0105152Y0067638D02*
X0107204Y0067638D01*
X0105638Y0062841D02*
X0110529Y0062841D01*
X0110529Y0060443D02*
X0105638Y0060443D01*
X0105638Y0058044D02*
X0110529Y0058044D01*
X0110529Y0055646D02*
X0105587Y0055646D01*
X0103633Y0053247D02*
X0111370Y0053247D01*
X0112194Y0050849D02*
X0097063Y0050849D01*
X0096747Y0048450D02*
X0095320Y0048450D01*
X0093558Y0046052D02*
X0093126Y0046052D01*
X0100075Y0053247D02*
X0100076Y0053247D01*
X0100075Y0055646D02*
X0100076Y0055646D01*
X0100075Y0058044D02*
X0100076Y0058044D01*
X0100075Y0059562D02*
X0100076Y0059562D01*
X0100075Y0059562D01*
X0100075Y0059562D01*
X0094513Y0059562D01*
X0094513Y0063224D01*
X0094636Y0063842D01*
X0094877Y0064424D01*
X0095228Y0064949D01*
X0095673Y0065394D01*
X0096197Y0065744D01*
X0096780Y0065986D01*
X0097398Y0066109D01*
X0100075Y0066109D01*
X0100075Y0059562D01*
X0100075Y0060443D02*
X0100076Y0060443D01*
X0100075Y0062841D02*
X0100076Y0062841D01*
X0100075Y0065240D02*
X0100076Y0065240D01*
X0097204Y0067638D02*
X0089398Y0067638D01*
X0091178Y0069197D02*
X0091178Y0075940D01*
X0091178Y0069197D01*
X0091178Y0070037D02*
X0091178Y0070037D01*
X0091178Y0072435D02*
X0091178Y0072435D01*
X0091178Y0074834D02*
X0091178Y0074834D01*
X0091178Y0075940D02*
X0091178Y0075940D01*
X0094439Y0070037D02*
X0094805Y0070037D01*
X0095519Y0065240D02*
X0089398Y0065240D01*
X0089398Y0062841D02*
X0094513Y0062841D01*
X0094513Y0060443D02*
X0093189Y0060443D01*
X0056458Y0072435D02*
X0056218Y0072435D01*
X0055871Y0074834D02*
X0033980Y0074834D01*
X0033980Y0077232D02*
X0047308Y0077232D01*
X0042805Y0079631D02*
X0042055Y0079631D01*
X0042055Y0078128D02*
X0038965Y0078128D01*
X0038347Y0078251D01*
X0037764Y0078492D01*
X0037240Y0078842D01*
X0036795Y0079288D01*
X0036444Y0079812D01*
X0036203Y0080395D01*
X0036080Y0081013D01*
X0036080Y0084502D01*
X0042055Y0084502D01*
X0042055Y0078128D01*
X0042055Y0082029D02*
X0042805Y0082029D01*
X0042805Y0084428D02*
X0042055Y0084428D01*
X0036080Y0084428D02*
X0033980Y0084428D01*
X0033980Y0086826D02*
X0036080Y0086826D01*
X0036176Y0089225D02*
X0033980Y0089225D01*
X0033980Y0091623D02*
X0038950Y0091623D01*
X0038529Y0094022D02*
X0033980Y0094022D01*
X0033980Y0096420D02*
X0038529Y0096420D01*
X0038529Y0098819D02*
X0033980Y0098819D01*
X0033980Y0101217D02*
X0038934Y0101217D01*
X0036369Y0103616D02*
X0033980Y0103616D01*
X0033980Y0106014D02*
X0036080Y0106014D01*
X0033980Y0108413D02*
X0042055Y0108413D01*
X0036080Y0110811D02*
X0033980Y0110811D01*
X0033980Y0113210D02*
X0036298Y0113210D01*
X0033980Y0115609D02*
X0039049Y0115609D01*
X0038529Y0118007D02*
X0033980Y0118007D01*
X0033980Y0120406D02*
X0038529Y0120406D01*
X0038529Y0122804D02*
X0033980Y0122804D01*
X0033980Y0125203D02*
X0039176Y0125203D01*
X0036219Y0127601D02*
X0033980Y0127601D01*
X0033980Y0130000D02*
X0036080Y0130000D01*
X0033980Y0132398D02*
X0042055Y0132398D01*
X0036080Y0134797D02*
X0033980Y0134797D01*
X0033980Y0137195D02*
X0036450Y0137195D01*
X0038839Y0139594D02*
X0033980Y0139594D01*
X0033980Y0141992D02*
X0038529Y0141992D01*
X0038529Y0144391D02*
X0033980Y0144391D01*
X0033980Y0146789D02*
X0038529Y0146789D01*
X0038176Y0149188D02*
X0033980Y0149188D01*
X0033980Y0151586D02*
X0036138Y0151586D01*
X0036080Y0153985D02*
X0033980Y0153985D01*
X0033980Y0156383D02*
X0036080Y0156383D01*
X0036080Y0158782D02*
X0033980Y0158782D01*
X0033980Y0161180D02*
X0036693Y0161180D01*
X0038689Y0163579D02*
X0033980Y0163579D01*
X0033980Y0165977D02*
X0038529Y0165977D01*
X0038529Y0168376D02*
X0033980Y0168376D01*
X0033980Y0170774D02*
X0038529Y0170774D01*
X0039959Y0173173D02*
X0033980Y0173173D01*
X0033980Y0175571D02*
X0048012Y0175571D01*
X0044368Y0173173D02*
X0044209Y0173173D01*
X0048377Y0180368D02*
X0063560Y0180368D01*
X0063560Y0177970D02*
X0033980Y0177970D01*
X0033980Y0180368D02*
X0035868Y0180368D01*
X0051815Y0182767D02*
X0064220Y0182767D01*
X0065498Y0185165D02*
X0053903Y0185165D01*
X0055288Y0187564D02*
X0065498Y0187564D01*
X0066501Y0189962D02*
X0055963Y0189962D01*
X0056315Y0192361D02*
X0103463Y0192361D01*
X0104115Y0194759D02*
X0056315Y0194759D01*
X0055740Y0197158D02*
X0106071Y0197158D01*
X0108470Y0199556D02*
X0054809Y0199556D01*
X0071571Y0189962D02*
X0071730Y0189962D01*
X0071730Y0187564D02*
X0071571Y0187564D01*
X0076799Y0189962D02*
X0082249Y0189962D01*
X0081246Y0187564D02*
X0077803Y0187564D01*
X0077803Y0185165D02*
X0081246Y0185165D01*
X0079968Y0182767D02*
X0079080Y0182767D01*
X0087319Y0187564D02*
X0087478Y0187564D01*
X0087478Y0189962D02*
X0087319Y0189962D01*
X0063560Y0175571D02*
X0055525Y0175571D01*
X0061789Y0173173D02*
X0062422Y0173173D01*
X0118820Y0191983D02*
X0119551Y0192713D01*
X0142426Y0192713D01*
X0144453Y0190686D01*
X0144453Y0188185D01*
X0142593Y0190046D01*
X0139800Y0190046D01*
X0139800Y0183302D01*
X0139800Y0183302D01*
X0139800Y0190046D01*
X0137007Y0190046D01*
X0136170Y0189208D01*
X0133395Y0191983D01*
X0126204Y0191983D01*
X0124800Y0190578D01*
X0123395Y0191983D01*
X0118820Y0191983D01*
X0119198Y0192361D02*
X0142778Y0192361D01*
X0142676Y0189962D02*
X0144453Y0189962D01*
X0139800Y0189962D02*
X0139800Y0189962D01*
X0139800Y0187564D02*
X0139800Y0187564D01*
X0139800Y0185165D02*
X0139800Y0185165D01*
X0136923Y0189962D02*
X0135416Y0189962D01*
X0148834Y0146789D02*
X0154625Y0146789D01*
X0156049Y0144391D02*
X0148834Y0144391D01*
X0148454Y0141992D02*
X0156049Y0141992D01*
X0156721Y0139594D02*
X0146624Y0139594D01*
X0146453Y0138027D02*
X0160233Y0138027D01*
X0162201Y0137880D02*
X0162201Y0132318D01*
X0156639Y0132318D01*
X0162201Y0132318D01*
X0162201Y0132318D01*
X0162201Y0132318D01*
X0162201Y0139995D01*
X0162201Y0144129D01*
X0162122Y0141992D02*
X0162281Y0141992D01*
X0162281Y0139594D02*
X0162122Y0139594D01*
X0162201Y0137880D02*
X0162201Y0132318D01*
X0162201Y0132398D02*
X0162201Y0132398D01*
X0162201Y0134797D02*
X0162201Y0134797D01*
X0162201Y0137195D02*
X0162201Y0137195D01*
X0157843Y0137195D02*
X0145814Y0137195D01*
X0143745Y0134797D02*
X0156639Y0134797D01*
X0156639Y0132398D02*
X0141061Y0132398D01*
X0140923Y0130000D02*
X0140173Y0130000D01*
X0140173Y0127601D02*
X0140923Y0127601D01*
X0140923Y0125203D02*
X0140173Y0125203D01*
X0146333Y0130000D02*
X0156161Y0130000D01*
X0154771Y0127601D02*
X0146897Y0127601D01*
X0146897Y0125203D02*
X0154702Y0125203D01*
X0154702Y0122804D02*
X0146897Y0122804D01*
X0146897Y0120406D02*
X0154810Y0120406D01*
X0154222Y0118007D02*
X0146696Y0118007D01*
X0036080Y0082029D02*
X0033980Y0082029D01*
X0033980Y0079631D02*
X0036566Y0079631D01*
X0035902Y0072435D02*
X0033980Y0072435D01*
D33*
X0091178Y0071098D02*
X0095115Y0067161D01*
X0128737Y0067161D01*
X0130902Y0064995D01*
X0130902Y0055743D01*
X0128737Y0067161D02*
X0128737Y0075920D01*
D34*
X0042123Y0023854D03*
X0205509Y0023854D03*
X0205509Y0193145D03*
X0042123Y0193145D03*
M02*
