G75*
%MOIN*%
%OFA0B0*%
%FSLAX25Y25*%
%IPPOS*%
%LPD*%
%AMOC8*
5,1,8,0,0,1.08239X$1,22.5*
%
%ADD10R,0.05918X0.06706*%
%ADD11R,0.07099X0.07898*%
%ADD12R,0.07898X0.07099*%
%ADD13OC8,0.07887*%
%ADD14R,0.08280X0.06312*%
%ADD15R,0.06706X0.05918*%
%ADD16C,0.07887*%
%ADD17R,0.02769X0.05800*%
%ADD18R,0.05800X0.02769*%
%ADD19R,0.04737X0.06312*%
%ADD20R,0.05524X0.05524*%
%ADD21R,0.06706X0.08674*%
%ADD22R,0.15761X0.08674*%
%ADD23C,0.09150*%
%ADD24R,0.05761X0.07690*%
%ADD25R,0.07887X0.07493*%
%ADD26R,0.22847X0.25997*%
%ADD27R,0.05524X0.07493*%
%ADD28R,0.07099X0.09855*%
%ADD29OC8,0.05918*%
%ADD30C,0.18910*%
D10*
X0044288Y0096688D03*
X0051768Y0096688D03*
X0051768Y0120310D03*
X0044288Y0120310D03*
X0044288Y0143932D03*
X0051768Y0143932D03*
X0051768Y0167554D03*
X0044288Y0167554D03*
X0105312Y0163617D03*
X0112792Y0163617D03*
X0113186Y0102594D03*
X0120666Y0102594D03*
X0132871Y0102594D03*
X0140351Y0102594D03*
X0100981Y0102594D03*
X0093501Y0102594D03*
D11*
X0053627Y0108499D03*
X0042430Y0108499D03*
X0042430Y0084877D03*
X0053627Y0084877D03*
X0053627Y0132121D03*
X0042430Y0132121D03*
X0042430Y0155743D03*
X0053627Y0155743D03*
D12*
X0140548Y0159987D03*
X0140548Y0171184D03*
X0162201Y0112129D03*
X0162201Y0100932D03*
X0162201Y0086539D03*
X0162201Y0075342D03*
X0144485Y0075342D03*
X0144485Y0086539D03*
X0134642Y0037326D03*
X0134642Y0026129D03*
X0075587Y0055657D03*
X0075587Y0066854D03*
D13*
X0073619Y0082436D03*
X0073619Y0092436D03*
X0073619Y0102436D03*
X0073619Y0112436D03*
X0073619Y0122436D03*
X0073619Y0132436D03*
X0073619Y0142436D03*
X0109800Y0183302D03*
X0119800Y0183302D03*
X0129800Y0183302D03*
X0139800Y0183302D03*
X0111178Y0085940D03*
X0101178Y0085940D03*
X0101178Y0075940D03*
X0111178Y0075940D03*
X0091178Y0085940D03*
D14*
X0088186Y0158893D03*
X0088186Y0168342D03*
X0070863Y0168342D03*
X0070863Y0158893D03*
D15*
X0071650Y0177594D03*
X0071650Y0185074D03*
X0087398Y0185074D03*
X0087398Y0177594D03*
X0162201Y0151609D03*
X0162201Y0144129D03*
X0075587Y0043342D03*
X0075587Y0035861D03*
D16*
X0091178Y0075940D03*
D17*
X0098028Y0119158D03*
X0101178Y0119158D03*
X0104327Y0119158D03*
X0107477Y0119158D03*
X0110627Y0119158D03*
X0113776Y0119158D03*
X0116926Y0119158D03*
X0120075Y0119158D03*
X0120075Y0152958D03*
X0116926Y0152958D03*
X0113776Y0152958D03*
X0110627Y0152958D03*
X0107477Y0152958D03*
X0104327Y0152958D03*
X0101178Y0152958D03*
X0098028Y0152958D03*
D18*
X0092152Y0147082D03*
X0092152Y0143932D03*
X0092152Y0140783D03*
X0092152Y0137633D03*
X0092152Y0134483D03*
X0092152Y0131334D03*
X0092152Y0128184D03*
X0092152Y0125035D03*
X0125952Y0125035D03*
X0125952Y0128184D03*
X0125952Y0131334D03*
X0125952Y0134483D03*
X0125952Y0137633D03*
X0125952Y0140783D03*
X0125952Y0143932D03*
X0125952Y0147082D03*
D19*
X0130902Y0055743D03*
X0138383Y0055743D03*
X0134642Y0047082D03*
D20*
X0162201Y0124050D03*
X0162201Y0132318D03*
D21*
X0162201Y0037043D03*
X0153146Y0037043D03*
X0171257Y0037043D03*
D22*
X0162201Y0061846D03*
D23*
X0197397Y0065250D02*
X0205746Y0065250D01*
X0205746Y0045450D02*
X0197397Y0045450D01*
X0050235Y0045450D02*
X0041885Y0045450D01*
X0041885Y0065250D02*
X0050235Y0065250D01*
D24*
X0128737Y0075920D03*
X0128737Y0085960D03*
D25*
X0158068Y0021885D03*
X0174209Y0021885D03*
X0075784Y0021885D03*
X0059642Y0021885D03*
D26*
X0109052Y0030822D03*
D27*
X0118028Y0059562D03*
X0100075Y0059562D03*
D28*
X0140548Y0123657D03*
X0140548Y0148460D03*
D29*
X0152359Y0149838D03*
X0158264Y0159680D03*
X0135627Y0192161D03*
X0114957Y0171491D03*
X0122831Y0161649D03*
X0097241Y0183302D03*
X0101178Y0130153D03*
X0091335Y0118342D03*
X0089367Y0110468D03*
X0108068Y0110468D03*
X0126768Y0110468D03*
X0126768Y0118342D03*
X0152359Y0090783D03*
X0136611Y0069129D03*
X0144485Y0045507D03*
X0170075Y0049444D03*
X0183855Y0021885D03*
X0138579Y0017948D03*
X0089367Y0053381D03*
X0085430Y0047476D03*
X0065745Y0055350D03*
X0057871Y0031235D03*
D30*
X0042123Y0023854D03*
X0205509Y0023854D03*
X0205509Y0193145D03*
X0042123Y0193145D03*
M02*
