G75*
%MOIN*%
%OFA0B0*%
%FSLAX25Y25*%
%IPPOS*%
%LPD*%
%AMOC8*
5,1,8,0,0,1.08239X$1,22.5*
%
%ADD10OC8,0.07887*%
%ADD11C,0.07887*%
%ADD12C,0.09150*%
%ADD13OC8,0.05918*%
%ADD14C,0.18910*%
D10*
X0073619Y0082436D03*
X0073619Y0092436D03*
X0073619Y0102436D03*
X0073619Y0112436D03*
X0073619Y0122436D03*
X0073619Y0132436D03*
X0073619Y0142436D03*
X0109800Y0183302D03*
X0119800Y0183302D03*
X0129800Y0183302D03*
X0139800Y0183302D03*
X0111178Y0085940D03*
X0101178Y0085940D03*
X0101178Y0075940D03*
X0111178Y0075940D03*
X0091178Y0085940D03*
D11*
X0091178Y0075940D03*
D12*
X0050235Y0065250D02*
X0041885Y0065250D01*
X0041885Y0045450D02*
X0050235Y0045450D01*
X0197397Y0045450D02*
X0205746Y0045450D01*
X0205746Y0065250D02*
X0197397Y0065250D01*
D13*
X0170075Y0049444D03*
X0144485Y0045507D03*
X0136611Y0069129D03*
X0152359Y0090783D03*
X0126768Y0110468D03*
X0126768Y0118342D03*
X0108068Y0110468D03*
X0091335Y0118342D03*
X0089367Y0110468D03*
X0101178Y0130153D03*
X0122831Y0161649D03*
X0114957Y0171491D03*
X0097241Y0183302D03*
X0135627Y0192161D03*
X0158264Y0159680D03*
X0152359Y0149838D03*
X0089367Y0053381D03*
X0085430Y0047476D03*
X0065745Y0055350D03*
X0057871Y0031235D03*
X0138579Y0017948D03*
X0183855Y0021885D03*
D14*
X0042123Y0023854D03*
X0205509Y0023854D03*
X0205509Y0193145D03*
X0042123Y0193145D03*
M02*
