G75*
%MOIN*%
%OFA0B0*%
%FSLAX25Y25*%
%IPPOS*%
%LPD*%
%AMOC8*
5,1,8,0,0,1.08239X$1,22.5*
%
%ADD10R,0.05118X0.05906*%
%ADD11R,0.06299X0.07098*%
%ADD12OC8,0.07087*%
%ADD13R,0.20000X0.07000*%
%ADD14R,0.05906X0.05118*%
%ADD15C,0.07087*%
%ADD16R,0.01969X0.05000*%
%ADD17R,0.05000X0.01969*%
%ADD18R,0.03937X0.05512*%
%ADD19R,0.04724X0.04724*%
%ADD20R,0.05906X0.07874*%
%ADD21R,0.14961X0.07874*%
%ADD22R,0.07087X0.06299*%
%ADD23R,0.07098X0.06299*%
%ADD24C,0.08350*%
%ADD25R,0.07087X0.06693*%
%ADD26R,0.22047X0.25197*%
%ADD27R,0.04724X0.06693*%
%ADD28R,0.06299X0.09055*%
%ADD29OC8,0.05118*%
%ADD30C,0.05000*%
%ADD31C,0.01600*%
%ADD32C,0.04000*%
%ADD33C,0.02400*%
%ADD34C,0.18110*%
D10*
X0044288Y0092351D03*
X0051768Y0092351D03*
X0051768Y0115973D03*
X0044288Y0115973D03*
X0044288Y0139595D03*
X0051768Y0139595D03*
X0051768Y0163217D03*
X0044288Y0163217D03*
X0093501Y0098257D03*
X0100981Y0098257D03*
X0113186Y0098257D03*
X0120666Y0098257D03*
X0132871Y0098257D03*
X0140351Y0098257D03*
X0144682Y0171091D03*
X0152162Y0171091D03*
D11*
X0154020Y0155343D03*
X0142823Y0155343D03*
X0053627Y0151406D03*
X0042430Y0151406D03*
X0042430Y0127784D03*
X0053627Y0127784D03*
X0053627Y0104162D03*
X0042430Y0104162D03*
X0042430Y0080540D03*
X0053627Y0080540D03*
D12*
X0073619Y0078099D03*
X0073619Y0088099D03*
X0073619Y0098099D03*
X0073619Y0108099D03*
X0073619Y0118099D03*
X0073619Y0128099D03*
X0073619Y0138099D03*
X0117674Y0188808D03*
X0127674Y0188808D03*
X0137674Y0188808D03*
X0147674Y0188808D03*
X0111178Y0081603D03*
X0111178Y0071603D03*
X0101178Y0071603D03*
X0101178Y0081603D03*
X0091178Y0081603D03*
D13*
X0072335Y0167154D03*
X0110335Y0167154D03*
D14*
X0101178Y0185068D03*
X0101178Y0192548D03*
X0081493Y0192548D03*
X0081493Y0185068D03*
X0075587Y0039005D03*
X0075587Y0031524D03*
D15*
X0091178Y0071603D03*
D16*
X0098028Y0114821D03*
X0101178Y0114821D03*
X0104327Y0114821D03*
X0107477Y0114821D03*
X0110627Y0114821D03*
X0113776Y0114821D03*
X0116926Y0114821D03*
X0120075Y0114821D03*
X0120075Y0148621D03*
X0116926Y0148621D03*
X0113776Y0148621D03*
X0110627Y0148621D03*
X0107477Y0148621D03*
X0104327Y0148621D03*
X0101178Y0148621D03*
X0098028Y0148621D03*
D17*
X0092152Y0142745D03*
X0092152Y0139595D03*
X0092152Y0136446D03*
X0092152Y0133296D03*
X0092152Y0130146D03*
X0092152Y0126997D03*
X0092152Y0123847D03*
X0092152Y0120698D03*
X0125952Y0120698D03*
X0125952Y0123847D03*
X0125952Y0126997D03*
X0125952Y0130146D03*
X0125952Y0133296D03*
X0125952Y0136446D03*
X0125952Y0139595D03*
X0125952Y0142745D03*
D18*
X0130902Y0051406D03*
X0138383Y0051406D03*
X0134642Y0042745D03*
D19*
X0164170Y0117745D03*
X0164170Y0126013D03*
D20*
X0162201Y0032706D03*
X0153146Y0032706D03*
X0171257Y0032706D03*
D21*
X0162201Y0057509D03*
D22*
X0128737Y0071091D03*
X0128737Y0082115D03*
X0164170Y0134083D03*
X0164170Y0145107D03*
D23*
X0164170Y0107792D03*
X0164170Y0096595D03*
X0164170Y0082202D03*
X0164170Y0071005D03*
X0144485Y0071005D03*
X0144485Y0082202D03*
X0134642Y0032989D03*
X0134642Y0021792D03*
X0075587Y0051320D03*
X0075587Y0062517D03*
D24*
X0050235Y0060913D02*
X0041885Y0060913D01*
X0041885Y0041113D02*
X0050235Y0041113D01*
X0197397Y0041113D02*
X0205746Y0041113D01*
X0205746Y0060913D02*
X0197397Y0060913D01*
D25*
X0174209Y0017548D03*
X0158068Y0017548D03*
X0075784Y0017548D03*
X0059642Y0017548D03*
D26*
X0109052Y0026485D03*
D27*
X0118028Y0055225D03*
X0100075Y0055225D03*
D28*
X0140548Y0115383D03*
X0140548Y0140186D03*
D29*
X0152359Y0141564D03*
X0172044Y0155343D03*
X0185823Y0149438D03*
X0139564Y0163709D03*
X0124800Y0161249D03*
X0118894Y0139595D03*
X0101178Y0125816D03*
X0091335Y0114005D03*
X0089367Y0106131D03*
X0108068Y0106131D03*
X0126768Y0106131D03*
X0126768Y0114005D03*
X0152359Y0086446D03*
X0136611Y0064792D03*
X0144485Y0041170D03*
X0170075Y0045107D03*
X0183855Y0017548D03*
X0138579Y0013611D03*
X0089367Y0049044D03*
X0085430Y0043139D03*
X0065745Y0051013D03*
X0057871Y0026898D03*
D30*
X0059642Y0024635D01*
X0059642Y0017548D01*
X0069485Y0031524D02*
X0065745Y0035265D01*
X0065745Y0051013D01*
X0075587Y0039005D02*
X0081296Y0039005D01*
X0085430Y0043139D01*
X0094997Y0055225D02*
X0100075Y0055225D01*
X0094997Y0055225D02*
X0091178Y0059044D01*
X0091178Y0066761D01*
X0091178Y0071603D01*
X0075587Y0031524D02*
X0069485Y0031524D01*
X0075587Y0031524D02*
X0075587Y0017745D01*
X0075784Y0017548D01*
X0081493Y0017548D01*
X0090430Y0026485D01*
X0109052Y0026485D01*
X0134642Y0021792D02*
X0134642Y0017548D01*
X0138579Y0013611D01*
X0153146Y0032706D02*
X0153146Y0039989D01*
X0158264Y0045107D01*
X0170075Y0045107D01*
X0174209Y0017548D02*
X0183855Y0017548D01*
D31*
X0188845Y0012131D02*
X0193774Y0012131D01*
X0194406Y0011037D02*
X0192598Y0014169D01*
X0191653Y0017692D01*
X0191653Y0021341D01*
X0192598Y0024864D01*
X0194422Y0028024D01*
X0197001Y0030603D01*
X0199659Y0032138D01*
X0195612Y0032138D01*
X0192313Y0033504D01*
X0189788Y0036029D01*
X0188422Y0039327D01*
X0188422Y0042898D01*
X0189788Y0046196D01*
X0192313Y0048721D01*
X0195612Y0050087D01*
X0207532Y0050087D01*
X0210830Y0048721D01*
X0213355Y0046196D01*
X0213988Y0044668D01*
X0213988Y0177705D01*
X0210856Y0175897D01*
X0207333Y0174953D01*
X0203684Y0174953D01*
X0200161Y0175897D01*
X0197001Y0177721D01*
X0194422Y0180301D01*
X0192598Y0183460D01*
X0191653Y0186984D01*
X0191653Y0190632D01*
X0192598Y0194156D01*
X0194406Y0197287D01*
X0105907Y0197287D01*
X0105915Y0197282D01*
X0106305Y0196892D01*
X0106612Y0196433D01*
X0106823Y0195924D01*
X0106931Y0195383D01*
X0106931Y0193028D01*
X0101657Y0193028D01*
X0101657Y0192427D01*
X0105085Y0192427D01*
X0105950Y0192068D01*
X0106931Y0192068D01*
X0106931Y0191615D01*
X0107878Y0190668D01*
X0108000Y0190668D01*
X0109331Y0190117D01*
X0109331Y0192264D01*
X0114218Y0197151D01*
X0121130Y0197151D01*
X0122674Y0195607D01*
X0124218Y0197151D01*
X0131130Y0197151D01*
X0132674Y0195607D01*
X0134218Y0197151D01*
X0141130Y0197151D01*
X0144088Y0194193D01*
X0145046Y0195151D01*
X0147490Y0195151D01*
X0147490Y0188992D01*
X0147858Y0188992D01*
X0147858Y0195151D01*
X0150301Y0195151D01*
X0154017Y0191435D01*
X0154017Y0188992D01*
X0147858Y0188992D01*
X0147858Y0188624D01*
X0154017Y0188624D01*
X0154017Y0186180D01*
X0150301Y0182465D01*
X0147858Y0182465D01*
X0147858Y0188624D01*
X0147490Y0188624D01*
X0147490Y0182465D01*
X0145046Y0182465D01*
X0144088Y0183423D01*
X0143274Y0182609D01*
X0143274Y0178844D01*
X0148196Y0178844D01*
X0149960Y0178113D01*
X0151229Y0176844D01*
X0151683Y0176844D01*
X0151683Y0175864D01*
X0152041Y0174999D01*
X0152041Y0171571D01*
X0152642Y0171571D01*
X0157521Y0171571D01*
X0157521Y0174320D01*
X0157414Y0174861D01*
X0157202Y0175370D01*
X0156896Y0175829D01*
X0156506Y0176219D01*
X0156047Y0176525D01*
X0155538Y0176736D01*
X0154997Y0176844D01*
X0152642Y0176844D01*
X0152642Y0171571D01*
X0152642Y0170612D01*
X0157521Y0170612D01*
X0157521Y0168817D01*
X0177095Y0168817D01*
X0179153Y0167965D01*
X0180728Y0166389D01*
X0184665Y0162452D01*
X0185518Y0160394D01*
X0185518Y0103048D01*
X0184665Y0100990D01*
X0177098Y0093423D01*
X0175523Y0091848D01*
X0173465Y0090995D01*
X0171900Y0090995D01*
X0171788Y0090727D01*
X0170460Y0089398D01*
X0171788Y0088070D01*
X0172519Y0086306D01*
X0172519Y0078097D01*
X0171900Y0076603D01*
X0172519Y0075109D01*
X0172519Y0066900D01*
X0172012Y0065676D01*
X0172401Y0065515D01*
X0173751Y0064165D01*
X0174482Y0062400D01*
X0174482Y0052617D01*
X0173751Y0050853D01*
X0172401Y0049502D01*
X0170637Y0048772D01*
X0156390Y0048772D01*
X0156390Y0045882D01*
X0155477Y0043677D01*
X0151844Y0040044D01*
X0151844Y0039443D01*
X0152470Y0039443D01*
X0152470Y0033382D01*
X0153823Y0033382D01*
X0153823Y0039443D01*
X0155260Y0039443D01*
X0156530Y0040712D01*
X0158294Y0041443D01*
X0166109Y0041443D01*
X0166729Y0041186D01*
X0167349Y0041443D01*
X0175164Y0041443D01*
X0176928Y0040712D01*
X0178279Y0039361D01*
X0179009Y0037597D01*
X0179009Y0027814D01*
X0178279Y0026050D01*
X0177923Y0025694D01*
X0178707Y0025694D01*
X0180472Y0024964D01*
X0180587Y0024848D01*
X0180748Y0024848D01*
X0180807Y0024907D01*
X0186903Y0024907D01*
X0191214Y0020596D01*
X0191214Y0014500D01*
X0187751Y0011037D01*
X0194406Y0011037D01*
X0192851Y0013730D02*
X0190444Y0013730D01*
X0191214Y0015328D02*
X0192287Y0015328D01*
X0191859Y0016927D02*
X0191214Y0016927D01*
X0191214Y0018525D02*
X0191653Y0018525D01*
X0191653Y0020124D02*
X0191214Y0020124D01*
X0191756Y0021722D02*
X0190088Y0021722D01*
X0188490Y0023321D02*
X0192184Y0023321D01*
X0192629Y0024919D02*
X0180516Y0024919D01*
X0178472Y0026518D02*
X0193552Y0026518D01*
X0194514Y0028116D02*
X0179009Y0028116D01*
X0179009Y0029715D02*
X0196113Y0029715D01*
X0198231Y0031313D02*
X0179009Y0031313D01*
X0179009Y0032912D02*
X0193743Y0032912D01*
X0191307Y0034510D02*
X0179009Y0034510D01*
X0179009Y0036109D02*
X0189755Y0036109D01*
X0189093Y0037707D02*
X0178964Y0037707D01*
X0178302Y0039306D02*
X0188431Y0039306D01*
X0188422Y0040904D02*
X0176464Y0040904D01*
X0170939Y0048897D02*
X0192737Y0048897D01*
X0190890Y0047298D02*
X0156390Y0047298D01*
X0156315Y0045700D02*
X0189583Y0045700D01*
X0188920Y0044101D02*
X0155653Y0044101D01*
X0154303Y0042503D02*
X0188422Y0042503D01*
X0194305Y0054644D02*
X0195150Y0054294D01*
X0196033Y0054057D01*
X0196940Y0053938D01*
X0201071Y0053938D01*
X0201071Y0060413D01*
X0190428Y0060413D01*
X0190541Y0059549D01*
X0190778Y0058666D01*
X0191128Y0057821D01*
X0191585Y0057029D01*
X0192142Y0056304D01*
X0192788Y0055657D01*
X0193513Y0055101D01*
X0194305Y0054644D01*
X0193266Y0055291D02*
X0174482Y0055291D01*
X0174482Y0056889D02*
X0191692Y0056889D01*
X0190852Y0058488D02*
X0174482Y0058488D01*
X0174482Y0060086D02*
X0190470Y0060086D01*
X0190428Y0061413D02*
X0201071Y0061413D01*
X0201071Y0060413D01*
X0202072Y0060413D01*
X0202072Y0061413D01*
X0212715Y0061413D01*
X0212602Y0062276D01*
X0212365Y0063159D01*
X0212015Y0064004D01*
X0211558Y0064796D01*
X0211002Y0065521D01*
X0210355Y0066168D01*
X0209630Y0066724D01*
X0208838Y0067182D01*
X0207993Y0067531D01*
X0207110Y0067768D01*
X0206203Y0067887D01*
X0202072Y0067887D01*
X0202072Y0061413D01*
X0201071Y0061413D01*
X0201071Y0067887D01*
X0196940Y0067887D01*
X0196033Y0067768D01*
X0195150Y0067531D01*
X0194305Y0067182D01*
X0193513Y0066724D01*
X0192788Y0066168D01*
X0192142Y0065521D01*
X0191585Y0064796D01*
X0191128Y0064004D01*
X0190778Y0063159D01*
X0190541Y0062276D01*
X0190428Y0061413D01*
X0190463Y0061685D02*
X0174482Y0061685D01*
X0174116Y0063283D02*
X0190829Y0063283D01*
X0191651Y0064882D02*
X0173034Y0064882D01*
X0172345Y0066480D02*
X0193196Y0066480D01*
X0201071Y0066480D02*
X0202072Y0066480D01*
X0202072Y0064882D02*
X0201071Y0064882D01*
X0201071Y0063283D02*
X0202072Y0063283D01*
X0202072Y0061685D02*
X0201071Y0061685D01*
X0201071Y0060086D02*
X0202072Y0060086D01*
X0202072Y0060413D02*
X0202072Y0053938D01*
X0206203Y0053938D01*
X0207110Y0054057D01*
X0207993Y0054294D01*
X0208838Y0054644D01*
X0209630Y0055101D01*
X0210355Y0055657D01*
X0211002Y0056304D01*
X0211558Y0057029D01*
X0212015Y0057821D01*
X0212365Y0058666D01*
X0212602Y0059549D01*
X0212715Y0060413D01*
X0202072Y0060413D01*
X0202072Y0058488D02*
X0201071Y0058488D01*
X0201071Y0056889D02*
X0202072Y0056889D01*
X0202072Y0055291D02*
X0201071Y0055291D01*
X0209877Y0055291D02*
X0213988Y0055291D01*
X0213988Y0056889D02*
X0211451Y0056889D01*
X0212291Y0058488D02*
X0213988Y0058488D01*
X0213988Y0060086D02*
X0212673Y0060086D01*
X0212680Y0061685D02*
X0213988Y0061685D01*
X0213988Y0063283D02*
X0212314Y0063283D01*
X0211492Y0064882D02*
X0213988Y0064882D01*
X0213988Y0066480D02*
X0209948Y0066480D01*
X0213988Y0068079D02*
X0172519Y0068079D01*
X0172519Y0069677D02*
X0213988Y0069677D01*
X0213988Y0071276D02*
X0172519Y0071276D01*
X0172519Y0072874D02*
X0213988Y0072874D01*
X0213988Y0074473D02*
X0172519Y0074473D01*
X0172120Y0076072D02*
X0213988Y0076072D01*
X0213988Y0077670D02*
X0172342Y0077670D01*
X0172519Y0079269D02*
X0213988Y0079269D01*
X0213988Y0080867D02*
X0172519Y0080867D01*
X0172519Y0082466D02*
X0213988Y0082466D01*
X0213988Y0084064D02*
X0172519Y0084064D01*
X0172519Y0085663D02*
X0213988Y0085663D01*
X0213988Y0087261D02*
X0172124Y0087261D01*
X0170999Y0088860D02*
X0213988Y0088860D01*
X0213988Y0090458D02*
X0171520Y0090458D01*
X0175732Y0092057D02*
X0213988Y0092057D01*
X0213988Y0093655D02*
X0177330Y0093655D01*
X0178929Y0095254D02*
X0213988Y0095254D01*
X0213988Y0096852D02*
X0180528Y0096852D01*
X0182126Y0098451D02*
X0213988Y0098451D01*
X0213988Y0100049D02*
X0183725Y0100049D01*
X0184938Y0101648D02*
X0213988Y0101648D01*
X0213988Y0103246D02*
X0185518Y0103246D01*
X0185518Y0104845D02*
X0213988Y0104845D01*
X0213988Y0106443D02*
X0185518Y0106443D01*
X0185518Y0108042D02*
X0213988Y0108042D01*
X0213988Y0109640D02*
X0185518Y0109640D01*
X0185518Y0111239D02*
X0213988Y0111239D01*
X0213988Y0112837D02*
X0185518Y0112837D01*
X0185518Y0114436D02*
X0213988Y0114436D01*
X0213988Y0116034D02*
X0185518Y0116034D01*
X0185518Y0117633D02*
X0213988Y0117633D01*
X0213988Y0119231D02*
X0185518Y0119231D01*
X0185518Y0120830D02*
X0213988Y0120830D01*
X0213988Y0122428D02*
X0185518Y0122428D01*
X0185518Y0124027D02*
X0213988Y0124027D01*
X0213988Y0125625D02*
X0185518Y0125625D01*
X0185518Y0127224D02*
X0213988Y0127224D01*
X0213988Y0128822D02*
X0185518Y0128822D01*
X0185518Y0130421D02*
X0213988Y0130421D01*
X0213988Y0132019D02*
X0185518Y0132019D01*
X0185518Y0133618D02*
X0213988Y0133618D01*
X0213988Y0135216D02*
X0185518Y0135216D01*
X0185518Y0136815D02*
X0213988Y0136815D01*
X0213988Y0138413D02*
X0185518Y0138413D01*
X0185518Y0140012D02*
X0213988Y0140012D01*
X0213988Y0141610D02*
X0185518Y0141610D01*
X0185518Y0143209D02*
X0213988Y0143209D01*
X0213988Y0144807D02*
X0185518Y0144807D01*
X0185518Y0146406D02*
X0213988Y0146406D01*
X0213988Y0148005D02*
X0185518Y0148005D01*
X0185823Y0149438D02*
X0185823Y0161249D01*
X0175981Y0171091D01*
X0152162Y0171091D01*
X0152041Y0171982D02*
X0152642Y0171982D01*
X0152642Y0173581D02*
X0152041Y0173581D01*
X0151966Y0175179D02*
X0152642Y0175179D01*
X0152642Y0176778D02*
X0151683Y0176778D01*
X0149325Y0178376D02*
X0196346Y0178376D01*
X0194748Y0179975D02*
X0143274Y0179975D01*
X0143274Y0181573D02*
X0193687Y0181573D01*
X0192764Y0183172D02*
X0151009Y0183172D01*
X0152607Y0184770D02*
X0192247Y0184770D01*
X0191818Y0186369D02*
X0154017Y0186369D01*
X0154017Y0187967D02*
X0191653Y0187967D01*
X0191653Y0189566D02*
X0154017Y0189566D01*
X0154017Y0191164D02*
X0191796Y0191164D01*
X0192224Y0192763D02*
X0152690Y0192763D01*
X0151091Y0194361D02*
X0192716Y0194361D01*
X0193639Y0195960D02*
X0142321Y0195960D01*
X0143920Y0194361D02*
X0144257Y0194361D01*
X0147490Y0194361D02*
X0147858Y0194361D01*
X0147858Y0192763D02*
X0147490Y0192763D01*
X0147490Y0191164D02*
X0147858Y0191164D01*
X0147858Y0189566D02*
X0147490Y0189566D01*
X0147490Y0187967D02*
X0147858Y0187967D01*
X0147858Y0186369D02*
X0147490Y0186369D01*
X0147490Y0184770D02*
X0147858Y0184770D01*
X0147858Y0183172D02*
X0147490Y0183172D01*
X0144339Y0183172D02*
X0143837Y0183172D01*
X0137674Y0178060D02*
X0137674Y0188808D01*
X0133027Y0195960D02*
X0132321Y0195960D01*
X0127674Y0188808D02*
X0127674Y0178060D01*
X0131198Y0174536D01*
X0131198Y0140580D01*
X0130213Y0139595D01*
X0125952Y0139595D01*
X0125952Y0136446D02*
X0131493Y0136446D01*
X0134642Y0139595D01*
X0134642Y0175028D01*
X0137674Y0178060D01*
X0140548Y0171091D02*
X0139564Y0170107D01*
X0139564Y0163709D01*
X0142823Y0161556D02*
X0144485Y0163217D01*
X0148422Y0163217D01*
X0144682Y0166957D01*
X0144682Y0171091D01*
X0140548Y0171091D01*
X0142823Y0161556D02*
X0142823Y0155343D01*
X0148422Y0163217D02*
X0175981Y0163217D01*
X0179918Y0159280D01*
X0179918Y0104162D01*
X0172351Y0096595D01*
X0164170Y0096595D01*
X0150698Y0096595D01*
X0144485Y0090383D01*
X0144485Y0082202D01*
X0138272Y0082202D01*
X0136611Y0080540D01*
X0136611Y0072666D01*
X0135036Y0071091D01*
X0128737Y0071091D01*
X0136611Y0072666D02*
X0136611Y0064792D01*
X0130909Y0060086D02*
X0124958Y0060086D01*
X0125190Y0059526D02*
X0124460Y0061291D01*
X0123109Y0062641D01*
X0121345Y0063372D01*
X0114746Y0063372D01*
X0119521Y0068147D01*
X0119521Y0075059D01*
X0117977Y0076603D01*
X0119521Y0078147D01*
X0119521Y0085059D01*
X0114634Y0089946D01*
X0107722Y0089946D01*
X0106178Y0088402D01*
X0104634Y0089946D01*
X0097722Y0089946D01*
X0096178Y0088402D01*
X0094634Y0089946D01*
X0089061Y0089946D01*
X0089061Y0090887D01*
X0089987Y0090504D01*
X0097014Y0090504D01*
X0097241Y0090598D01*
X0097467Y0090504D01*
X0104495Y0090504D01*
X0106259Y0091235D01*
X0107083Y0092059D01*
X0107908Y0091235D01*
X0109672Y0090504D01*
X0116700Y0090504D01*
X0118464Y0091235D01*
X0119733Y0092504D01*
X0120186Y0092504D01*
X0120186Y0093484D01*
X0120545Y0094349D01*
X0120545Y0097777D01*
X0121146Y0097777D01*
X0121146Y0092504D01*
X0123501Y0092504D01*
X0124042Y0092612D01*
X0124551Y0092823D01*
X0125010Y0093129D01*
X0125400Y0093519D01*
X0125681Y0093940D01*
X0126242Y0092585D01*
X0127593Y0091235D01*
X0129357Y0090504D01*
X0136385Y0090504D01*
X0138149Y0091235D01*
X0139220Y0092306D01*
X0138885Y0091497D01*
X0138885Y0089697D01*
X0138217Y0089420D01*
X0136866Y0088070D01*
X0136672Y0087600D01*
X0135100Y0086949D01*
X0134754Y0086603D01*
X0134455Y0087049D01*
X0134065Y0087439D01*
X0133606Y0087746D01*
X0133097Y0087957D01*
X0132556Y0088065D01*
X0129512Y0088065D01*
X0129512Y0082890D01*
X0127962Y0082890D01*
X0127962Y0088065D01*
X0124918Y0088065D01*
X0124377Y0087957D01*
X0123867Y0087746D01*
X0123409Y0087439D01*
X0123019Y0087049D01*
X0122712Y0086591D01*
X0122501Y0086081D01*
X0122394Y0085540D01*
X0122394Y0082890D01*
X0127962Y0082890D01*
X0127962Y0081340D01*
X0122394Y0081340D01*
X0122394Y0078690D01*
X0122470Y0078306D01*
X0121124Y0076960D01*
X0120394Y0075196D01*
X0120394Y0066987D01*
X0121124Y0065223D01*
X0122475Y0063872D01*
X0124239Y0063142D01*
X0129252Y0063142D01*
X0129252Y0061744D01*
X0133230Y0057766D01*
X0132426Y0056962D01*
X0131086Y0056962D01*
X0131086Y0051591D01*
X0130718Y0051591D01*
X0130718Y0056962D01*
X0128658Y0056962D01*
X0128117Y0056855D01*
X0127607Y0056644D01*
X0127149Y0056337D01*
X0126759Y0055947D01*
X0126452Y0055488D01*
X0126241Y0054979D01*
X0126134Y0054438D01*
X0126134Y0051591D01*
X0130718Y0051591D01*
X0130718Y0051222D01*
X0126134Y0051222D01*
X0126134Y0048375D01*
X0126140Y0048345D01*
X0125545Y0048345D01*
X0124539Y0049351D01*
X0125190Y0050924D01*
X0125190Y0059526D01*
X0125190Y0058488D02*
X0132508Y0058488D01*
X0131086Y0056889D02*
X0130718Y0056889D01*
X0130718Y0055291D02*
X0131086Y0055291D01*
X0131086Y0053692D02*
X0130718Y0053692D01*
X0130718Y0052094D02*
X0131086Y0052094D01*
X0126134Y0052094D02*
X0125190Y0052094D01*
X0125190Y0053692D02*
X0126134Y0053692D01*
X0126371Y0055291D02*
X0125190Y0055291D01*
X0125190Y0056889D02*
X0128292Y0056889D01*
X0129311Y0061685D02*
X0124065Y0061685D01*
X0124800Y0062824D02*
X0120863Y0066761D01*
X0120863Y0086446D01*
X0124800Y0090383D01*
X0120666Y0094517D01*
X0120666Y0098257D01*
X0120666Y0104359D01*
X0116926Y0108099D01*
X0112989Y0108099D01*
X0110627Y0110461D01*
X0110627Y0114821D01*
X0110627Y0137627D01*
X0113776Y0140776D01*
X0113776Y0148621D01*
X0110627Y0148621D02*
X0110627Y0152489D01*
X0112497Y0154359D01*
X0106099Y0154359D01*
X0104327Y0152587D01*
X0104327Y0148621D01*
X0107477Y0148621D02*
X0107477Y0141170D01*
X0110627Y0138020D01*
X0110627Y0137627D01*
X0111535Y0138413D02*
X0099452Y0138413D01*
X0099452Y0136815D02*
X0111535Y0136815D01*
X0111535Y0136547D02*
X0115846Y0132236D01*
X0118652Y0132236D01*
X0118652Y0131357D01*
X0118652Y0122121D01*
X0111837Y0122121D01*
X0110627Y0121620D01*
X0109416Y0122121D01*
X0107891Y0122121D01*
X0108537Y0122768D01*
X0108537Y0128864D01*
X0104226Y0133175D01*
X0099452Y0133175D01*
X0099452Y0141321D01*
X0106266Y0141321D01*
X0107477Y0141823D01*
X0108688Y0141321D01*
X0111535Y0141321D01*
X0111535Y0136547D01*
X0112866Y0135216D02*
X0099452Y0135216D01*
X0099452Y0133618D02*
X0114464Y0133618D01*
X0118652Y0132019D02*
X0105381Y0132019D01*
X0106980Y0130421D02*
X0118652Y0130421D01*
X0118652Y0128822D02*
X0108537Y0128822D01*
X0108537Y0127224D02*
X0118652Y0127224D01*
X0118652Y0125625D02*
X0108537Y0125625D01*
X0108537Y0124027D02*
X0118652Y0124027D01*
X0118652Y0122428D02*
X0108198Y0122428D01*
X0107477Y0114821D02*
X0107477Y0106721D01*
X0108068Y0106131D01*
X0101178Y0106131D02*
X0109052Y0098257D01*
X0113186Y0098257D01*
X0109052Y0098257D02*
X0100981Y0098257D01*
X0093501Y0098257D02*
X0093343Y0098099D01*
X0087241Y0098099D01*
X0083461Y0094320D01*
X0083461Y0054950D01*
X0079831Y0051320D01*
X0075587Y0051320D01*
X0083461Y0054950D02*
X0089367Y0049044D01*
X0096726Y0048897D02*
X0111860Y0048897D01*
X0111597Y0049160D02*
X0112428Y0048328D01*
X0112428Y0046828D01*
X0113281Y0044770D01*
X0114167Y0043883D01*
X0097073Y0043883D01*
X0095309Y0043153D01*
X0093959Y0041802D01*
X0093228Y0040038D01*
X0093228Y0033785D01*
X0088978Y0033785D01*
X0086295Y0032674D01*
X0083340Y0029719D01*
X0083340Y0031950D01*
X0085431Y0032816D01*
X0088394Y0035780D01*
X0088478Y0035780D01*
X0092789Y0040090D01*
X0092789Y0042059D01*
X0096726Y0045996D01*
X0096726Y0049257D01*
X0096897Y0049186D01*
X0097437Y0049079D01*
X0099694Y0049079D01*
X0099694Y0054844D01*
X0094913Y0054844D01*
X0094913Y0053905D01*
X0092415Y0056403D01*
X0089927Y0056403D01*
X0089061Y0057269D01*
X0089061Y0065621D01*
X0089692Y0065416D01*
X0090679Y0065260D01*
X0090994Y0065260D01*
X0090994Y0071419D01*
X0091362Y0071419D01*
X0091362Y0065260D01*
X0091677Y0065260D01*
X0092663Y0065416D01*
X0093613Y0065725D01*
X0094502Y0066178D01*
X0094677Y0066305D01*
X0097722Y0063260D01*
X0104634Y0063260D01*
X0106178Y0064804D01*
X0107722Y0063260D01*
X0114441Y0063260D01*
X0112947Y0062641D01*
X0111597Y0061291D01*
X0110866Y0059526D01*
X0110866Y0050924D01*
X0111597Y0049160D01*
X0111044Y0050495D02*
X0104881Y0050495D01*
X0104919Y0050552D02*
X0105130Y0051062D01*
X0105238Y0051603D01*
X0105238Y0054844D01*
X0100457Y0054844D01*
X0100457Y0055606D01*
X0105238Y0055606D01*
X0105238Y0058847D01*
X0105130Y0059388D01*
X0104919Y0059898D01*
X0104613Y0060357D01*
X0104223Y0060747D01*
X0103764Y0061053D01*
X0103254Y0061264D01*
X0102713Y0061372D01*
X0100457Y0061372D01*
X0100457Y0055606D01*
X0099694Y0055606D01*
X0099694Y0054844D01*
X0100457Y0054844D01*
X0100457Y0049079D01*
X0102713Y0049079D01*
X0103254Y0049186D01*
X0103764Y0049397D01*
X0104223Y0049704D01*
X0104613Y0050094D01*
X0104919Y0050552D01*
X0105238Y0052094D02*
X0110866Y0052094D01*
X0110866Y0053692D02*
X0105238Y0053692D01*
X0105238Y0056889D02*
X0110866Y0056889D01*
X0110866Y0055291D02*
X0100457Y0055291D01*
X0099694Y0055291D02*
X0093527Y0055291D01*
X0094913Y0055606D02*
X0094913Y0058847D01*
X0095021Y0059388D01*
X0095232Y0059898D01*
X0095538Y0060357D01*
X0095928Y0060747D01*
X0096387Y0061053D01*
X0096897Y0061264D01*
X0097437Y0061372D01*
X0099694Y0061372D01*
X0099694Y0055606D01*
X0094913Y0055606D01*
X0094913Y0056889D02*
X0089441Y0056889D01*
X0089061Y0058488D02*
X0094913Y0058488D01*
X0095358Y0060086D02*
X0089061Y0060086D01*
X0089061Y0061685D02*
X0111991Y0061685D01*
X0111098Y0060086D02*
X0104793Y0060086D01*
X0105238Y0058488D02*
X0110866Y0058488D01*
X0107698Y0063283D02*
X0104657Y0063283D01*
X0100457Y0060086D02*
X0099694Y0060086D01*
X0099694Y0058488D02*
X0100457Y0058488D01*
X0100457Y0056889D02*
X0099694Y0056889D01*
X0099694Y0053692D02*
X0100457Y0053692D01*
X0100457Y0052094D02*
X0099694Y0052094D01*
X0099694Y0050495D02*
X0100457Y0050495D01*
X0096726Y0047298D02*
X0112428Y0047298D01*
X0112895Y0045700D02*
X0096430Y0045700D01*
X0094831Y0044101D02*
X0113949Y0044101D01*
X0118028Y0047942D02*
X0123225Y0042745D01*
X0134642Y0042745D01*
X0134642Y0032989D01*
X0142992Y0032912D02*
X0152470Y0032912D01*
X0152470Y0033382D02*
X0152470Y0032029D01*
X0153823Y0032029D01*
X0153823Y0025969D01*
X0155260Y0025969D01*
X0155534Y0025694D01*
X0153569Y0025694D01*
X0151805Y0024964D01*
X0150455Y0023613D01*
X0149724Y0021849D01*
X0149724Y0013247D01*
X0150455Y0011483D01*
X0150901Y0011037D01*
X0145938Y0011037D01*
X0145938Y0016659D01*
X0142992Y0019606D01*
X0142992Y0025897D01*
X0142373Y0027391D01*
X0142992Y0028885D01*
X0142992Y0033811D01*
X0147394Y0033811D01*
X0147394Y0033382D01*
X0152470Y0033382D01*
X0152470Y0034510D02*
X0153823Y0034510D01*
X0153823Y0036109D02*
X0152470Y0036109D01*
X0152470Y0037707D02*
X0153823Y0037707D01*
X0153823Y0039306D02*
X0152470Y0039306D01*
X0152704Y0040904D02*
X0156994Y0040904D01*
X0152470Y0032029D02*
X0147394Y0032029D01*
X0147394Y0028493D01*
X0147501Y0027952D01*
X0147712Y0027442D01*
X0148019Y0026984D01*
X0148409Y0026594D01*
X0148867Y0026287D01*
X0149377Y0026076D01*
X0149918Y0025969D01*
X0152470Y0025968D01*
X0152470Y0032029D01*
X0152470Y0031313D02*
X0153823Y0031313D01*
X0153823Y0029715D02*
X0152470Y0029715D01*
X0152470Y0028116D02*
X0153823Y0028116D01*
X0153823Y0026518D02*
X0152470Y0026518D01*
X0151761Y0024919D02*
X0142992Y0024919D01*
X0142992Y0023321D02*
X0150334Y0023321D01*
X0149724Y0021722D02*
X0142992Y0021722D01*
X0142992Y0020124D02*
X0149724Y0020124D01*
X0149724Y0018525D02*
X0144073Y0018525D01*
X0145671Y0016927D02*
X0149724Y0016927D01*
X0149724Y0015328D02*
X0145938Y0015328D01*
X0145938Y0013730D02*
X0149724Y0013730D01*
X0150186Y0012131D02*
X0145938Y0012131D01*
X0148522Y0026518D02*
X0142734Y0026518D01*
X0142673Y0028116D02*
X0147468Y0028116D01*
X0147394Y0029715D02*
X0142992Y0029715D01*
X0142992Y0031313D02*
X0147394Y0031313D01*
X0140942Y0051406D02*
X0138383Y0051406D01*
X0140942Y0051406D02*
X0144485Y0054950D01*
X0144485Y0060855D01*
X0154635Y0071005D01*
X0164170Y0071005D01*
X0164170Y0082202D02*
X0156603Y0082202D01*
X0152359Y0086446D01*
X0140351Y0092154D02*
X0140351Y0098257D01*
X0140548Y0098454D01*
X0140548Y0115383D01*
X0141323Y0116034D02*
X0157008Y0116034D01*
X0157008Y0114436D02*
X0146497Y0114436D01*
X0146497Y0114608D02*
X0146497Y0110579D01*
X0146390Y0110038D01*
X0146179Y0109529D01*
X0145872Y0109070D01*
X0145482Y0108680D01*
X0145024Y0108374D01*
X0144514Y0108163D01*
X0143973Y0108055D01*
X0141323Y0108055D01*
X0141323Y0114608D01*
X0141323Y0116157D01*
X0146497Y0116157D01*
X0146497Y0120186D01*
X0146390Y0120727D01*
X0146179Y0121237D01*
X0145872Y0121695D01*
X0145482Y0122085D01*
X0145024Y0122392D01*
X0144514Y0122603D01*
X0143973Y0122710D01*
X0141323Y0122710D01*
X0141323Y0116158D01*
X0139773Y0116158D01*
X0139773Y0122710D01*
X0138274Y0122710D01*
X0138274Y0127696D01*
X0139300Y0127696D01*
X0141358Y0128549D01*
X0143667Y0130858D01*
X0144652Y0130858D01*
X0146416Y0131589D01*
X0147767Y0132939D01*
X0148497Y0134703D01*
X0148497Y0141869D01*
X0155441Y0141869D01*
X0155827Y0142029D01*
X0155827Y0141003D01*
X0156557Y0139238D01*
X0157903Y0137893D01*
X0157827Y0137509D01*
X0157827Y0134858D01*
X0163395Y0134858D01*
X0163395Y0133309D01*
X0157827Y0133309D01*
X0157827Y0130658D01*
X0157934Y0130117D01*
X0158145Y0129608D01*
X0158452Y0129149D01*
X0158842Y0128759D01*
X0159008Y0128648D01*
X0159008Y0126394D01*
X0163789Y0126394D01*
X0163789Y0131175D01*
X0163395Y0131175D01*
X0163395Y0133309D01*
X0164945Y0133309D01*
X0164945Y0134858D01*
X0170513Y0134858D01*
X0170513Y0137509D01*
X0170437Y0137893D01*
X0171782Y0139238D01*
X0172513Y0141003D01*
X0172513Y0147984D01*
X0174318Y0147984D01*
X0174318Y0106482D01*
X0172519Y0104683D01*
X0172519Y0111897D01*
X0171788Y0113661D01*
X0171241Y0114208D01*
X0171332Y0114428D01*
X0171332Y0121062D01*
X0170601Y0122826D01*
X0169332Y0124095D01*
X0169332Y0125631D01*
X0164551Y0125631D01*
X0164551Y0126394D01*
X0163789Y0126394D01*
X0163789Y0125631D01*
X0159008Y0125631D01*
X0159008Y0124095D01*
X0157738Y0122826D01*
X0157008Y0121062D01*
X0157008Y0114428D01*
X0157099Y0114208D01*
X0156551Y0113661D01*
X0155821Y0111897D01*
X0155821Y0103688D01*
X0156439Y0102195D01*
X0149584Y0102195D01*
X0147525Y0101343D01*
X0145710Y0099527D01*
X0145710Y0101485D01*
X0145602Y0102026D01*
X0145391Y0102536D01*
X0145085Y0102994D01*
X0144695Y0103384D01*
X0144236Y0103691D01*
X0143727Y0103902D01*
X0143186Y0104009D01*
X0140831Y0104009D01*
X0140831Y0098736D01*
X0140230Y0098736D01*
X0140230Y0102164D01*
X0139871Y0103029D01*
X0139871Y0104009D01*
X0139418Y0104009D01*
X0138471Y0104957D01*
X0138471Y0105079D01*
X0137618Y0107137D01*
X0136596Y0108160D01*
X0137123Y0108055D01*
X0139773Y0108055D01*
X0139773Y0114608D01*
X0141323Y0114608D01*
X0146497Y0114608D01*
X0146497Y0112837D02*
X0156210Y0112837D01*
X0155821Y0111239D02*
X0146497Y0111239D01*
X0146225Y0109640D02*
X0155821Y0109640D01*
X0155821Y0108042D02*
X0136714Y0108042D01*
X0137906Y0106443D02*
X0155821Y0106443D01*
X0155821Y0104845D02*
X0138583Y0104845D01*
X0139871Y0103246D02*
X0140831Y0103246D01*
X0140831Y0101648D02*
X0140230Y0101648D01*
X0140230Y0100049D02*
X0140831Y0100049D01*
X0145710Y0100049D02*
X0146232Y0100049D01*
X0145678Y0101648D02*
X0148262Y0101648D01*
X0144833Y0103246D02*
X0156004Y0103246D01*
X0164170Y0107792D02*
X0164170Y0117745D01*
X0157574Y0122428D02*
X0144935Y0122428D01*
X0146347Y0120830D02*
X0157008Y0120830D01*
X0157008Y0119231D02*
X0146497Y0119231D01*
X0146497Y0117633D02*
X0157008Y0117633D01*
X0158939Y0124027D02*
X0138274Y0124027D01*
X0138274Y0125625D02*
X0159008Y0125625D01*
X0159008Y0127224D02*
X0138274Y0127224D01*
X0141632Y0128822D02*
X0158778Y0128822D01*
X0157874Y0130421D02*
X0143230Y0130421D01*
X0146847Y0132019D02*
X0157827Y0132019D01*
X0157827Y0135216D02*
X0148497Y0135216D01*
X0148497Y0136815D02*
X0157827Y0136815D01*
X0157382Y0138413D02*
X0148497Y0138413D01*
X0148497Y0140012D02*
X0156237Y0140012D01*
X0155827Y0141610D02*
X0148497Y0141610D01*
X0154327Y0147469D02*
X0142516Y0147469D01*
X0140548Y0145501D01*
X0140548Y0140186D01*
X0140548Y0135658D01*
X0138186Y0133296D01*
X0130705Y0133296D01*
X0132674Y0131328D01*
X0132674Y0115973D01*
X0130705Y0114005D01*
X0126768Y0114005D01*
X0126768Y0106131D02*
X0130705Y0106131D01*
X0132871Y0103965D01*
X0132871Y0098257D01*
X0138971Y0092057D02*
X0139117Y0092057D01*
X0140351Y0092154D02*
X0138579Y0090383D01*
X0132674Y0090383D01*
X0128737Y0086446D01*
X0128737Y0082115D01*
X0127962Y0082466D02*
X0119521Y0082466D01*
X0119521Y0084064D02*
X0122394Y0084064D01*
X0122418Y0085663D02*
X0118918Y0085663D01*
X0117319Y0087261D02*
X0123230Y0087261D01*
X0124800Y0090383D02*
X0132674Y0090383D01*
X0134243Y0087261D02*
X0135854Y0087261D01*
X0137656Y0088860D02*
X0115721Y0088860D01*
X0119286Y0092057D02*
X0126771Y0092057D01*
X0125799Y0093655D02*
X0125491Y0093655D01*
X0121146Y0093655D02*
X0120257Y0093655D01*
X0120545Y0095254D02*
X0121146Y0095254D01*
X0121146Y0096852D02*
X0120545Y0096852D01*
X0127962Y0087261D02*
X0129512Y0087261D01*
X0129512Y0085663D02*
X0127962Y0085663D01*
X0127962Y0084064D02*
X0129512Y0084064D01*
X0122394Y0080867D02*
X0119521Y0080867D01*
X0119521Y0079269D02*
X0122394Y0079269D01*
X0121834Y0077670D02*
X0119044Y0077670D01*
X0118509Y0076072D02*
X0120756Y0076072D01*
X0120394Y0074473D02*
X0119521Y0074473D01*
X0119521Y0072874D02*
X0120394Y0072874D01*
X0120394Y0071276D02*
X0119521Y0071276D01*
X0119521Y0069677D02*
X0120394Y0069677D01*
X0120394Y0068079D02*
X0119453Y0068079D01*
X0120603Y0066480D02*
X0117854Y0066480D01*
X0116256Y0064882D02*
X0121465Y0064882D01*
X0121558Y0063283D02*
X0123897Y0063283D01*
X0118028Y0055225D02*
X0118028Y0047942D01*
X0124993Y0048897D02*
X0126134Y0048897D01*
X0126134Y0050495D02*
X0125013Y0050495D01*
X0144485Y0060855D02*
X0144485Y0071005D01*
X0138885Y0090458D02*
X0089061Y0090458D01*
X0095721Y0088860D02*
X0096635Y0088860D01*
X0105721Y0088860D02*
X0106635Y0088860D01*
X0107081Y0092057D02*
X0107086Y0092057D01*
X0101178Y0106131D02*
X0101178Y0114821D01*
X0098028Y0114821D02*
X0098028Y0108887D01*
X0095272Y0106131D01*
X0089367Y0106131D01*
X0087241Y0098099D02*
X0073619Y0098099D01*
X0073619Y0108099D02*
X0065745Y0108099D01*
X0061808Y0104162D01*
X0061808Y0094320D01*
X0061808Y0088414D01*
X0059839Y0086446D01*
X0055902Y0086446D01*
X0053627Y0084170D01*
X0053627Y0080540D01*
X0057731Y0072191D02*
X0059495Y0072922D01*
X0060845Y0074272D01*
X0061576Y0076036D01*
X0061576Y0081104D01*
X0063011Y0081698D01*
X0064980Y0083667D01*
X0066555Y0085242D01*
X0067275Y0086981D01*
X0067275Y0085472D01*
X0068234Y0084513D01*
X0065275Y0081555D01*
X0065275Y0074643D01*
X0069930Y0069989D01*
X0069319Y0069735D01*
X0067969Y0068385D01*
X0067238Y0066621D01*
X0067238Y0058412D01*
X0067255Y0058372D01*
X0062697Y0058372D01*
X0058386Y0054061D01*
X0058386Y0047964D01*
X0058445Y0047905D01*
X0058445Y0044744D01*
X0057843Y0046196D01*
X0055318Y0048721D01*
X0052020Y0050087D01*
X0040100Y0050087D01*
X0036801Y0048721D01*
X0034276Y0046196D01*
X0033643Y0044668D01*
X0033643Y0057358D01*
X0034276Y0055829D01*
X0036801Y0053304D01*
X0040100Y0051938D01*
X0052020Y0051938D01*
X0055318Y0053304D01*
X0057843Y0055829D01*
X0059209Y0059127D01*
X0059209Y0062698D01*
X0057843Y0065996D01*
X0055318Y0068521D01*
X0052020Y0069887D01*
X0040100Y0069887D01*
X0036801Y0068521D01*
X0034276Y0065996D01*
X0033643Y0064468D01*
X0033643Y0177705D01*
X0036775Y0175897D01*
X0040299Y0174953D01*
X0043947Y0174953D01*
X0047471Y0175897D01*
X0050630Y0177721D01*
X0053210Y0180301D01*
X0055034Y0183460D01*
X0055978Y0186984D01*
X0055978Y0190632D01*
X0055034Y0194156D01*
X0053226Y0197287D01*
X0076763Y0197287D01*
X0076755Y0197282D01*
X0076365Y0196892D01*
X0076059Y0196433D01*
X0075848Y0195924D01*
X0075740Y0195383D01*
X0075740Y0193028D01*
X0081013Y0193028D01*
X0081013Y0192427D01*
X0077585Y0192427D01*
X0076720Y0192068D01*
X0075740Y0192068D01*
X0075740Y0191615D01*
X0074471Y0190346D01*
X0074018Y0189253D01*
X0073005Y0188240D01*
X0067588Y0182823D01*
X0066735Y0180764D01*
X0066735Y0175454D01*
X0061381Y0175454D01*
X0059616Y0174724D01*
X0058266Y0173373D01*
X0057535Y0171609D01*
X0057535Y0169750D01*
X0057046Y0170239D01*
X0055282Y0170970D01*
X0048255Y0170970D01*
X0046490Y0170239D01*
X0045221Y0168970D01*
X0044768Y0168970D01*
X0044768Y0167990D01*
X0044409Y0167125D01*
X0044409Y0163697D01*
X0043809Y0163697D01*
X0043809Y0168970D01*
X0041453Y0168970D01*
X0040912Y0168862D01*
X0040403Y0168651D01*
X0039944Y0168345D01*
X0039554Y0167955D01*
X0039248Y0167496D01*
X0039037Y0166987D01*
X0038929Y0166446D01*
X0038929Y0163697D01*
X0043808Y0163697D01*
X0043808Y0162738D01*
X0038929Y0162738D01*
X0038929Y0159989D01*
X0039037Y0159448D01*
X0039248Y0158938D01*
X0039554Y0158480D01*
X0039944Y0158090D01*
X0040403Y0157783D01*
X0040470Y0157755D01*
X0039004Y0157755D01*
X0038463Y0157648D01*
X0037954Y0157437D01*
X0037495Y0157130D01*
X0037105Y0156740D01*
X0036799Y0156282D01*
X0036588Y0155772D01*
X0036480Y0155231D01*
X0036480Y0152181D01*
X0041655Y0152181D01*
X0041655Y0150631D01*
X0036480Y0150631D01*
X0036480Y0147581D01*
X0036588Y0147040D01*
X0036799Y0146531D01*
X0037105Y0146072D01*
X0037495Y0145682D01*
X0037954Y0145376D01*
X0038463Y0145165D01*
X0039004Y0145057D01*
X0040470Y0145057D01*
X0040403Y0145029D01*
X0039944Y0144723D01*
X0039554Y0144333D01*
X0039248Y0143874D01*
X0039037Y0143365D01*
X0038929Y0142824D01*
X0038929Y0140075D01*
X0043808Y0140075D01*
X0043808Y0139116D01*
X0038929Y0139116D01*
X0038929Y0136367D01*
X0039037Y0135826D01*
X0039248Y0135316D01*
X0039554Y0134858D01*
X0039944Y0134468D01*
X0040403Y0134161D01*
X0040470Y0134133D01*
X0039004Y0134133D01*
X0038463Y0134026D01*
X0037954Y0133815D01*
X0037495Y0133508D01*
X0037105Y0133118D01*
X0036799Y0132660D01*
X0036588Y0132150D01*
X0036480Y0131609D01*
X0036480Y0128559D01*
X0041655Y0128559D01*
X0041655Y0127009D01*
X0036480Y0127009D01*
X0036480Y0123959D01*
X0036588Y0123418D01*
X0036799Y0122909D01*
X0037105Y0122450D01*
X0037495Y0122060D01*
X0037954Y0121754D01*
X0038463Y0121543D01*
X0039004Y0121435D01*
X0040470Y0121435D01*
X0040403Y0121407D01*
X0039944Y0121101D01*
X0039554Y0120711D01*
X0039248Y0120252D01*
X0039037Y0119743D01*
X0038929Y0119202D01*
X0038929Y0116453D01*
X0043808Y0116453D01*
X0043808Y0115494D01*
X0038929Y0115494D01*
X0038929Y0112745D01*
X0039037Y0112204D01*
X0039248Y0111694D01*
X0039554Y0111236D01*
X0039944Y0110846D01*
X0040403Y0110539D01*
X0040470Y0110511D01*
X0039004Y0110511D01*
X0038463Y0110404D01*
X0037954Y0110193D01*
X0037495Y0109886D01*
X0037105Y0109496D01*
X0036799Y0109038D01*
X0036588Y0108528D01*
X0036480Y0107987D01*
X0036480Y0104937D01*
X0041655Y0104937D01*
X0041655Y0103387D01*
X0036480Y0103387D01*
X0036480Y0100337D01*
X0036588Y0099796D01*
X0036799Y0099287D01*
X0037105Y0098828D01*
X0037495Y0098438D01*
X0037954Y0098132D01*
X0038463Y0097921D01*
X0039004Y0097813D01*
X0040470Y0097813D01*
X0040403Y0097785D01*
X0039944Y0097479D01*
X0039554Y0097089D01*
X0039248Y0096630D01*
X0039037Y0096121D01*
X0038929Y0095580D01*
X0038929Y0092831D01*
X0043808Y0092831D01*
X0043808Y0091872D01*
X0038929Y0091872D01*
X0038929Y0089123D01*
X0039037Y0088582D01*
X0039248Y0088072D01*
X0039554Y0087614D01*
X0039944Y0087224D01*
X0040403Y0086917D01*
X0040470Y0086889D01*
X0039004Y0086889D01*
X0038463Y0086782D01*
X0037954Y0086571D01*
X0037495Y0086264D01*
X0037105Y0085874D01*
X0036799Y0085416D01*
X0036588Y0084906D01*
X0036480Y0084365D01*
X0036480Y0081315D01*
X0041655Y0081315D01*
X0041655Y0079765D01*
X0043205Y0079765D01*
X0043205Y0074191D01*
X0045855Y0074191D01*
X0046396Y0074299D01*
X0046397Y0074299D01*
X0046408Y0074272D01*
X0047758Y0072922D01*
X0049522Y0072191D01*
X0057731Y0072191D01*
X0059381Y0072874D02*
X0067044Y0072874D01*
X0068643Y0071276D02*
X0033643Y0071276D01*
X0033643Y0072874D02*
X0047872Y0072874D01*
X0048028Y0070698D02*
X0042430Y0076296D01*
X0042430Y0080540D01*
X0036217Y0080540D01*
X0034249Y0082509D01*
X0034249Y0094320D01*
X0036217Y0092351D01*
X0044288Y0092351D01*
X0043808Y0092057D02*
X0033643Y0092057D01*
X0033643Y0093655D02*
X0038929Y0093655D01*
X0038929Y0095254D02*
X0033643Y0095254D01*
X0034249Y0094320D02*
X0034249Y0106131D01*
X0036217Y0104162D01*
X0042430Y0104162D01*
X0041655Y0104845D02*
X0033643Y0104845D01*
X0034249Y0106131D02*
X0034249Y0117942D01*
X0036217Y0115973D01*
X0044288Y0115973D01*
X0043808Y0116034D02*
X0033643Y0116034D01*
X0033643Y0114436D02*
X0038929Y0114436D01*
X0038929Y0112837D02*
X0033643Y0112837D01*
X0033643Y0111239D02*
X0039552Y0111239D01*
X0037249Y0109640D02*
X0033643Y0109640D01*
X0033643Y0108042D02*
X0036491Y0108042D01*
X0036480Y0106443D02*
X0033643Y0106443D01*
X0033643Y0103246D02*
X0036480Y0103246D01*
X0036480Y0101648D02*
X0033643Y0101648D01*
X0033643Y0100049D02*
X0036537Y0100049D01*
X0037483Y0098451D02*
X0033643Y0098451D01*
X0033643Y0096852D02*
X0039396Y0096852D01*
X0038929Y0090458D02*
X0033643Y0090458D01*
X0033643Y0088860D02*
X0038981Y0088860D01*
X0039907Y0087261D02*
X0033643Y0087261D01*
X0033643Y0085663D02*
X0036964Y0085663D01*
X0036480Y0084064D02*
X0033643Y0084064D01*
X0033643Y0082466D02*
X0036480Y0082466D01*
X0036480Y0079765D02*
X0036480Y0076715D01*
X0036588Y0076174D01*
X0036799Y0075665D01*
X0037105Y0075206D01*
X0037495Y0074816D01*
X0037954Y0074510D01*
X0038463Y0074299D01*
X0039004Y0074191D01*
X0041655Y0074191D01*
X0041655Y0079765D01*
X0036480Y0079765D01*
X0036480Y0079269D02*
X0033643Y0079269D01*
X0033643Y0080867D02*
X0041655Y0080867D01*
X0041655Y0079269D02*
X0043205Y0079269D01*
X0043205Y0077670D02*
X0041655Y0077670D01*
X0041655Y0076072D02*
X0043205Y0076072D01*
X0043205Y0074473D02*
X0041655Y0074473D01*
X0038042Y0074473D02*
X0033643Y0074473D01*
X0033643Y0076072D02*
X0036630Y0076072D01*
X0036480Y0077670D02*
X0033643Y0077670D01*
X0033643Y0069677D02*
X0039593Y0069677D01*
X0036359Y0068079D02*
X0033643Y0068079D01*
X0033643Y0066480D02*
X0034760Y0066480D01*
X0033815Y0064882D02*
X0033643Y0064882D01*
X0033643Y0056889D02*
X0033837Y0056889D01*
X0033643Y0055291D02*
X0034814Y0055291D01*
X0033643Y0053692D02*
X0036413Y0053692D01*
X0033643Y0052094D02*
X0039723Y0052094D01*
X0037225Y0048897D02*
X0033643Y0048897D01*
X0033643Y0050495D02*
X0058386Y0050495D01*
X0058386Y0048897D02*
X0054894Y0048897D01*
X0056741Y0047298D02*
X0058445Y0047298D01*
X0058445Y0045700D02*
X0058049Y0045700D01*
X0058386Y0052094D02*
X0052396Y0052094D01*
X0055707Y0053692D02*
X0058386Y0053692D01*
X0057305Y0055291D02*
X0059616Y0055291D01*
X0058282Y0056889D02*
X0061214Y0056889D01*
X0058944Y0058488D02*
X0067238Y0058488D01*
X0067238Y0060086D02*
X0059209Y0060086D01*
X0059209Y0061685D02*
X0067238Y0061685D01*
X0067238Y0063283D02*
X0058967Y0063283D01*
X0058305Y0064882D02*
X0067238Y0064882D01*
X0067238Y0066480D02*
X0057359Y0066480D01*
X0055760Y0068079D02*
X0067842Y0068079D01*
X0069261Y0069677D02*
X0052527Y0069677D01*
X0048028Y0070698D02*
X0059839Y0070698D01*
X0065745Y0076603D01*
X0065745Y0086446D01*
X0067398Y0088099D01*
X0073619Y0088099D01*
X0067784Y0084064D02*
X0065377Y0084064D01*
X0066186Y0082466D02*
X0063779Y0082466D01*
X0065275Y0080867D02*
X0061576Y0080867D01*
X0061576Y0079269D02*
X0065275Y0079269D01*
X0065275Y0077670D02*
X0061576Y0077670D01*
X0061576Y0076072D02*
X0065275Y0076072D01*
X0065446Y0074473D02*
X0060929Y0074473D01*
X0066729Y0085663D02*
X0067275Y0085663D01*
X0073619Y0078099D02*
X0075587Y0076131D01*
X0075587Y0062517D01*
X0089061Y0063283D02*
X0097698Y0063283D01*
X0096100Y0064882D02*
X0089061Y0064882D01*
X0090994Y0066480D02*
X0091362Y0066480D01*
X0091362Y0068079D02*
X0090994Y0068079D01*
X0090994Y0069677D02*
X0091362Y0069677D01*
X0091362Y0071276D02*
X0090994Y0071276D01*
X0093233Y0042503D02*
X0094659Y0042503D01*
X0093587Y0040904D02*
X0092789Y0040904D01*
X0093228Y0039306D02*
X0092004Y0039306D01*
X0093228Y0037707D02*
X0090406Y0037707D01*
X0088807Y0036109D02*
X0093228Y0036109D01*
X0093228Y0034510D02*
X0087125Y0034510D01*
X0086869Y0032912D02*
X0085527Y0032912D01*
X0084934Y0031313D02*
X0083340Y0031313D01*
X0035378Y0047298D02*
X0033643Y0047298D01*
X0033643Y0045700D02*
X0034071Y0045700D01*
X0051768Y0092351D02*
X0059839Y0092351D01*
X0061808Y0094320D01*
X0053627Y0104162D02*
X0053627Y0107792D01*
X0055902Y0110068D01*
X0059839Y0110068D01*
X0061808Y0112036D01*
X0061808Y0116131D01*
X0063776Y0118099D01*
X0059997Y0118099D01*
X0057871Y0115973D01*
X0051768Y0115973D01*
X0053627Y0127784D02*
X0053942Y0128099D01*
X0063776Y0128099D01*
X0061808Y0130068D01*
X0061808Y0133690D01*
X0055902Y0139595D01*
X0051768Y0139595D01*
X0059839Y0143532D02*
X0059839Y0149438D01*
X0057871Y0151406D01*
X0053627Y0151406D01*
X0059839Y0149438D02*
X0059839Y0161249D01*
X0057871Y0163217D01*
X0051768Y0163217D01*
X0044409Y0163990D02*
X0043809Y0163990D01*
X0044288Y0163217D02*
X0036217Y0163217D01*
X0034249Y0161249D01*
X0034249Y0169123D01*
X0038186Y0173060D01*
X0055902Y0173060D01*
X0059839Y0176997D01*
X0059839Y0188808D01*
X0063579Y0192548D01*
X0081493Y0192548D01*
X0101178Y0192548D01*
X0101375Y0192745D01*
X0109052Y0192745D01*
X0112989Y0196682D01*
X0160233Y0196682D01*
X0185823Y0171091D01*
X0185823Y0161249D01*
X0185353Y0160793D02*
X0213988Y0160793D01*
X0213988Y0162391D02*
X0184691Y0162391D01*
X0183128Y0163990D02*
X0213988Y0163990D01*
X0213988Y0165588D02*
X0181530Y0165588D01*
X0179931Y0167187D02*
X0213988Y0167187D01*
X0213988Y0168785D02*
X0177172Y0168785D01*
X0185518Y0159194D02*
X0213988Y0159194D01*
X0213988Y0157596D02*
X0185518Y0157596D01*
X0185518Y0155997D02*
X0213988Y0155997D01*
X0213988Y0154399D02*
X0185518Y0154399D01*
X0185518Y0152800D02*
X0213988Y0152800D01*
X0213988Y0151202D02*
X0185518Y0151202D01*
X0185518Y0149603D02*
X0213988Y0149603D01*
X0213988Y0170384D02*
X0157521Y0170384D01*
X0157521Y0171982D02*
X0213988Y0171982D01*
X0213988Y0173581D02*
X0157521Y0173581D01*
X0157282Y0175179D02*
X0202839Y0175179D01*
X0198635Y0176778D02*
X0155331Y0176778D01*
X0154020Y0155343D02*
X0155989Y0149131D01*
X0154327Y0147469D01*
X0164170Y0145107D02*
X0164170Y0151406D01*
X0168107Y0155343D01*
X0172044Y0155343D01*
X0172513Y0146406D02*
X0174318Y0146406D01*
X0174318Y0144807D02*
X0172513Y0144807D01*
X0172513Y0143209D02*
X0174318Y0143209D01*
X0174318Y0141610D02*
X0172513Y0141610D01*
X0172103Y0140012D02*
X0174318Y0140012D01*
X0174318Y0138413D02*
X0170957Y0138413D01*
X0170513Y0136815D02*
X0174318Y0136815D01*
X0174318Y0135216D02*
X0170513Y0135216D01*
X0170513Y0133309D02*
X0164945Y0133309D01*
X0164945Y0131175D01*
X0164551Y0131175D01*
X0164551Y0126394D01*
X0169332Y0126394D01*
X0169332Y0128648D01*
X0169498Y0128759D01*
X0169888Y0129149D01*
X0170195Y0129608D01*
X0170406Y0130117D01*
X0170513Y0130658D01*
X0170513Y0133309D01*
X0170513Y0132019D02*
X0174318Y0132019D01*
X0174318Y0130421D02*
X0170466Y0130421D01*
X0169562Y0128822D02*
X0174318Y0128822D01*
X0174318Y0127224D02*
X0169332Y0127224D01*
X0169332Y0125625D02*
X0174318Y0125625D01*
X0174318Y0124027D02*
X0169401Y0124027D01*
X0170766Y0122428D02*
X0174318Y0122428D01*
X0174318Y0120830D02*
X0171332Y0120830D01*
X0171332Y0119231D02*
X0174318Y0119231D01*
X0174318Y0117633D02*
X0171332Y0117633D01*
X0171332Y0116034D02*
X0174318Y0116034D01*
X0174318Y0114436D02*
X0171332Y0114436D01*
X0172129Y0112837D02*
X0174318Y0112837D01*
X0174318Y0111239D02*
X0172519Y0111239D01*
X0172519Y0109640D02*
X0174318Y0109640D01*
X0174318Y0108042D02*
X0172519Y0108042D01*
X0172519Y0106443D02*
X0174279Y0106443D01*
X0172681Y0104845D02*
X0172519Y0104845D01*
X0164551Y0127224D02*
X0163789Y0127224D01*
X0163789Y0128822D02*
X0164551Y0128822D01*
X0164551Y0130421D02*
X0163789Y0130421D01*
X0163395Y0132019D02*
X0164945Y0132019D01*
X0164945Y0133618D02*
X0174318Y0133618D01*
X0163395Y0133618D02*
X0148048Y0133618D01*
X0141323Y0122428D02*
X0139773Y0122428D01*
X0139773Y0120830D02*
X0141323Y0120830D01*
X0141323Y0119231D02*
X0139773Y0119231D01*
X0139773Y0117633D02*
X0141323Y0117633D01*
X0141323Y0114436D02*
X0139773Y0114436D01*
X0139773Y0112837D02*
X0141323Y0112837D01*
X0141323Y0111239D02*
X0139773Y0111239D01*
X0139773Y0109640D02*
X0141323Y0109640D01*
X0130705Y0133296D02*
X0125952Y0133296D01*
X0118894Y0139595D02*
X0120075Y0140776D01*
X0120075Y0148621D01*
X0121847Y0154359D02*
X0124800Y0157312D01*
X0124800Y0161249D01*
X0124800Y0175028D01*
X0117674Y0182154D01*
X0117674Y0188808D01*
X0111428Y0194361D02*
X0106931Y0194361D01*
X0106808Y0195960D02*
X0113027Y0195960D01*
X0109830Y0192763D02*
X0101657Y0192763D01*
X0100698Y0192763D02*
X0081972Y0192763D01*
X0081972Y0193028D02*
X0081972Y0192427D01*
X0085400Y0192427D01*
X0086265Y0192068D01*
X0087246Y0192068D01*
X0087246Y0191615D01*
X0088515Y0190346D01*
X0089246Y0188582D01*
X0089246Y0181554D01*
X0088515Y0179790D01*
X0087165Y0178439D01*
X0085400Y0177709D01*
X0078313Y0177709D01*
X0077935Y0177331D01*
X0077935Y0175454D01*
X0083290Y0175454D01*
X0085054Y0174724D01*
X0086405Y0173373D01*
X0087135Y0171609D01*
X0087135Y0162700D01*
X0086405Y0160935D01*
X0085054Y0159585D01*
X0083290Y0158854D01*
X0078027Y0158854D01*
X0082660Y0154221D01*
X0093356Y0154221D01*
X0094325Y0155190D01*
X0095578Y0155709D01*
X0095578Y0160394D01*
X0096034Y0161496D01*
X0095535Y0162700D01*
X0095535Y0171609D01*
X0096266Y0173373D01*
X0097616Y0174724D01*
X0099381Y0175454D01*
X0104735Y0175454D01*
X0104735Y0177709D01*
X0097270Y0177709D01*
X0095506Y0178439D01*
X0094156Y0179790D01*
X0093425Y0181554D01*
X0093425Y0188582D01*
X0094156Y0190346D01*
X0095425Y0191615D01*
X0095425Y0192068D01*
X0096405Y0192068D01*
X0097270Y0192427D01*
X0100698Y0192427D01*
X0100698Y0193028D01*
X0095425Y0193028D01*
X0095425Y0195383D01*
X0095533Y0195924D01*
X0095744Y0196433D01*
X0096050Y0196892D01*
X0096440Y0197282D01*
X0096448Y0197287D01*
X0086222Y0197287D01*
X0086230Y0197282D01*
X0086620Y0196892D01*
X0086927Y0196433D01*
X0087138Y0195924D01*
X0087246Y0195383D01*
X0087246Y0193028D01*
X0081972Y0193028D01*
X0081013Y0192763D02*
X0055407Y0192763D01*
X0055835Y0191164D02*
X0075289Y0191164D01*
X0074148Y0189566D02*
X0055978Y0189566D01*
X0055978Y0187967D02*
X0072733Y0187967D01*
X0071134Y0186369D02*
X0055813Y0186369D01*
X0055385Y0184770D02*
X0069536Y0184770D01*
X0067937Y0183172D02*
X0054867Y0183172D01*
X0053944Y0181573D02*
X0067070Y0181573D01*
X0066735Y0179975D02*
X0052884Y0179975D01*
X0051285Y0178376D02*
X0066735Y0178376D01*
X0066735Y0176778D02*
X0048996Y0176778D01*
X0044792Y0175179D02*
X0060716Y0175179D01*
X0058473Y0173581D02*
X0033643Y0173581D01*
X0033643Y0175179D02*
X0039453Y0175179D01*
X0035249Y0176778D02*
X0033643Y0176778D01*
X0033643Y0171982D02*
X0057690Y0171982D01*
X0057535Y0170384D02*
X0056698Y0170384D01*
X0046839Y0170384D02*
X0033643Y0170384D01*
X0033643Y0168785D02*
X0040726Y0168785D01*
X0039119Y0167187D02*
X0033643Y0167187D01*
X0033643Y0165588D02*
X0038929Y0165588D01*
X0038929Y0163990D02*
X0033643Y0163990D01*
X0033643Y0162391D02*
X0038929Y0162391D01*
X0038929Y0160793D02*
X0033643Y0160793D01*
X0034249Y0161249D02*
X0034249Y0153375D01*
X0036217Y0151406D01*
X0042430Y0151406D01*
X0041655Y0151202D02*
X0033643Y0151202D01*
X0033643Y0152800D02*
X0036480Y0152800D01*
X0036480Y0154399D02*
X0033643Y0154399D01*
X0034249Y0153375D02*
X0034249Y0143532D01*
X0038186Y0139595D01*
X0044288Y0139595D01*
X0043808Y0140012D02*
X0033643Y0140012D01*
X0033643Y0141610D02*
X0038929Y0141610D01*
X0039006Y0143209D02*
X0033643Y0143209D01*
X0034249Y0143532D02*
X0034249Y0129753D01*
X0036217Y0127784D01*
X0042430Y0127784D01*
X0041655Y0127224D02*
X0033643Y0127224D01*
X0033643Y0128822D02*
X0036480Y0128822D01*
X0036480Y0130421D02*
X0033643Y0130421D01*
X0034249Y0129753D02*
X0034249Y0117942D01*
X0033643Y0117633D02*
X0038929Y0117633D01*
X0038935Y0119231D02*
X0033643Y0119231D01*
X0033643Y0120830D02*
X0039673Y0120830D01*
X0037127Y0122428D02*
X0033643Y0122428D01*
X0033643Y0124027D02*
X0036480Y0124027D01*
X0036480Y0125625D02*
X0033643Y0125625D01*
X0033643Y0132019D02*
X0036562Y0132019D01*
X0037659Y0133618D02*
X0033643Y0133618D01*
X0033643Y0135216D02*
X0039314Y0135216D01*
X0038929Y0136815D02*
X0033643Y0136815D01*
X0033643Y0138413D02*
X0038929Y0138413D01*
X0040071Y0144807D02*
X0033643Y0144807D01*
X0033643Y0146406D02*
X0036882Y0146406D01*
X0036480Y0148005D02*
X0033643Y0148005D01*
X0033643Y0149603D02*
X0036480Y0149603D01*
X0036681Y0155997D02*
X0033643Y0155997D01*
X0033643Y0157596D02*
X0038337Y0157596D01*
X0039142Y0159194D02*
X0033643Y0159194D01*
X0043809Y0165588D02*
X0044409Y0165588D01*
X0044435Y0167187D02*
X0043809Y0167187D01*
X0043809Y0168785D02*
X0044768Y0168785D01*
X0054915Y0194361D02*
X0075740Y0194361D01*
X0075863Y0195960D02*
X0053992Y0195960D01*
X0072335Y0179650D02*
X0077753Y0185068D01*
X0081493Y0185068D01*
X0089246Y0184770D02*
X0093425Y0184770D01*
X0093425Y0183172D02*
X0089246Y0183172D01*
X0089246Y0181573D02*
X0093425Y0181573D01*
X0094079Y0179975D02*
X0088591Y0179975D01*
X0087012Y0178376D02*
X0095659Y0178376D01*
X0098716Y0175179D02*
X0083954Y0175179D01*
X0086197Y0173581D02*
X0096473Y0173581D01*
X0095690Y0171982D02*
X0086981Y0171982D01*
X0087135Y0170384D02*
X0095535Y0170384D01*
X0095535Y0168785D02*
X0087135Y0168785D01*
X0087135Y0167187D02*
X0095535Y0167187D01*
X0095535Y0165588D02*
X0087135Y0165588D01*
X0087135Y0163990D02*
X0095535Y0163990D01*
X0095663Y0162391D02*
X0087008Y0162391D01*
X0086262Y0160793D02*
X0095743Y0160793D01*
X0095578Y0159194D02*
X0084110Y0159194D01*
X0080885Y0155997D02*
X0095578Y0155997D01*
X0095578Y0157596D02*
X0079286Y0157596D01*
X0082483Y0154399D02*
X0093533Y0154399D01*
X0098028Y0148621D02*
X0080341Y0148621D01*
X0072335Y0156627D01*
X0072335Y0167154D01*
X0072335Y0179650D01*
X0077935Y0176778D02*
X0104735Y0176778D01*
X0110335Y0181619D02*
X0110335Y0167154D01*
X0110335Y0162532D01*
X0109052Y0161249D01*
X0103146Y0161249D01*
X0101178Y0159280D01*
X0101178Y0148621D01*
X0106965Y0141610D02*
X0107989Y0141610D01*
X0111535Y0140012D02*
X0099452Y0140012D01*
X0092152Y0139595D02*
X0087398Y0139595D01*
X0081493Y0133690D01*
X0081493Y0130737D01*
X0078855Y0128099D01*
X0073619Y0128099D01*
X0063776Y0128099D01*
X0063776Y0118099D02*
X0073619Y0118099D01*
X0081650Y0118099D01*
X0084446Y0120894D01*
X0084446Y0132706D01*
X0088186Y0136446D01*
X0092152Y0136446D01*
X0092152Y0133296D02*
X0088973Y0133296D01*
X0087398Y0131721D01*
X0087398Y0117942D01*
X0077556Y0108099D01*
X0073619Y0108099D01*
X0091335Y0114005D02*
X0092152Y0114821D01*
X0092152Y0120698D01*
X0092152Y0123847D02*
X0099209Y0123847D01*
X0101178Y0125816D01*
X0092152Y0142745D02*
X0078264Y0142745D01*
X0073619Y0138099D01*
X0065272Y0138099D01*
X0059839Y0143532D01*
X0101178Y0185068D02*
X0106886Y0185068D01*
X0110335Y0181619D01*
X0109331Y0191164D02*
X0107381Y0191164D01*
X0095425Y0194361D02*
X0087246Y0194361D01*
X0087123Y0195960D02*
X0095548Y0195960D01*
X0094974Y0191164D02*
X0087696Y0191164D01*
X0088838Y0189566D02*
X0093833Y0189566D01*
X0093425Y0187967D02*
X0089246Y0187967D01*
X0089246Y0186369D02*
X0093425Y0186369D01*
X0122321Y0195960D02*
X0123027Y0195960D01*
X0121847Y0154359D02*
X0112497Y0154359D01*
X0208178Y0175179D02*
X0213988Y0175179D01*
X0213988Y0176778D02*
X0212382Y0176778D01*
X0213988Y0053692D02*
X0174482Y0053692D01*
X0174265Y0052094D02*
X0213988Y0052094D01*
X0213988Y0050495D02*
X0173394Y0050495D01*
X0210406Y0048897D02*
X0213988Y0048897D01*
X0213988Y0047298D02*
X0212253Y0047298D01*
X0213560Y0045700D02*
X0213988Y0045700D01*
D32*
X0130902Y0051406D02*
X0130902Y0060658D01*
X0128737Y0062824D01*
X0124800Y0062824D01*
X0095115Y0062824D01*
X0091178Y0066761D01*
D33*
X0140548Y0115383D02*
X0140548Y0123847D01*
X0152359Y0135658D01*
X0153934Y0134083D01*
X0164170Y0134083D01*
X0164170Y0126013D01*
X0152359Y0135658D02*
X0152359Y0141564D01*
X0152162Y0171091D02*
X0152162Y0187036D01*
X0150390Y0188808D01*
X0147674Y0188808D01*
X0152949Y0057509D02*
X0150390Y0054950D01*
X0150390Y0047076D01*
X0144485Y0041170D01*
X0152949Y0057509D02*
X0162201Y0057509D01*
X0171257Y0032706D02*
X0171257Y0026603D01*
X0162201Y0017548D01*
X0158068Y0017548D01*
D34*
X0042123Y0019517D03*
X0205509Y0019517D03*
X0205509Y0188808D03*
X0042123Y0188808D03*
M02*
