G75*
%MOIN*%
%OFA0B0*%
%FSLAX25Y25*%
%IPPOS*%
%LPD*%
%AMOC8*
5,1,8,0,0,1.08239X$1,22.5*
%
%ADD10OC8,0.07087*%
%ADD11C,0.07087*%
%ADD12C,0.08350*%
%ADD13C,0.05000*%
%ADD14OC8,0.05118*%
%ADD15C,0.01600*%
%ADD16C,0.02400*%
%ADD17C,0.18110*%
D10*
X0073619Y0082436D03*
X0073619Y0092436D03*
X0073619Y0102436D03*
X0073619Y0112436D03*
X0073619Y0122436D03*
X0073619Y0132436D03*
X0073619Y0142436D03*
X0109800Y0183302D03*
X0119800Y0183302D03*
X0129800Y0183302D03*
X0139800Y0183302D03*
X0111178Y0085940D03*
X0101178Y0085940D03*
X0101178Y0075940D03*
X0111178Y0075940D03*
X0091178Y0085940D03*
D11*
X0091178Y0075940D03*
D12*
X0050235Y0065250D02*
X0041885Y0065250D01*
X0041885Y0045450D02*
X0050235Y0045450D01*
X0197397Y0045450D02*
X0205746Y0045450D01*
X0205746Y0065250D02*
X0197397Y0065250D01*
D13*
X0201572Y0065250D02*
X0185766Y0049444D01*
X0170075Y0049444D01*
X0191729Y0041570D02*
X0191729Y0029759D01*
X0183855Y0021885D01*
X0179918Y0017948D01*
X0138579Y0017948D01*
X0093304Y0017948D01*
X0085430Y0025822D01*
X0085430Y0047476D01*
X0065745Y0055350D02*
X0055845Y0065250D01*
X0046060Y0065250D01*
X0046117Y0045507D02*
X0046060Y0045450D01*
X0046117Y0045507D02*
X0053934Y0045507D01*
X0057871Y0041570D01*
X0057871Y0031235D01*
X0069682Y0017948D01*
X0093304Y0017948D01*
X0191729Y0041570D02*
X0195609Y0045450D01*
X0201572Y0045450D01*
D14*
X0183855Y0021885D03*
X0170075Y0049444D03*
X0144485Y0045507D03*
X0136611Y0069129D03*
X0152359Y0090783D03*
X0126768Y0110468D03*
X0126768Y0118342D03*
X0108068Y0110468D03*
X0091335Y0118342D03*
X0089367Y0110468D03*
X0101178Y0130153D03*
X0122831Y0161649D03*
X0114957Y0171491D03*
X0097241Y0183302D03*
X0135627Y0192161D03*
X0158264Y0159680D03*
X0152359Y0149838D03*
X0089367Y0053381D03*
X0085430Y0047476D03*
X0065745Y0055350D03*
X0057871Y0031235D03*
X0138579Y0017948D03*
D15*
X0103146Y0053381D02*
X0109052Y0059287D01*
X0109052Y0068972D01*
X0111178Y0071098D01*
X0111178Y0070940D01*
X0114957Y0067161D01*
X0134642Y0067161D01*
X0136611Y0069129D01*
X0152359Y0090783D02*
X0152359Y0130153D01*
X0148422Y0134090D01*
X0136611Y0134090D01*
X0132674Y0138027D01*
X0132674Y0159680D01*
X0130705Y0161649D01*
X0122831Y0161649D01*
X0114957Y0171491D02*
X0101178Y0171491D01*
X0097241Y0175428D01*
X0097241Y0183302D01*
X0097241Y0187239D01*
X0102162Y0192161D01*
X0135627Y0192161D01*
X0158264Y0159680D02*
X0203540Y0159680D01*
X0213383Y0149838D01*
X0213383Y0053381D01*
X0205451Y0045450D01*
X0201572Y0045450D01*
X0126768Y0110468D02*
X0108068Y0110468D01*
X0101178Y0100625D02*
X0107083Y0094720D01*
X0107083Y0090035D01*
X0111178Y0085940D01*
X0101178Y0085940D02*
X0101178Y0088814D01*
X0095272Y0094720D01*
X0095272Y0114405D01*
X0091335Y0118342D01*
X0089367Y0110468D02*
X0085430Y0106531D01*
X0085430Y0088814D01*
X0088304Y0085940D01*
X0091178Y0085940D01*
X0101178Y0075940D02*
X0101178Y0073066D01*
X0095272Y0067161D01*
X0069682Y0067161D01*
X0059839Y0077003D01*
X0059839Y0141964D01*
X0067713Y0149838D01*
X0081493Y0149838D01*
X0091335Y0139995D01*
X0114957Y0139995D01*
X0116926Y0138027D01*
X0116926Y0128184D01*
X0126768Y0118342D01*
X0101178Y0130153D02*
X0101178Y0100625D01*
X0111178Y0075940D02*
X0111178Y0071098D01*
X0103146Y0053381D02*
X0089367Y0053381D01*
D16*
X0094314Y0047444D02*
X0104327Y0047444D01*
X0106509Y0048348D01*
X0112415Y0054253D01*
X0114085Y0055924D01*
X0114989Y0058106D01*
X0114989Y0061224D01*
X0135555Y0061224D01*
X0138148Y0058630D01*
X0138148Y0050054D01*
X0136789Y0048695D01*
X0136789Y0042319D01*
X0141297Y0037811D01*
X0147673Y0037811D01*
X0152181Y0042319D01*
X0152181Y0048695D01*
X0150822Y0050054D01*
X0150822Y0062516D01*
X0149857Y0064845D01*
X0144307Y0070395D01*
X0144307Y0072317D01*
X0139799Y0076825D01*
X0133423Y0076825D01*
X0129696Y0073098D01*
X0119858Y0073098D01*
X0119858Y0079536D01*
X0118454Y0080940D01*
X0119858Y0082345D01*
X0119858Y0089536D01*
X0114773Y0094620D01*
X0113020Y0094620D01*
X0113020Y0095901D01*
X0112116Y0098083D01*
X0110446Y0099753D01*
X0107428Y0102772D01*
X0111255Y0102772D01*
X0113014Y0104531D01*
X0121821Y0104531D01*
X0123581Y0102772D01*
X0129956Y0102772D01*
X0134464Y0107280D01*
X0134464Y0113656D01*
X0133715Y0114405D01*
X0134464Y0115154D01*
X0134464Y0121530D01*
X0129956Y0126038D01*
X0127469Y0126038D01*
X0122863Y0130643D01*
X0122863Y0139208D01*
X0121959Y0141390D01*
X0120289Y0143060D01*
X0118320Y0145028D01*
X0116138Y0145932D01*
X0093794Y0145932D01*
X0084856Y0154871D01*
X0082674Y0155775D01*
X0066532Y0155775D01*
X0064350Y0154871D01*
X0062680Y0153201D01*
X0054806Y0145327D01*
X0053902Y0143145D01*
X0053902Y0075822D01*
X0054806Y0073640D01*
X0055156Y0073290D01*
X0052087Y0074561D01*
X0040033Y0074561D01*
X0036610Y0073144D01*
X0033991Y0070524D01*
X0033980Y0070499D01*
X0033980Y0181458D01*
X0036645Y0179920D01*
X0040254Y0178953D01*
X0043991Y0178953D01*
X0047601Y0179920D01*
X0050837Y0181788D01*
X0053479Y0184431D01*
X0055348Y0187667D01*
X0056315Y0191276D01*
X0056315Y0195013D01*
X0055348Y0198623D01*
X0053809Y0201287D01*
X0193822Y0201287D01*
X0192284Y0198623D01*
X0191316Y0195013D01*
X0191316Y0191276D01*
X0192284Y0187667D01*
X0194152Y0184431D01*
X0196794Y0181788D01*
X0200031Y0179920D01*
X0203640Y0178953D01*
X0207377Y0178953D01*
X0210986Y0179920D01*
X0213651Y0181458D01*
X0213651Y0157965D01*
X0206903Y0164713D01*
X0204721Y0165617D01*
X0163211Y0165617D01*
X0161452Y0167376D01*
X0155077Y0167376D01*
X0150568Y0162868D01*
X0150568Y0156492D01*
X0155077Y0151984D01*
X0161452Y0151984D01*
X0163211Y0153743D01*
X0201081Y0153743D01*
X0207446Y0147379D01*
X0207446Y0072429D01*
X0207188Y0072498D01*
X0206230Y0072624D01*
X0201672Y0072624D01*
X0201672Y0065350D01*
X0201471Y0065350D01*
X0201471Y0065150D01*
X0190022Y0065150D01*
X0190022Y0064766D01*
X0190148Y0063808D01*
X0190398Y0062874D01*
X0190768Y0061981D01*
X0191252Y0061144D01*
X0191840Y0060377D01*
X0192524Y0059693D01*
X0193291Y0059105D01*
X0194128Y0058621D01*
X0195021Y0058251D01*
X0195955Y0058001D01*
X0196913Y0057875D01*
X0201471Y0057875D01*
X0201471Y0065150D01*
X0201672Y0065150D01*
X0201672Y0057875D01*
X0206230Y0057875D01*
X0207188Y0058001D01*
X0207446Y0058070D01*
X0207446Y0055840D01*
X0206367Y0054761D01*
X0195544Y0054761D01*
X0192122Y0053344D01*
X0189503Y0050724D01*
X0189092Y0049734D01*
X0187403Y0048044D01*
X0185255Y0045896D01*
X0184092Y0043089D01*
X0184092Y0032922D01*
X0180751Y0029581D01*
X0180667Y0029581D01*
X0176671Y0025585D01*
X0141826Y0025585D01*
X0141767Y0025644D01*
X0135392Y0025644D01*
X0135333Y0025585D01*
X0096467Y0025585D01*
X0093067Y0028985D01*
X0093067Y0044229D01*
X0093126Y0044288D01*
X0093126Y0046256D01*
X0094314Y0047444D01*
X0093126Y0046052D02*
X0136789Y0046052D01*
X0136789Y0048450D02*
X0106612Y0048450D01*
X0109010Y0050849D02*
X0138148Y0050849D01*
X0138148Y0053247D02*
X0111409Y0053247D01*
X0113807Y0055646D02*
X0138148Y0055646D01*
X0138148Y0058044D02*
X0114963Y0058044D01*
X0114989Y0060443D02*
X0136335Y0060443D01*
X0144485Y0061255D02*
X0136611Y0069129D01*
X0141790Y0074834D02*
X0207446Y0074834D01*
X0207446Y0077232D02*
X0119858Y0077232D01*
X0119858Y0074834D02*
X0131432Y0074834D01*
X0119763Y0079631D02*
X0207446Y0079631D01*
X0207446Y0082029D02*
X0119543Y0082029D01*
X0119858Y0084428D02*
X0147830Y0084428D01*
X0149171Y0083087D02*
X0144663Y0087595D01*
X0144663Y0093970D01*
X0146422Y0095730D01*
X0146422Y0127694D01*
X0145963Y0128153D01*
X0135430Y0128153D01*
X0133248Y0129057D01*
X0131578Y0130727D01*
X0131578Y0130727D01*
X0129311Y0132994D01*
X0129311Y0132994D01*
X0127641Y0134664D01*
X0126737Y0136846D01*
X0126737Y0154670D01*
X0126019Y0153953D01*
X0119644Y0153953D01*
X0115135Y0158461D01*
X0115135Y0164837D01*
X0119644Y0169345D01*
X0126019Y0169345D01*
X0127778Y0167586D01*
X0131886Y0167586D01*
X0134068Y0166682D01*
X0137707Y0163043D01*
X0138611Y0160861D01*
X0138611Y0140486D01*
X0139070Y0140027D01*
X0149603Y0140027D01*
X0151785Y0139123D01*
X0153455Y0137453D01*
X0157392Y0133516D01*
X0158296Y0131334D01*
X0158296Y0095730D01*
X0160055Y0093970D01*
X0160055Y0087595D01*
X0155547Y0083087D01*
X0149171Y0083087D01*
X0145431Y0086826D02*
X0119858Y0086826D01*
X0119858Y0089225D02*
X0144663Y0089225D01*
X0144663Y0091623D02*
X0117770Y0091623D01*
X0115372Y0094022D02*
X0144714Y0094022D01*
X0146422Y0096420D02*
X0112805Y0096420D01*
X0111380Y0098819D02*
X0146422Y0098819D01*
X0146422Y0101217D02*
X0108982Y0101217D01*
X0112100Y0103616D02*
X0122736Y0103616D01*
X0130800Y0103616D02*
X0146422Y0103616D01*
X0146422Y0106014D02*
X0133199Y0106014D01*
X0134464Y0108413D02*
X0146422Y0108413D01*
X0146422Y0110811D02*
X0134464Y0110811D01*
X0134464Y0113210D02*
X0146422Y0113210D01*
X0146422Y0115609D02*
X0134464Y0115609D01*
X0134464Y0118007D02*
X0146422Y0118007D01*
X0146422Y0120406D02*
X0134464Y0120406D01*
X0133190Y0122804D02*
X0146422Y0122804D01*
X0146422Y0125203D02*
X0130791Y0125203D01*
X0132305Y0130000D02*
X0123507Y0130000D01*
X0122863Y0132398D02*
X0129906Y0132398D01*
X0127586Y0134797D02*
X0122863Y0134797D01*
X0122863Y0137195D02*
X0126737Y0137195D01*
X0126737Y0139594D02*
X0122703Y0139594D01*
X0121357Y0141992D02*
X0126737Y0141992D01*
X0126737Y0144391D02*
X0118958Y0144391D01*
X0126737Y0146789D02*
X0092938Y0146789D01*
X0090539Y0149188D02*
X0126737Y0149188D01*
X0126737Y0151586D02*
X0088141Y0151586D01*
X0085742Y0153985D02*
X0119612Y0153985D01*
X0117213Y0156383D02*
X0033980Y0156383D01*
X0033980Y0153985D02*
X0063464Y0153985D01*
X0061065Y0151586D02*
X0033980Y0151586D01*
X0033980Y0149188D02*
X0058667Y0149188D01*
X0056268Y0146789D02*
X0033980Y0146789D01*
X0033980Y0144391D02*
X0054418Y0144391D01*
X0053902Y0141992D02*
X0033980Y0141992D01*
X0033980Y0139594D02*
X0053902Y0139594D01*
X0053902Y0137195D02*
X0033980Y0137195D01*
X0033980Y0134797D02*
X0053902Y0134797D01*
X0053902Y0132398D02*
X0033980Y0132398D01*
X0033980Y0130000D02*
X0053902Y0130000D01*
X0053902Y0127601D02*
X0033980Y0127601D01*
X0033980Y0125203D02*
X0053902Y0125203D01*
X0053902Y0122804D02*
X0033980Y0122804D01*
X0033980Y0120406D02*
X0053902Y0120406D01*
X0053902Y0118007D02*
X0033980Y0118007D01*
X0033980Y0115609D02*
X0053902Y0115609D01*
X0053902Y0113210D02*
X0033980Y0113210D01*
X0033980Y0110811D02*
X0053902Y0110811D01*
X0053902Y0108413D02*
X0033980Y0108413D01*
X0033980Y0106014D02*
X0053902Y0106014D01*
X0053902Y0103616D02*
X0033980Y0103616D01*
X0033980Y0101217D02*
X0053902Y0101217D01*
X0053902Y0098819D02*
X0033980Y0098819D01*
X0033980Y0096420D02*
X0053902Y0096420D01*
X0053902Y0094022D02*
X0033980Y0094022D01*
X0033980Y0091623D02*
X0053902Y0091623D01*
X0053902Y0089225D02*
X0033980Y0089225D01*
X0033980Y0086826D02*
X0053902Y0086826D01*
X0053902Y0084428D02*
X0033980Y0084428D01*
X0033980Y0082029D02*
X0053902Y0082029D01*
X0053902Y0079631D02*
X0033980Y0079631D01*
X0033980Y0077232D02*
X0053902Y0077232D01*
X0054312Y0074834D02*
X0033980Y0074834D01*
X0033980Y0072435D02*
X0035902Y0072435D01*
X0071483Y0073756D02*
X0077214Y0073756D01*
X0082299Y0078841D01*
X0082299Y0083549D01*
X0082498Y0083350D01*
X0082498Y0082345D01*
X0085408Y0079434D01*
X0085117Y0078929D01*
X0084779Y0078112D01*
X0084550Y0077259D01*
X0084435Y0076382D01*
X0084435Y0075940D01*
X0084435Y0075498D01*
X0084550Y0074622D01*
X0084779Y0073768D01*
X0085056Y0073098D01*
X0072141Y0073098D01*
X0071483Y0073756D01*
X0078292Y0074834D02*
X0084522Y0074834D01*
X0084435Y0075940D02*
X0091178Y0075940D01*
X0091178Y0075940D01*
X0084435Y0075940D01*
X0084546Y0077232D02*
X0080691Y0077232D01*
X0082299Y0079631D02*
X0085211Y0079631D01*
X0082813Y0082029D02*
X0082299Y0082029D01*
X0093067Y0043653D02*
X0136789Y0043653D01*
X0137853Y0041255D02*
X0093067Y0041255D01*
X0093067Y0038856D02*
X0140252Y0038856D01*
X0144485Y0045507D02*
X0144485Y0061255D01*
X0149462Y0065240D02*
X0201471Y0065240D01*
X0201471Y0065350D02*
X0190022Y0065350D01*
X0190022Y0065733D01*
X0190148Y0066691D01*
X0190398Y0067625D01*
X0190768Y0068518D01*
X0191252Y0069356D01*
X0191840Y0070123D01*
X0192524Y0070806D01*
X0193291Y0071395D01*
X0194128Y0071878D01*
X0195021Y0072248D01*
X0195955Y0072498D01*
X0196913Y0072624D01*
X0201471Y0072624D01*
X0201471Y0065350D01*
X0201471Y0067638D02*
X0201672Y0067638D01*
X0201672Y0070037D02*
X0201471Y0070037D01*
X0201471Y0072435D02*
X0201672Y0072435D01*
X0195720Y0072435D02*
X0144189Y0072435D01*
X0144665Y0070037D02*
X0191774Y0070037D01*
X0190404Y0067638D02*
X0147064Y0067638D01*
X0150687Y0062841D02*
X0190412Y0062841D01*
X0191789Y0060443D02*
X0150822Y0060443D01*
X0150822Y0058044D02*
X0195793Y0058044D01*
X0201471Y0058044D02*
X0201672Y0058044D01*
X0201672Y0060443D02*
X0201471Y0060443D01*
X0201471Y0062841D02*
X0201672Y0062841D01*
X0207350Y0058044D02*
X0207446Y0058044D01*
X0207251Y0055646D02*
X0150822Y0055646D01*
X0150822Y0053247D02*
X0192025Y0053247D01*
X0189627Y0050849D02*
X0150822Y0050849D01*
X0152181Y0048450D02*
X0187809Y0048450D01*
X0185410Y0046052D02*
X0152181Y0046052D01*
X0152181Y0043653D02*
X0184326Y0043653D01*
X0184092Y0041255D02*
X0151116Y0041255D01*
X0148718Y0038856D02*
X0184092Y0038856D01*
X0184092Y0036458D02*
X0093067Y0036458D01*
X0093067Y0034059D02*
X0184092Y0034059D01*
X0182830Y0031661D02*
X0093067Y0031661D01*
X0093067Y0029262D02*
X0180348Y0029262D01*
X0177950Y0026864D02*
X0095189Y0026864D01*
X0156888Y0084428D02*
X0207446Y0084428D01*
X0207446Y0086826D02*
X0159286Y0086826D01*
X0160055Y0089225D02*
X0207446Y0089225D01*
X0207446Y0091623D02*
X0160055Y0091623D01*
X0160004Y0094022D02*
X0207446Y0094022D01*
X0207446Y0096420D02*
X0158296Y0096420D01*
X0158296Y0098819D02*
X0207446Y0098819D01*
X0207446Y0101217D02*
X0158296Y0101217D01*
X0158296Y0103616D02*
X0207446Y0103616D01*
X0207446Y0106014D02*
X0158296Y0106014D01*
X0158296Y0108413D02*
X0207446Y0108413D01*
X0207446Y0110811D02*
X0158296Y0110811D01*
X0158296Y0113210D02*
X0207446Y0113210D01*
X0207446Y0115609D02*
X0158296Y0115609D01*
X0158296Y0118007D02*
X0207446Y0118007D01*
X0207446Y0120406D02*
X0158296Y0120406D01*
X0158296Y0122804D02*
X0207446Y0122804D01*
X0207446Y0125203D02*
X0158296Y0125203D01*
X0158296Y0127601D02*
X0207446Y0127601D01*
X0207446Y0130000D02*
X0158296Y0130000D01*
X0157855Y0132398D02*
X0207446Y0132398D01*
X0207446Y0134797D02*
X0156111Y0134797D01*
X0153713Y0137195D02*
X0207446Y0137195D01*
X0207446Y0139594D02*
X0150649Y0139594D01*
X0152359Y0149838D02*
X0185823Y0116373D01*
X0185823Y0059287D01*
X0175981Y0049444D01*
X0170075Y0049444D01*
X0207423Y0072435D02*
X0207446Y0072435D01*
X0146422Y0127601D02*
X0125905Y0127601D01*
X0138611Y0141992D02*
X0207446Y0141992D01*
X0207446Y0144391D02*
X0138611Y0144391D01*
X0138611Y0146789D02*
X0207446Y0146789D01*
X0205636Y0149188D02*
X0138611Y0149188D01*
X0138611Y0151586D02*
X0203238Y0151586D01*
X0210436Y0161180D02*
X0213651Y0161180D01*
X0213651Y0158782D02*
X0212835Y0158782D01*
X0213651Y0163579D02*
X0208038Y0163579D01*
X0213651Y0165977D02*
X0162851Y0165977D01*
X0153677Y0165977D02*
X0134773Y0165977D01*
X0137172Y0163579D02*
X0151279Y0163579D01*
X0150568Y0161180D02*
X0138479Y0161180D01*
X0138611Y0158782D02*
X0150568Y0158782D01*
X0150678Y0156383D02*
X0138611Y0156383D01*
X0138611Y0153985D02*
X0153076Y0153985D01*
X0133395Y0174622D02*
X0136170Y0177396D01*
X0137007Y0176559D01*
X0139800Y0176559D01*
X0142593Y0176559D01*
X0146543Y0180509D01*
X0146543Y0183302D01*
X0139800Y0183302D01*
X0139800Y0176559D01*
X0139800Y0183302D01*
X0139800Y0183302D01*
X0139800Y0183302D01*
X0146543Y0183302D01*
X0146543Y0186096D01*
X0142593Y0190046D01*
X0139800Y0190046D01*
X0139800Y0183302D01*
X0139800Y0183302D01*
X0139800Y0190046D01*
X0137007Y0190046D01*
X0136170Y0189208D01*
X0133395Y0191983D01*
X0126204Y0191983D01*
X0124800Y0190578D01*
X0123395Y0191983D01*
X0116204Y0191983D01*
X0114800Y0190578D01*
X0113395Y0191983D01*
X0106204Y0191983D01*
X0101120Y0186898D01*
X0101120Y0179707D01*
X0106204Y0174622D01*
X0113395Y0174622D01*
X0114800Y0176027D01*
X0116204Y0174622D01*
X0123395Y0174622D01*
X0124800Y0176027D01*
X0126204Y0174622D01*
X0133395Y0174622D01*
X0134345Y0175571D02*
X0213651Y0175571D01*
X0213651Y0173173D02*
X0033980Y0173173D01*
X0033980Y0175571D02*
X0105255Y0175571D01*
X0102857Y0177970D02*
X0033980Y0177970D01*
X0033980Y0180368D02*
X0035868Y0180368D01*
X0033980Y0170774D02*
X0213651Y0170774D01*
X0213651Y0168376D02*
X0126988Y0168376D01*
X0125255Y0175571D02*
X0124345Y0175571D01*
X0118674Y0168376D02*
X0033980Y0168376D01*
X0033980Y0165977D02*
X0116276Y0165977D01*
X0115135Y0163579D02*
X0033980Y0163579D01*
X0033980Y0161180D02*
X0115135Y0161180D01*
X0115135Y0158782D02*
X0033980Y0158782D01*
X0048377Y0180368D02*
X0101120Y0180368D01*
X0101120Y0182767D02*
X0051815Y0182767D01*
X0053903Y0185165D02*
X0101120Y0185165D01*
X0101786Y0187564D02*
X0055288Y0187564D01*
X0055963Y0189962D02*
X0104184Y0189962D01*
X0114345Y0175571D02*
X0115255Y0175571D01*
X0126051Y0153985D02*
X0126737Y0153985D01*
X0139800Y0177970D02*
X0139800Y0177970D01*
X0139800Y0180368D02*
X0139800Y0180368D01*
X0139800Y0182767D02*
X0139800Y0182767D01*
X0139800Y0185165D02*
X0139800Y0185165D01*
X0139800Y0187564D02*
X0139800Y0187564D01*
X0139800Y0189962D02*
X0139800Y0189962D01*
X0136923Y0189962D02*
X0135416Y0189962D01*
X0142676Y0189962D02*
X0191669Y0189962D01*
X0191316Y0192361D02*
X0056315Y0192361D01*
X0056315Y0194759D02*
X0191316Y0194759D01*
X0191891Y0197158D02*
X0055740Y0197158D01*
X0054809Y0199556D02*
X0192823Y0199556D01*
X0192343Y0187564D02*
X0145075Y0187564D01*
X0146543Y0185165D02*
X0193728Y0185165D01*
X0195816Y0182767D02*
X0146543Y0182767D01*
X0146402Y0180368D02*
X0199254Y0180368D01*
X0211763Y0180368D02*
X0213651Y0180368D01*
X0213651Y0177970D02*
X0144004Y0177970D01*
D17*
X0042123Y0023854D03*
X0205509Y0023854D03*
X0205509Y0193145D03*
X0042123Y0193145D03*
M02*
