G75*
%MOIN*%
%OFA0B0*%
%FSLAX25Y25*%
%IPPOS*%
%LPD*%
%AMOC8*
5,1,8,0,0,1.08239X$1,22.5*
%
%ADD10C,0.01000*%
%ADD11C,0.00000*%
D10*
X0028343Y0006537D02*
X0028343Y0203387D01*
X0284249Y0203387D01*
X0284249Y0006537D01*
X0028343Y0006537D01*
D11*
X0057062Y0018663D02*
X0057064Y0018776D01*
X0057070Y0018890D01*
X0057080Y0019003D01*
X0057094Y0019115D01*
X0057111Y0019227D01*
X0057133Y0019339D01*
X0057159Y0019449D01*
X0057188Y0019559D01*
X0057221Y0019667D01*
X0057258Y0019775D01*
X0057299Y0019880D01*
X0057343Y0019985D01*
X0057391Y0020088D01*
X0057442Y0020189D01*
X0057497Y0020288D01*
X0057556Y0020385D01*
X0057618Y0020480D01*
X0057683Y0020573D01*
X0057751Y0020664D01*
X0057822Y0020752D01*
X0057897Y0020838D01*
X0057974Y0020921D01*
X0058054Y0021001D01*
X0058137Y0021078D01*
X0058223Y0021153D01*
X0058311Y0021224D01*
X0058402Y0021292D01*
X0058495Y0021357D01*
X0058590Y0021419D01*
X0058687Y0021478D01*
X0058786Y0021533D01*
X0058887Y0021584D01*
X0058990Y0021632D01*
X0059095Y0021676D01*
X0059200Y0021717D01*
X0059308Y0021754D01*
X0059416Y0021787D01*
X0059526Y0021816D01*
X0059636Y0021842D01*
X0059748Y0021864D01*
X0059860Y0021881D01*
X0059972Y0021895D01*
X0060085Y0021905D01*
X0060199Y0021911D01*
X0060312Y0021913D01*
X0060425Y0021911D01*
X0060539Y0021905D01*
X0060652Y0021895D01*
X0060764Y0021881D01*
X0060876Y0021864D01*
X0060988Y0021842D01*
X0061098Y0021816D01*
X0061208Y0021787D01*
X0061316Y0021754D01*
X0061424Y0021717D01*
X0061529Y0021676D01*
X0061634Y0021632D01*
X0061737Y0021584D01*
X0061838Y0021533D01*
X0061937Y0021478D01*
X0062034Y0021419D01*
X0062129Y0021357D01*
X0062222Y0021292D01*
X0062313Y0021224D01*
X0062401Y0021153D01*
X0062487Y0021078D01*
X0062570Y0021001D01*
X0062650Y0020921D01*
X0062727Y0020838D01*
X0062802Y0020752D01*
X0062873Y0020664D01*
X0062941Y0020573D01*
X0063006Y0020480D01*
X0063068Y0020385D01*
X0063127Y0020288D01*
X0063182Y0020189D01*
X0063233Y0020088D01*
X0063281Y0019985D01*
X0063325Y0019880D01*
X0063366Y0019775D01*
X0063403Y0019667D01*
X0063436Y0019559D01*
X0063465Y0019449D01*
X0063491Y0019339D01*
X0063513Y0019227D01*
X0063530Y0019115D01*
X0063544Y0019003D01*
X0063554Y0018890D01*
X0063560Y0018776D01*
X0063562Y0018663D01*
X0063560Y0018550D01*
X0063554Y0018436D01*
X0063544Y0018323D01*
X0063530Y0018211D01*
X0063513Y0018099D01*
X0063491Y0017987D01*
X0063465Y0017877D01*
X0063436Y0017767D01*
X0063403Y0017659D01*
X0063366Y0017551D01*
X0063325Y0017446D01*
X0063281Y0017341D01*
X0063233Y0017238D01*
X0063182Y0017137D01*
X0063127Y0017038D01*
X0063068Y0016941D01*
X0063006Y0016846D01*
X0062941Y0016753D01*
X0062873Y0016662D01*
X0062802Y0016574D01*
X0062727Y0016488D01*
X0062650Y0016405D01*
X0062570Y0016325D01*
X0062487Y0016248D01*
X0062401Y0016173D01*
X0062313Y0016102D01*
X0062222Y0016034D01*
X0062129Y0015969D01*
X0062034Y0015907D01*
X0061937Y0015848D01*
X0061838Y0015793D01*
X0061737Y0015742D01*
X0061634Y0015694D01*
X0061529Y0015650D01*
X0061424Y0015609D01*
X0061316Y0015572D01*
X0061208Y0015539D01*
X0061098Y0015510D01*
X0060988Y0015484D01*
X0060876Y0015462D01*
X0060764Y0015445D01*
X0060652Y0015431D01*
X0060539Y0015421D01*
X0060425Y0015415D01*
X0060312Y0015413D01*
X0060199Y0015415D01*
X0060085Y0015421D01*
X0059972Y0015431D01*
X0059860Y0015445D01*
X0059748Y0015462D01*
X0059636Y0015484D01*
X0059526Y0015510D01*
X0059416Y0015539D01*
X0059308Y0015572D01*
X0059200Y0015609D01*
X0059095Y0015650D01*
X0058990Y0015694D01*
X0058887Y0015742D01*
X0058786Y0015793D01*
X0058687Y0015848D01*
X0058590Y0015907D01*
X0058495Y0015969D01*
X0058402Y0016034D01*
X0058311Y0016102D01*
X0058223Y0016173D01*
X0058137Y0016248D01*
X0058054Y0016325D01*
X0057974Y0016405D01*
X0057897Y0016488D01*
X0057822Y0016574D01*
X0057751Y0016662D01*
X0057683Y0016753D01*
X0057618Y0016846D01*
X0057556Y0016941D01*
X0057497Y0017038D01*
X0057442Y0017137D01*
X0057391Y0017238D01*
X0057343Y0017341D01*
X0057299Y0017446D01*
X0057258Y0017551D01*
X0057221Y0017659D01*
X0057188Y0017767D01*
X0057159Y0017877D01*
X0057133Y0017987D01*
X0057111Y0018099D01*
X0057094Y0018211D01*
X0057080Y0018323D01*
X0057070Y0018436D01*
X0057064Y0018550D01*
X0057062Y0018663D01*
X0057062Y0078663D02*
X0057064Y0078776D01*
X0057070Y0078890D01*
X0057080Y0079003D01*
X0057094Y0079115D01*
X0057111Y0079227D01*
X0057133Y0079339D01*
X0057159Y0079449D01*
X0057188Y0079559D01*
X0057221Y0079667D01*
X0057258Y0079775D01*
X0057299Y0079880D01*
X0057343Y0079985D01*
X0057391Y0080088D01*
X0057442Y0080189D01*
X0057497Y0080288D01*
X0057556Y0080385D01*
X0057618Y0080480D01*
X0057683Y0080573D01*
X0057751Y0080664D01*
X0057822Y0080752D01*
X0057897Y0080838D01*
X0057974Y0080921D01*
X0058054Y0081001D01*
X0058137Y0081078D01*
X0058223Y0081153D01*
X0058311Y0081224D01*
X0058402Y0081292D01*
X0058495Y0081357D01*
X0058590Y0081419D01*
X0058687Y0081478D01*
X0058786Y0081533D01*
X0058887Y0081584D01*
X0058990Y0081632D01*
X0059095Y0081676D01*
X0059200Y0081717D01*
X0059308Y0081754D01*
X0059416Y0081787D01*
X0059526Y0081816D01*
X0059636Y0081842D01*
X0059748Y0081864D01*
X0059860Y0081881D01*
X0059972Y0081895D01*
X0060085Y0081905D01*
X0060199Y0081911D01*
X0060312Y0081913D01*
X0060425Y0081911D01*
X0060539Y0081905D01*
X0060652Y0081895D01*
X0060764Y0081881D01*
X0060876Y0081864D01*
X0060988Y0081842D01*
X0061098Y0081816D01*
X0061208Y0081787D01*
X0061316Y0081754D01*
X0061424Y0081717D01*
X0061529Y0081676D01*
X0061634Y0081632D01*
X0061737Y0081584D01*
X0061838Y0081533D01*
X0061937Y0081478D01*
X0062034Y0081419D01*
X0062129Y0081357D01*
X0062222Y0081292D01*
X0062313Y0081224D01*
X0062401Y0081153D01*
X0062487Y0081078D01*
X0062570Y0081001D01*
X0062650Y0080921D01*
X0062727Y0080838D01*
X0062802Y0080752D01*
X0062873Y0080664D01*
X0062941Y0080573D01*
X0063006Y0080480D01*
X0063068Y0080385D01*
X0063127Y0080288D01*
X0063182Y0080189D01*
X0063233Y0080088D01*
X0063281Y0079985D01*
X0063325Y0079880D01*
X0063366Y0079775D01*
X0063403Y0079667D01*
X0063436Y0079559D01*
X0063465Y0079449D01*
X0063491Y0079339D01*
X0063513Y0079227D01*
X0063530Y0079115D01*
X0063544Y0079003D01*
X0063554Y0078890D01*
X0063560Y0078776D01*
X0063562Y0078663D01*
X0063560Y0078550D01*
X0063554Y0078436D01*
X0063544Y0078323D01*
X0063530Y0078211D01*
X0063513Y0078099D01*
X0063491Y0077987D01*
X0063465Y0077877D01*
X0063436Y0077767D01*
X0063403Y0077659D01*
X0063366Y0077551D01*
X0063325Y0077446D01*
X0063281Y0077341D01*
X0063233Y0077238D01*
X0063182Y0077137D01*
X0063127Y0077038D01*
X0063068Y0076941D01*
X0063006Y0076846D01*
X0062941Y0076753D01*
X0062873Y0076662D01*
X0062802Y0076574D01*
X0062727Y0076488D01*
X0062650Y0076405D01*
X0062570Y0076325D01*
X0062487Y0076248D01*
X0062401Y0076173D01*
X0062313Y0076102D01*
X0062222Y0076034D01*
X0062129Y0075969D01*
X0062034Y0075907D01*
X0061937Y0075848D01*
X0061838Y0075793D01*
X0061737Y0075742D01*
X0061634Y0075694D01*
X0061529Y0075650D01*
X0061424Y0075609D01*
X0061316Y0075572D01*
X0061208Y0075539D01*
X0061098Y0075510D01*
X0060988Y0075484D01*
X0060876Y0075462D01*
X0060764Y0075445D01*
X0060652Y0075431D01*
X0060539Y0075421D01*
X0060425Y0075415D01*
X0060312Y0075413D01*
X0060199Y0075415D01*
X0060085Y0075421D01*
X0059972Y0075431D01*
X0059860Y0075445D01*
X0059748Y0075462D01*
X0059636Y0075484D01*
X0059526Y0075510D01*
X0059416Y0075539D01*
X0059308Y0075572D01*
X0059200Y0075609D01*
X0059095Y0075650D01*
X0058990Y0075694D01*
X0058887Y0075742D01*
X0058786Y0075793D01*
X0058687Y0075848D01*
X0058590Y0075907D01*
X0058495Y0075969D01*
X0058402Y0076034D01*
X0058311Y0076102D01*
X0058223Y0076173D01*
X0058137Y0076248D01*
X0058054Y0076325D01*
X0057974Y0076405D01*
X0057897Y0076488D01*
X0057822Y0076574D01*
X0057751Y0076662D01*
X0057683Y0076753D01*
X0057618Y0076846D01*
X0057556Y0076941D01*
X0057497Y0077038D01*
X0057442Y0077137D01*
X0057391Y0077238D01*
X0057343Y0077341D01*
X0057299Y0077446D01*
X0057258Y0077551D01*
X0057221Y0077659D01*
X0057188Y0077767D01*
X0057159Y0077877D01*
X0057133Y0077987D01*
X0057111Y0078099D01*
X0057094Y0078211D01*
X0057080Y0078323D01*
X0057070Y0078436D01*
X0057064Y0078550D01*
X0057062Y0078663D01*
X0217062Y0078663D02*
X0217064Y0078776D01*
X0217070Y0078890D01*
X0217080Y0079003D01*
X0217094Y0079115D01*
X0217111Y0079227D01*
X0217133Y0079339D01*
X0217159Y0079449D01*
X0217188Y0079559D01*
X0217221Y0079667D01*
X0217258Y0079775D01*
X0217299Y0079880D01*
X0217343Y0079985D01*
X0217391Y0080088D01*
X0217442Y0080189D01*
X0217497Y0080288D01*
X0217556Y0080385D01*
X0217618Y0080480D01*
X0217683Y0080573D01*
X0217751Y0080664D01*
X0217822Y0080752D01*
X0217897Y0080838D01*
X0217974Y0080921D01*
X0218054Y0081001D01*
X0218137Y0081078D01*
X0218223Y0081153D01*
X0218311Y0081224D01*
X0218402Y0081292D01*
X0218495Y0081357D01*
X0218590Y0081419D01*
X0218687Y0081478D01*
X0218786Y0081533D01*
X0218887Y0081584D01*
X0218990Y0081632D01*
X0219095Y0081676D01*
X0219200Y0081717D01*
X0219308Y0081754D01*
X0219416Y0081787D01*
X0219526Y0081816D01*
X0219636Y0081842D01*
X0219748Y0081864D01*
X0219860Y0081881D01*
X0219972Y0081895D01*
X0220085Y0081905D01*
X0220199Y0081911D01*
X0220312Y0081913D01*
X0220425Y0081911D01*
X0220539Y0081905D01*
X0220652Y0081895D01*
X0220764Y0081881D01*
X0220876Y0081864D01*
X0220988Y0081842D01*
X0221098Y0081816D01*
X0221208Y0081787D01*
X0221316Y0081754D01*
X0221424Y0081717D01*
X0221529Y0081676D01*
X0221634Y0081632D01*
X0221737Y0081584D01*
X0221838Y0081533D01*
X0221937Y0081478D01*
X0222034Y0081419D01*
X0222129Y0081357D01*
X0222222Y0081292D01*
X0222313Y0081224D01*
X0222401Y0081153D01*
X0222487Y0081078D01*
X0222570Y0081001D01*
X0222650Y0080921D01*
X0222727Y0080838D01*
X0222802Y0080752D01*
X0222873Y0080664D01*
X0222941Y0080573D01*
X0223006Y0080480D01*
X0223068Y0080385D01*
X0223127Y0080288D01*
X0223182Y0080189D01*
X0223233Y0080088D01*
X0223281Y0079985D01*
X0223325Y0079880D01*
X0223366Y0079775D01*
X0223403Y0079667D01*
X0223436Y0079559D01*
X0223465Y0079449D01*
X0223491Y0079339D01*
X0223513Y0079227D01*
X0223530Y0079115D01*
X0223544Y0079003D01*
X0223554Y0078890D01*
X0223560Y0078776D01*
X0223562Y0078663D01*
X0223560Y0078550D01*
X0223554Y0078436D01*
X0223544Y0078323D01*
X0223530Y0078211D01*
X0223513Y0078099D01*
X0223491Y0077987D01*
X0223465Y0077877D01*
X0223436Y0077767D01*
X0223403Y0077659D01*
X0223366Y0077551D01*
X0223325Y0077446D01*
X0223281Y0077341D01*
X0223233Y0077238D01*
X0223182Y0077137D01*
X0223127Y0077038D01*
X0223068Y0076941D01*
X0223006Y0076846D01*
X0222941Y0076753D01*
X0222873Y0076662D01*
X0222802Y0076574D01*
X0222727Y0076488D01*
X0222650Y0076405D01*
X0222570Y0076325D01*
X0222487Y0076248D01*
X0222401Y0076173D01*
X0222313Y0076102D01*
X0222222Y0076034D01*
X0222129Y0075969D01*
X0222034Y0075907D01*
X0221937Y0075848D01*
X0221838Y0075793D01*
X0221737Y0075742D01*
X0221634Y0075694D01*
X0221529Y0075650D01*
X0221424Y0075609D01*
X0221316Y0075572D01*
X0221208Y0075539D01*
X0221098Y0075510D01*
X0220988Y0075484D01*
X0220876Y0075462D01*
X0220764Y0075445D01*
X0220652Y0075431D01*
X0220539Y0075421D01*
X0220425Y0075415D01*
X0220312Y0075413D01*
X0220199Y0075415D01*
X0220085Y0075421D01*
X0219972Y0075431D01*
X0219860Y0075445D01*
X0219748Y0075462D01*
X0219636Y0075484D01*
X0219526Y0075510D01*
X0219416Y0075539D01*
X0219308Y0075572D01*
X0219200Y0075609D01*
X0219095Y0075650D01*
X0218990Y0075694D01*
X0218887Y0075742D01*
X0218786Y0075793D01*
X0218687Y0075848D01*
X0218590Y0075907D01*
X0218495Y0075969D01*
X0218402Y0076034D01*
X0218311Y0076102D01*
X0218223Y0076173D01*
X0218137Y0076248D01*
X0218054Y0076325D01*
X0217974Y0076405D01*
X0217897Y0076488D01*
X0217822Y0076574D01*
X0217751Y0076662D01*
X0217683Y0076753D01*
X0217618Y0076846D01*
X0217556Y0076941D01*
X0217497Y0077038D01*
X0217442Y0077137D01*
X0217391Y0077238D01*
X0217343Y0077341D01*
X0217299Y0077446D01*
X0217258Y0077551D01*
X0217221Y0077659D01*
X0217188Y0077767D01*
X0217159Y0077877D01*
X0217133Y0077987D01*
X0217111Y0078099D01*
X0217094Y0078211D01*
X0217080Y0078323D01*
X0217070Y0078436D01*
X0217064Y0078550D01*
X0217062Y0078663D01*
X0217062Y0018663D02*
X0217064Y0018776D01*
X0217070Y0018890D01*
X0217080Y0019003D01*
X0217094Y0019115D01*
X0217111Y0019227D01*
X0217133Y0019339D01*
X0217159Y0019449D01*
X0217188Y0019559D01*
X0217221Y0019667D01*
X0217258Y0019775D01*
X0217299Y0019880D01*
X0217343Y0019985D01*
X0217391Y0020088D01*
X0217442Y0020189D01*
X0217497Y0020288D01*
X0217556Y0020385D01*
X0217618Y0020480D01*
X0217683Y0020573D01*
X0217751Y0020664D01*
X0217822Y0020752D01*
X0217897Y0020838D01*
X0217974Y0020921D01*
X0218054Y0021001D01*
X0218137Y0021078D01*
X0218223Y0021153D01*
X0218311Y0021224D01*
X0218402Y0021292D01*
X0218495Y0021357D01*
X0218590Y0021419D01*
X0218687Y0021478D01*
X0218786Y0021533D01*
X0218887Y0021584D01*
X0218990Y0021632D01*
X0219095Y0021676D01*
X0219200Y0021717D01*
X0219308Y0021754D01*
X0219416Y0021787D01*
X0219526Y0021816D01*
X0219636Y0021842D01*
X0219748Y0021864D01*
X0219860Y0021881D01*
X0219972Y0021895D01*
X0220085Y0021905D01*
X0220199Y0021911D01*
X0220312Y0021913D01*
X0220425Y0021911D01*
X0220539Y0021905D01*
X0220652Y0021895D01*
X0220764Y0021881D01*
X0220876Y0021864D01*
X0220988Y0021842D01*
X0221098Y0021816D01*
X0221208Y0021787D01*
X0221316Y0021754D01*
X0221424Y0021717D01*
X0221529Y0021676D01*
X0221634Y0021632D01*
X0221737Y0021584D01*
X0221838Y0021533D01*
X0221937Y0021478D01*
X0222034Y0021419D01*
X0222129Y0021357D01*
X0222222Y0021292D01*
X0222313Y0021224D01*
X0222401Y0021153D01*
X0222487Y0021078D01*
X0222570Y0021001D01*
X0222650Y0020921D01*
X0222727Y0020838D01*
X0222802Y0020752D01*
X0222873Y0020664D01*
X0222941Y0020573D01*
X0223006Y0020480D01*
X0223068Y0020385D01*
X0223127Y0020288D01*
X0223182Y0020189D01*
X0223233Y0020088D01*
X0223281Y0019985D01*
X0223325Y0019880D01*
X0223366Y0019775D01*
X0223403Y0019667D01*
X0223436Y0019559D01*
X0223465Y0019449D01*
X0223491Y0019339D01*
X0223513Y0019227D01*
X0223530Y0019115D01*
X0223544Y0019003D01*
X0223554Y0018890D01*
X0223560Y0018776D01*
X0223562Y0018663D01*
X0223560Y0018550D01*
X0223554Y0018436D01*
X0223544Y0018323D01*
X0223530Y0018211D01*
X0223513Y0018099D01*
X0223491Y0017987D01*
X0223465Y0017877D01*
X0223436Y0017767D01*
X0223403Y0017659D01*
X0223366Y0017551D01*
X0223325Y0017446D01*
X0223281Y0017341D01*
X0223233Y0017238D01*
X0223182Y0017137D01*
X0223127Y0017038D01*
X0223068Y0016941D01*
X0223006Y0016846D01*
X0222941Y0016753D01*
X0222873Y0016662D01*
X0222802Y0016574D01*
X0222727Y0016488D01*
X0222650Y0016405D01*
X0222570Y0016325D01*
X0222487Y0016248D01*
X0222401Y0016173D01*
X0222313Y0016102D01*
X0222222Y0016034D01*
X0222129Y0015969D01*
X0222034Y0015907D01*
X0221937Y0015848D01*
X0221838Y0015793D01*
X0221737Y0015742D01*
X0221634Y0015694D01*
X0221529Y0015650D01*
X0221424Y0015609D01*
X0221316Y0015572D01*
X0221208Y0015539D01*
X0221098Y0015510D01*
X0220988Y0015484D01*
X0220876Y0015462D01*
X0220764Y0015445D01*
X0220652Y0015431D01*
X0220539Y0015421D01*
X0220425Y0015415D01*
X0220312Y0015413D01*
X0220199Y0015415D01*
X0220085Y0015421D01*
X0219972Y0015431D01*
X0219860Y0015445D01*
X0219748Y0015462D01*
X0219636Y0015484D01*
X0219526Y0015510D01*
X0219416Y0015539D01*
X0219308Y0015572D01*
X0219200Y0015609D01*
X0219095Y0015650D01*
X0218990Y0015694D01*
X0218887Y0015742D01*
X0218786Y0015793D01*
X0218687Y0015848D01*
X0218590Y0015907D01*
X0218495Y0015969D01*
X0218402Y0016034D01*
X0218311Y0016102D01*
X0218223Y0016173D01*
X0218137Y0016248D01*
X0218054Y0016325D01*
X0217974Y0016405D01*
X0217897Y0016488D01*
X0217822Y0016574D01*
X0217751Y0016662D01*
X0217683Y0016753D01*
X0217618Y0016846D01*
X0217556Y0016941D01*
X0217497Y0017038D01*
X0217442Y0017137D01*
X0217391Y0017238D01*
X0217343Y0017341D01*
X0217299Y0017446D01*
X0217258Y0017551D01*
X0217221Y0017659D01*
X0217188Y0017767D01*
X0217159Y0017877D01*
X0217133Y0017987D01*
X0217111Y0018099D01*
X0217094Y0018211D01*
X0217080Y0018323D01*
X0217070Y0018436D01*
X0217064Y0018550D01*
X0217062Y0018663D01*
M02*
