M48
;GenerationSoftware,Autodesk,EAGLE,9.5.1*%
;CreationDate,2019-10-18T22:33:02Z*%
FMAT,2
ICI,OFF
METRIC,TZ,000.000
T6C0.500
T5C0.600
T4C1.000
T3C1.016
T2C1.200
T1C3.200
%
G90
M71
T1
X46500Y4000
X3500Y45500
X46500Y45500
X3500Y4000
T2
X8985Y45000
X14015Y45000
X14015Y4500
X8985Y4500
T3
X30460Y38000
X27920Y38000
X25380Y38000
X46625Y18690
X46625Y21230
X46625Y23770
X46625Y26310
X33000Y38000
X35540Y38000
X38080Y38000
X40620Y38000
T4
X23270Y27960
X23270Y30500
X23270Y33040
X20730Y27960
X20730Y30500
X20730Y33040
T5
X3000Y9500
X2000Y20000
X5375Y41500
X10000Y35000
T6
X39000Y24500
X32500Y31500
X30500Y33000
X28500Y33250
X28500Y24000
X28500Y29750
X36000Y9000
X29500Y34500
X11500Y37500
X20000Y17000
X17500Y10000
X41000Y24500
X11500Y15500
X14625Y33375
X18880Y37000
X21500Y40000
X31000Y22500
X21500Y10500
M30