G04 EAGLE Gerber RS-274X export*
G75*
%MOMM*%
%FSLAX34Y34*%
%LPD*%
%IN*%
%IPPOS*%
%AMOC8*
5,1,8,0,0,1.08239X$1,22.5*%
G01*
%ADD10C,0.254000*%


D10*
X0Y23028D02*
X69Y21457D01*
X274Y19897D01*
X614Y18362D01*
X1087Y16862D01*
X1689Y15409D01*
X2415Y14014D01*
X3260Y12687D01*
X4218Y11440D01*
X5280Y10280D01*
X6440Y9218D01*
X7687Y8260D01*
X9014Y7415D01*
X10409Y6689D01*
X11862Y6087D01*
X13362Y5614D01*
X14897Y5274D01*
X16457Y5069D01*
X18028Y5000D01*
X481972Y5000D01*
X483543Y5069D01*
X485103Y5274D01*
X486638Y5614D01*
X488138Y6087D01*
X489591Y6689D01*
X490986Y7415D01*
X492313Y8260D01*
X493560Y9218D01*
X494720Y10280D01*
X495782Y11440D01*
X496740Y12687D01*
X497585Y14014D01*
X498311Y15409D01*
X498913Y16862D01*
X499386Y18362D01*
X499726Y19897D01*
X499931Y21457D01*
X500000Y23028D01*
X500000Y471972D01*
X499931Y473543D01*
X499726Y475103D01*
X499386Y476638D01*
X498913Y478138D01*
X498311Y479591D01*
X497585Y480986D01*
X496740Y482313D01*
X495782Y483560D01*
X494720Y484720D01*
X493560Y485782D01*
X492313Y486740D01*
X490986Y487585D01*
X489591Y488311D01*
X488138Y488913D01*
X486638Y489386D01*
X485103Y489726D01*
X483543Y489931D01*
X481972Y490000D01*
X18028Y490000D01*
X16457Y489931D01*
X14897Y489726D01*
X13362Y489386D01*
X11862Y488913D01*
X10409Y488311D01*
X9014Y487585D01*
X7687Y486740D01*
X6440Y485782D01*
X5280Y484720D01*
X4218Y483560D01*
X3260Y482313D01*
X2415Y480986D01*
X1689Y479591D01*
X1087Y478138D01*
X614Y476638D01*
X274Y475103D01*
X69Y473543D01*
X0Y471972D01*
X0Y23028D01*
M02*
