G04 EAGLE Gerber RS-274X export*
G75*
%MOMM*%
%FSLAX34Y34*%
%LPD*%
%INSoldermask Bottom*%
%IPPOS*%
%AMOC8*
5,1,8,0,0,1.08239X$1,22.5*%
G01*
%ADD10C,1.768400*%
%ADD11C,1.930400*%
%ADD12P,2.089446X8X292.500000*%
%ADD13C,2.152400*%
%ADD14C,4.352400*%
%ADD15P,1.463824X8X22.500000*%


D10*
X458170Y263100D02*
X474330Y263100D01*
X474330Y237700D02*
X458170Y237700D01*
X458170Y212300D02*
X474330Y212300D01*
X474330Y186900D02*
X458170Y186900D01*
D11*
X207300Y330400D03*
D12*
X207300Y305000D03*
X207300Y279600D03*
X232700Y330400D03*
X232700Y305000D03*
X232700Y279600D03*
D13*
X89854Y55000D02*
X89854Y35000D01*
X140146Y35000D02*
X140146Y55000D01*
X140146Y440000D02*
X140146Y460000D01*
X89854Y460000D02*
X89854Y440000D01*
D10*
X253800Y388080D02*
X253800Y371920D01*
X279200Y371920D02*
X279200Y388080D01*
X304600Y388080D02*
X304600Y371920D01*
X330000Y371920D02*
X330000Y388080D01*
X355400Y388080D02*
X355400Y371920D01*
X380800Y371920D02*
X380800Y388080D01*
X406200Y388080D02*
X406200Y371920D01*
D14*
X35000Y455000D03*
X465000Y455000D03*
X35000Y40000D03*
X465000Y40000D03*
D15*
X30000Y95000D03*
X20000Y200000D03*
X53750Y415000D03*
X100000Y350000D03*
M02*
