%
M48
M72
T01C0.02362
T02C0.03543
T03C0.03937
T04C0.05200
T05C0.12598
%
T01
X57871Y26898
X65745Y51013
X85430Y43139
X89367Y49044
X136611Y64792
X144485Y41170
X170075Y45107
X183855Y17548
X138579Y13611
X152359Y86446
X126768Y106131
X126768Y114005
X108068Y106131
X91335Y114005
X89367Y106131
X101178Y125816
X118894Y139595
X124800Y161249
X139564Y163709
X152359Y141564
X172044Y155343
X185823Y149438
T02
X117674Y188808
T03
X127674Y188808
X137674Y188808
X147674Y188808
X73619Y138099
X73619Y128099
X73619Y118099
X73619Y108099
X73619Y98099
X73619Y88099
X73619Y78099
X91178Y81603
X101178Y81603
X101178Y71603
X91178Y71603
X111178Y71603
X111178Y81603
T04
X46060Y60913
X46060Y41113
X201572Y41113
X201572Y60913
T05
X42123Y19517
X205509Y19517
X205509Y188808
X42123Y188808
M30
