%
M48
M72
T01C0.02756
T02C0.03150
T03C0.03200
T04C0.03937
T05C0.04000
T06C0.05200
T07C0.06500
T08C0.12598
%
T01
X43028Y95120
X53028Y95120
X53028Y112836
X43028Y112836
X43028Y128584
X53028Y128584
X53028Y144332
X43028Y144332
X99209Y123899
X114957Y123899
X130705Y123899
X146453Y123899
X162201Y123899
X177949Y123899
X177949Y93899
X162201Y93899
X146453Y93899
X130705Y93899
X114957Y93899
X99209Y93899
X134642Y159254
X134642Y169254
T02
X197162Y114293
X197162Y104293
T03
X116217Y149017
X106217Y149017
X106217Y179017
X116217Y179017
T04
X154327Y185277
X154327Y145277
X150312Y78663
X140312Y78663
X130312Y78663
X120312Y78663
X110312Y78663
X100312Y78663
X90312Y78663
X80312Y78663
X70312Y78663
X70312Y18663
X80312Y18663
X90312Y18663
X100312Y18663
X110312Y18663
X120312Y18663
X130312Y18663
X140312Y18663
X150312Y18663
X160312Y18663
X170312Y18663
X180312Y18663
X190312Y18663
X200312Y18663
X210312Y18663
X210312Y38663
X220312Y38663
X220312Y48663
X210312Y48663
X210312Y58663
X220312Y58663
X210312Y78663
X200312Y78663
X190312Y78663
X180312Y78663
X170312Y78663
X160312Y78663
T05
X69642Y93663
X69642Y103663
X69642Y113663
X69642Y123663
X69642Y133663
T06
X175883Y165159
X183883Y141659
X231883Y141659
X231883Y188659
X183883Y188659
X264564Y85292
X264564Y65592
X264564Y45892
T07
X220312Y18663
X220312Y78663
X60312Y78663
X60312Y18663
T08
X42123Y20317
X42123Y189608
X270469Y189608
X270469Y20317
M30
