G75*
%MOIN*%
%OFA0B0*%
%FSLAX25Y25*%
%IPPOS*%
%LPD*%
%AMOC8*
5,1,8,0,0,1.08239X$1,22.5*
%
%ADD10C,0.00700*%
%ADD11C,0.00600*%
%ADD12C,0.00500*%
%ADD13C,0.00200*%
%ADD14C,0.00800*%
%ADD15C,0.00197*%
%ADD16R,0.00787X0.00787*%
%ADD17R,0.15000X0.03000*%
%ADD18C,0.01000*%
%ADD19R,0.01181X0.08268*%
%ADD20R,0.03400X0.03000*%
%ADD21C,0.00400*%
D10*
X0062153Y0033131D02*
X0068058Y0033131D01*
X0068058Y0031163D02*
X0068058Y0035099D01*
X0068058Y0037240D02*
X0064121Y0041176D01*
X0063137Y0041176D01*
X0062153Y0040192D01*
X0062153Y0038224D01*
X0063137Y0037240D01*
X0062153Y0033131D02*
X0064121Y0031163D01*
X0068058Y0037240D02*
X0068058Y0041176D01*
X0066089Y0043317D02*
X0068058Y0045285D01*
X0066089Y0047254D01*
X0062153Y0047254D01*
X0062153Y0043317D02*
X0066089Y0043317D01*
X0067074Y0054785D02*
X0063137Y0054785D01*
X0062153Y0055769D01*
X0062153Y0057737D01*
X0063137Y0058721D01*
X0067074Y0058721D01*
X0068058Y0057737D01*
X0068058Y0055769D01*
X0067074Y0054785D01*
X0067074Y0060862D02*
X0062153Y0060862D01*
X0062153Y0064798D02*
X0067074Y0064798D01*
X0068058Y0063814D01*
X0068058Y0061846D01*
X0067074Y0060862D01*
X0062153Y0066939D02*
X0062153Y0070876D01*
X0062153Y0068907D02*
X0068058Y0068907D01*
X0180263Y0067923D02*
X0180263Y0064970D01*
X0186168Y0064970D01*
X0186168Y0067923D01*
X0185184Y0068907D01*
X0181247Y0068907D01*
X0180263Y0067923D01*
X0180263Y0062830D02*
X0186168Y0062830D01*
X0180263Y0058893D01*
X0186168Y0058893D01*
X0185184Y0056753D02*
X0183215Y0056753D01*
X0183215Y0054784D01*
X0181247Y0052816D02*
X0185184Y0052816D01*
X0186168Y0053800D01*
X0186168Y0055769D01*
X0185184Y0056753D01*
X0181247Y0056753D02*
X0180263Y0055769D01*
X0180263Y0053800D01*
X0181247Y0052816D01*
X0180263Y0047254D02*
X0184200Y0047254D01*
X0186168Y0045285D01*
X0184200Y0043317D01*
X0180263Y0043317D01*
X0181247Y0041176D02*
X0180263Y0040192D01*
X0180263Y0038224D01*
X0181247Y0037240D01*
X0181247Y0041176D02*
X0182231Y0041176D01*
X0186168Y0037240D01*
X0186168Y0041176D01*
X0186168Y0035099D02*
X0186168Y0031163D01*
X0186168Y0033131D02*
X0180263Y0033131D01*
X0182231Y0031163D01*
D11*
X0034060Y0031013D02*
X0030560Y0031013D01*
X0030560Y0071013D01*
X0037560Y0071013D01*
X0054560Y0071013D01*
X0060060Y0071013D01*
X0060060Y0031013D01*
X0054560Y0031013D01*
X0037560Y0031013D01*
X0037560Y0071013D01*
X0032060Y0060913D02*
X0032062Y0061002D01*
X0032068Y0061091D01*
X0032078Y0061180D01*
X0032092Y0061268D01*
X0032109Y0061355D01*
X0032131Y0061441D01*
X0032157Y0061527D01*
X0032186Y0061611D01*
X0032219Y0061694D01*
X0032255Y0061775D01*
X0032296Y0061855D01*
X0032339Y0061932D01*
X0032386Y0062008D01*
X0032437Y0062081D01*
X0032490Y0062152D01*
X0032547Y0062221D01*
X0032607Y0062287D01*
X0032670Y0062351D01*
X0032735Y0062411D01*
X0032803Y0062469D01*
X0032874Y0062523D01*
X0032947Y0062574D01*
X0033022Y0062622D01*
X0033099Y0062667D01*
X0033178Y0062708D01*
X0033259Y0062745D01*
X0033341Y0062779D01*
X0033425Y0062810D01*
X0033510Y0062836D01*
X0033596Y0062859D01*
X0033683Y0062877D01*
X0033771Y0062892D01*
X0033860Y0062903D01*
X0033949Y0062910D01*
X0034038Y0062913D01*
X0034127Y0062912D01*
X0034216Y0062907D01*
X0034304Y0062898D01*
X0034393Y0062885D01*
X0034480Y0062868D01*
X0034567Y0062848D01*
X0034653Y0062823D01*
X0034737Y0062795D01*
X0034820Y0062763D01*
X0034902Y0062727D01*
X0034982Y0062688D01*
X0035060Y0062645D01*
X0035136Y0062599D01*
X0035210Y0062549D01*
X0035282Y0062496D01*
X0035351Y0062440D01*
X0035418Y0062381D01*
X0035482Y0062319D01*
X0035543Y0062255D01*
X0035602Y0062187D01*
X0035657Y0062117D01*
X0035709Y0062045D01*
X0035758Y0061970D01*
X0035803Y0061894D01*
X0035845Y0061815D01*
X0035883Y0061735D01*
X0035918Y0061653D01*
X0035949Y0061569D01*
X0035977Y0061484D01*
X0036000Y0061398D01*
X0036020Y0061311D01*
X0036036Y0061224D01*
X0036048Y0061135D01*
X0036056Y0061047D01*
X0036060Y0060958D01*
X0036060Y0060868D01*
X0036056Y0060779D01*
X0036048Y0060691D01*
X0036036Y0060602D01*
X0036020Y0060515D01*
X0036000Y0060428D01*
X0035977Y0060342D01*
X0035949Y0060257D01*
X0035918Y0060173D01*
X0035883Y0060091D01*
X0035845Y0060011D01*
X0035803Y0059932D01*
X0035758Y0059856D01*
X0035709Y0059781D01*
X0035657Y0059709D01*
X0035602Y0059639D01*
X0035543Y0059571D01*
X0035482Y0059507D01*
X0035418Y0059445D01*
X0035351Y0059386D01*
X0035282Y0059330D01*
X0035210Y0059277D01*
X0035136Y0059227D01*
X0035060Y0059181D01*
X0034982Y0059138D01*
X0034902Y0059099D01*
X0034820Y0059063D01*
X0034737Y0059031D01*
X0034653Y0059003D01*
X0034567Y0058978D01*
X0034480Y0058958D01*
X0034393Y0058941D01*
X0034304Y0058928D01*
X0034216Y0058919D01*
X0034127Y0058914D01*
X0034038Y0058913D01*
X0033949Y0058916D01*
X0033860Y0058923D01*
X0033771Y0058934D01*
X0033683Y0058949D01*
X0033596Y0058967D01*
X0033510Y0058990D01*
X0033425Y0059016D01*
X0033341Y0059047D01*
X0033259Y0059081D01*
X0033178Y0059118D01*
X0033099Y0059159D01*
X0033022Y0059204D01*
X0032947Y0059252D01*
X0032874Y0059303D01*
X0032803Y0059357D01*
X0032735Y0059415D01*
X0032670Y0059475D01*
X0032607Y0059539D01*
X0032547Y0059605D01*
X0032490Y0059674D01*
X0032437Y0059745D01*
X0032386Y0059818D01*
X0032339Y0059894D01*
X0032296Y0059971D01*
X0032255Y0060051D01*
X0032219Y0060132D01*
X0032186Y0060215D01*
X0032157Y0060299D01*
X0032131Y0060385D01*
X0032109Y0060471D01*
X0032092Y0060558D01*
X0032078Y0060646D01*
X0032068Y0060735D01*
X0032062Y0060824D01*
X0032060Y0060913D01*
X0032060Y0041113D02*
X0032062Y0041202D01*
X0032068Y0041291D01*
X0032078Y0041380D01*
X0032092Y0041468D01*
X0032109Y0041555D01*
X0032131Y0041641D01*
X0032157Y0041727D01*
X0032186Y0041811D01*
X0032219Y0041894D01*
X0032255Y0041975D01*
X0032296Y0042055D01*
X0032339Y0042132D01*
X0032386Y0042208D01*
X0032437Y0042281D01*
X0032490Y0042352D01*
X0032547Y0042421D01*
X0032607Y0042487D01*
X0032670Y0042551D01*
X0032735Y0042611D01*
X0032803Y0042669D01*
X0032874Y0042723D01*
X0032947Y0042774D01*
X0033022Y0042822D01*
X0033099Y0042867D01*
X0033178Y0042908D01*
X0033259Y0042945D01*
X0033341Y0042979D01*
X0033425Y0043010D01*
X0033510Y0043036D01*
X0033596Y0043059D01*
X0033683Y0043077D01*
X0033771Y0043092D01*
X0033860Y0043103D01*
X0033949Y0043110D01*
X0034038Y0043113D01*
X0034127Y0043112D01*
X0034216Y0043107D01*
X0034304Y0043098D01*
X0034393Y0043085D01*
X0034480Y0043068D01*
X0034567Y0043048D01*
X0034653Y0043023D01*
X0034737Y0042995D01*
X0034820Y0042963D01*
X0034902Y0042927D01*
X0034982Y0042888D01*
X0035060Y0042845D01*
X0035136Y0042799D01*
X0035210Y0042749D01*
X0035282Y0042696D01*
X0035351Y0042640D01*
X0035418Y0042581D01*
X0035482Y0042519D01*
X0035543Y0042455D01*
X0035602Y0042387D01*
X0035657Y0042317D01*
X0035709Y0042245D01*
X0035758Y0042170D01*
X0035803Y0042094D01*
X0035845Y0042015D01*
X0035883Y0041935D01*
X0035918Y0041853D01*
X0035949Y0041769D01*
X0035977Y0041684D01*
X0036000Y0041598D01*
X0036020Y0041511D01*
X0036036Y0041424D01*
X0036048Y0041335D01*
X0036056Y0041247D01*
X0036060Y0041158D01*
X0036060Y0041068D01*
X0036056Y0040979D01*
X0036048Y0040891D01*
X0036036Y0040802D01*
X0036020Y0040715D01*
X0036000Y0040628D01*
X0035977Y0040542D01*
X0035949Y0040457D01*
X0035918Y0040373D01*
X0035883Y0040291D01*
X0035845Y0040211D01*
X0035803Y0040132D01*
X0035758Y0040056D01*
X0035709Y0039981D01*
X0035657Y0039909D01*
X0035602Y0039839D01*
X0035543Y0039771D01*
X0035482Y0039707D01*
X0035418Y0039645D01*
X0035351Y0039586D01*
X0035282Y0039530D01*
X0035210Y0039477D01*
X0035136Y0039427D01*
X0035060Y0039381D01*
X0034982Y0039338D01*
X0034902Y0039299D01*
X0034820Y0039263D01*
X0034737Y0039231D01*
X0034653Y0039203D01*
X0034567Y0039178D01*
X0034480Y0039158D01*
X0034393Y0039141D01*
X0034304Y0039128D01*
X0034216Y0039119D01*
X0034127Y0039114D01*
X0034038Y0039113D01*
X0033949Y0039116D01*
X0033860Y0039123D01*
X0033771Y0039134D01*
X0033683Y0039149D01*
X0033596Y0039167D01*
X0033510Y0039190D01*
X0033425Y0039216D01*
X0033341Y0039247D01*
X0033259Y0039281D01*
X0033178Y0039318D01*
X0033099Y0039359D01*
X0033022Y0039404D01*
X0032947Y0039452D01*
X0032874Y0039503D01*
X0032803Y0039557D01*
X0032735Y0039615D01*
X0032670Y0039675D01*
X0032607Y0039739D01*
X0032547Y0039805D01*
X0032490Y0039874D01*
X0032437Y0039945D01*
X0032386Y0040018D01*
X0032339Y0040094D01*
X0032296Y0040171D01*
X0032255Y0040251D01*
X0032219Y0040332D01*
X0032186Y0040415D01*
X0032157Y0040499D01*
X0032131Y0040585D01*
X0032109Y0040671D01*
X0032092Y0040758D01*
X0032078Y0040846D01*
X0032068Y0040935D01*
X0032062Y0041024D01*
X0032060Y0041113D01*
X0034060Y0031013D02*
X0037560Y0031013D01*
X0038060Y0029013D01*
X0033560Y0029013D01*
X0034060Y0031013D01*
X0054560Y0031013D02*
X0054560Y0071013D01*
X0068619Y0075599D02*
X0071119Y0073099D01*
X0076119Y0073099D01*
X0078619Y0075599D01*
X0078619Y0080599D01*
X0076119Y0083099D01*
X0078619Y0085599D01*
X0078619Y0090599D01*
X0076119Y0093099D01*
X0078619Y0095599D01*
X0078619Y0100599D01*
X0076119Y0103099D01*
X0078619Y0105599D01*
X0078619Y0110599D01*
X0076119Y0113099D01*
X0078619Y0115599D01*
X0078619Y0120599D01*
X0076119Y0123099D01*
X0078619Y0125599D01*
X0078619Y0130599D01*
X0076119Y0133099D01*
X0078619Y0135599D01*
X0078619Y0140599D01*
X0076119Y0143099D01*
X0071119Y0143099D01*
X0068619Y0140599D01*
X0068619Y0135599D01*
X0071119Y0133099D01*
X0068619Y0130599D01*
X0068619Y0125599D01*
X0071119Y0123099D01*
X0068619Y0120599D01*
X0068619Y0115599D01*
X0071119Y0113099D01*
X0068619Y0110599D01*
X0068619Y0105599D01*
X0071119Y0103099D01*
X0068619Y0100599D01*
X0068619Y0095599D01*
X0071119Y0093099D01*
X0068619Y0090599D01*
X0068619Y0085599D01*
X0071119Y0083099D01*
X0068619Y0080599D01*
X0068619Y0075599D01*
X0086178Y0069103D02*
X0088678Y0066603D01*
X0093678Y0066603D01*
X0096178Y0069103D01*
X0098678Y0066603D01*
X0103678Y0066603D01*
X0106178Y0069103D01*
X0108678Y0066603D01*
X0113678Y0066603D01*
X0116178Y0069103D01*
X0116178Y0084103D01*
X0113678Y0086603D01*
X0108678Y0086603D01*
X0106178Y0084103D01*
X0103678Y0086603D01*
X0098678Y0086603D01*
X0096178Y0084103D01*
X0093678Y0086603D01*
X0088678Y0086603D01*
X0086178Y0084103D01*
X0086178Y0069103D01*
X0083076Y0106736D02*
X0083076Y0111740D01*
X0080573Y0109238D01*
X0083910Y0109238D01*
X0083076Y0116579D02*
X0081407Y0116579D01*
X0080573Y0117413D01*
X0082241Y0119081D02*
X0083076Y0119081D01*
X0083910Y0118247D01*
X0083910Y0117413D01*
X0083076Y0116579D01*
X0083076Y0119081D02*
X0083910Y0119915D01*
X0083910Y0120749D01*
X0083076Y0121583D01*
X0081407Y0121583D01*
X0080573Y0120749D01*
X0080573Y0126421D02*
X0083910Y0129757D01*
X0083910Y0130591D01*
X0083076Y0131426D01*
X0081407Y0131426D01*
X0080573Y0130591D01*
X0080573Y0126421D02*
X0083910Y0126421D01*
X0083910Y0136264D02*
X0080573Y0136264D01*
X0082241Y0136264D02*
X0082241Y0141268D01*
X0080573Y0139600D01*
X0069835Y0157654D02*
X0112835Y0157654D01*
X0112895Y0157656D01*
X0112956Y0157661D01*
X0113015Y0157670D01*
X0113074Y0157683D01*
X0113133Y0157699D01*
X0113190Y0157719D01*
X0113245Y0157742D01*
X0113300Y0157769D01*
X0113352Y0157798D01*
X0113403Y0157831D01*
X0113452Y0157867D01*
X0113498Y0157905D01*
X0113542Y0157947D01*
X0113584Y0157991D01*
X0113622Y0158037D01*
X0113658Y0158086D01*
X0113691Y0158137D01*
X0113720Y0158189D01*
X0113747Y0158244D01*
X0113770Y0158299D01*
X0113790Y0158356D01*
X0113806Y0158415D01*
X0113819Y0158474D01*
X0113828Y0158533D01*
X0113833Y0158594D01*
X0113835Y0158654D01*
X0113835Y0162654D01*
X0113835Y0171654D02*
X0113835Y0175654D01*
X0113833Y0175714D01*
X0113828Y0175775D01*
X0113819Y0175834D01*
X0113806Y0175893D01*
X0113790Y0175952D01*
X0113770Y0176009D01*
X0113747Y0176064D01*
X0113720Y0176119D01*
X0113691Y0176171D01*
X0113658Y0176222D01*
X0113622Y0176271D01*
X0113584Y0176317D01*
X0113542Y0176361D01*
X0113498Y0176403D01*
X0113452Y0176441D01*
X0113403Y0176477D01*
X0113352Y0176510D01*
X0113300Y0176539D01*
X0113245Y0176566D01*
X0113190Y0176589D01*
X0113133Y0176609D01*
X0113074Y0176625D01*
X0113015Y0176638D01*
X0112956Y0176647D01*
X0112895Y0176652D01*
X0112835Y0176654D01*
X0069835Y0176654D01*
X0069775Y0176652D01*
X0069714Y0176647D01*
X0069655Y0176638D01*
X0069596Y0176625D01*
X0069537Y0176609D01*
X0069480Y0176589D01*
X0069425Y0176566D01*
X0069370Y0176539D01*
X0069318Y0176510D01*
X0069267Y0176477D01*
X0069218Y0176441D01*
X0069172Y0176403D01*
X0069128Y0176361D01*
X0069086Y0176317D01*
X0069048Y0176271D01*
X0069012Y0176222D01*
X0068979Y0176171D01*
X0068950Y0176119D01*
X0068923Y0176064D01*
X0068900Y0176009D01*
X0068880Y0175952D01*
X0068864Y0175893D01*
X0068851Y0175834D01*
X0068842Y0175775D01*
X0068837Y0175714D01*
X0068835Y0175654D01*
X0068835Y0171654D01*
X0068835Y0162654D02*
X0068835Y0158654D01*
X0068837Y0158594D01*
X0068842Y0158533D01*
X0068851Y0158474D01*
X0068864Y0158415D01*
X0068880Y0158356D01*
X0068900Y0158299D01*
X0068923Y0158244D01*
X0068950Y0158189D01*
X0068979Y0158137D01*
X0069012Y0158086D01*
X0069048Y0158037D01*
X0069086Y0157991D01*
X0069128Y0157947D01*
X0069172Y0157905D01*
X0069218Y0157867D01*
X0069267Y0157831D01*
X0069318Y0157798D01*
X0069370Y0157769D01*
X0069425Y0157742D01*
X0069480Y0157719D01*
X0069537Y0157699D01*
X0069596Y0157683D01*
X0069655Y0157670D01*
X0069714Y0157661D01*
X0069775Y0157656D01*
X0069835Y0157654D01*
X0088835Y0164654D02*
X0088835Y0167154D01*
X0088835Y0169654D01*
X0090335Y0169654D02*
X0092335Y0169654D01*
X0092335Y0164654D01*
X0090335Y0164654D01*
X0090335Y0169654D01*
X0093835Y0169654D02*
X0093835Y0167154D01*
X0093835Y0164654D01*
X0115174Y0183808D02*
X0112674Y0186308D01*
X0112674Y0191308D01*
X0115174Y0193808D01*
X0120174Y0193808D01*
X0122674Y0191308D01*
X0125174Y0193808D01*
X0130174Y0193808D01*
X0132674Y0191308D01*
X0135174Y0193808D01*
X0140174Y0193808D01*
X0142674Y0191308D01*
X0145174Y0193808D01*
X0150174Y0193808D01*
X0152674Y0191308D01*
X0152674Y0186308D01*
X0150174Y0183808D01*
X0145174Y0183808D01*
X0142674Y0186308D01*
X0140174Y0183808D01*
X0135174Y0183808D01*
X0132674Y0186308D01*
X0130174Y0183808D01*
X0125174Y0183808D01*
X0122674Y0186308D01*
X0120174Y0183808D01*
X0115174Y0183808D01*
X0184587Y0135062D02*
X0186722Y0132927D01*
X0190992Y0132927D01*
X0190992Y0130752D02*
X0188857Y0128617D01*
X0188857Y0129684D02*
X0188857Y0126481D01*
X0190992Y0126481D02*
X0184587Y0126481D01*
X0184587Y0129684D01*
X0185654Y0130752D01*
X0187789Y0130752D01*
X0188857Y0129684D01*
X0187789Y0132927D02*
X0187789Y0137197D01*
X0186722Y0137197D02*
X0184587Y0135062D01*
X0186722Y0137197D02*
X0190992Y0137197D01*
X0194429Y0137024D02*
X0194429Y0134889D01*
X0195497Y0133821D01*
X0199767Y0133821D01*
X0200835Y0134889D01*
X0200835Y0137024D01*
X0199767Y0138091D01*
X0200835Y0140267D02*
X0196564Y0140267D01*
X0194429Y0142402D01*
X0196564Y0144537D01*
X0200835Y0144537D01*
X0197632Y0144537D02*
X0197632Y0140267D01*
X0195497Y0138091D02*
X0194429Y0137024D01*
X0194429Y0131659D02*
X0194429Y0129524D01*
X0194429Y0130592D02*
X0200835Y0130592D01*
X0200835Y0131659D02*
X0200835Y0129524D01*
X0200835Y0127349D02*
X0194429Y0127349D01*
X0194429Y0123079D02*
X0200835Y0127349D01*
X0204272Y0125207D02*
X0205339Y0126275D01*
X0209609Y0122004D01*
X0210677Y0123072D01*
X0210677Y0125207D01*
X0209609Y0126275D01*
X0205339Y0126275D01*
X0204272Y0125207D02*
X0204272Y0123072D01*
X0205339Y0122004D01*
X0209609Y0122004D01*
X0209609Y0119849D02*
X0210677Y0119849D01*
X0210677Y0118782D01*
X0209609Y0118782D01*
X0209609Y0119849D01*
X0209609Y0116607D02*
X0207474Y0116607D01*
X0206407Y0115539D01*
X0206407Y0114471D01*
X0207474Y0112336D01*
X0204272Y0112336D01*
X0204272Y0116607D01*
X0200835Y0117701D02*
X0200835Y0119836D01*
X0199767Y0120903D01*
X0195497Y0120903D01*
X0194429Y0119836D01*
X0194429Y0117701D01*
X0195497Y0116633D01*
X0199767Y0116633D01*
X0200835Y0117701D01*
X0200835Y0114458D02*
X0198699Y0112323D01*
X0198699Y0113390D02*
X0198699Y0110188D01*
X0200835Y0110188D02*
X0194429Y0110188D01*
X0194429Y0113390D01*
X0195497Y0114458D01*
X0197632Y0114458D01*
X0198699Y0113390D01*
X0194429Y0108012D02*
X0194429Y0103742D01*
X0194429Y0105877D02*
X0200835Y0105877D01*
X0204272Y0104803D02*
X0210677Y0104803D01*
X0210677Y0102668D02*
X0210677Y0106938D01*
X0210677Y0109113D02*
X0210677Y0110181D01*
X0209609Y0110181D01*
X0209609Y0109113D01*
X0210677Y0109113D01*
X0209609Y0112336D02*
X0210677Y0113404D01*
X0210677Y0115539D01*
X0209609Y0116607D01*
X0200835Y0123079D02*
X0194429Y0123079D01*
X0190992Y0123239D02*
X0190992Y0121103D01*
X0189924Y0120036D01*
X0184587Y0120036D01*
X0185654Y0117861D02*
X0184587Y0116793D01*
X0184587Y0113590D01*
X0190992Y0113590D01*
X0190992Y0116793D01*
X0189924Y0117861D01*
X0185654Y0117861D01*
X0186722Y0111415D02*
X0190992Y0111415D01*
X0187789Y0111415D02*
X0187789Y0107145D01*
X0186722Y0107145D02*
X0184587Y0109280D01*
X0186722Y0111415D01*
X0186722Y0107145D02*
X0190992Y0107145D01*
X0190992Y0104970D02*
X0188857Y0102835D01*
X0188857Y0103902D02*
X0188857Y0100699D01*
X0190992Y0100699D02*
X0184587Y0100699D01*
X0184587Y0103902D01*
X0185654Y0104970D01*
X0187789Y0104970D01*
X0188857Y0103902D01*
X0187789Y0098524D02*
X0185654Y0098524D01*
X0184587Y0097457D01*
X0184587Y0094254D01*
X0190992Y0094254D01*
X0188857Y0094254D02*
X0188857Y0097457D01*
X0187789Y0098524D01*
X0188857Y0096389D02*
X0190992Y0098524D01*
X0194429Y0098364D02*
X0195497Y0097297D01*
X0199767Y0097297D01*
X0200835Y0098364D01*
X0200835Y0100499D01*
X0199767Y0101567D01*
X0195497Y0101567D02*
X0194429Y0100499D01*
X0194429Y0098364D01*
X0194429Y0095121D02*
X0194429Y0090851D01*
X0200835Y0090851D01*
X0200835Y0095121D01*
X0197632Y0092986D02*
X0197632Y0090851D01*
X0200835Y0088676D02*
X0200835Y0084406D01*
X0194429Y0084406D01*
X0194429Y0082230D02*
X0194429Y0077960D01*
X0200835Y0077960D01*
X0200835Y0082230D01*
X0197632Y0080095D02*
X0197632Y0077960D01*
X0190992Y0082430D02*
X0190992Y0084566D01*
X0189924Y0085633D01*
X0190992Y0087808D02*
X0190992Y0092079D01*
X0187789Y0089944D02*
X0187789Y0087808D01*
X0185654Y0085633D02*
X0184587Y0084566D01*
X0184587Y0082430D01*
X0185654Y0081363D01*
X0189924Y0081363D01*
X0190992Y0082430D01*
X0190992Y0087808D02*
X0184587Y0087808D01*
X0184587Y0092079D01*
X0204272Y0104803D02*
X0206407Y0102668D01*
X0206407Y0100493D02*
X0210677Y0098358D01*
X0206407Y0096222D01*
X0209572Y0073013D02*
X0210072Y0071013D01*
X0193072Y0071013D01*
X0193072Y0031013D01*
X0187572Y0031013D01*
X0187572Y0071013D01*
X0193072Y0071013D01*
X0209572Y0073013D02*
X0214072Y0073013D01*
X0213572Y0071013D01*
X0210072Y0071013D01*
X0210072Y0031013D01*
X0193072Y0031013D01*
X0210072Y0031013D02*
X0217072Y0031013D01*
X0217072Y0071013D01*
X0213572Y0071013D01*
X0211572Y0060913D02*
X0211574Y0061002D01*
X0211580Y0061091D01*
X0211590Y0061180D01*
X0211604Y0061268D01*
X0211621Y0061355D01*
X0211643Y0061441D01*
X0211669Y0061527D01*
X0211698Y0061611D01*
X0211731Y0061694D01*
X0211767Y0061775D01*
X0211808Y0061855D01*
X0211851Y0061932D01*
X0211898Y0062008D01*
X0211949Y0062081D01*
X0212002Y0062152D01*
X0212059Y0062221D01*
X0212119Y0062287D01*
X0212182Y0062351D01*
X0212247Y0062411D01*
X0212315Y0062469D01*
X0212386Y0062523D01*
X0212459Y0062574D01*
X0212534Y0062622D01*
X0212611Y0062667D01*
X0212690Y0062708D01*
X0212771Y0062745D01*
X0212853Y0062779D01*
X0212937Y0062810D01*
X0213022Y0062836D01*
X0213108Y0062859D01*
X0213195Y0062877D01*
X0213283Y0062892D01*
X0213372Y0062903D01*
X0213461Y0062910D01*
X0213550Y0062913D01*
X0213639Y0062912D01*
X0213728Y0062907D01*
X0213816Y0062898D01*
X0213905Y0062885D01*
X0213992Y0062868D01*
X0214079Y0062848D01*
X0214165Y0062823D01*
X0214249Y0062795D01*
X0214332Y0062763D01*
X0214414Y0062727D01*
X0214494Y0062688D01*
X0214572Y0062645D01*
X0214648Y0062599D01*
X0214722Y0062549D01*
X0214794Y0062496D01*
X0214863Y0062440D01*
X0214930Y0062381D01*
X0214994Y0062319D01*
X0215055Y0062255D01*
X0215114Y0062187D01*
X0215169Y0062117D01*
X0215221Y0062045D01*
X0215270Y0061970D01*
X0215315Y0061894D01*
X0215357Y0061815D01*
X0215395Y0061735D01*
X0215430Y0061653D01*
X0215461Y0061569D01*
X0215489Y0061484D01*
X0215512Y0061398D01*
X0215532Y0061311D01*
X0215548Y0061224D01*
X0215560Y0061135D01*
X0215568Y0061047D01*
X0215572Y0060958D01*
X0215572Y0060868D01*
X0215568Y0060779D01*
X0215560Y0060691D01*
X0215548Y0060602D01*
X0215532Y0060515D01*
X0215512Y0060428D01*
X0215489Y0060342D01*
X0215461Y0060257D01*
X0215430Y0060173D01*
X0215395Y0060091D01*
X0215357Y0060011D01*
X0215315Y0059932D01*
X0215270Y0059856D01*
X0215221Y0059781D01*
X0215169Y0059709D01*
X0215114Y0059639D01*
X0215055Y0059571D01*
X0214994Y0059507D01*
X0214930Y0059445D01*
X0214863Y0059386D01*
X0214794Y0059330D01*
X0214722Y0059277D01*
X0214648Y0059227D01*
X0214572Y0059181D01*
X0214494Y0059138D01*
X0214414Y0059099D01*
X0214332Y0059063D01*
X0214249Y0059031D01*
X0214165Y0059003D01*
X0214079Y0058978D01*
X0213992Y0058958D01*
X0213905Y0058941D01*
X0213816Y0058928D01*
X0213728Y0058919D01*
X0213639Y0058914D01*
X0213550Y0058913D01*
X0213461Y0058916D01*
X0213372Y0058923D01*
X0213283Y0058934D01*
X0213195Y0058949D01*
X0213108Y0058967D01*
X0213022Y0058990D01*
X0212937Y0059016D01*
X0212853Y0059047D01*
X0212771Y0059081D01*
X0212690Y0059118D01*
X0212611Y0059159D01*
X0212534Y0059204D01*
X0212459Y0059252D01*
X0212386Y0059303D01*
X0212315Y0059357D01*
X0212247Y0059415D01*
X0212182Y0059475D01*
X0212119Y0059539D01*
X0212059Y0059605D01*
X0212002Y0059674D01*
X0211949Y0059745D01*
X0211898Y0059818D01*
X0211851Y0059894D01*
X0211808Y0059971D01*
X0211767Y0060051D01*
X0211731Y0060132D01*
X0211698Y0060215D01*
X0211669Y0060299D01*
X0211643Y0060385D01*
X0211621Y0060471D01*
X0211604Y0060558D01*
X0211590Y0060646D01*
X0211580Y0060735D01*
X0211574Y0060824D01*
X0211572Y0060913D01*
X0211572Y0041113D02*
X0211574Y0041202D01*
X0211580Y0041291D01*
X0211590Y0041380D01*
X0211604Y0041468D01*
X0211621Y0041555D01*
X0211643Y0041641D01*
X0211669Y0041727D01*
X0211698Y0041811D01*
X0211731Y0041894D01*
X0211767Y0041975D01*
X0211808Y0042055D01*
X0211851Y0042132D01*
X0211898Y0042208D01*
X0211949Y0042281D01*
X0212002Y0042352D01*
X0212059Y0042421D01*
X0212119Y0042487D01*
X0212182Y0042551D01*
X0212247Y0042611D01*
X0212315Y0042669D01*
X0212386Y0042723D01*
X0212459Y0042774D01*
X0212534Y0042822D01*
X0212611Y0042867D01*
X0212690Y0042908D01*
X0212771Y0042945D01*
X0212853Y0042979D01*
X0212937Y0043010D01*
X0213022Y0043036D01*
X0213108Y0043059D01*
X0213195Y0043077D01*
X0213283Y0043092D01*
X0213372Y0043103D01*
X0213461Y0043110D01*
X0213550Y0043113D01*
X0213639Y0043112D01*
X0213728Y0043107D01*
X0213816Y0043098D01*
X0213905Y0043085D01*
X0213992Y0043068D01*
X0214079Y0043048D01*
X0214165Y0043023D01*
X0214249Y0042995D01*
X0214332Y0042963D01*
X0214414Y0042927D01*
X0214494Y0042888D01*
X0214572Y0042845D01*
X0214648Y0042799D01*
X0214722Y0042749D01*
X0214794Y0042696D01*
X0214863Y0042640D01*
X0214930Y0042581D01*
X0214994Y0042519D01*
X0215055Y0042455D01*
X0215114Y0042387D01*
X0215169Y0042317D01*
X0215221Y0042245D01*
X0215270Y0042170D01*
X0215315Y0042094D01*
X0215357Y0042015D01*
X0215395Y0041935D01*
X0215430Y0041853D01*
X0215461Y0041769D01*
X0215489Y0041684D01*
X0215512Y0041598D01*
X0215532Y0041511D01*
X0215548Y0041424D01*
X0215560Y0041335D01*
X0215568Y0041247D01*
X0215572Y0041158D01*
X0215572Y0041068D01*
X0215568Y0040979D01*
X0215560Y0040891D01*
X0215548Y0040802D01*
X0215532Y0040715D01*
X0215512Y0040628D01*
X0215489Y0040542D01*
X0215461Y0040457D01*
X0215430Y0040373D01*
X0215395Y0040291D01*
X0215357Y0040211D01*
X0215315Y0040132D01*
X0215270Y0040056D01*
X0215221Y0039981D01*
X0215169Y0039909D01*
X0215114Y0039839D01*
X0215055Y0039771D01*
X0214994Y0039707D01*
X0214930Y0039645D01*
X0214863Y0039586D01*
X0214794Y0039530D01*
X0214722Y0039477D01*
X0214648Y0039427D01*
X0214572Y0039381D01*
X0214494Y0039338D01*
X0214414Y0039299D01*
X0214332Y0039263D01*
X0214249Y0039231D01*
X0214165Y0039203D01*
X0214079Y0039178D01*
X0213992Y0039158D01*
X0213905Y0039141D01*
X0213816Y0039128D01*
X0213728Y0039119D01*
X0213639Y0039114D01*
X0213550Y0039113D01*
X0213461Y0039116D01*
X0213372Y0039123D01*
X0213283Y0039134D01*
X0213195Y0039149D01*
X0213108Y0039167D01*
X0213022Y0039190D01*
X0212937Y0039216D01*
X0212853Y0039247D01*
X0212771Y0039281D01*
X0212690Y0039318D01*
X0212611Y0039359D01*
X0212534Y0039404D01*
X0212459Y0039452D01*
X0212386Y0039503D01*
X0212315Y0039557D01*
X0212247Y0039615D01*
X0212182Y0039675D01*
X0212119Y0039739D01*
X0212059Y0039805D01*
X0212002Y0039874D01*
X0211949Y0039945D01*
X0211898Y0040018D01*
X0211851Y0040094D01*
X0211808Y0040171D01*
X0211767Y0040251D01*
X0211731Y0040332D01*
X0211698Y0040415D01*
X0211669Y0040499D01*
X0211643Y0040585D01*
X0211621Y0040671D01*
X0211604Y0040758D01*
X0211590Y0040846D01*
X0211580Y0040935D01*
X0211574Y0041024D01*
X0211572Y0041113D01*
X0190992Y0123239D02*
X0189924Y0124306D01*
X0184587Y0124306D01*
D12*
X0173920Y0133753D02*
X0173920Y0135254D01*
X0173169Y0136005D01*
X0173920Y0137606D02*
X0173920Y0140608D01*
X0173920Y0139107D02*
X0169416Y0139107D01*
X0170917Y0137606D01*
X0170167Y0136005D02*
X0169416Y0135254D01*
X0169416Y0133753D01*
X0170167Y0133002D01*
X0173169Y0133002D01*
X0173920Y0133753D01*
X0172699Y0130006D02*
X0172699Y0127004D01*
X0172699Y0128505D02*
X0168196Y0128505D01*
X0169697Y0127004D01*
X0168946Y0125402D02*
X0168196Y0124652D01*
X0168196Y0122400D01*
X0172699Y0122400D01*
X0172699Y0124652D01*
X0171949Y0125402D01*
X0168946Y0125402D01*
X0168196Y0120798D02*
X0168196Y0117796D01*
X0172699Y0117796D01*
X0172699Y0120798D01*
X0170448Y0119297D02*
X0170448Y0117796D01*
X0172699Y0116194D02*
X0172699Y0113192D01*
X0168196Y0113192D01*
X0170915Y0107019D02*
X0170164Y0106268D01*
X0170164Y0104767D01*
X0170915Y0104016D01*
X0170915Y0102415D02*
X0172416Y0102415D01*
X0173167Y0101664D01*
X0173167Y0099412D01*
X0174668Y0099412D02*
X0170164Y0099412D01*
X0170164Y0101664D01*
X0170915Y0102415D01*
X0173167Y0100913D02*
X0174668Y0102415D01*
X0174668Y0104016D02*
X0171665Y0107019D01*
X0170915Y0107019D01*
X0174668Y0107019D02*
X0174668Y0104016D01*
X0154077Y0124848D02*
X0153327Y0124097D01*
X0154077Y0124848D02*
X0154077Y0126349D01*
X0153327Y0127100D01*
X0152576Y0127100D01*
X0151826Y0126349D01*
X0151826Y0124848D01*
X0151075Y0124097D01*
X0150324Y0124097D01*
X0149574Y0124848D01*
X0149574Y0126349D01*
X0150324Y0127100D01*
X0151075Y0128701D02*
X0149574Y0130202D01*
X0154077Y0130202D01*
X0154077Y0128701D02*
X0154077Y0131704D01*
X0147438Y0138217D02*
X0147438Y0116957D01*
X0147437Y0116957D02*
X0147435Y0116895D01*
X0147429Y0116834D01*
X0147420Y0116773D01*
X0147406Y0116712D01*
X0147389Y0116653D01*
X0147368Y0116595D01*
X0147343Y0116538D01*
X0147315Y0116483D01*
X0147284Y0116430D01*
X0147249Y0116379D01*
X0147211Y0116330D01*
X0147170Y0116283D01*
X0147127Y0116240D01*
X0147080Y0116199D01*
X0147031Y0116161D01*
X0146980Y0116126D01*
X0146927Y0116095D01*
X0146872Y0116067D01*
X0146815Y0116042D01*
X0146757Y0116021D01*
X0146698Y0116004D01*
X0146637Y0115990D01*
X0146576Y0115981D01*
X0146515Y0115975D01*
X0146453Y0115973D01*
X0144879Y0115973D01*
X0143501Y0121879D02*
X0137595Y0121879D01*
X0137595Y0133690D01*
X0143501Y0133690D01*
X0143501Y0121879D01*
X0136217Y0115973D02*
X0134642Y0115973D01*
X0134580Y0115975D01*
X0134519Y0115981D01*
X0134458Y0115990D01*
X0134397Y0116004D01*
X0134338Y0116021D01*
X0134280Y0116042D01*
X0134223Y0116067D01*
X0134168Y0116095D01*
X0134115Y0116126D01*
X0134064Y0116161D01*
X0134015Y0116199D01*
X0133968Y0116240D01*
X0133925Y0116283D01*
X0133884Y0116330D01*
X0133846Y0116379D01*
X0133811Y0116430D01*
X0133780Y0116483D01*
X0133752Y0116538D01*
X0133727Y0116595D01*
X0133706Y0116653D01*
X0133689Y0116712D01*
X0133675Y0116773D01*
X0133666Y0116834D01*
X0133660Y0116895D01*
X0133658Y0116957D01*
X0133658Y0138611D01*
X0133660Y0138673D01*
X0133666Y0138734D01*
X0133675Y0138795D01*
X0133689Y0138856D01*
X0133706Y0138915D01*
X0133727Y0138973D01*
X0133752Y0139030D01*
X0133780Y0139085D01*
X0133811Y0139138D01*
X0133846Y0139189D01*
X0133884Y0139238D01*
X0133925Y0139285D01*
X0133968Y0139328D01*
X0134015Y0139369D01*
X0134064Y0139407D01*
X0134115Y0139442D01*
X0134168Y0139473D01*
X0134223Y0139501D01*
X0134280Y0139526D01*
X0134338Y0139547D01*
X0134397Y0139564D01*
X0134458Y0139578D01*
X0134519Y0139587D01*
X0134580Y0139593D01*
X0134642Y0139595D01*
X0136217Y0139595D01*
X0144879Y0139595D02*
X0146453Y0139595D01*
X0146454Y0139595D02*
X0146520Y0139582D01*
X0146585Y0139565D01*
X0146649Y0139545D01*
X0146712Y0139521D01*
X0146773Y0139494D01*
X0146833Y0139463D01*
X0146891Y0139430D01*
X0146947Y0139392D01*
X0147000Y0139352D01*
X0147052Y0139309D01*
X0147101Y0139263D01*
X0147147Y0139214D01*
X0147190Y0139163D01*
X0147231Y0139110D01*
X0147269Y0139054D01*
X0147303Y0138996D01*
X0147334Y0138937D01*
X0147361Y0138876D01*
X0147386Y0138813D01*
X0147406Y0138749D01*
X0147423Y0138684D01*
X0147436Y0138618D01*
X0147446Y0138552D01*
X0147452Y0138485D01*
X0147454Y0138418D01*
X0147452Y0138351D01*
X0147447Y0138284D01*
X0147438Y0138217D01*
X0132499Y0148034D02*
X0129496Y0148034D01*
X0130998Y0148034D02*
X0130998Y0152538D01*
X0129496Y0151037D01*
X0127895Y0152538D02*
X0127895Y0148785D01*
X0127144Y0148034D01*
X0125643Y0148034D01*
X0124892Y0148785D01*
X0124892Y0152538D01*
X0143672Y0160593D02*
X0143672Y0165097D01*
X0145924Y0165097D01*
X0146674Y0164347D01*
X0146674Y0162845D01*
X0145924Y0162095D01*
X0143672Y0162095D01*
X0145173Y0162095D02*
X0146674Y0160593D01*
X0148276Y0160593D02*
X0151278Y0160593D01*
X0149777Y0160593D02*
X0149777Y0165097D01*
X0148276Y0163596D01*
X0149026Y0176341D02*
X0148276Y0177092D01*
X0149026Y0176341D02*
X0150528Y0176341D01*
X0151278Y0177092D01*
X0151278Y0177843D01*
X0150528Y0178593D01*
X0149777Y0178593D01*
X0150528Y0178593D02*
X0151278Y0179344D01*
X0151278Y0180095D01*
X0150528Y0180845D01*
X0149026Y0180845D01*
X0148276Y0180095D01*
X0146674Y0180095D02*
X0145924Y0180845D01*
X0144423Y0180845D01*
X0143672Y0180095D01*
X0143672Y0177092D01*
X0144423Y0176341D01*
X0145924Y0176341D01*
X0146674Y0177092D01*
X0136945Y0195558D02*
X0133943Y0195558D01*
X0135444Y0195558D02*
X0135444Y0200062D01*
X0133943Y0198560D01*
X0132341Y0197059D02*
X0132341Y0200062D01*
X0129339Y0200062D02*
X0129339Y0197059D01*
X0130840Y0195558D01*
X0132341Y0197059D01*
X0127737Y0197059D02*
X0127737Y0196309D01*
X0126987Y0195558D01*
X0125486Y0195558D01*
X0124735Y0196309D01*
X0125486Y0197810D02*
X0126987Y0197810D01*
X0127737Y0197059D01*
X0127737Y0199311D02*
X0126987Y0200062D01*
X0125486Y0200062D01*
X0124735Y0199311D01*
X0124735Y0198560D01*
X0125486Y0197810D01*
X0095928Y0191664D02*
X0095928Y0188662D01*
X0095928Y0190163D02*
X0091424Y0190163D01*
X0092925Y0188662D01*
X0092175Y0187060D02*
X0091424Y0186310D01*
X0091424Y0184809D01*
X0092175Y0184058D01*
X0095177Y0184058D01*
X0095928Y0184809D01*
X0095928Y0186310D01*
X0095177Y0187060D01*
X0076243Y0186310D02*
X0076243Y0184809D01*
X0075492Y0184058D01*
X0072490Y0184058D01*
X0071739Y0184809D01*
X0071739Y0186310D01*
X0072490Y0187060D01*
X0072490Y0188662D02*
X0071739Y0189412D01*
X0071739Y0190914D01*
X0072490Y0191664D01*
X0073240Y0191664D01*
X0076243Y0188662D01*
X0076243Y0191664D01*
X0075492Y0187060D02*
X0076243Y0186310D01*
X0077931Y0154940D02*
X0080934Y0150436D01*
X0077931Y0150436D02*
X0080934Y0154940D01*
X0082535Y0154940D02*
X0085537Y0154940D01*
X0084036Y0154940D02*
X0084036Y0150436D01*
X0087139Y0150436D02*
X0090141Y0153438D01*
X0090141Y0154189D01*
X0089391Y0154940D01*
X0087889Y0154940D01*
X0087139Y0154189D01*
X0087139Y0150436D02*
X0090141Y0150436D01*
X0066869Y0136849D02*
X0066118Y0136849D01*
X0063116Y0139852D01*
X0062365Y0139852D01*
X0062365Y0136849D01*
X0061147Y0121692D02*
X0060396Y0120941D01*
X0060396Y0119440D01*
X0061147Y0118689D01*
X0064150Y0118689D01*
X0064900Y0119440D01*
X0064900Y0120941D01*
X0064150Y0121692D01*
X0061147Y0121692D01*
X0061147Y0117088D02*
X0060396Y0116337D01*
X0060396Y0114085D01*
X0064900Y0114085D01*
X0064900Y0116337D01*
X0064150Y0117088D01*
X0061147Y0117088D01*
X0061898Y0112484D02*
X0064900Y0112484D01*
X0062648Y0112484D02*
X0062648Y0109481D01*
X0061898Y0109481D02*
X0060396Y0110983D01*
X0061898Y0112484D01*
X0061898Y0109481D02*
X0064900Y0109481D01*
X0064900Y0107880D02*
X0064900Y0104878D01*
X0060396Y0104878D01*
X0061147Y0103276D02*
X0060396Y0102526D01*
X0060396Y0101024D01*
X0061147Y0100274D01*
X0064150Y0100274D01*
X0064900Y0101024D01*
X0064900Y0102526D01*
X0064150Y0103276D01*
X0064900Y0098672D02*
X0064900Y0095670D01*
X0060396Y0095670D01*
X0060396Y0098672D01*
X0062648Y0097171D02*
X0062648Y0095670D01*
X0060396Y0094068D02*
X0060396Y0091066D01*
X0060396Y0092567D02*
X0064900Y0092567D01*
X0066869Y0079248D02*
X0066869Y0076245D01*
X0066869Y0077747D02*
X0062365Y0077747D01*
X0063866Y0076245D01*
X0081581Y0061659D02*
X0081581Y0060158D01*
X0082332Y0059407D01*
X0085335Y0059407D01*
X0082332Y0062410D01*
X0085335Y0062410D01*
X0086085Y0061659D01*
X0086085Y0060158D01*
X0085335Y0059407D01*
X0086085Y0057806D02*
X0086085Y0054804D01*
X0086085Y0056305D02*
X0081581Y0056305D01*
X0083083Y0054804D01*
X0083833Y0053202D02*
X0082332Y0053202D01*
X0081581Y0052452D01*
X0081581Y0050200D01*
X0086085Y0050200D01*
X0084584Y0050200D02*
X0084584Y0052452D01*
X0083833Y0053202D01*
X0084584Y0051701D02*
X0086085Y0053202D01*
X0088928Y0060353D02*
X0091930Y0060353D01*
X0090429Y0060353D02*
X0090429Y0064857D01*
X0088928Y0063356D01*
X0082332Y0062410D02*
X0081581Y0061659D01*
X0081584Y0038913D02*
X0080833Y0038163D01*
X0080833Y0036661D01*
X0081584Y0035911D01*
X0082335Y0038913D02*
X0085337Y0035911D01*
X0085337Y0038913D01*
X0082335Y0038913D02*
X0081584Y0038913D01*
X0085337Y0034309D02*
X0085337Y0031307D01*
X0085337Y0032808D02*
X0080833Y0032808D01*
X0082335Y0031307D01*
X0081584Y0029705D02*
X0080833Y0028955D01*
X0080833Y0027453D01*
X0081584Y0026703D01*
X0084587Y0026703D01*
X0085337Y0027453D01*
X0085337Y0028955D01*
X0084587Y0029705D01*
X0086022Y0020916D02*
X0086022Y0017914D01*
X0083020Y0020916D01*
X0082269Y0020916D01*
X0081518Y0020166D01*
X0081518Y0018664D01*
X0082269Y0017914D01*
X0082269Y0016312D02*
X0081518Y0015562D01*
X0081518Y0013310D01*
X0086022Y0013310D01*
X0086022Y0015562D01*
X0085272Y0016312D01*
X0082269Y0016312D01*
X0106002Y0050948D02*
X0105251Y0051698D01*
X0105251Y0054701D01*
X0106002Y0055451D01*
X0107503Y0055451D01*
X0108254Y0054701D01*
X0108254Y0051698D01*
X0107503Y0050948D01*
X0106002Y0050948D01*
X0106753Y0052449D02*
X0108254Y0050948D01*
X0109855Y0050948D02*
X0112858Y0053950D01*
X0112858Y0054701D01*
X0112107Y0055451D01*
X0110606Y0055451D01*
X0109855Y0054701D01*
X0109855Y0050948D02*
X0112858Y0050948D01*
X0118389Y0065790D02*
X0118389Y0067291D01*
X0118389Y0066541D02*
X0122892Y0066541D01*
X0122892Y0067291D02*
X0122892Y0065790D01*
X0122142Y0068859D02*
X0122892Y0069610D01*
X0122892Y0071111D01*
X0122142Y0071862D01*
X0121391Y0071862D01*
X0120640Y0071111D01*
X0120640Y0069610D01*
X0119890Y0068859D01*
X0119139Y0068859D01*
X0118389Y0069610D01*
X0118389Y0071111D01*
X0119139Y0071862D01*
X0118389Y0073463D02*
X0118389Y0075715D01*
X0119139Y0076466D01*
X0120640Y0076466D01*
X0121391Y0075715D01*
X0121391Y0073463D01*
X0122892Y0073463D02*
X0118389Y0073463D01*
X0118178Y0079353D02*
X0119680Y0079353D01*
X0120430Y0080104D01*
X0120430Y0080854D01*
X0119680Y0081605D01*
X0117428Y0081605D01*
X0117428Y0080104D01*
X0118178Y0079353D01*
X0117428Y0081605D02*
X0118929Y0083106D01*
X0120430Y0083857D01*
X0121000Y0103507D02*
X0119499Y0103507D01*
X0118748Y0104257D01*
X0118748Y0105759D02*
X0120250Y0106509D01*
X0121000Y0106509D01*
X0121751Y0105759D01*
X0121751Y0104257D01*
X0121000Y0103507D01*
X0118748Y0105759D02*
X0118748Y0108011D01*
X0121751Y0108011D01*
X0117147Y0107260D02*
X0116396Y0108011D01*
X0114895Y0108011D01*
X0114144Y0107260D01*
X0114144Y0104257D01*
X0114895Y0103507D01*
X0116396Y0103507D01*
X0117147Y0104257D01*
X0102066Y0103507D02*
X0099063Y0103507D01*
X0100565Y0103507D02*
X0100565Y0108011D01*
X0099063Y0106509D01*
X0097462Y0103507D02*
X0094459Y0103507D01*
X0094459Y0108011D01*
X0085180Y0104812D02*
X0080676Y0104812D01*
X0082177Y0103310D01*
X0080676Y0101809D01*
X0085180Y0101809D01*
X0084429Y0100208D02*
X0081427Y0100208D01*
X0080676Y0099457D01*
X0080676Y0097956D01*
X0081427Y0097205D01*
X0084429Y0097205D01*
X0085180Y0097956D01*
X0085180Y0099457D01*
X0084429Y0100208D01*
X0084429Y0095604D02*
X0085180Y0094853D01*
X0085180Y0093352D01*
X0084429Y0092601D01*
X0081427Y0092601D01*
X0080676Y0093352D01*
X0080676Y0094853D01*
X0081427Y0095604D01*
X0036810Y0095548D02*
X0036810Y0094047D01*
X0036059Y0093296D01*
X0035308Y0093296D01*
X0034558Y0094047D01*
X0034558Y0095548D01*
X0035308Y0096299D01*
X0036059Y0096299D01*
X0036810Y0095548D01*
X0034558Y0095548D02*
X0033807Y0096299D01*
X0033057Y0096299D01*
X0032306Y0095548D01*
X0032306Y0094047D01*
X0033057Y0093296D01*
X0033807Y0093296D01*
X0034558Y0094047D01*
X0036059Y0091695D02*
X0036810Y0090944D01*
X0036810Y0089443D01*
X0036059Y0088693D01*
X0033057Y0088693D01*
X0032306Y0089443D01*
X0032306Y0090944D01*
X0033057Y0091695D01*
X0034029Y0084794D02*
X0033278Y0084044D01*
X0033278Y0083293D01*
X0034029Y0081792D01*
X0031777Y0081792D01*
X0031777Y0084794D01*
X0034029Y0084794D02*
X0035530Y0084794D01*
X0036281Y0084044D01*
X0036281Y0082542D01*
X0035530Y0081792D01*
X0036281Y0080190D02*
X0034779Y0078689D01*
X0034779Y0079440D02*
X0034779Y0077188D01*
X0036281Y0077188D02*
X0031777Y0077188D01*
X0031777Y0079440D01*
X0032527Y0080190D01*
X0034029Y0080190D01*
X0034779Y0079440D01*
X0035271Y0100318D02*
X0035271Y0102570D01*
X0034521Y0103320D01*
X0033020Y0103320D01*
X0032269Y0102570D01*
X0032269Y0100318D01*
X0036773Y0100318D01*
X0035271Y0101819D02*
X0036773Y0103320D01*
X0036022Y0104922D02*
X0034521Y0104922D01*
X0034521Y0107174D01*
X0035271Y0107924D01*
X0036022Y0107924D01*
X0036773Y0107174D01*
X0036773Y0105672D01*
X0036022Y0104922D01*
X0034521Y0104922D02*
X0033020Y0106423D01*
X0032269Y0107924D01*
X0033647Y0111724D02*
X0036650Y0111724D01*
X0037400Y0112475D01*
X0037400Y0113976D01*
X0036650Y0114727D01*
X0036650Y0116328D02*
X0037400Y0117079D01*
X0037400Y0118580D01*
X0036650Y0119331D01*
X0033647Y0119331D01*
X0032896Y0118580D01*
X0032896Y0117079D01*
X0033647Y0116328D01*
X0034398Y0116328D01*
X0035148Y0117079D01*
X0035148Y0119331D01*
X0035271Y0123940D02*
X0035271Y0126192D01*
X0034521Y0126942D01*
X0033020Y0126942D01*
X0032269Y0126192D01*
X0032269Y0123940D01*
X0036773Y0123940D01*
X0035271Y0125441D02*
X0036773Y0126942D01*
X0036022Y0128544D02*
X0036773Y0129294D01*
X0036773Y0130796D01*
X0036022Y0131546D01*
X0035271Y0131546D01*
X0034521Y0130796D01*
X0034521Y0130045D01*
X0034521Y0130796D02*
X0033770Y0131546D01*
X0033020Y0131546D01*
X0032269Y0130796D01*
X0032269Y0129294D01*
X0033020Y0128544D01*
X0034442Y0135215D02*
X0033692Y0135966D01*
X0033692Y0137467D01*
X0034442Y0138218D01*
X0035944Y0139819D02*
X0035944Y0142071D01*
X0036694Y0142822D01*
X0037445Y0142822D01*
X0038196Y0142071D01*
X0038196Y0140570D01*
X0037445Y0139819D01*
X0035944Y0139819D01*
X0034442Y0141321D01*
X0033692Y0142822D01*
X0037445Y0138218D02*
X0038196Y0137467D01*
X0038196Y0135966D01*
X0037445Y0135215D01*
X0034442Y0135215D01*
X0035271Y0147562D02*
X0035271Y0149814D01*
X0034521Y0150564D01*
X0033020Y0150564D01*
X0032269Y0149814D01*
X0032269Y0147562D01*
X0036773Y0147562D01*
X0035271Y0149063D02*
X0036773Y0150564D01*
X0034521Y0152166D02*
X0034521Y0155168D01*
X0036773Y0154418D02*
X0032269Y0154418D01*
X0034521Y0152166D01*
X0033852Y0161396D02*
X0033101Y0162147D01*
X0033101Y0163648D01*
X0033852Y0164399D01*
X0033101Y0166000D02*
X0033101Y0169003D01*
X0033852Y0169003D01*
X0036854Y0166000D01*
X0037605Y0166000D01*
X0036854Y0164399D02*
X0037605Y0163648D01*
X0037605Y0162147D01*
X0036854Y0161396D01*
X0033852Y0161396D01*
X0033647Y0114727D02*
X0032896Y0113976D01*
X0032896Y0112475D01*
X0033647Y0111724D01*
X0033541Y0056031D02*
X0032974Y0056031D01*
X0032407Y0055464D01*
X0032407Y0054330D01*
X0032974Y0053763D01*
X0033541Y0056031D02*
X0035810Y0053763D01*
X0035810Y0056031D01*
X0035810Y0036031D02*
X0035810Y0033763D01*
X0035810Y0034897D02*
X0032407Y0034897D01*
X0033541Y0033763D01*
X0128737Y0045107D02*
X0128737Y0047076D01*
X0128737Y0045107D02*
X0130705Y0045107D01*
X0133658Y0049044D02*
X0135627Y0049044D01*
X0138579Y0045107D02*
X0140548Y0045107D01*
X0140548Y0047076D01*
X0147405Y0055042D02*
X0147405Y0056543D01*
X0147405Y0055793D02*
X0151909Y0055793D01*
X0151909Y0056543D02*
X0151909Y0055042D01*
X0151158Y0058111D02*
X0151909Y0058862D01*
X0151909Y0060363D01*
X0151158Y0061114D01*
X0151909Y0062715D02*
X0151909Y0065718D01*
X0151909Y0064217D02*
X0147405Y0064217D01*
X0148906Y0062715D01*
X0148156Y0061114D02*
X0147405Y0060363D01*
X0147405Y0058862D01*
X0148156Y0058111D01*
X0151158Y0058111D01*
X0138936Y0056794D02*
X0135933Y0056794D01*
X0137435Y0056794D02*
X0137435Y0061298D01*
X0135933Y0059797D01*
X0134332Y0060547D02*
X0134332Y0057545D01*
X0133581Y0056794D01*
X0132080Y0056794D01*
X0131329Y0057545D01*
X0131329Y0060547D01*
X0132080Y0061298D01*
X0133581Y0061298D01*
X0134332Y0060547D01*
X0132831Y0058295D02*
X0134332Y0056794D01*
X0149731Y0072645D02*
X0149731Y0074897D01*
X0150482Y0075648D01*
X0151983Y0075648D01*
X0152734Y0074897D01*
X0152734Y0072645D01*
X0154235Y0072645D02*
X0149731Y0072645D01*
X0152734Y0074147D02*
X0154235Y0075648D01*
X0153484Y0077249D02*
X0152734Y0077249D01*
X0151983Y0078000D01*
X0151983Y0079501D01*
X0152734Y0080252D01*
X0153484Y0080252D01*
X0154235Y0079501D01*
X0154235Y0078000D01*
X0153484Y0077249D01*
X0151983Y0078000D02*
X0151232Y0077249D01*
X0150482Y0077249D01*
X0149731Y0078000D01*
X0149731Y0079501D01*
X0150482Y0080252D01*
X0151232Y0080252D01*
X0151983Y0079501D01*
X0169416Y0080252D02*
X0169416Y0077249D01*
X0170167Y0075648D02*
X0171668Y0075648D01*
X0172419Y0074897D01*
X0172419Y0072645D01*
X0173920Y0072645D02*
X0169416Y0072645D01*
X0169416Y0074897D01*
X0170167Y0075648D01*
X0172419Y0074147D02*
X0173920Y0075648D01*
X0173920Y0077249D02*
X0173169Y0077249D01*
X0170167Y0080252D01*
X0169416Y0080252D01*
X0140685Y0103507D02*
X0140685Y0108011D01*
X0138433Y0105759D01*
X0141436Y0105759D01*
X0136832Y0107260D02*
X0136081Y0108011D01*
X0134580Y0108011D01*
X0133829Y0107260D01*
X0133829Y0104257D01*
X0134580Y0103507D01*
X0136081Y0103507D01*
X0136832Y0104257D01*
X0170167Y0142210D02*
X0169416Y0142960D01*
X0169416Y0144462D01*
X0170167Y0145212D01*
X0173169Y0142210D01*
X0173920Y0142960D01*
X0173920Y0144462D01*
X0173169Y0145212D01*
X0170167Y0145212D01*
X0170167Y0142210D02*
X0173169Y0142210D01*
X0211819Y0066306D02*
X0215222Y0066306D01*
X0215222Y0065172D02*
X0215222Y0067440D01*
X0212953Y0065172D02*
X0211819Y0066306D01*
X0212386Y0047440D02*
X0211819Y0046873D01*
X0211819Y0045739D01*
X0212386Y0045172D01*
X0212386Y0047440D02*
X0212953Y0047440D01*
X0215222Y0045172D01*
X0215222Y0047440D01*
X0152951Y0022885D02*
X0152951Y0019882D01*
X0152951Y0021384D02*
X0148448Y0021384D01*
X0149949Y0019882D01*
X0149198Y0018281D02*
X0148448Y0017530D01*
X0148448Y0015278D01*
X0152951Y0015278D01*
X0152951Y0017530D01*
X0152201Y0018281D01*
X0149198Y0018281D01*
X0144392Y0023433D02*
X0139889Y0023433D01*
X0139889Y0025685D01*
X0140639Y0026435D01*
X0142140Y0026435D01*
X0142891Y0025685D01*
X0142891Y0023433D01*
X0142891Y0024934D02*
X0144392Y0026435D01*
X0143642Y0028037D02*
X0144392Y0028787D01*
X0144392Y0030289D01*
X0143642Y0031039D01*
X0140639Y0031039D01*
X0139889Y0030289D01*
X0139889Y0028787D01*
X0140639Y0028037D01*
X0141390Y0028037D01*
X0142140Y0028787D01*
X0142140Y0031039D01*
D13*
X0138973Y0037127D02*
X0138973Y0017654D01*
X0130312Y0017654D01*
X0130312Y0037127D01*
X0138973Y0037127D01*
X0140154Y0066867D02*
X0140154Y0086339D01*
X0148816Y0086339D01*
X0148816Y0066867D01*
X0140154Y0066867D01*
X0133068Y0066867D02*
X0124406Y0066867D01*
X0124406Y0086339D01*
X0133068Y0086339D01*
X0133068Y0066867D01*
X0159839Y0066867D02*
X0159839Y0086339D01*
X0168501Y0086339D01*
X0168501Y0066867D01*
X0159839Y0066867D01*
X0159839Y0092457D02*
X0168501Y0092457D01*
X0168501Y0111930D01*
X0159839Y0111930D01*
X0159839Y0092457D01*
X0144379Y0094387D02*
X0144379Y0102127D01*
X0128843Y0102127D01*
X0128843Y0094387D01*
X0144379Y0094387D01*
X0124694Y0094387D02*
X0124694Y0102127D01*
X0109158Y0102127D01*
X0109158Y0094387D01*
X0124694Y0094387D01*
X0105009Y0094387D02*
X0105009Y0102127D01*
X0089473Y0102127D01*
X0089473Y0094387D01*
X0105009Y0094387D01*
X0079918Y0066654D02*
X0079918Y0047182D01*
X0071257Y0047182D01*
X0071257Y0066654D01*
X0079918Y0066654D01*
X0057764Y0076209D02*
X0057764Y0084871D01*
X0038292Y0084871D01*
X0038292Y0076209D01*
X0057764Y0076209D01*
X0055796Y0088481D02*
X0055796Y0096221D01*
X0040260Y0096221D01*
X0040260Y0088481D01*
X0055796Y0088481D01*
X0057764Y0099831D02*
X0057764Y0108493D01*
X0038292Y0108493D01*
X0038292Y0099831D01*
X0057764Y0099831D01*
X0055796Y0112103D02*
X0055796Y0119843D01*
X0040260Y0119843D01*
X0040260Y0112103D01*
X0055796Y0112103D01*
X0057764Y0123454D02*
X0057764Y0132115D01*
X0038292Y0132115D01*
X0038292Y0123454D01*
X0057764Y0123454D01*
X0055796Y0135725D02*
X0055796Y0143465D01*
X0040260Y0143465D01*
X0040260Y0135725D01*
X0055796Y0135725D01*
X0057764Y0147076D02*
X0057764Y0155737D01*
X0038292Y0155737D01*
X0038292Y0147076D01*
X0057764Y0147076D01*
X0055796Y0159347D02*
X0055796Y0167087D01*
X0040260Y0167087D01*
X0040260Y0159347D01*
X0055796Y0159347D01*
X0077835Y0159154D02*
X0104835Y0159154D01*
X0104835Y0162154D02*
X0077835Y0162154D01*
X0077702Y0162156D01*
X0077570Y0162161D01*
X0077438Y0162170D01*
X0077305Y0162182D01*
X0077174Y0162198D01*
X0077042Y0162217D01*
X0076912Y0162240D01*
X0076782Y0162266D01*
X0076652Y0162296D01*
X0076524Y0162329D01*
X0076396Y0162365D01*
X0076270Y0162405D01*
X0076144Y0162448D01*
X0076020Y0162495D01*
X0075897Y0162545D01*
X0075776Y0162598D01*
X0075656Y0162654D01*
X0077835Y0159154D02*
X0077641Y0159156D01*
X0077446Y0159163D01*
X0077252Y0159175D01*
X0077058Y0159192D01*
X0076864Y0159213D01*
X0076671Y0159239D01*
X0076479Y0159270D01*
X0076288Y0159305D01*
X0076097Y0159345D01*
X0075908Y0159390D01*
X0075719Y0159439D01*
X0075532Y0159493D01*
X0075346Y0159551D01*
X0075162Y0159614D01*
X0074979Y0159681D01*
X0074798Y0159753D01*
X0074619Y0159829D01*
X0074442Y0159909D01*
X0074267Y0159994D01*
X0074093Y0160083D01*
X0073922Y0160176D01*
X0073754Y0160273D01*
X0073588Y0160375D01*
X0073424Y0160480D01*
X0073263Y0160589D01*
X0073104Y0160703D01*
X0072949Y0160820D01*
X0072796Y0160940D01*
X0072646Y0161065D01*
X0072500Y0161193D01*
X0072356Y0161324D01*
X0072216Y0161459D01*
X0072079Y0161598D01*
X0071946Y0161740D01*
X0071816Y0161884D01*
X0071689Y0162032D01*
X0071566Y0162184D01*
X0071447Y0162338D01*
X0071332Y0162494D01*
X0071221Y0162654D01*
X0075656Y0171654D02*
X0075776Y0171710D01*
X0075897Y0171763D01*
X0076020Y0171813D01*
X0076144Y0171860D01*
X0076270Y0171903D01*
X0076396Y0171943D01*
X0076524Y0171979D01*
X0076652Y0172012D01*
X0076782Y0172042D01*
X0076912Y0172068D01*
X0077042Y0172091D01*
X0077174Y0172110D01*
X0077305Y0172126D01*
X0077438Y0172138D01*
X0077570Y0172147D01*
X0077702Y0172152D01*
X0077835Y0172154D01*
X0104835Y0172154D01*
X0104835Y0175154D02*
X0077835Y0175154D01*
X0077623Y0181040D02*
X0085363Y0181040D01*
X0085363Y0196576D01*
X0077623Y0196576D01*
X0077623Y0181040D01*
X0077836Y0175154D02*
X0077641Y0175152D01*
X0077447Y0175145D01*
X0077252Y0175133D01*
X0077058Y0175116D01*
X0076865Y0175095D01*
X0076672Y0175069D01*
X0076480Y0175038D01*
X0076288Y0175003D01*
X0076098Y0174963D01*
X0075908Y0174918D01*
X0075720Y0174869D01*
X0075533Y0174815D01*
X0075347Y0174757D01*
X0075163Y0174694D01*
X0074980Y0174627D01*
X0074799Y0174555D01*
X0074620Y0174479D01*
X0074443Y0174399D01*
X0074267Y0174314D01*
X0074094Y0174225D01*
X0073923Y0174132D01*
X0073755Y0174035D01*
X0073588Y0173933D01*
X0073425Y0173828D01*
X0073264Y0173718D01*
X0073105Y0173605D01*
X0072950Y0173488D01*
X0072797Y0173367D01*
X0072647Y0173243D01*
X0072501Y0173115D01*
X0072357Y0172983D01*
X0072217Y0172848D01*
X0072080Y0172710D01*
X0071947Y0172568D01*
X0071817Y0172423D01*
X0071690Y0172275D01*
X0071567Y0172124D01*
X0071448Y0171970D01*
X0071333Y0171813D01*
X0071221Y0171654D01*
X0086835Y0167154D02*
X0088835Y0167154D01*
X0093835Y0167154D02*
X0095835Y0167154D01*
X0104835Y0159154D02*
X0105030Y0159156D01*
X0105225Y0159163D01*
X0105419Y0159175D01*
X0105613Y0159192D01*
X0105806Y0159213D01*
X0105999Y0159239D01*
X0106192Y0159270D01*
X0106383Y0159305D01*
X0106574Y0159345D01*
X0106763Y0159390D01*
X0106951Y0159439D01*
X0107139Y0159493D01*
X0107324Y0159551D01*
X0107509Y0159614D01*
X0107691Y0159681D01*
X0107872Y0159753D01*
X0108051Y0159829D01*
X0108229Y0159909D01*
X0108404Y0159994D01*
X0108577Y0160083D01*
X0108748Y0160176D01*
X0108917Y0160274D01*
X0109083Y0160375D01*
X0109247Y0160480D01*
X0109408Y0160590D01*
X0109566Y0160703D01*
X0109722Y0160820D01*
X0109874Y0160941D01*
X0110024Y0161065D01*
X0110171Y0161193D01*
X0110314Y0161325D01*
X0110454Y0161460D01*
X0110591Y0161598D01*
X0110725Y0161740D01*
X0110855Y0161885D01*
X0110981Y0162033D01*
X0111104Y0162184D01*
X0111223Y0162338D01*
X0111338Y0162495D01*
X0111450Y0162654D01*
X0111449Y0171654D02*
X0111338Y0171814D01*
X0111223Y0171970D01*
X0111104Y0172124D01*
X0110981Y0172276D01*
X0110854Y0172424D01*
X0110724Y0172568D01*
X0110591Y0172710D01*
X0110454Y0172849D01*
X0110314Y0172984D01*
X0110170Y0173115D01*
X0110024Y0173243D01*
X0109874Y0173368D01*
X0109721Y0173488D01*
X0109566Y0173605D01*
X0109407Y0173719D01*
X0109246Y0173828D01*
X0109082Y0173933D01*
X0108916Y0174035D01*
X0108748Y0174132D01*
X0108577Y0174225D01*
X0108403Y0174314D01*
X0108228Y0174399D01*
X0108051Y0174479D01*
X0107872Y0174555D01*
X0107691Y0174627D01*
X0107508Y0174694D01*
X0107324Y0174757D01*
X0107138Y0174815D01*
X0106951Y0174869D01*
X0106762Y0174918D01*
X0106573Y0174963D01*
X0106382Y0175003D01*
X0106191Y0175038D01*
X0105999Y0175069D01*
X0105806Y0175095D01*
X0105612Y0175116D01*
X0105418Y0175133D01*
X0105224Y0175145D01*
X0105029Y0175152D01*
X0104835Y0175154D01*
X0105048Y0181040D02*
X0097308Y0181040D01*
X0097308Y0196576D01*
X0105048Y0196576D01*
X0105048Y0181040D01*
X0104835Y0172154D02*
X0104968Y0172152D01*
X0105100Y0172147D01*
X0105232Y0172138D01*
X0105365Y0172126D01*
X0105496Y0172110D01*
X0105628Y0172091D01*
X0105758Y0172068D01*
X0105888Y0172042D01*
X0106018Y0172012D01*
X0106146Y0171979D01*
X0106274Y0171943D01*
X0106400Y0171903D01*
X0106526Y0171860D01*
X0106650Y0171813D01*
X0106773Y0171763D01*
X0106894Y0171710D01*
X0107014Y0171654D01*
X0107014Y0162654D02*
X0106894Y0162598D01*
X0106773Y0162545D01*
X0106650Y0162495D01*
X0106526Y0162448D01*
X0106400Y0162405D01*
X0106274Y0162365D01*
X0106146Y0162329D01*
X0106018Y0162296D01*
X0105888Y0162266D01*
X0105758Y0162240D01*
X0105628Y0162217D01*
X0105496Y0162198D01*
X0105365Y0162182D01*
X0105232Y0162170D01*
X0105100Y0162161D01*
X0104968Y0162156D01*
X0104835Y0162154D01*
X0138686Y0159674D02*
X0138686Y0151013D01*
X0158158Y0151013D01*
X0158158Y0159674D01*
X0138686Y0159674D01*
X0140654Y0167221D02*
X0140654Y0174961D01*
X0156190Y0174961D01*
X0156190Y0167221D01*
X0140654Y0167221D01*
X0159839Y0149331D02*
X0168501Y0149331D01*
X0168501Y0129859D01*
X0159839Y0129859D01*
X0159839Y0149331D01*
X0079457Y0043032D02*
X0071717Y0043032D01*
X0071717Y0027497D01*
X0079457Y0027497D01*
X0079457Y0043032D01*
D14*
X0096150Y0044828D02*
X0121953Y0044828D01*
X0121952Y0021228D01*
X0096152Y0021228D02*
X0096150Y0044828D01*
X0149300Y0038107D02*
X0149300Y0052107D01*
X0175103Y0052107D01*
X0175103Y0038107D01*
X0149300Y0038107D01*
X0122851Y0117922D02*
X0095253Y0117922D01*
X0095253Y0145520D01*
X0121453Y0145520D01*
X0122851Y0144123D01*
X0122851Y0117922D01*
X0122952Y0146121D02*
X0122954Y0146170D01*
X0122960Y0146218D01*
X0122970Y0146266D01*
X0122984Y0146313D01*
X0123001Y0146359D01*
X0123022Y0146403D01*
X0123047Y0146445D01*
X0123075Y0146485D01*
X0123107Y0146523D01*
X0123141Y0146558D01*
X0123178Y0146590D01*
X0123217Y0146619D01*
X0123259Y0146645D01*
X0123303Y0146667D01*
X0123348Y0146685D01*
X0123395Y0146700D01*
X0123442Y0146711D01*
X0123491Y0146718D01*
X0123540Y0146721D01*
X0123589Y0146720D01*
X0123637Y0146715D01*
X0123686Y0146706D01*
X0123733Y0146693D01*
X0123779Y0146676D01*
X0123823Y0146656D01*
X0123866Y0146632D01*
X0123907Y0146605D01*
X0123945Y0146574D01*
X0123981Y0146541D01*
X0124013Y0146505D01*
X0124043Y0146466D01*
X0124070Y0146425D01*
X0124093Y0146381D01*
X0124112Y0146336D01*
X0124128Y0146290D01*
X0124140Y0146243D01*
X0124148Y0146194D01*
X0124152Y0146145D01*
X0124152Y0146097D01*
X0124148Y0146048D01*
X0124140Y0145999D01*
X0124128Y0145952D01*
X0124112Y0145906D01*
X0124093Y0145861D01*
X0124070Y0145817D01*
X0124043Y0145776D01*
X0124013Y0145737D01*
X0123981Y0145701D01*
X0123945Y0145668D01*
X0123907Y0145637D01*
X0123866Y0145610D01*
X0123823Y0145586D01*
X0123779Y0145566D01*
X0123733Y0145549D01*
X0123686Y0145536D01*
X0123637Y0145527D01*
X0123589Y0145522D01*
X0123540Y0145521D01*
X0123491Y0145524D01*
X0123442Y0145531D01*
X0123395Y0145542D01*
X0123348Y0145557D01*
X0123303Y0145575D01*
X0123259Y0145597D01*
X0123217Y0145623D01*
X0123178Y0145652D01*
X0123141Y0145684D01*
X0123107Y0145719D01*
X0123075Y0145757D01*
X0123047Y0145797D01*
X0123022Y0145839D01*
X0123001Y0145883D01*
X0122984Y0145929D01*
X0122970Y0145976D01*
X0122960Y0146024D01*
X0122954Y0146072D01*
X0122952Y0146121D01*
D15*
X0157641Y0176234D02*
X0157513Y0177301D01*
X0157446Y0178373D01*
X0157439Y0179448D01*
X0157493Y0180512D01*
X0157607Y0181571D01*
X0157780Y0182623D01*
X0158011Y0183663D01*
X0158300Y0184688D01*
X0158645Y0185695D01*
X0159045Y0186683D01*
X0159499Y0187646D01*
X0160005Y0188585D01*
X0160561Y0189493D01*
X0161165Y0190370D01*
X0161815Y0191214D01*
X0162510Y0192022D01*
X0163246Y0192791D01*
X0164022Y0193521D01*
X0164836Y0194208D01*
X0165686Y0194850D01*
X0166569Y0195447D01*
X0167483Y0195995D01*
X0168424Y0196493D01*
X0169392Y0196939D01*
X0170382Y0197332D01*
X0171393Y0197669D01*
X0172420Y0197950D01*
X0173462Y0198174D01*
X0174515Y0198339D01*
X0175575Y0198446D01*
X0176639Y0198495D01*
X0176918Y0198491D01*
X0176918Y0194538D01*
X0176830Y0194541D01*
X0175733Y0194483D01*
X0174644Y0194343D01*
X0173568Y0194122D01*
X0172512Y0193821D01*
X0171481Y0193443D01*
X0170480Y0192991D01*
X0169514Y0192468D01*
X0168587Y0191880D01*
X0167703Y0191229D01*
X0166864Y0190520D01*
X0166075Y0189756D01*
X0165338Y0188943D01*
X0164655Y0188082D01*
X0164030Y0187179D01*
X0163466Y0186237D01*
X0162965Y0185259D01*
X0162531Y0184250D01*
X0162167Y0183214D01*
X0161876Y0182154D01*
X0161661Y0181077D01*
X0161527Y0179987D01*
X0161474Y0178890D01*
X0161506Y0177792D01*
X0161624Y0176701D01*
X0161814Y0175654D01*
X0162075Y0174622D01*
X0162403Y0173609D01*
X0162799Y0172621D01*
X0163260Y0171662D01*
X0163783Y0170736D01*
X0164369Y0169848D01*
X0165013Y0169001D01*
X0165716Y0168202D01*
X0166473Y0167453D01*
X0167281Y0166761D01*
X0168138Y0166129D01*
X0162419Y0166129D01*
X0162592Y0165934D02*
X0168447Y0165934D01*
X0168756Y0165738D02*
X0162767Y0165738D01*
X0162744Y0165762D02*
X0163499Y0164997D01*
X0164294Y0164273D01*
X0165126Y0163593D01*
X0165993Y0162958D01*
X0166894Y0162370D01*
X0167824Y0161832D01*
X0168782Y0161345D01*
X0169766Y0160911D01*
X0170771Y0160531D01*
X0171796Y0160205D01*
X0172837Y0159937D01*
X0173891Y0159726D01*
X0174955Y0159573D01*
X0176025Y0159478D01*
X0176916Y0159447D01*
X0176917Y0159443D01*
X0176919Y0159436D01*
X0176919Y0178137D01*
X0177622Y0178120D01*
X0178661Y0178025D01*
X0179691Y0177865D01*
X0180710Y0177640D01*
X0181711Y0177349D01*
X0182690Y0176990D01*
X0183639Y0176558D01*
X0184546Y0176044D01*
X0185394Y0175437D01*
X0186151Y0174721D01*
X0186767Y0173881D01*
X0187161Y0172919D01*
X0186687Y0171995D01*
X0186118Y0171126D01*
X0185462Y0170322D01*
X0184726Y0169590D01*
X0183966Y0168981D01*
X0183149Y0168453D01*
X0182284Y0168009D01*
X0181379Y0167651D01*
X0180445Y0167380D01*
X0179490Y0167194D01*
X0178522Y0167097D01*
X0178524Y0166220D01*
X0178528Y0165342D01*
X0178535Y0164465D01*
X0178543Y0163587D01*
X0179626Y0163732D01*
X0180698Y0163948D01*
X0181752Y0164237D01*
X0182783Y0164597D01*
X0183788Y0165028D01*
X0184759Y0165529D01*
X0185693Y0166096D01*
X0186584Y0166728D01*
X0187430Y0167420D01*
X0188225Y0168170D01*
X0188967Y0168972D01*
X0189650Y0169825D01*
X0190273Y0170723D01*
X0190832Y0171662D01*
X0191323Y0172638D01*
X0191745Y0173646D01*
X0192093Y0174683D01*
X0192365Y0175741D01*
X0192559Y0176817D01*
X0192668Y0177881D01*
X0192696Y0178950D01*
X0192642Y0180018D01*
X0192510Y0181079D01*
X0192301Y0182127D01*
X0192020Y0183159D01*
X0191669Y0184169D01*
X0191250Y0185152D01*
X0190767Y0186106D01*
X0190223Y0187028D01*
X0189623Y0187912D01*
X0188967Y0188757D01*
X0188258Y0189558D01*
X0187499Y0190312D01*
X0186695Y0191015D01*
X0185846Y0191666D01*
X0184956Y0192259D01*
X0184028Y0192790D01*
X0183066Y0193257D01*
X0182074Y0193657D01*
X0181056Y0193984D01*
X0180018Y0194237D01*
X0178963Y0194415D01*
X0177898Y0194515D01*
X0176917Y0194535D01*
X0176917Y0198488D01*
X0177727Y0198478D01*
X0178814Y0198403D01*
X0179894Y0198267D01*
X0180966Y0198069D01*
X0182024Y0197811D01*
X0183066Y0197494D01*
X0184089Y0197119D01*
X0185089Y0196688D01*
X0186063Y0196202D01*
X0187009Y0195663D01*
X0187924Y0195072D01*
X0188806Y0194433D01*
X0189651Y0193746D01*
X0190458Y0193014D01*
X0191224Y0192239D01*
X0191946Y0191423D01*
X0192623Y0190570D01*
X0193252Y0189680D01*
X0193830Y0188758D01*
X0194356Y0187804D01*
X0194828Y0186823D01*
X0195243Y0185817D01*
X0195602Y0184788D01*
X0195902Y0183741D01*
X0196141Y0182678D01*
X0196319Y0181603D01*
X0196436Y0180521D01*
X0196491Y0179433D01*
X0196487Y0178366D01*
X0196423Y0177300D01*
X0196301Y0176239D01*
X0196119Y0175188D01*
X0195880Y0174147D01*
X0195582Y0173122D01*
X0195228Y0172114D01*
X0194820Y0171128D01*
X0194358Y0170165D01*
X0193846Y0169229D01*
X0193282Y0168322D01*
X0192672Y0167447D01*
X0192015Y0166606D01*
X0191314Y0165801D01*
X0190571Y0165035D01*
X0189787Y0164309D01*
X0188966Y0163627D01*
X0188109Y0162990D01*
X0187219Y0162399D01*
X0186299Y0161858D01*
X0185351Y0161367D01*
X0184377Y0160930D01*
X0183381Y0160546D01*
X0182366Y0160217D01*
X0181333Y0159945D01*
X0180287Y0159730D01*
X0179231Y0159574D01*
X0178168Y0159476D01*
X0177101Y0159436D01*
X0176917Y0159443D01*
X0176917Y0178144D01*
X0176577Y0178153D01*
X0175508Y0178069D01*
X0174450Y0177894D01*
X0173410Y0177629D01*
X0172396Y0177280D01*
X0171413Y0176852D01*
X0170463Y0176352D01*
X0169553Y0175785D01*
X0168683Y0175158D01*
X0167855Y0174475D01*
X0167073Y0173741D01*
X0166340Y0172959D01*
X0166827Y0172023D01*
X0167409Y0171143D01*
X0168079Y0170328D01*
X0168831Y0169589D01*
X0169658Y0168933D01*
X0170469Y0168411D01*
X0171328Y0167971D01*
X0172224Y0167618D01*
X0173151Y0167351D01*
X0174099Y0167173D01*
X0175059Y0167086D01*
X0175061Y0166217D01*
X0175065Y0165346D01*
X0175068Y0164476D01*
X0175069Y0163606D01*
X0174015Y0163756D01*
X0172974Y0163975D01*
X0171949Y0164265D01*
X0170949Y0164627D01*
X0169976Y0165059D01*
X0169037Y0165561D01*
X0168138Y0166129D01*
X0167873Y0166324D02*
X0162246Y0166324D01*
X0162072Y0166520D02*
X0167608Y0166520D01*
X0167343Y0166715D02*
X0161913Y0166715D01*
X0162030Y0166567D02*
X0161361Y0167408D01*
X0160738Y0168285D01*
X0160164Y0169193D01*
X0159639Y0170131D01*
X0159166Y0171097D01*
X0158748Y0172087D01*
X0158384Y0173099D01*
X0158077Y0174129D01*
X0157829Y0175175D01*
X0157641Y0176234D01*
X0157634Y0176288D02*
X0161699Y0176288D01*
X0161663Y0176483D02*
X0157611Y0176483D01*
X0157588Y0176679D02*
X0161628Y0176679D01*
X0161605Y0176874D02*
X0157564Y0176874D01*
X0157541Y0177069D02*
X0161584Y0177069D01*
X0161563Y0177265D02*
X0157517Y0177265D01*
X0157503Y0177460D02*
X0161542Y0177460D01*
X0161521Y0177655D02*
X0157491Y0177655D01*
X0157478Y0177851D02*
X0161504Y0177851D01*
X0161498Y0178046D02*
X0157466Y0178046D01*
X0157454Y0178241D02*
X0161493Y0178241D01*
X0161487Y0178437D02*
X0157445Y0178437D01*
X0157444Y0178632D02*
X0161481Y0178632D01*
X0161476Y0178827D02*
X0157443Y0178827D01*
X0157442Y0179023D02*
X0161480Y0179023D01*
X0161490Y0179218D02*
X0157440Y0179218D01*
X0157439Y0179414D02*
X0161499Y0179414D01*
X0161508Y0179609D02*
X0157447Y0179609D01*
X0157457Y0179804D02*
X0161518Y0179804D01*
X0161528Y0180000D02*
X0157467Y0180000D01*
X0157477Y0180195D02*
X0161552Y0180195D01*
X0161576Y0180390D02*
X0157487Y0180390D01*
X0157501Y0180586D02*
X0161600Y0180586D01*
X0161625Y0180781D02*
X0157522Y0180781D01*
X0157543Y0180976D02*
X0161649Y0180976D01*
X0161680Y0181172D02*
X0157564Y0181172D01*
X0157585Y0181367D02*
X0161719Y0181367D01*
X0161758Y0181563D02*
X0157606Y0181563D01*
X0157637Y0181758D02*
X0161797Y0181758D01*
X0161836Y0181953D02*
X0157670Y0181953D01*
X0157702Y0182149D02*
X0161875Y0182149D01*
X0161928Y0182344D02*
X0157734Y0182344D01*
X0157766Y0182539D02*
X0161982Y0182539D01*
X0162035Y0182735D02*
X0157805Y0182735D01*
X0157848Y0182930D02*
X0162089Y0182930D01*
X0162143Y0183125D02*
X0157892Y0183125D01*
X0157935Y0183321D02*
X0162205Y0183321D01*
X0162273Y0183516D02*
X0157979Y0183516D01*
X0158025Y0183712D02*
X0162342Y0183712D01*
X0162410Y0183907D02*
X0158080Y0183907D01*
X0158135Y0184102D02*
X0162479Y0184102D01*
X0162551Y0184298D02*
X0158190Y0184298D01*
X0158245Y0184493D02*
X0162635Y0184493D01*
X0162720Y0184688D02*
X0158300Y0184688D01*
X0158367Y0184884D02*
X0162804Y0184884D01*
X0162888Y0185079D02*
X0158434Y0185079D01*
X0158501Y0185274D02*
X0162973Y0185274D01*
X0163073Y0185470D02*
X0158568Y0185470D01*
X0158635Y0185665D02*
X0163173Y0185665D01*
X0163273Y0185861D02*
X0158712Y0185861D01*
X0158791Y0186056D02*
X0163373Y0186056D01*
X0163474Y0186251D02*
X0158870Y0186251D01*
X0158949Y0186447D02*
X0163591Y0186447D01*
X0163708Y0186642D02*
X0159029Y0186642D01*
X0159118Y0186837D02*
X0163825Y0186837D01*
X0163942Y0187033D02*
X0159210Y0187033D01*
X0159302Y0187228D02*
X0164064Y0187228D01*
X0164199Y0187423D02*
X0159394Y0187423D01*
X0159486Y0187619D02*
X0164335Y0187619D01*
X0164470Y0187814D02*
X0159590Y0187814D01*
X0159695Y0188009D02*
X0164605Y0188009D01*
X0164753Y0188205D02*
X0159801Y0188205D01*
X0159906Y0188400D02*
X0164907Y0188400D01*
X0165062Y0188596D02*
X0160012Y0188596D01*
X0160132Y0188791D02*
X0165217Y0188791D01*
X0165377Y0188986D02*
X0160251Y0188986D01*
X0160371Y0189182D02*
X0165554Y0189182D01*
X0165731Y0189377D02*
X0160490Y0189377D01*
X0160616Y0189572D02*
X0165908Y0189572D01*
X0166087Y0189768D02*
X0160750Y0189768D01*
X0160885Y0189963D02*
X0166289Y0189963D01*
X0166490Y0190158D02*
X0161019Y0190158D01*
X0161154Y0190354D02*
X0166692Y0190354D01*
X0166898Y0190549D02*
X0161303Y0190549D01*
X0161454Y0190745D02*
X0167130Y0190745D01*
X0167361Y0190940D02*
X0161604Y0190940D01*
X0161755Y0191135D02*
X0167592Y0191135D01*
X0167841Y0191331D02*
X0161916Y0191331D01*
X0162084Y0191526D02*
X0168107Y0191526D01*
X0168372Y0191721D02*
X0162252Y0191721D01*
X0162420Y0191917D02*
X0168646Y0191917D01*
X0168954Y0192112D02*
X0162596Y0192112D01*
X0162783Y0192307D02*
X0169261Y0192307D01*
X0169578Y0192503D02*
X0162970Y0192503D01*
X0163157Y0192698D02*
X0169939Y0192698D01*
X0170300Y0192894D02*
X0163355Y0192894D01*
X0163563Y0193089D02*
X0170697Y0193089D01*
X0171130Y0193284D02*
X0163771Y0193284D01*
X0163978Y0193480D02*
X0171582Y0193480D01*
X0172114Y0193675D02*
X0164205Y0193675D01*
X0164436Y0193870D02*
X0172686Y0193870D01*
X0173371Y0194066D02*
X0164668Y0194066D01*
X0164906Y0194261D02*
X0174244Y0194261D01*
X0175524Y0194456D02*
X0165165Y0194456D01*
X0165423Y0194652D02*
X0176918Y0194652D01*
X0176917Y0194652D02*
X0188503Y0194652D01*
X0188234Y0194847D02*
X0176917Y0194847D01*
X0176918Y0194847D02*
X0165682Y0194847D01*
X0165970Y0195043D02*
X0176918Y0195043D01*
X0176917Y0195043D02*
X0187964Y0195043D01*
X0187667Y0195238D02*
X0176917Y0195238D01*
X0176918Y0195238D02*
X0166260Y0195238D01*
X0166549Y0195433D02*
X0176918Y0195433D01*
X0176917Y0195433D02*
X0187364Y0195433D01*
X0187062Y0195629D02*
X0176917Y0195629D01*
X0176918Y0195629D02*
X0166872Y0195629D01*
X0167198Y0195824D02*
X0176918Y0195824D01*
X0176917Y0195824D02*
X0186726Y0195824D01*
X0186383Y0196019D02*
X0176917Y0196019D01*
X0176918Y0196019D02*
X0167529Y0196019D01*
X0167898Y0196215D02*
X0176918Y0196215D01*
X0176917Y0196215D02*
X0186037Y0196215D01*
X0185646Y0196410D02*
X0176917Y0196410D01*
X0176918Y0196410D02*
X0168268Y0196410D01*
X0168668Y0196605D02*
X0176918Y0196605D01*
X0176917Y0196605D02*
X0185254Y0196605D01*
X0184827Y0196801D02*
X0176917Y0196801D01*
X0176918Y0196801D02*
X0169092Y0196801D01*
X0169535Y0196996D02*
X0176918Y0196996D01*
X0176917Y0196996D02*
X0184374Y0196996D01*
X0183891Y0197191D02*
X0176917Y0197191D01*
X0176918Y0197191D02*
X0170028Y0197191D01*
X0170547Y0197387D02*
X0176918Y0197387D01*
X0176917Y0197387D02*
X0183358Y0197387D01*
X0182776Y0197582D02*
X0176917Y0197582D01*
X0176918Y0197582D02*
X0171132Y0197582D01*
X0171789Y0197778D02*
X0176918Y0197778D01*
X0176917Y0197778D02*
X0182135Y0197778D01*
X0181361Y0197973D02*
X0176917Y0197973D01*
X0176918Y0197973D02*
X0172526Y0197973D01*
X0173435Y0198168D02*
X0176918Y0198168D01*
X0176917Y0198168D02*
X0180428Y0198168D01*
X0179127Y0198364D02*
X0176917Y0198364D01*
X0176918Y0198364D02*
X0174756Y0198364D01*
X0178523Y0194456D02*
X0188773Y0194456D01*
X0189017Y0194261D02*
X0179877Y0194261D01*
X0180721Y0194066D02*
X0189257Y0194066D01*
X0189498Y0193870D02*
X0181409Y0193870D01*
X0182016Y0193675D02*
X0189729Y0193675D01*
X0189945Y0193480D02*
X0182513Y0193480D01*
X0182999Y0193284D02*
X0190160Y0193284D01*
X0190375Y0193089D02*
X0183413Y0193089D01*
X0183815Y0192894D02*
X0190577Y0192894D01*
X0190770Y0192698D02*
X0184189Y0192698D01*
X0184530Y0192503D02*
X0190963Y0192503D01*
X0191157Y0192307D02*
X0184871Y0192307D01*
X0185176Y0192112D02*
X0191337Y0192112D01*
X0191509Y0191917D02*
X0185469Y0191917D01*
X0185762Y0191721D02*
X0191682Y0191721D01*
X0191855Y0191526D02*
X0186028Y0191526D01*
X0186283Y0191331D02*
X0192020Y0191331D01*
X0192175Y0191135D02*
X0186538Y0191135D01*
X0186781Y0190940D02*
X0192330Y0190940D01*
X0192485Y0190745D02*
X0187004Y0190745D01*
X0187228Y0190549D02*
X0192638Y0190549D01*
X0192776Y0190354D02*
X0187452Y0190354D01*
X0187654Y0190158D02*
X0192914Y0190158D01*
X0193052Y0189963D02*
X0187850Y0189963D01*
X0188047Y0189768D02*
X0193190Y0189768D01*
X0193319Y0189572D02*
X0188243Y0189572D01*
X0188418Y0189377D02*
X0193442Y0189377D01*
X0193564Y0189182D02*
X0188591Y0189182D01*
X0188763Y0188986D02*
X0193687Y0188986D01*
X0193809Y0188791D02*
X0188936Y0188791D01*
X0189092Y0188596D02*
X0193920Y0188596D01*
X0194027Y0188400D02*
X0189243Y0188400D01*
X0189395Y0188205D02*
X0194135Y0188205D01*
X0194243Y0188009D02*
X0189547Y0188009D01*
X0189689Y0187814D02*
X0194351Y0187814D01*
X0194445Y0187619D02*
X0189822Y0187619D01*
X0189955Y0187423D02*
X0194539Y0187423D01*
X0194633Y0187228D02*
X0190087Y0187228D01*
X0190220Y0187033D02*
X0194727Y0187033D01*
X0194821Y0186837D02*
X0190336Y0186837D01*
X0190451Y0186642D02*
X0194903Y0186642D01*
X0194983Y0186447D02*
X0190566Y0186447D01*
X0190681Y0186251D02*
X0195064Y0186251D01*
X0195145Y0186056D02*
X0190792Y0186056D01*
X0190891Y0185861D02*
X0195225Y0185861D01*
X0195296Y0185665D02*
X0190990Y0185665D01*
X0191089Y0185470D02*
X0195364Y0185470D01*
X0195432Y0185274D02*
X0191188Y0185274D01*
X0191281Y0185079D02*
X0195500Y0185079D01*
X0195568Y0184884D02*
X0191364Y0184884D01*
X0191447Y0184688D02*
X0195630Y0184688D01*
X0195686Y0184493D02*
X0191530Y0184493D01*
X0191614Y0184298D02*
X0195742Y0184298D01*
X0195798Y0184102D02*
X0191692Y0184102D01*
X0191760Y0183907D02*
X0195854Y0183907D01*
X0195908Y0183712D02*
X0191828Y0183712D01*
X0191896Y0183516D02*
X0195952Y0183516D01*
X0195996Y0183321D02*
X0191964Y0183321D01*
X0192029Y0183125D02*
X0196040Y0183125D01*
X0196084Y0182930D02*
X0192082Y0182930D01*
X0192136Y0182735D02*
X0196128Y0182735D01*
X0196164Y0182539D02*
X0192189Y0182539D01*
X0192242Y0182344D02*
X0196196Y0182344D01*
X0196229Y0182149D02*
X0192295Y0182149D01*
X0192336Y0181953D02*
X0196261Y0181953D01*
X0196294Y0181758D02*
X0192375Y0181758D01*
X0192413Y0181563D02*
X0196324Y0181563D01*
X0196345Y0181367D02*
X0192452Y0181367D01*
X0192491Y0181172D02*
X0196366Y0181172D01*
X0196387Y0180976D02*
X0192522Y0180976D01*
X0192547Y0180781D02*
X0196408Y0180781D01*
X0196429Y0180586D02*
X0192571Y0180586D01*
X0192595Y0180390D02*
X0196443Y0180390D01*
X0196453Y0180195D02*
X0192620Y0180195D01*
X0192643Y0180000D02*
X0196463Y0180000D01*
X0196473Y0179804D02*
X0192653Y0179804D01*
X0192663Y0179609D02*
X0196482Y0179609D01*
X0196491Y0179414D02*
X0192672Y0179414D01*
X0192682Y0179218D02*
X0196490Y0179218D01*
X0196490Y0179023D02*
X0192692Y0179023D01*
X0192693Y0178827D02*
X0196489Y0178827D01*
X0196488Y0178632D02*
X0192688Y0178632D01*
X0192683Y0178437D02*
X0196487Y0178437D01*
X0196479Y0178241D02*
X0192678Y0178241D01*
X0192673Y0178046D02*
X0196468Y0178046D01*
X0196456Y0177851D02*
X0192665Y0177851D01*
X0192645Y0177655D02*
X0196444Y0177655D01*
X0196433Y0177460D02*
X0192625Y0177460D01*
X0192605Y0177265D02*
X0196419Y0177265D01*
X0196396Y0177069D02*
X0192585Y0177069D01*
X0192565Y0176874D02*
X0196374Y0176874D01*
X0196351Y0176679D02*
X0192534Y0176679D01*
X0192499Y0176483D02*
X0196329Y0176483D01*
X0196306Y0176288D02*
X0192464Y0176288D01*
X0192429Y0176092D02*
X0196275Y0176092D01*
X0196241Y0175897D02*
X0192393Y0175897D01*
X0192355Y0175702D02*
X0196208Y0175702D01*
X0196174Y0175506D02*
X0192305Y0175506D01*
X0192255Y0175311D02*
X0196140Y0175311D01*
X0196102Y0175116D02*
X0192204Y0175116D01*
X0192154Y0174920D02*
X0196057Y0174920D01*
X0196012Y0174725D02*
X0192104Y0174725D01*
X0192041Y0174530D02*
X0195967Y0174530D01*
X0195923Y0174334D02*
X0191976Y0174334D01*
X0191910Y0174139D02*
X0195877Y0174139D01*
X0195820Y0173943D02*
X0191844Y0173943D01*
X0191779Y0173748D02*
X0195764Y0173748D01*
X0195707Y0173553D02*
X0191705Y0173553D01*
X0191624Y0173357D02*
X0195650Y0173357D01*
X0195594Y0173162D02*
X0191542Y0173162D01*
X0191461Y0172967D02*
X0195527Y0172967D01*
X0195459Y0172771D02*
X0191379Y0172771D01*
X0191292Y0172576D02*
X0195390Y0172576D01*
X0195322Y0172381D02*
X0191194Y0172381D01*
X0191095Y0172185D02*
X0195253Y0172185D01*
X0195177Y0171990D02*
X0190997Y0171990D01*
X0190898Y0171794D02*
X0195096Y0171794D01*
X0195015Y0171599D02*
X0190794Y0171599D01*
X0190678Y0171404D02*
X0194934Y0171404D01*
X0194854Y0171208D02*
X0190562Y0171208D01*
X0190446Y0171013D02*
X0194765Y0171013D01*
X0194671Y0170818D02*
X0190329Y0170818D01*
X0190203Y0170622D02*
X0194578Y0170622D01*
X0194484Y0170427D02*
X0190068Y0170427D01*
X0189932Y0170232D02*
X0194390Y0170232D01*
X0194288Y0170036D02*
X0189797Y0170036D01*
X0189661Y0169841D02*
X0194181Y0169841D01*
X0194074Y0169645D02*
X0189506Y0169645D01*
X0189350Y0169450D02*
X0193967Y0169450D01*
X0193860Y0169255D02*
X0189193Y0169255D01*
X0189036Y0169059D02*
X0193740Y0169059D01*
X0193619Y0168864D02*
X0188866Y0168864D01*
X0188686Y0168669D02*
X0193498Y0168669D01*
X0193376Y0168473D02*
X0188505Y0168473D01*
X0188325Y0168278D02*
X0193252Y0168278D01*
X0193115Y0168083D02*
X0188132Y0168083D01*
X0187925Y0167887D02*
X0192979Y0167887D01*
X0192843Y0167692D02*
X0187718Y0167692D01*
X0187511Y0167497D02*
X0192706Y0167497D01*
X0192558Y0167301D02*
X0187284Y0167301D01*
X0187046Y0167106D02*
X0192405Y0167106D01*
X0192253Y0166910D02*
X0186807Y0166910D01*
X0186566Y0166715D02*
X0192100Y0166715D01*
X0191940Y0166520D02*
X0186290Y0166520D01*
X0186014Y0166324D02*
X0191770Y0166324D01*
X0191599Y0166129D02*
X0185739Y0166129D01*
X0185425Y0165934D02*
X0191429Y0165934D01*
X0191253Y0165738D02*
X0185104Y0165738D01*
X0184782Y0165543D02*
X0191063Y0165543D01*
X0190874Y0165348D02*
X0184407Y0165348D01*
X0184028Y0165152D02*
X0190684Y0165152D01*
X0190486Y0164957D02*
X0183621Y0164957D01*
X0183166Y0164761D02*
X0190275Y0164761D01*
X0190064Y0164566D02*
X0182695Y0164566D01*
X0182135Y0164371D02*
X0189853Y0164371D01*
X0189625Y0164175D02*
X0181528Y0164175D01*
X0180815Y0163980D02*
X0189390Y0163980D01*
X0189155Y0163785D02*
X0179888Y0163785D01*
X0178557Y0163589D02*
X0188915Y0163589D01*
X0188652Y0163394D02*
X0176919Y0163394D01*
X0176917Y0163394D02*
X0165398Y0163394D01*
X0165665Y0163199D02*
X0176917Y0163199D01*
X0176919Y0163199D02*
X0188389Y0163199D01*
X0188127Y0163003D02*
X0176919Y0163003D01*
X0176917Y0163003D02*
X0165932Y0163003D01*
X0166224Y0162808D02*
X0176917Y0162808D01*
X0176919Y0162808D02*
X0187835Y0162808D01*
X0187541Y0162612D02*
X0176919Y0162612D01*
X0176917Y0162612D02*
X0166523Y0162612D01*
X0166822Y0162417D02*
X0176917Y0162417D01*
X0176919Y0162417D02*
X0187247Y0162417D01*
X0186918Y0162222D02*
X0176919Y0162222D01*
X0176917Y0162222D02*
X0167151Y0162222D01*
X0167489Y0162026D02*
X0176917Y0162026D01*
X0176919Y0162026D02*
X0186586Y0162026D01*
X0186247Y0161831D02*
X0176919Y0161831D01*
X0176917Y0161831D02*
X0167827Y0161831D01*
X0168211Y0161636D02*
X0176917Y0161636D01*
X0176919Y0161636D02*
X0185870Y0161636D01*
X0185492Y0161440D02*
X0176919Y0161440D01*
X0176917Y0161440D02*
X0168595Y0161440D01*
X0169009Y0161245D02*
X0176917Y0161245D01*
X0176919Y0161245D02*
X0185079Y0161245D01*
X0184644Y0161050D02*
X0176919Y0161050D01*
X0176917Y0161050D02*
X0169452Y0161050D01*
X0169915Y0160854D02*
X0176917Y0160854D01*
X0176919Y0160854D02*
X0184182Y0160854D01*
X0183674Y0160659D02*
X0176919Y0160659D01*
X0176917Y0160659D02*
X0170432Y0160659D01*
X0170982Y0160463D02*
X0176917Y0160463D01*
X0176919Y0160463D02*
X0183126Y0160463D01*
X0182522Y0160268D02*
X0176919Y0160268D01*
X0176917Y0160268D02*
X0171598Y0160268D01*
X0172311Y0160073D02*
X0176917Y0160073D01*
X0176919Y0160073D02*
X0181817Y0160073D01*
X0181003Y0159877D02*
X0176919Y0159877D01*
X0176917Y0159877D02*
X0173136Y0159877D01*
X0174195Y0159682D02*
X0176917Y0159682D01*
X0176919Y0159682D02*
X0179961Y0159682D01*
X0178288Y0159487D02*
X0176919Y0159487D01*
X0176917Y0159487D02*
X0175925Y0159487D01*
X0176917Y0163589D02*
X0165131Y0163589D01*
X0164891Y0163785D02*
X0173880Y0163785D01*
X0172957Y0163980D02*
X0164652Y0163980D01*
X0164413Y0164175D02*
X0172267Y0164175D01*
X0171658Y0164371D02*
X0164186Y0164371D01*
X0163972Y0164566D02*
X0171117Y0164566D01*
X0170646Y0164761D02*
X0163758Y0164761D01*
X0163543Y0164957D02*
X0170206Y0164957D01*
X0169802Y0165152D02*
X0163346Y0165152D01*
X0163153Y0165348D02*
X0169436Y0165348D01*
X0169070Y0165543D02*
X0162960Y0165543D01*
X0162744Y0165762D02*
X0162030Y0166567D01*
X0161757Y0166910D02*
X0167107Y0166910D01*
X0166879Y0167106D02*
X0161602Y0167106D01*
X0161446Y0167301D02*
X0166651Y0167301D01*
X0166429Y0167497D02*
X0161299Y0167497D01*
X0161160Y0167692D02*
X0166232Y0167692D01*
X0166034Y0167887D02*
X0161021Y0167887D01*
X0160882Y0168083D02*
X0165836Y0168083D01*
X0165649Y0168278D02*
X0160743Y0168278D01*
X0160619Y0168473D02*
X0165477Y0168473D01*
X0165305Y0168669D02*
X0160496Y0168669D01*
X0160372Y0168864D02*
X0165134Y0168864D01*
X0164969Y0169059D02*
X0160249Y0169059D01*
X0160130Y0169255D02*
X0164820Y0169255D01*
X0164671Y0169450D02*
X0160020Y0169450D01*
X0159911Y0169645D02*
X0164523Y0169645D01*
X0164374Y0169841D02*
X0159802Y0169841D01*
X0159692Y0170036D02*
X0164244Y0170036D01*
X0164116Y0170232D02*
X0159590Y0170232D01*
X0159494Y0170427D02*
X0163987Y0170427D01*
X0163858Y0170622D02*
X0159399Y0170622D01*
X0159303Y0170818D02*
X0163737Y0170818D01*
X0163627Y0171013D02*
X0159207Y0171013D01*
X0159119Y0171208D02*
X0163516Y0171208D01*
X0163406Y0171404D02*
X0159037Y0171404D01*
X0158954Y0171599D02*
X0163295Y0171599D01*
X0163196Y0171794D02*
X0158871Y0171794D01*
X0158789Y0171990D02*
X0163102Y0171990D01*
X0163008Y0172185D02*
X0158712Y0172185D01*
X0158642Y0172381D02*
X0162914Y0172381D01*
X0162821Y0172576D02*
X0158572Y0172576D01*
X0158501Y0172771D02*
X0162739Y0172771D01*
X0162660Y0172967D02*
X0158431Y0172967D01*
X0158365Y0173162D02*
X0162582Y0173162D01*
X0162504Y0173357D02*
X0158307Y0173357D01*
X0158249Y0173553D02*
X0162426Y0173553D01*
X0162358Y0173748D02*
X0158191Y0173748D01*
X0158133Y0173943D02*
X0162295Y0173943D01*
X0162231Y0174139D02*
X0158075Y0174139D01*
X0158029Y0174334D02*
X0162168Y0174334D01*
X0162105Y0174530D02*
X0157982Y0174530D01*
X0157936Y0174725D02*
X0162049Y0174725D01*
X0161999Y0174920D02*
X0157890Y0174920D01*
X0157843Y0175116D02*
X0161950Y0175116D01*
X0161901Y0175311D02*
X0157805Y0175311D01*
X0157770Y0175506D02*
X0161852Y0175506D01*
X0161806Y0175702D02*
X0157736Y0175702D01*
X0157701Y0175897D02*
X0161770Y0175897D01*
X0161734Y0176092D02*
X0157666Y0176092D01*
X0165281Y0176874D02*
X0167562Y0176874D01*
X0167310Y0176679D02*
X0165300Y0176679D01*
X0165320Y0176483D02*
X0167058Y0176483D01*
X0167033Y0176463D02*
X0167848Y0177095D01*
X0168701Y0177675D01*
X0169588Y0178201D01*
X0170508Y0178668D01*
X0171456Y0179074D01*
X0172429Y0179416D01*
X0173423Y0179690D01*
X0174434Y0179895D01*
X0175457Y0180029D01*
X0176487Y0180091D01*
X0177158Y0180086D01*
X0177159Y0180086D01*
X0177160Y0180086D01*
X0177160Y0190756D01*
X0178018Y0190747D01*
X0179050Y0190637D01*
X0180068Y0190440D01*
X0181067Y0190160D01*
X0182038Y0189794D01*
X0182972Y0189341D01*
X0183857Y0188800D01*
X0184684Y0188174D01*
X0185488Y0187422D01*
X0186206Y0186590D01*
X0186836Y0185687D01*
X0187373Y0184727D01*
X0187817Y0183720D01*
X0188170Y0182677D01*
X0188432Y0181608D01*
X0188607Y0180521D01*
X0188698Y0179424D01*
X0188705Y0178324D01*
X0188634Y0177226D01*
X0188486Y0176136D01*
X0188264Y0175058D01*
X0187488Y0175837D01*
X0186657Y0176556D01*
X0185780Y0177217D01*
X0184860Y0177820D01*
X0183903Y0178362D01*
X0182911Y0178836D01*
X0181888Y0179240D01*
X0180839Y0179570D01*
X0179769Y0179821D01*
X0178683Y0179992D01*
X0177587Y0180083D01*
X0177159Y0180086D01*
X0177159Y0190756D01*
X0176926Y0190758D01*
X0175837Y0190670D01*
X0174760Y0190492D01*
X0173702Y0190225D01*
X0172670Y0189868D01*
X0171676Y0189418D01*
X0170729Y0188877D01*
X0169840Y0188246D01*
X0169051Y0187563D01*
X0168329Y0186810D01*
X0167679Y0185994D01*
X0167103Y0185125D01*
X0166604Y0184209D01*
X0166182Y0183255D01*
X0165838Y0182271D01*
X0165571Y0181262D01*
X0165380Y0180237D01*
X0165266Y0179200D01*
X0165225Y0178157D01*
X0165257Y0177114D01*
X0165361Y0176075D01*
X0165535Y0175047D01*
X0166259Y0175781D01*
X0167033Y0176463D01*
X0166834Y0176288D02*
X0165339Y0176288D01*
X0165359Y0176092D02*
X0166612Y0176092D01*
X0166391Y0175897D02*
X0165391Y0175897D01*
X0165424Y0175702D02*
X0166181Y0175702D01*
X0165988Y0175506D02*
X0165457Y0175506D01*
X0165490Y0175311D02*
X0165795Y0175311D01*
X0165603Y0175116D02*
X0165523Y0175116D01*
X0165261Y0177069D02*
X0167814Y0177069D01*
X0168097Y0177265D02*
X0165252Y0177265D01*
X0165246Y0177460D02*
X0168384Y0177460D01*
X0168672Y0177655D02*
X0165240Y0177655D01*
X0165234Y0177851D02*
X0168997Y0177851D01*
X0169327Y0178046D02*
X0165228Y0178046D01*
X0165228Y0178241D02*
X0169668Y0178241D01*
X0170052Y0178437D02*
X0165236Y0178437D01*
X0165244Y0178632D02*
X0170437Y0178632D01*
X0170880Y0178827D02*
X0165251Y0178827D01*
X0165259Y0179023D02*
X0171336Y0179023D01*
X0171867Y0179218D02*
X0165268Y0179218D01*
X0165290Y0179414D02*
X0172423Y0179414D01*
X0173129Y0179609D02*
X0165311Y0179609D01*
X0165333Y0179804D02*
X0173986Y0179804D01*
X0175236Y0180000D02*
X0165354Y0180000D01*
X0165376Y0180195D02*
X0177159Y0180195D01*
X0177160Y0180195D02*
X0188634Y0180195D01*
X0188618Y0180390D02*
X0177160Y0180390D01*
X0177159Y0180390D02*
X0165409Y0180390D01*
X0165445Y0180586D02*
X0177159Y0180586D01*
X0177160Y0180586D02*
X0188597Y0180586D01*
X0188565Y0180781D02*
X0177160Y0180781D01*
X0177159Y0180781D02*
X0165482Y0180781D01*
X0165518Y0180976D02*
X0177159Y0180976D01*
X0177160Y0180976D02*
X0188534Y0180976D01*
X0188502Y0181172D02*
X0177160Y0181172D01*
X0177159Y0181172D02*
X0165554Y0181172D01*
X0165599Y0181367D02*
X0177159Y0181367D01*
X0177160Y0181367D02*
X0188471Y0181367D01*
X0188439Y0181563D02*
X0177160Y0181563D01*
X0177159Y0181563D02*
X0165651Y0181563D01*
X0165702Y0181758D02*
X0177159Y0181758D01*
X0177160Y0181758D02*
X0188395Y0181758D01*
X0188347Y0181953D02*
X0177160Y0181953D01*
X0177159Y0181953D02*
X0165754Y0181953D01*
X0165806Y0182149D02*
X0177159Y0182149D01*
X0177160Y0182149D02*
X0188299Y0182149D01*
X0188251Y0182344D02*
X0177160Y0182344D01*
X0177159Y0182344D02*
X0165864Y0182344D01*
X0165932Y0182539D02*
X0177159Y0182539D01*
X0177160Y0182539D02*
X0188204Y0182539D01*
X0188150Y0182735D02*
X0177160Y0182735D01*
X0177159Y0182735D02*
X0166000Y0182735D01*
X0166068Y0182930D02*
X0177159Y0182930D01*
X0177160Y0182930D02*
X0188084Y0182930D01*
X0188018Y0183125D02*
X0177160Y0183125D01*
X0177159Y0183125D02*
X0166137Y0183125D01*
X0166211Y0183321D02*
X0177159Y0183321D01*
X0177160Y0183321D02*
X0187952Y0183321D01*
X0187886Y0183516D02*
X0177160Y0183516D01*
X0177159Y0183516D02*
X0166298Y0183516D01*
X0166384Y0183712D02*
X0177159Y0183712D01*
X0177160Y0183712D02*
X0187820Y0183712D01*
X0187735Y0183907D02*
X0177160Y0183907D01*
X0177159Y0183907D02*
X0166471Y0183907D01*
X0166557Y0184102D02*
X0177159Y0184102D01*
X0177160Y0184102D02*
X0187648Y0184102D01*
X0187562Y0184298D02*
X0177160Y0184298D01*
X0177159Y0184298D02*
X0166653Y0184298D01*
X0166759Y0184493D02*
X0177159Y0184493D01*
X0177160Y0184493D02*
X0187476Y0184493D01*
X0187390Y0184688D02*
X0177160Y0184688D01*
X0177159Y0184688D02*
X0166866Y0184688D01*
X0166972Y0184884D02*
X0177159Y0184884D01*
X0177160Y0184884D02*
X0187285Y0184884D01*
X0187176Y0185079D02*
X0177160Y0185079D01*
X0177159Y0185079D02*
X0167079Y0185079D01*
X0167203Y0185274D02*
X0177159Y0185274D01*
X0177160Y0185274D02*
X0187066Y0185274D01*
X0186957Y0185470D02*
X0177160Y0185470D01*
X0177159Y0185470D02*
X0167332Y0185470D01*
X0167461Y0185665D02*
X0177159Y0185665D01*
X0177160Y0185665D02*
X0186848Y0185665D01*
X0186715Y0185861D02*
X0177160Y0185861D01*
X0177159Y0185861D02*
X0167590Y0185861D01*
X0167728Y0186056D02*
X0177159Y0186056D01*
X0177160Y0186056D02*
X0186579Y0186056D01*
X0186442Y0186251D02*
X0177160Y0186251D01*
X0177159Y0186251D02*
X0167884Y0186251D01*
X0168039Y0186447D02*
X0177159Y0186447D01*
X0177160Y0186447D02*
X0186306Y0186447D01*
X0186161Y0186642D02*
X0177160Y0186642D01*
X0177159Y0186642D02*
X0168195Y0186642D01*
X0168355Y0186837D02*
X0177159Y0186837D01*
X0177160Y0186837D02*
X0185993Y0186837D01*
X0185824Y0187033D02*
X0177160Y0187033D01*
X0177159Y0187033D02*
X0168543Y0187033D01*
X0168730Y0187228D02*
X0177159Y0187228D01*
X0177160Y0187228D02*
X0185655Y0187228D01*
X0185486Y0187423D02*
X0177160Y0187423D01*
X0177159Y0187423D02*
X0168917Y0187423D01*
X0169116Y0187619D02*
X0177159Y0187619D01*
X0177160Y0187619D02*
X0185277Y0187619D01*
X0185068Y0187814D02*
X0177160Y0187814D01*
X0177159Y0187814D02*
X0169341Y0187814D01*
X0169567Y0188009D02*
X0177159Y0188009D01*
X0177160Y0188009D02*
X0184860Y0188009D01*
X0184643Y0188205D02*
X0177160Y0188205D01*
X0177159Y0188205D02*
X0169793Y0188205D01*
X0170057Y0188400D02*
X0177159Y0188400D01*
X0177160Y0188400D02*
X0184385Y0188400D01*
X0184127Y0188596D02*
X0177160Y0188596D01*
X0177159Y0188596D02*
X0170333Y0188596D01*
X0170608Y0188791D02*
X0177159Y0188791D01*
X0177160Y0188791D02*
X0183869Y0188791D01*
X0183553Y0188986D02*
X0177160Y0188986D01*
X0177159Y0188986D02*
X0170920Y0188986D01*
X0171262Y0189182D02*
X0177159Y0189182D01*
X0177160Y0189182D02*
X0183233Y0189182D01*
X0182898Y0189377D02*
X0177160Y0189377D01*
X0177159Y0189377D02*
X0171604Y0189377D01*
X0172016Y0189572D02*
X0177159Y0189572D01*
X0177160Y0189572D02*
X0182496Y0189572D01*
X0182093Y0189768D02*
X0177160Y0189768D01*
X0177159Y0189768D02*
X0172448Y0189768D01*
X0172945Y0189963D02*
X0177159Y0189963D01*
X0177160Y0189963D02*
X0181590Y0189963D01*
X0181072Y0190158D02*
X0177160Y0190158D01*
X0177159Y0190158D02*
X0173509Y0190158D01*
X0174212Y0190354D02*
X0177159Y0190354D01*
X0177160Y0190354D02*
X0180377Y0190354D01*
X0179503Y0190549D02*
X0177160Y0190549D01*
X0177159Y0190549D02*
X0175107Y0190549D01*
X0176762Y0190745D02*
X0177159Y0190745D01*
X0177160Y0190745D02*
X0178039Y0190745D01*
X0178591Y0180000D02*
X0188650Y0180000D01*
X0188666Y0179804D02*
X0179841Y0179804D01*
X0180673Y0179609D02*
X0188682Y0179609D01*
X0188698Y0179414D02*
X0181337Y0179414D01*
X0181944Y0179218D02*
X0188699Y0179218D01*
X0188700Y0179023D02*
X0182438Y0179023D01*
X0182929Y0178827D02*
X0188702Y0178827D01*
X0188703Y0178632D02*
X0183338Y0178632D01*
X0183746Y0178437D02*
X0188705Y0178437D01*
X0188700Y0178241D02*
X0184116Y0178241D01*
X0184462Y0178046D02*
X0188687Y0178046D01*
X0188674Y0177851D02*
X0184807Y0177851D01*
X0185112Y0177655D02*
X0188662Y0177655D01*
X0188649Y0177460D02*
X0185410Y0177460D01*
X0185708Y0177265D02*
X0188636Y0177265D01*
X0188612Y0177069D02*
X0185976Y0177069D01*
X0186236Y0176874D02*
X0188586Y0176874D01*
X0188559Y0176679D02*
X0186495Y0176679D01*
X0186742Y0176483D02*
X0188533Y0176483D01*
X0188507Y0176288D02*
X0186967Y0176288D01*
X0187193Y0176092D02*
X0188477Y0176092D01*
X0188437Y0175897D02*
X0187419Y0175897D01*
X0187623Y0175702D02*
X0188397Y0175702D01*
X0188357Y0175506D02*
X0187818Y0175506D01*
X0188012Y0175311D02*
X0188316Y0175311D01*
X0188276Y0175116D02*
X0188207Y0175116D01*
X0186722Y0173943D02*
X0176919Y0173943D01*
X0176917Y0173943D02*
X0167288Y0173943D01*
X0167080Y0173748D02*
X0176917Y0173748D01*
X0176919Y0173748D02*
X0186822Y0173748D01*
X0186902Y0173553D02*
X0176919Y0173553D01*
X0176917Y0173553D02*
X0166896Y0173553D01*
X0166713Y0173357D02*
X0176917Y0173357D01*
X0176919Y0173357D02*
X0186982Y0173357D01*
X0187062Y0173162D02*
X0176919Y0173162D01*
X0176917Y0173162D02*
X0166530Y0173162D01*
X0166347Y0172967D02*
X0176917Y0172967D01*
X0176919Y0172967D02*
X0187141Y0172967D01*
X0187085Y0172771D02*
X0176919Y0172771D01*
X0176917Y0172771D02*
X0166437Y0172771D01*
X0166539Y0172576D02*
X0176917Y0172576D01*
X0176919Y0172576D02*
X0186985Y0172576D01*
X0186885Y0172381D02*
X0176919Y0172381D01*
X0176917Y0172381D02*
X0166640Y0172381D01*
X0166742Y0172185D02*
X0176917Y0172185D01*
X0176919Y0172185D02*
X0186784Y0172185D01*
X0186683Y0171990D02*
X0176919Y0171990D01*
X0176917Y0171990D02*
X0166849Y0171990D01*
X0166978Y0171794D02*
X0176917Y0171794D01*
X0176919Y0171794D02*
X0186556Y0171794D01*
X0186428Y0171599D02*
X0176919Y0171599D01*
X0176917Y0171599D02*
X0167107Y0171599D01*
X0167236Y0171404D02*
X0176917Y0171404D01*
X0176919Y0171404D02*
X0186300Y0171404D01*
X0186172Y0171208D02*
X0176919Y0171208D01*
X0176917Y0171208D02*
X0167366Y0171208D01*
X0167516Y0171013D02*
X0176917Y0171013D01*
X0176919Y0171013D02*
X0186026Y0171013D01*
X0185866Y0170818D02*
X0176919Y0170818D01*
X0176917Y0170818D02*
X0167677Y0170818D01*
X0167837Y0170622D02*
X0176917Y0170622D01*
X0176919Y0170622D02*
X0185707Y0170622D01*
X0185548Y0170427D02*
X0176919Y0170427D01*
X0176917Y0170427D02*
X0167998Y0170427D01*
X0168177Y0170232D02*
X0176917Y0170232D01*
X0176919Y0170232D02*
X0185372Y0170232D01*
X0185175Y0170036D02*
X0176919Y0170036D01*
X0176917Y0170036D02*
X0168376Y0170036D01*
X0168575Y0169841D02*
X0176917Y0169841D01*
X0176919Y0169841D02*
X0184978Y0169841D01*
X0184782Y0169645D02*
X0176919Y0169645D01*
X0176917Y0169645D02*
X0168773Y0169645D01*
X0169006Y0169450D02*
X0176917Y0169450D01*
X0176919Y0169450D02*
X0184552Y0169450D01*
X0184308Y0169255D02*
X0176919Y0169255D01*
X0176917Y0169255D02*
X0169252Y0169255D01*
X0169498Y0169059D02*
X0176917Y0169059D01*
X0176919Y0169059D02*
X0184064Y0169059D01*
X0183785Y0168864D02*
X0176919Y0168864D01*
X0176917Y0168864D02*
X0169765Y0168864D01*
X0170069Y0168669D02*
X0176917Y0168669D01*
X0176919Y0168669D02*
X0183483Y0168669D01*
X0183181Y0168473D02*
X0176919Y0168473D01*
X0176917Y0168473D02*
X0170373Y0168473D01*
X0170729Y0168278D02*
X0176917Y0168278D01*
X0176919Y0168278D02*
X0182808Y0168278D01*
X0182427Y0168083D02*
X0176919Y0168083D01*
X0176917Y0168083D02*
X0171111Y0168083D01*
X0171541Y0167887D02*
X0176917Y0167887D01*
X0176919Y0167887D02*
X0181977Y0167887D01*
X0181483Y0167692D02*
X0176919Y0167692D01*
X0176917Y0167692D02*
X0172036Y0167692D01*
X0172645Y0167497D02*
X0176917Y0167497D01*
X0176919Y0167497D02*
X0180848Y0167497D01*
X0180041Y0167301D02*
X0176919Y0167301D01*
X0176917Y0167301D02*
X0173417Y0167301D01*
X0174844Y0167106D02*
X0176917Y0167106D01*
X0176919Y0167106D02*
X0178606Y0167106D01*
X0178522Y0166910D02*
X0176919Y0166910D01*
X0176917Y0166910D02*
X0175060Y0166910D01*
X0175060Y0166715D02*
X0176917Y0166715D01*
X0176919Y0166715D02*
X0178523Y0166715D01*
X0178523Y0166520D02*
X0176919Y0166520D01*
X0176917Y0166520D02*
X0175061Y0166520D01*
X0175061Y0166324D02*
X0176917Y0166324D01*
X0176919Y0166324D02*
X0178524Y0166324D01*
X0178524Y0166129D02*
X0176919Y0166129D01*
X0176917Y0166129D02*
X0175062Y0166129D01*
X0175063Y0165934D02*
X0176917Y0165934D01*
X0176919Y0165934D02*
X0178525Y0165934D01*
X0178526Y0165738D02*
X0176919Y0165738D01*
X0176917Y0165738D02*
X0175063Y0165738D01*
X0175064Y0165543D02*
X0176917Y0165543D01*
X0176919Y0165543D02*
X0178527Y0165543D01*
X0178528Y0165348D02*
X0176919Y0165348D01*
X0176917Y0165348D02*
X0175065Y0165348D01*
X0175065Y0165152D02*
X0176917Y0165152D01*
X0176919Y0165152D02*
X0178530Y0165152D01*
X0178531Y0164957D02*
X0176919Y0164957D01*
X0176917Y0164957D02*
X0175066Y0164957D01*
X0175067Y0164761D02*
X0176917Y0164761D01*
X0176919Y0164761D02*
X0178533Y0164761D01*
X0178534Y0164566D02*
X0176919Y0164566D01*
X0176917Y0164566D02*
X0175068Y0164566D01*
X0175068Y0164371D02*
X0176917Y0164371D01*
X0176919Y0164371D02*
X0178536Y0164371D01*
X0178538Y0164175D02*
X0176919Y0164175D01*
X0176917Y0164175D02*
X0175068Y0164175D01*
X0175069Y0163980D02*
X0176917Y0163980D01*
X0176919Y0163980D02*
X0178539Y0163980D01*
X0178541Y0163785D02*
X0176919Y0163785D01*
X0176917Y0163785D02*
X0175069Y0163785D01*
X0176919Y0163589D02*
X0178543Y0163589D01*
X0176919Y0174139D02*
X0186578Y0174139D01*
X0186435Y0174334D02*
X0176919Y0174334D01*
X0176917Y0174334D02*
X0167705Y0174334D01*
X0167496Y0174139D02*
X0176917Y0174139D01*
X0176919Y0174530D02*
X0186292Y0174530D01*
X0186147Y0174725D02*
X0176919Y0174725D01*
X0176917Y0174725D02*
X0168158Y0174725D01*
X0168395Y0174920D02*
X0176917Y0174920D01*
X0176919Y0174920D02*
X0185941Y0174920D01*
X0185734Y0175116D02*
X0176919Y0175116D01*
X0176917Y0175116D02*
X0168632Y0175116D01*
X0168896Y0175311D02*
X0176917Y0175311D01*
X0176919Y0175311D02*
X0185527Y0175311D01*
X0185297Y0175506D02*
X0176919Y0175506D01*
X0176917Y0175506D02*
X0169166Y0175506D01*
X0169437Y0175702D02*
X0176917Y0175702D01*
X0176919Y0175702D02*
X0185024Y0175702D01*
X0184751Y0175897D02*
X0176919Y0175897D01*
X0176917Y0175897D02*
X0169733Y0175897D01*
X0170047Y0176092D02*
X0176917Y0176092D01*
X0176919Y0176092D02*
X0184461Y0176092D01*
X0184116Y0176288D02*
X0176919Y0176288D01*
X0176917Y0176288D02*
X0170361Y0176288D01*
X0170713Y0176483D02*
X0176917Y0176483D01*
X0176919Y0176483D02*
X0183771Y0176483D01*
X0183374Y0176679D02*
X0176919Y0176679D01*
X0176917Y0176679D02*
X0171083Y0176679D01*
X0171463Y0176874D02*
X0176917Y0176874D01*
X0176919Y0176874D02*
X0182945Y0176874D01*
X0182474Y0177069D02*
X0176919Y0177069D01*
X0176917Y0177069D02*
X0171912Y0177069D01*
X0172361Y0177265D02*
X0176917Y0177265D01*
X0176919Y0177265D02*
X0181942Y0177265D01*
X0181330Y0177460D02*
X0176919Y0177460D01*
X0176917Y0177460D02*
X0172919Y0177460D01*
X0173512Y0177655D02*
X0176917Y0177655D01*
X0176919Y0177655D02*
X0180642Y0177655D01*
X0179757Y0177851D02*
X0176919Y0177851D01*
X0176917Y0177851D02*
X0174280Y0177851D01*
X0175368Y0178046D02*
X0176917Y0178046D01*
X0176919Y0178046D02*
X0178431Y0178046D01*
X0176917Y0174530D02*
X0167921Y0174530D01*
D16*
X0164170Y0122272D03*
D17*
X0201572Y0051013D03*
X0046060Y0051013D03*
D18*
X0058658Y0022469D02*
X0076768Y0022469D01*
X0068698Y0020501D02*
X0068698Y0014792D01*
X0064564Y0017548D01*
X0068698Y0020501D01*
X0076768Y0012824D02*
X0058658Y0012824D01*
X0157083Y0012824D02*
X0175194Y0012824D01*
X0167123Y0014792D02*
X0162989Y0017548D01*
X0167123Y0020501D01*
X0167123Y0014792D01*
X0175194Y0022469D02*
X0157083Y0022469D01*
D19*
X0162792Y0017548D03*
X0064367Y0017548D03*
D20*
X0109052Y0046728D03*
D21*
X0134700Y0071928D02*
X0137770Y0071928D01*
X0138537Y0072696D01*
X0138537Y0074230D01*
X0137770Y0074998D01*
X0138537Y0076532D02*
X0138537Y0079602D01*
X0138537Y0081136D02*
X0138537Y0084205D01*
X0138537Y0082671D02*
X0133933Y0082671D01*
X0135468Y0081136D01*
X0133933Y0078067D02*
X0138537Y0078067D01*
X0135468Y0076532D02*
X0133933Y0078067D01*
X0134700Y0074998D02*
X0133933Y0074230D01*
X0133933Y0072696D01*
X0134700Y0071928D01*
M02*
