G75*
%MOIN*%
%OFA0B0*%
%FSLAX25Y25*%
%IPPOS*%
%LPD*%
%AMOC8*
5,1,8,0,0,1.08239X$1,22.5*
%
%ADD10R,0.05918X0.06706*%
%ADD11R,0.07099X0.07898*%
%ADD12OC8,0.07887*%
%ADD13R,0.20800X0.07800*%
%ADD14R,0.06706X0.05918*%
%ADD15C,0.07887*%
%ADD16R,0.02769X0.05800*%
%ADD17R,0.05800X0.02769*%
%ADD18R,0.04737X0.06312*%
%ADD19R,0.05524X0.05524*%
%ADD20R,0.06706X0.08674*%
%ADD21R,0.15761X0.08674*%
%ADD22R,0.07887X0.07099*%
%ADD23R,0.07898X0.07099*%
%ADD24C,0.09150*%
%ADD25R,0.07887X0.07493*%
%ADD26R,0.22847X0.25997*%
%ADD27R,0.05524X0.07493*%
%ADD28R,0.07099X0.09855*%
%ADD29OC8,0.05918*%
%ADD30C,0.18910*%
D10*
X0044288Y0092351D03*
X0051768Y0092351D03*
X0051768Y0115973D03*
X0044288Y0115973D03*
X0044288Y0139595D03*
X0051768Y0139595D03*
X0051768Y0163217D03*
X0044288Y0163217D03*
X0093501Y0098257D03*
X0100981Y0098257D03*
X0113186Y0098257D03*
X0120666Y0098257D03*
X0132871Y0098257D03*
X0140351Y0098257D03*
X0144682Y0171091D03*
X0152162Y0171091D03*
D11*
X0154020Y0155343D03*
X0142823Y0155343D03*
X0053627Y0151406D03*
X0042430Y0151406D03*
X0042430Y0127784D03*
X0053627Y0127784D03*
X0053627Y0104162D03*
X0042430Y0104162D03*
X0042430Y0080540D03*
X0053627Y0080540D03*
D12*
X0073619Y0078099D03*
X0073619Y0088099D03*
X0073619Y0098099D03*
X0073619Y0108099D03*
X0073619Y0118099D03*
X0073619Y0128099D03*
X0073619Y0138099D03*
X0117674Y0188808D03*
X0127674Y0188808D03*
X0137674Y0188808D03*
X0147674Y0188808D03*
X0111178Y0081603D03*
X0111178Y0071603D03*
X0101178Y0071603D03*
X0101178Y0081603D03*
X0091178Y0081603D03*
D13*
X0072335Y0167154D03*
X0110335Y0167154D03*
D14*
X0101178Y0185068D03*
X0101178Y0192548D03*
X0081493Y0192548D03*
X0081493Y0185068D03*
X0075587Y0039005D03*
X0075587Y0031524D03*
D15*
X0091178Y0071603D03*
D16*
X0098028Y0114821D03*
X0101178Y0114821D03*
X0104327Y0114821D03*
X0107477Y0114821D03*
X0110627Y0114821D03*
X0113776Y0114821D03*
X0116926Y0114821D03*
X0120075Y0114821D03*
X0120075Y0148621D03*
X0116926Y0148621D03*
X0113776Y0148621D03*
X0110627Y0148621D03*
X0107477Y0148621D03*
X0104327Y0148621D03*
X0101178Y0148621D03*
X0098028Y0148621D03*
D17*
X0092152Y0142745D03*
X0092152Y0139595D03*
X0092152Y0136446D03*
X0092152Y0133296D03*
X0092152Y0130146D03*
X0092152Y0126997D03*
X0092152Y0123847D03*
X0092152Y0120698D03*
X0125952Y0120698D03*
X0125952Y0123847D03*
X0125952Y0126997D03*
X0125952Y0130146D03*
X0125952Y0133296D03*
X0125952Y0136446D03*
X0125952Y0139595D03*
X0125952Y0142745D03*
D18*
X0130902Y0051406D03*
X0138383Y0051406D03*
X0134642Y0042745D03*
D19*
X0164170Y0117745D03*
X0164170Y0126013D03*
D20*
X0162201Y0032706D03*
X0153146Y0032706D03*
X0171257Y0032706D03*
D21*
X0162201Y0057509D03*
D22*
X0128737Y0071091D03*
X0128737Y0082115D03*
X0164170Y0134083D03*
X0164170Y0145107D03*
D23*
X0164170Y0107792D03*
X0164170Y0096595D03*
X0164170Y0082202D03*
X0164170Y0071005D03*
X0144485Y0071005D03*
X0144485Y0082202D03*
X0134642Y0032989D03*
X0134642Y0021792D03*
X0075587Y0051320D03*
X0075587Y0062517D03*
D24*
X0050235Y0060913D02*
X0041885Y0060913D01*
X0041885Y0041113D02*
X0050235Y0041113D01*
X0197397Y0041113D02*
X0205746Y0041113D01*
X0205746Y0060913D02*
X0197397Y0060913D01*
D25*
X0174209Y0017548D03*
X0158068Y0017548D03*
X0075784Y0017548D03*
X0059642Y0017548D03*
D26*
X0109052Y0026485D03*
D27*
X0118028Y0055225D03*
X0100075Y0055225D03*
D28*
X0140548Y0115383D03*
X0140548Y0140186D03*
D29*
X0152359Y0141564D03*
X0172044Y0155343D03*
X0185823Y0149438D03*
X0139564Y0163709D03*
X0124800Y0161249D03*
X0118894Y0139595D03*
X0101178Y0125816D03*
X0091335Y0114005D03*
X0089367Y0106131D03*
X0108068Y0106131D03*
X0126768Y0106131D03*
X0126768Y0114005D03*
X0152359Y0086446D03*
X0136611Y0064792D03*
X0144485Y0041170D03*
X0170075Y0045107D03*
X0183855Y0017548D03*
X0138579Y0013611D03*
X0089367Y0049044D03*
X0085430Y0043139D03*
X0065745Y0051013D03*
X0057871Y0026898D03*
D30*
X0042123Y0019517D03*
X0205509Y0019517D03*
X0205509Y0188808D03*
X0042123Y0188808D03*
M02*
